;TYPE=PLATED
;Layer: PTH_Through
;EasyEDA Pro Client v3.2.149.88089769, 2026-09-10 19:45:31
;Gerber Generator version 0.3
M48
METRIC,LZ,0000.00000
;Hole size 1 = 0.30480 METRIC
T01C0.30480
;Hole size 2 = 0.30500 METRIC
T02C0.30500
;Hole size 3 = 0.90002 METRIC
T03C0.90002
;Hole size 4 = 1.00000 METRIC
T04C1.00000
;Hole size 5 = 1.30002 METRIC
T05C1.30002
;Hole size 6 = 1.60000 METRIC
T06C1.60000
;Hole size 7 = 2.60000 METRIC
T07C2.60000
%
G05
G90
T01
X57.11711Y-29.33901
X56.10111Y-29.33901
X57.11711Y-28.57701
X56.10111Y-28.57701
T02
X82.06411Y-6.08477
X82.06411Y-4.28477
X82.042Y-7.88477
X39.624Y-19.05
X46.99Y-21.336
X97.14423Y-24.511
X100.74423Y-24.53311
X98.94423Y-24.53311
X97.14423Y-46.609
X100.74423Y-46.63111
X98.94423Y-46.63111
X74.295Y-57.64723
X74.27289Y-61.24723
X74.27289Y-59.44723
X61.675Y-13.45095
X59.541Y-13.45095
X63.809Y-13.47305
X61.675Y-17.02905
X63.809Y-17.02905
X59.541Y-17.00695
X61.675Y-6.99605
X63.809Y-6.99605
X59.541Y-6.97395
X59.18956Y-39.89484
X60.98956Y-39.89484
X57.38956Y-39.89484
X78.359Y-53.34
X37.592Y-51.23104
X44.08858Y-40.91
X45.974Y-50.39248
X36.83115Y-58.48617
X44.196Y-59.563
X29.82844Y-50.24354
X26.416Y-50.927
X36.576Y-44.14054
X31.24196Y-54.27353
X30.861Y-21.082
X28.575Y-21.082
X68.58Y-39.878
X60.16466Y-44.196
X60.833Y-44.882
X60.81465Y-35.56
X58.801Y-35.433
X58.547Y-31.72407
X61.33236Y-30.353
X62.992Y-35.179
X48.133Y-30.353
X92.71Y-20.066
X92.71Y-42.672
X38.93937Y-49.403
X60.325Y-45.593
X65.659Y-49.657
X69.723Y-44.958
X81.915Y-24.892
X83.693Y-22.987
X66.421Y-50.165
X70.88479Y-44.93921
X70.485Y-47.117
X82.296Y-45.466
X77.851Y-18.034
X77.724Y-13.462
X88.265Y-19.558
X54.61Y-44.958
X54.991Y-44.196
X45.847Y-34.29
X50.48098Y-36.32556
X25.146Y-47.752
X60.198Y-54.229
X62.484Y-53.594
X63.627Y-43.053
X14.732Y-22.733
X18.288Y-57.277
X5.715Y-35.306
X14.148Y-40.767
X7.239Y-35.179
X66.294Y-46.609
X88.28613Y-42.1055
X78.90528Y-48.80872
X48.387Y-31.496
X54.483Y-41.656
X61.849Y-32.639
X33.147Y-22.733
X24.003Y-6.9215
X25.883Y-6.9215
X27.763Y-6.9215
X61.671Y-19.812
X63.805Y-19.812
X61.671Y-22.479
X63.805Y-22.479
X24.028Y-8.4455
X25.908Y-8.4455
X27.788Y-8.4455
X33.68Y-8.509
X33.655Y-6.985
T03
X8.731Y-22.479
X4.731Y-22.479
X6.7376Y-22.479
T04
X14.55699Y-11.38434G85X14.55699Y-13.88434
X8.55701Y-13.78433G85X8.55701Y-11.48436
X12.70674Y-17.33766G85X10.40675Y-17.33766
T05
X2.63093Y-22.479
X10.83107Y-22.479
T06
X81.71655Y-13.44905
X90.09855Y-27.53004
X91.74955Y-48.34204
X70.54055Y-51.12004
X86.48703Y-13.33503
X85.72503Y-27.55903
X91.87655Y-54.61003
X64.96055Y-56.19204
X33.59155Y-28.81605
X78.03355Y-36.18205
T07
X7.62Y-3.40715
X7.62Y-60.40715
X98.806Y-60.40715
X98.806Y-3.40715
M30