G04 Layer: TopSolderMaskLayer*
G04 EasyEDA Pro v3.2.149.88089769, 2026-09-10 19:45:31*
G04 Gerber Generator version 0.3*
G04 Scale: 100 percent, Rotated: No, Reflected: No*
G04 Dimensions in millimeters*
G04 Leading zeros omitted, absolute positions, 4 integers and 5 decimals*
G04 Generated by one-click*
G04 Object Configs: Pad,Via,Track,Text,Image,Dimension,BoardOutline,BoardCutout,CopperFilled,SolidRegion,FPCStiffener,Line,PlaneZone,ComponentProperty,ComponentSilkscreen,TearDrop*
G04 Layer Configs: 1,2,3,4,5,6,7,8,9,10,11,13,14,56*
G04 Copper Areas: 0*
%FSLAX45Y45*%
%MOMM*%
%AMRoundRect*1,1,$1,$2,$3*1,1,$1,$4,$5*1,1,$1,0-$2,0-$3*1,1,$1,0-$4,0-$5*20,1,$1,$2,$3,$4,$5,0*20,1,$1,$4,$5,0-$2,0-$3,0*20,1,$1,0-$2,0-$3,0-$4,0-$5,0*20,1,$1,0-$4,0-$5,$2,$3,0*4,1,4,$2,$3,$4,$5,0-$2,0-$3,0-$4,0-$5,$2,$3,0*%
%ADD10C,3.6016*%
%ADD11RoundRect,0.1016X-0.9995X-1.37542X-0.9995X1.37542*%
%ADD12RoundRect,0.1016X-0.9995X-1.37538X-0.9995X1.37538*%
%ADD13C,1.80086*%
%ADD14RoundRect,0.1016X-0.54992X-1.24965X-0.54992X1.24965*%
%ADD15RoundRect,0.1093X-1.24965X0.54988X1.24965X0.54988*%
%ADD16RoundRect,0.1016X-1.24965X0.54988X1.24965X0.54988*%
%ADD17RoundRect,0.1016X-0.4X-0.4X-0.4X0.4*%
%ADD18RoundRect,0.1016X-0.9X-0.75X-0.9X0.75*%
%ADD19O,0.46561X1.7636*%
%ADD20RoundRect,0.1016X-2.5X0.8X2.5X0.8*%
%ADD21RoundRect,0.1016X-0.4X0.45X0.4X0.45*%
%ADD22RoundRect,0.1016X-0.74251X0.86399X0.74251X0.86399*%
%ADD23RoundRect,0.1016X-0.86399X-0.74251X-0.86399X0.74251*%
%ADD24RoundRect,0.1016X-0.45X-0.4X-0.45X0.4*%
%ADD25RoundRect,0.1016X-1.0X1.0X1.0X1.0*%
%ADD26RoundRect,0.1016X-0.432X-0.40324X-0.432X0.40324*%
%ADD27RoundRect,0.1016X-0.40324X0.432X0.40324X0.432*%
%ADD28O,1.83309X0.4446*%
%ADD29RoundRect,0.1016X-1.255X-1.15X-1.255X1.15*%
%ADD30RoundRect,0.10201X-0.15X0.65X0.15X0.65*%
%ADD31RoundRect,0.1016X-0.32501X-0.5X-0.32501X0.5*%
%ADD32RoundRect,0.1016X-0.85051X-0.60376X-0.85051X0.60376*%
%ADD33RoundRect,0.1016X-1.0X-1.0X-1.0X1.0*%
%ADD34RoundRect,0.1016X-0.70334X1.7496X0.70334X1.7496*%
%ADD35RoundRect,0.1016X-1.7496X-0.70334X-1.7496X0.70334*%
%ADD36RoundRect,0.1016X-1.2X-1.02375X-1.2X1.02375*%
%ADD37O,0.4446X1.83309*%
%ADD38RoundRect,0.1016X-2.4925X1.6X2.4925X1.6*%
%ADD39O,1.70155X1.40157*%
%ADD40O,2.1016X3.10159*%
%ADD41C,2.70002*%
%ADD42O,1.9016X4.30159*%
%ADD43O,1.9016X4.10159*%
%ADD44O,4.10159X1.9016*%
G75*


G04 Pad Start*
G36*
G01X8509373Y-324075D02*
G01X8815295Y-324075D01*
G02X8820375Y-329155I0J-5080D01*
G01X8820375Y-893304D01*
G02X8815295Y-898384I-5080J0D01*
G01X8509373Y-898384D01*
G02X8504293Y-893304I0J5080D01*
G01X8504293Y-329155D01*
G02X8509373Y-324075I5080J0D01*
G37*
G36*
G01X8053451Y-324075D02*
G01X8359373Y-324075D01*
G02X8364453Y-329155I0J-5080D01*
G01X8364453Y-893304D01*
G02X8359373Y-898384I-5080J0D01*
G01X8053451Y-898384D01*
G02X8048371Y-893304I0J5080D01*
G01X8048371Y-329155D01*
G02X8053451Y-324075I5080J0D01*
G37*
G36*
G01X7597529Y-324075D02*
G01X7903451Y-324075D01*
G02X7908531Y-329155I0J-5080D01*
G01X7908531Y-893304D01*
G02X7903451Y-898384I-5080J0D01*
G01X7597529Y-898384D01*
G02X7592449Y-893304I0J5080D01*
G01X7592449Y-329155D01*
G02X7597529Y-324075I5080J0D01*
G37*
G36*
G01X7141606Y-324075D02*
G01X7447528Y-324075D01*
G02X7452608Y-329155I0J-5080D01*
G01X7452608Y-893304D01*
G02X7447528Y-898384I-5080J0D01*
G01X7141606Y-898384D01*
G02X7136526Y-893304I0J5080D01*
G01X7136526Y-329155D01*
G02X7141606Y-324075I5080J0D01*
G37*
G36*
G01X10178825Y-1844429D02*
G01X10178825Y-2150351D01*
G02X10173745Y-2155431I-5080J0D01*
G01X9609596Y-2155431D01*
G02X9604516Y-2150351I0J5080D01*
G01X9604516Y-1844429D01*
G02X9609596Y-1839349I5080J0D01*
G01X10173745Y-1839349D01*
G02X10178825Y-1844429I0J-5080D01*
G37*
G36*
G01X10178825Y-2300351D02*
G01X10178825Y-2606273D01*
G02X10173745Y-2611353I-5080J0D01*
G01X9609596Y-2611353D01*
G02X9604516Y-2606273I0J5080D01*
G01X9604516Y-2300351D01*
G02X9609596Y-2295271I5080J0D01*
G01X10173745Y-2295271D01*
G02X10178825Y-2300351I0J-5080D01*
G37*
G36*
G01X10178825Y-2756273D02*
G01X10178825Y-3062195D01*
G02X10173745Y-3067275I-5080J0D01*
G01X9609596Y-3067275D01*
G02X9604516Y-3062195I0J5080D01*
G01X9604516Y-2756273D01*
G02X9609596Y-2751193I5080J0D01*
G01X10173745Y-2751193D01*
G02X10178825Y-2756273I0J-5080D01*
G37*
G36*
G01X10178825Y-1388506D02*
G01X10178825Y-1694428D01*
G02X10173745Y-1699508I-5080J0D01*
G01X9609596Y-1699508D01*
G02X9604516Y-1694428I0J5080D01*
G01X9604516Y-1388506D01*
G02X9609596Y-1383426I5080J0D01*
G01X10173745Y-1383426D01*
G02X10178825Y-1388506I0J-5080D01*
G37*
G36*
G01X10178825Y-4054229D02*
G01X10178825Y-4360151D01*
G02X10173745Y-4365231I-5080J0D01*
G01X9609596Y-4365231D01*
G02X9604516Y-4360151I0J5080D01*
G01X9604516Y-4054229D01*
G02X9609596Y-4049149I5080J0D01*
G01X10173745Y-4049149D01*
G02X10178825Y-4054229I0J-5080D01*
G37*
G36*
G01X10178825Y-4510151D02*
G01X10178825Y-4816073D01*
G02X10173745Y-4821153I-5080J0D01*
G01X9609596Y-4821153D01*
G02X9604516Y-4816073I0J5080D01*
G01X9604516Y-4510151D01*
G02X9609596Y-4505071I5080J0D01*
G01X10173745Y-4505071D01*
G02X10178825Y-4510151I0J-5080D01*
G37*
G36*
G01X10178825Y-4966073D02*
G01X10178825Y-5271995D01*
G02X10173745Y-5277075I-5080J0D01*
G01X9609596Y-5277075D01*
G02X9604516Y-5271995I0J5080D01*
G01X9604516Y-4966073D01*
G02X9609596Y-4960993I5080J0D01*
G01X10173745Y-4960993D01*
G02X10178825Y-4966073I0J-5080D01*
G37*
G36*
G01X10178825Y-3598306D02*
G01X10178825Y-3904228D01*
G02X10173745Y-3909308I-5080J0D01*
G01X9609596Y-3909308D01*
G02X9604516Y-3904228I0J5080D01*
G01X9604516Y-3598306D01*
G02X9609596Y-3593226I5080J0D01*
G01X10173745Y-3593226D01*
G02X10178825Y-3598306I0J-5080D01*
G37*
G36*
G01X8036171Y-6229125D02*
G01X7730249Y-6229125D01*
G02X7725169Y-6224045I0J5080D01*
G01X7725169Y-5659896D01*
G02X7730249Y-5654816I5080J0D01*
G01X8036171Y-5654816D01*
G02X8041251Y-5659896I0J-5080D01*
G01X8041251Y-6224045D01*
G02X8036171Y-6229125I-5080J0D01*
G37*
G36*
G01X7580249Y-6229125D02*
G01X7274327Y-6229125D01*
G02X7269247Y-6224045I0J5080D01*
G01X7269247Y-5659896D01*
G02X7274327Y-5654816I5080J0D01*
G01X7580249Y-5654816D01*
G02X7585329Y-5659896I0J-5080D01*
G01X7585329Y-6224045D01*
G02X7580249Y-6229125I-5080J0D01*
G37*
G36*
G01X7124327Y-6229125D02*
G01X6818405Y-6229125D01*
G02X6813325Y-6224045I0J5080D01*
G01X6813325Y-5659896D01*
G02X6818405Y-5654816I5080J0D01*
G01X7124327Y-5654816D01*
G02X7129407Y-5659896I0J-5080D01*
G01X7129407Y-6224045D01*
G02X7124327Y-6229125I-5080J0D01*
G37*
G36*
G01X8492094Y-6229125D02*
G01X8186172Y-6229125D01*
G02X8181092Y-6224045I0J5080D01*
G01X8181092Y-5659896D01*
G02X8186172Y-5654816I5080J0D01*
G01X8492094Y-5654816D01*
G02X8497174Y-5659896I0J-5080D01*
G01X8497174Y-6224045D01*
G02X8492094Y-6229125I-5080J0D01*
G37*
G54D10*
G01X762000Y-340715D03*
G01X762000Y-6040715D03*
G01X9880600Y-6040715D03*
G01X9880600Y-340715D03*
G54D11*
G01X322072Y-5431155D03*
G01X576072Y-5431155D03*
G01X830072Y-5431155D03*
G01X1084072Y-5431155D03*
G01X1338072Y-5431155D03*
G01X1592072Y-5431155D03*
G01X1846072Y-5431155D03*
G54D12*
G01X1846072Y-3814445D03*
G01X1592072Y-3814445D03*
G01X1338072Y-3814445D03*
G01X1084072Y-3814445D03*
G01X830072Y-3814445D03*
G01X576072Y-3814445D03*
G01X322072Y-3814445D03*
G54D13*
G01X227330Y-4752467D03*
G01X227330Y-4498467D03*
G01X481330Y-4752467D03*
G01X481330Y-4498467D03*
G54D14*
G01X1052830Y-5069967D03*
G01X862330Y-5069967D03*
G54D16*
G01X2007870Y-4244467D03*
G01X2007870Y-4053967D03*
G54D17*
G01X4850100Y-2641587D03*
G01X4700300Y-2641613D03*
G54D18*
G01X5660911Y-2895801D03*
G54D19*
G01X5758421Y-2682695D03*
G01X5693423Y-2682695D03*
G01X5628424Y-2682695D03*
G01X5563400Y-2682695D03*
G01X5758421Y-3108907D03*
G01X5693423Y-3108907D03*
G01X5628424Y-3108907D03*
G01X5563400Y-3108907D03*
G54D20*
G01X5096891Y-939800D03*
G01X6256909Y-939800D03*
G54D21*
G01X4286098Y-1714500D03*
G01X4426102Y-1714500D03*
G01X5556098Y-3403600D03*
G01X5696102Y-3403600D03*
G54D22*
G01X3956558Y-838200D03*
G01X3638042Y-838200D03*
G54D23*
G01X3086100Y-1175258D03*
G01X3086100Y-856742D03*
G54D22*
G01X5504942Y-2413000D03*
G01X5823458Y-2413000D03*
G54D24*
G01X6159500Y-2597302D03*
G01X6159500Y-2457298D03*
G54D22*
G01X5219700Y-3485642D03*
G01X4901184Y-3485642D03*
G54D25*
G01X5456898Y-1981200D03*
G01X5896902Y-1981200D03*
G54D26*
G01X3048000Y-1689964D03*
G01X3048000Y-1840636D03*
G01X2667000Y-1956664D03*
G01X2667000Y-2107336D03*
G54D27*
G01X4431436Y-1485900D03*
G01X4280764Y-1485900D03*
G54D26*
G01X5194300Y-3148736D03*
G01X5194300Y-2998064D03*
G54D27*
G01X6133236Y-2844800D03*
G01X5982564Y-2844800D03*
G01X6249264Y-4711700D03*
G01X6399936Y-4711700D03*
G01X2007464Y-457200D03*
G01X2158136Y-457200D03*
G54D26*
G01X4699000Y-2424836D03*
G01X4699000Y-2274164D03*
G54D27*
G01X4431436Y-1282700D03*
G01X4280764Y-1282700D03*
G01X4280764Y-1943100D03*
G01X4431436Y-1943100D03*
G01X3529736Y-2108200D03*
G01X3379064Y-2108200D03*
G01X2972664Y-2273300D03*
G01X3123336Y-2273300D03*
G54D28*
G01X3385034Y-1358410D03*
G01X3385034Y-1423408D03*
G01X3385034Y-1488407D03*
G01X3385034Y-1553431D03*
G01X3385034Y-1618429D03*
G01X3385034Y-1683428D03*
G01X3385034Y-1748427D03*
G01X3385034Y-1813425D03*
G01X3958185Y-1358410D03*
G01X3958185Y-1423408D03*
G01X3958185Y-1488407D03*
G01X3958185Y-1553431D03*
G01X3958185Y-1618429D03*
G01X3958185Y-1683428D03*
G01X3958185Y-1748427D03*
G01X3958185Y-1813425D03*
G54D29*
G01X3671622Y-1585917D03*
G54D17*
G01X1626900Y-457213D03*
G01X1776700Y-457187D03*
G54D30*
G01X3367113Y-5315001D03*
G01X3417100Y-5315001D03*
G01X3467087Y-5315001D03*
G01X3517100Y-5315001D03*
G01X3567113Y-5315001D03*
G01X3567087Y-4844999D03*
G01X3517100Y-4844999D03*
G01X3467113Y-4844999D03*
G01X3417100Y-4844999D03*
G01X3367088Y-4844999D03*
G54D21*
G01X6605008Y-3679067D03*
G01X6745013Y-3679067D03*
G01X6605008Y-3882267D03*
G01X6745013Y-3882267D03*
G01X5188102Y-3771900D03*
G01X5048098Y-3771900D03*
G54D24*
G01X3124200Y-5022698D03*
G01X3124200Y-5162702D03*
G01X3517900Y-4553102D03*
G01X3517900Y-4413098D03*
G01X3759200Y-4705198D03*
G01X3759200Y-4845202D03*
G01X3759200Y-5416702D03*
G01X3759200Y-5276698D03*
G01X3517900Y-5543398D03*
G01X3517900Y-5683402D03*
G54D31*
G01X4235196Y-4091000D03*
G01X4045204Y-4091000D03*
G01X4140200Y-4291000D03*
G01X4045204Y-4900600D03*
G01X4235196Y-4900600D03*
G01X4140200Y-4700600D03*
G01X4235196Y-5221300D03*
G01X4045204Y-5221300D03*
G01X4140200Y-5421300D03*
G01X4045204Y-5992800D03*
G01X4235196Y-5992800D03*
G01X4140200Y-5792800D03*
G54D27*
G01X6399936Y-4533900D03*
G01X6249264Y-4533900D03*
G01X3353664Y-3695700D03*
G01X3504336Y-3695700D03*
G01X3366364Y-3429000D03*
G01X3517036Y-3429000D03*
G01X3353664Y-3962400D03*
G01X3504336Y-3962400D03*
G01X6599674Y-4288671D03*
G01X6750347Y-4288671D03*
G01X6599674Y-4085471D03*
G01X6750347Y-4085471D03*
G54D26*
G01X2476500Y-5017364D03*
G01X2476500Y-5168036D03*
G01X2781300Y-5002936D03*
G01X2781300Y-4852264D03*
G01X4597400Y-4291736D03*
G01X4597400Y-4141064D03*
G01X4597400Y-4699864D03*
G01X4597400Y-4850536D03*
G01X4597400Y-5422036D03*
G01X4597400Y-5271364D03*
G01X4597400Y-5804764D03*
G01X4597400Y-5955436D03*
G54D27*
G01X4953864Y-4292600D03*
G01X5104536Y-4292600D03*
G01X4953864Y-4711700D03*
G01X5104536Y-4711700D03*
G01X4953864Y-5422900D03*
G01X5104536Y-5422900D03*
G01X4953864Y-5803900D03*
G01X5104536Y-5803900D03*
G01X2043836Y-2273300D03*
G01X1893164Y-2273300D03*
G54D32*
G01X2540000Y-1338021D03*
G01X2540000Y-1633779D03*
G54D21*
G01X6038698Y-3416300D03*
G01X6178702Y-3416300D03*
G54D22*
G01X7422642Y-1638300D03*
G01X7741158Y-1638300D03*
G54D21*
G01X7461098Y-1308100D03*
G01X7601102Y-1308100D03*
G54D23*
G01X9004300Y-1644142D03*
G01X9004300Y-1962658D03*
G54D24*
G01X9296400Y-1707998D03*
G01X9296400Y-1848002D03*
G54D23*
G01X9004300Y-3892042D03*
G01X9004300Y-4210558D03*
G54D24*
G01X9283700Y-3955898D03*
G01X9283700Y-4095902D03*
G54D22*
G01X8209036Y-5062377D03*
G01X7890520Y-5062377D03*
G54D21*
G01X8159902Y-5334000D03*
G01X8019898Y-5334000D03*
G54D33*
G01X7785100Y-2002498D03*
G01X7785100Y-2442502D03*
G01X8623300Y-1964398D03*
G01X8623300Y-2404402D03*
G54D25*
G01X8627402Y-4216400D03*
G01X8187398Y-4216400D03*
G01X7890802Y-4673600D03*
G01X7450798Y-4673600D03*
G54D34*
G01X6774256Y-1485900D03*
G01X7144944Y-1485900D03*
G54D35*
G01X9156700Y-1008456D03*
G01X9156700Y-1379144D03*
G01X9118600Y-3294456D03*
G01X9118600Y-3665144D03*
G54D34*
G01X8846744Y-5207000D03*
G01X8476056Y-5207000D03*
G54D26*
G01X4991100Y-2998064D03*
G01X4991100Y-3148736D03*
G01X8064500Y-2056536D03*
G01X8064500Y-1905864D03*
G54D27*
G01X8967064Y-2400300D03*
G01X9117736Y-2400300D03*
G01X8535264Y-4572000D03*
G01X8685936Y-4572000D03*
G54D26*
G01X7454900Y-4966564D03*
G01X7454900Y-5117236D03*
G54D36*
G01X2032000Y-1242390D03*
G01X2032000Y-764210D03*
G54D37*
G01X5561451Y-4276072D03*
G01X5626449Y-4276072D03*
G01X5691448Y-4276072D03*
G01X5756446Y-4276072D03*
G01X5821445Y-4276072D03*
G01X5886469Y-4276072D03*
G01X5951468Y-4276072D03*
G01X6016466Y-4276072D03*
G01X6081465Y-4276072D03*
G01X6146463Y-4276072D03*
G01X6211462Y-4276072D03*
G01X6276461Y-4276072D03*
G01X5561451Y-3702921D03*
G01X5626449Y-3702921D03*
G01X5691448Y-3702921D03*
G01X5756446Y-3702921D03*
G01X5821445Y-3702921D03*
G01X5886469Y-3702921D03*
G01X5951468Y-3702921D03*
G01X6016466Y-3702921D03*
G01X6081465Y-3702921D03*
G01X6146463Y-3702921D03*
G01X6211462Y-3702921D03*
G01X6276461Y-3702921D03*
G54D38*
G01X5918956Y-3989484D03*
G54D39*
G01X873100Y-2247900D03*
G01X473100Y-2247900D03*
G01X673760Y-2247900D03*
G54D40*
G01X263093Y-2247900D03*
G01X1083107Y-2247900D03*
G54D41*
G01X8171652Y-1344902D03*
G01X9009852Y-2753002D03*
G01X9174952Y-4834202D03*
G01X7054052Y-5112001D03*
G01X8648700Y-1333500D03*
G01X8572500Y-2755900D03*
G01X9187652Y-5461000D03*
G01X6496053Y-5619201D03*
G01X3359153Y-2881602D03*
G01X7803352Y-3618202D03*
G54D42*
G01X1455699Y-1263434D03*
G54D43*
G01X855701Y-1263434D03*
G54D44*
G01X1155675Y-1733766D03*
G04 Pad End*

M02*

