G04 Layer: TopSilkscreenLayer*
G04 EasyEDA Pro v3.2.149.88089769, 2026-09-11 15:25:01*
G04 Gerber Generator version 0.3*
G04 Scale: 100 percent, Rotated: No, Reflected: No*
G04 Dimensions in millimeters*
G04 Leading zeros omitted, absolute positions, 4 integers and 5 decimals*
G04 Generated by one-click*
G04 Object Configs: Pad,Via,Track,Text,Image,Dimension,BoardOutline,BoardCutout,CopperFilled,SolidRegion,FPCStiffener,Line,PlaneZone,ComponentProperty,ComponentSilkscreen,TearDrop*
G04 Layer Configs: 1,2,3,4,5,6,7,8,9,10,11,13,14,56*
G04 Copper Areas: 0*
%FSLAX45Y45*%
%MOMM*%
%ADD10C,0.3*%
%ADD11C,0.1524*%
%ADD12C,0.254*%
%ADD13C,0.15001*%
%ADD14C,0.15199*%
%ADD15C,0.2032*%
%ADD16C,0.2060*%
%ADD17C,0.2*%
G75*


G04 Text Start*
G54D10*
G01X1202690Y-2020570D02*
G01X1192022Y-2025904D01*
G01X1181354Y-2036572D01*
G01X1176020Y-2047240D01*
G01X1170686Y-2063242D01*
G01X1170686Y-2089658D01*
G01X1176020Y-2105660D01*
G01X1181354Y-2116328D01*
G01X1192022Y-2126996D01*
G01X1202690Y-2132330D01*
G01X1223772Y-2132330D01*
G01X1234440Y-2126996D01*
G01X1245108Y-2116328D01*
G01X1250442Y-2105660D01*
G01X1255776Y-2089658D01*
G01X1255776Y-2063242D01*
G01X1250442Y-2047240D01*
G01X1245108Y-2036572D01*
G01X1234440Y-2025904D01*
G01X1223772Y-2020570D01*
G01X1202690Y-2020570D01*
G01X1311402Y-2020570D02*
G01X1311402Y-2132330D01*
G01X1311402Y-2020570D02*
G01X1380236Y-2020570D01*
G01X1311402Y-2073656D02*
G01X1353820Y-2073656D01*
G01X1435862Y-2020570D02*
G01X1435862Y-2132330D01*
G01X1435862Y-2020570D02*
G01X1504696Y-2020570D01*
G01X1435862Y-2073656D02*
G01X1478280Y-2073656D01*
G01X6955790Y-699008D02*
G01X6945122Y-704342D01*
G01X6934454Y-715010D01*
G01X6929120Y-725678D01*
G01X6929120Y-746760D01*
G01X6934454Y-757428D01*
G01X6945122Y-768096D01*
G01X6955790Y-773430D01*
G01X6971792Y-778764D01*
G01X6998208Y-778764D01*
G01X7014210Y-773430D01*
G01X7024878Y-768096D01*
G01X7035546Y-757428D01*
G01X7040880Y-746760D01*
G01X7040880Y-725678D01*
G01X7035546Y-715010D01*
G01X7024878Y-704342D01*
G01X7014210Y-699008D01*
G01X6929120Y-643382D02*
G01X7040880Y-643382D01*
G01X6929120Y-569214D02*
G01X7040880Y-569214D01*
G01X6982206Y-643382D02*
G01X6982206Y-569214D01*
G01X6950456Y-513588D02*
G01X6945122Y-503174D01*
G01X6929120Y-487172D01*
G01X7040880Y-487172D01*
G54D11*
G01X7106920Y-947166D02*
G01X7106920Y-1012190D01*
G01X7106920Y-947166D02*
G01X7134860Y-947166D01*
G01X7144004Y-950214D01*
G01X7147052Y-953262D01*
G01X7150354Y-959612D01*
G01X7150354Y-965708D01*
G01X7147052Y-971804D01*
G01X7144004Y-974852D01*
G01X7134860Y-978154D01*
G01X7106920Y-978154D02*
G01X7134860Y-978154D01*
G01X7144004Y-981202D01*
G01X7147052Y-984250D01*
G01X7150354Y-990346D01*
G01X7150354Y-999744D01*
G01X7147052Y-1005840D01*
G01X7144004Y-1009142D01*
G01X7134860Y-1012190D01*
G01X7106920Y-1012190D01*
G01X7180580Y-947166D02*
G01X7180580Y-1012190D01*
G01X7180580Y-947166D02*
G01X7208266Y-947166D01*
G01X7217664Y-950214D01*
G01X7220712Y-953262D01*
G01X7223760Y-959612D01*
G01X7223760Y-965708D01*
G01X7220712Y-971804D01*
G01X7217664Y-974852D01*
G01X7208266Y-978154D01*
G01X7180580Y-978154D01*
G01X7202170Y-978154D02*
G01X7223760Y-1012190D01*
G01X7272528Y-947166D02*
G01X7266178Y-950214D01*
G01X7260082Y-956310D01*
G01X7257034Y-962660D01*
G01X7253986Y-971804D01*
G01X7253986Y-987298D01*
G01X7257034Y-996696D01*
G01X7260082Y-1002792D01*
G01X7266178Y-1009142D01*
G01X7272528Y-1012190D01*
G01X7284720Y-1012190D01*
G01X7291070Y-1009142D01*
G01X7297166Y-1002792D01*
G01X7300214Y-996696D01*
G01X7303516Y-987298D01*
G01X7303516Y-971804D01*
G01X7300214Y-962660D01*
G01X7297166Y-956310D01*
G01X7291070Y-950214D01*
G01X7284720Y-947166D01*
G01X7272528Y-947166D01*
G01X7333742Y-947166D02*
G01X7348982Y-1012190D01*
G01X7364476Y-947166D02*
G01X7348982Y-1012190D01*
G01X7364476Y-947166D02*
G01X7379970Y-1012190D01*
G01X7395464Y-947166D02*
G01X7379970Y-1012190D01*
G01X7425690Y-947166D02*
G01X7425690Y-1012190D01*
G01X7425690Y-947166D02*
G01X7468870Y-1012190D01*
G01X7468870Y-947166D02*
G01X7468870Y-1012190D01*
G01X7589520Y-947166D02*
G01X7605014Y-1012190D01*
G01X7620508Y-947166D02*
G01X7605014Y-1012190D01*
G01X7620508Y-947166D02*
G01X7636002Y-1012190D01*
G01X7651496Y-947166D02*
G01X7636002Y-1012190D01*
G01X7681722Y-947166D02*
G01X7681722Y-1012190D01*
G01X7724902Y-947166D02*
G01X7724902Y-1012190D01*
G01X7681722Y-978154D02*
G01X7724902Y-978154D01*
G01X7755128Y-947166D02*
G01X7755128Y-1012190D01*
G01X7806944Y-947166D02*
G01X7806944Y-1012190D01*
G01X7785354Y-947166D02*
G01X7828534Y-947166D01*
G01X7858760Y-947166D02*
G01X7858760Y-1012190D01*
G01X7858760Y-947166D02*
G01X7898892Y-947166D01*
G01X7858760Y-978154D02*
G01X7883398Y-978154D01*
G01X7858760Y-1012190D02*
G01X7898892Y-1012190D01*
G01X8084820Y-947166D02*
G01X8084820Y-1012190D01*
G01X8084820Y-947166D02*
G01X8112760Y-947166D01*
G01X8121904Y-950214D01*
G01X8124952Y-953262D01*
G01X8128254Y-959612D01*
G01X8128254Y-965708D01*
G01X8124952Y-971804D01*
G01X8121904Y-974852D01*
G01X8112760Y-978154D01*
G01X8084820Y-978154D02*
G01X8112760Y-978154D01*
G01X8121904Y-981202D01*
G01X8124952Y-984250D01*
G01X8128254Y-990346D01*
G01X8128254Y-999744D01*
G01X8124952Y-1005840D01*
G01X8121904Y-1009142D01*
G01X8112760Y-1012190D01*
G01X8084820Y-1012190D01*
G01X8158480Y-947166D02*
G01X8158480Y-1012190D01*
G01X8158480Y-1012190D02*
G01X8195564Y-1012190D01*
G01X8225790Y-947166D02*
G01X8225790Y-993648D01*
G01X8228838Y-1002792D01*
G01X8234934Y-1009142D01*
G01X8244332Y-1012190D01*
G01X8250428Y-1012190D01*
G01X8259826Y-1009142D01*
G01X8265922Y-1002792D01*
G01X8268970Y-993648D01*
G01X8268970Y-947166D01*
G01X8299196Y-947166D02*
G01X8299196Y-1012190D01*
G01X8299196Y-947166D02*
G01X8339328Y-947166D01*
G01X8299196Y-978154D02*
G01X8323834Y-978154D01*
G01X8299196Y-1012190D02*
G01X8339328Y-1012190D01*
G01X8491220Y-947166D02*
G01X8491220Y-1012190D01*
G01X8491220Y-947166D02*
G01X8519160Y-947166D01*
G01X8528304Y-950214D01*
G01X8531352Y-953262D01*
G01X8534654Y-959612D01*
G01X8534654Y-965708D01*
G01X8531352Y-971804D01*
G01X8528304Y-974852D01*
G01X8519160Y-978154D01*
G01X8491220Y-978154D02*
G01X8519160Y-978154D01*
G01X8528304Y-981202D01*
G01X8531352Y-984250D01*
G01X8534654Y-990346D01*
G01X8534654Y-999744D01*
G01X8531352Y-1005840D01*
G01X8528304Y-1009142D01*
G01X8519160Y-1012190D01*
G01X8491220Y-1012190D01*
G01X8564880Y-947166D02*
G01X8564880Y-1012190D01*
G01X8564880Y-1012190D02*
G01X8601964Y-1012190D01*
G01X8656828Y-947166D02*
G01X8632190Y-1012190D01*
G01X8656828Y-947166D02*
G01X8681720Y-1012190D01*
G01X8641334Y-990346D02*
G01X8672322Y-990346D01*
G01X8758174Y-962660D02*
G01X8755126Y-956310D01*
G01X8749030Y-950214D01*
G01X8742680Y-947166D01*
G01X8730488Y-947166D01*
G01X8724138Y-950214D01*
G01X8718042Y-956310D01*
G01X8714994Y-962660D01*
G01X8711946Y-971804D01*
G01X8711946Y-987298D01*
G01X8714994Y-996696D01*
G01X8718042Y-1002792D01*
G01X8724138Y-1009142D01*
G01X8730488Y-1012190D01*
G01X8742680Y-1012190D01*
G01X8749030Y-1009142D01*
G01X8755126Y-1002792D01*
G01X8758174Y-996696D01*
G01X8788400Y-947166D02*
G01X8788400Y-1012190D01*
G01X8831580Y-947166D02*
G01X8788400Y-990346D01*
G01X8803640Y-974852D02*
G01X8831580Y-1012190D01*
G54D10*
G01X9803892Y-1202690D02*
G01X9798558Y-1192022D01*
G01X9787890Y-1181354D01*
G01X9777222Y-1176020D01*
G01X9756140Y-1176020D01*
G01X9745472Y-1181354D01*
G01X9734804Y-1192022D01*
G01X9729470Y-1202690D01*
G01X9724136Y-1218692D01*
G01X9724136Y-1245108D01*
G01X9729470Y-1261110D01*
G01X9734804Y-1271778D01*
G01X9745472Y-1282446D01*
G01X9756140Y-1287780D01*
G01X9777222Y-1287780D01*
G01X9787890Y-1282446D01*
G01X9798558Y-1271778D01*
G01X9803892Y-1261110D01*
G01X9859518Y-1176020D02*
G01X9859518Y-1287780D01*
G01X9933686Y-1176020D02*
G01X9933686Y-1287780D01*
G01X9859518Y-1229106D02*
G01X9933686Y-1229106D01*
G01X9994392Y-1202690D02*
G01X9994392Y-1197356D01*
G01X9999726Y-1186688D01*
G01X10005060Y-1181354D01*
G01X10015728Y-1176020D01*
G01X10037064Y-1176020D01*
G01X10047732Y-1181354D01*
G01X10052812Y-1186688D01*
G01X10058146Y-1197356D01*
G01X10058146Y-1208024D01*
G01X10052812Y-1218692D01*
G01X10042398Y-1234440D01*
G01X9989312Y-1287780D01*
G01X10063480Y-1287780D01*
G54D11*
G01X9555734Y-1353820D02*
G01X9490710Y-1353820D01*
G01X9555734Y-1353820D02*
G01X9555734Y-1381760D01*
G01X9552686Y-1390904D01*
G01X9549638Y-1393952D01*
G01X9543288Y-1397254D01*
G01X9537192Y-1397254D01*
G01X9531096Y-1393952D01*
G01X9528048Y-1390904D01*
G01X9524746Y-1381760D01*
G01X9524746Y-1353820D02*
G01X9524746Y-1381760D01*
G01X9521698Y-1390904D01*
G01X9518650Y-1393952D01*
G01X9512554Y-1397254D01*
G01X9503156Y-1397254D01*
G01X9497060Y-1393952D01*
G01X9493758Y-1390904D01*
G01X9490710Y-1381760D01*
G01X9490710Y-1353820D01*
G01X9555734Y-1427480D02*
G01X9490710Y-1427480D01*
G01X9555734Y-1427480D02*
G01X9555734Y-1455166D01*
G01X9552686Y-1464564D01*
G01X9549638Y-1467612D01*
G01X9543288Y-1470660D01*
G01X9537192Y-1470660D01*
G01X9531096Y-1467612D01*
G01X9528048Y-1464564D01*
G01X9524746Y-1455166D01*
G01X9524746Y-1427480D01*
G01X9524746Y-1449070D02*
G01X9490710Y-1470660D01*
G01X9555734Y-1519428D02*
G01X9552686Y-1513078D01*
G01X9546590Y-1506982D01*
G01X9540240Y-1503934D01*
G01X9531096Y-1500886D01*
G01X9515602Y-1500886D01*
G01X9506204Y-1503934D01*
G01X9500108Y-1506982D01*
G01X9493758Y-1513078D01*
G01X9490710Y-1519428D01*
G01X9490710Y-1531620D01*
G01X9493758Y-1537970D01*
G01X9500108Y-1544066D01*
G01X9506204Y-1547114D01*
G01X9515602Y-1550416D01*
G01X9531096Y-1550416D01*
G01X9540240Y-1547114D01*
G01X9546590Y-1544066D01*
G01X9552686Y-1537970D01*
G01X9555734Y-1531620D01*
G01X9555734Y-1519428D01*
G01X9555734Y-1580642D02*
G01X9490710Y-1595882D01*
G01X9555734Y-1611376D02*
G01X9490710Y-1595882D01*
G01X9555734Y-1611376D02*
G01X9490710Y-1626870D01*
G01X9555734Y-1642364D02*
G01X9490710Y-1626870D01*
G01X9555734Y-1672590D02*
G01X9490710Y-1672590D01*
G01X9555734Y-1672590D02*
G01X9490710Y-1715770D01*
G01X9555734Y-1715770D02*
G01X9490710Y-1715770D01*
G01X9555734Y-1836420D02*
G01X9490710Y-1851914D01*
G01X9555734Y-1867408D02*
G01X9490710Y-1851914D01*
G01X9555734Y-1867408D02*
G01X9490710Y-1882902D01*
G01X9555734Y-1898396D02*
G01X9490710Y-1882902D01*
G01X9555734Y-1928622D02*
G01X9490710Y-1928622D01*
G01X9555734Y-1971802D02*
G01X9490710Y-1971802D01*
G01X9524746Y-1928622D02*
G01X9524746Y-1971802D01*
G01X9555734Y-2002028D02*
G01X9490710Y-2002028D01*
G01X9555734Y-2053844D02*
G01X9490710Y-2053844D01*
G01X9555734Y-2032254D02*
G01X9555734Y-2075434D01*
G01X9555734Y-2105660D02*
G01X9490710Y-2105660D01*
G01X9555734Y-2105660D02*
G01X9555734Y-2145792D01*
G01X9524746Y-2105660D02*
G01X9524746Y-2130298D01*
G01X9490710Y-2105660D02*
G01X9490710Y-2145792D01*
G01X9555734Y-2331720D02*
G01X9490710Y-2331720D01*
G01X9555734Y-2331720D02*
G01X9555734Y-2359660D01*
G01X9552686Y-2368804D01*
G01X9549638Y-2371852D01*
G01X9543288Y-2375154D01*
G01X9537192Y-2375154D01*
G01X9531096Y-2371852D01*
G01X9528048Y-2368804D01*
G01X9524746Y-2359660D01*
G01X9524746Y-2331720D02*
G01X9524746Y-2359660D01*
G01X9521698Y-2368804D01*
G01X9518650Y-2371852D01*
G01X9512554Y-2375154D01*
G01X9503156Y-2375154D01*
G01X9497060Y-2371852D01*
G01X9493758Y-2368804D01*
G01X9490710Y-2359660D01*
G01X9490710Y-2331720D01*
G01X9555734Y-2405380D02*
G01X9490710Y-2405380D01*
G01X9490710Y-2405380D02*
G01X9490710Y-2442464D01*
G01X9555734Y-2472690D02*
G01X9509252Y-2472690D01*
G01X9500108Y-2475738D01*
G01X9493758Y-2481834D01*
G01X9490710Y-2491232D01*
G01X9490710Y-2497328D01*
G01X9493758Y-2506726D01*
G01X9500108Y-2512822D01*
G01X9509252Y-2515870D01*
G01X9555734Y-2515870D01*
G01X9555734Y-2546096D02*
G01X9490710Y-2546096D01*
G01X9555734Y-2546096D02*
G01X9555734Y-2586228D01*
G01X9524746Y-2546096D02*
G01X9524746Y-2570734D01*
G01X9490710Y-2546096D02*
G01X9490710Y-2586228D01*
G01X9555734Y-2738120D02*
G01X9490710Y-2738120D01*
G01X9555734Y-2738120D02*
G01X9555734Y-2766060D01*
G01X9552686Y-2775204D01*
G01X9549638Y-2778252D01*
G01X9543288Y-2781554D01*
G01X9537192Y-2781554D01*
G01X9531096Y-2778252D01*
G01X9528048Y-2775204D01*
G01X9524746Y-2766060D01*
G01X9524746Y-2738120D02*
G01X9524746Y-2766060D01*
G01X9521698Y-2775204D01*
G01X9518650Y-2778252D01*
G01X9512554Y-2781554D01*
G01X9503156Y-2781554D01*
G01X9497060Y-2778252D01*
G01X9493758Y-2775204D01*
G01X9490710Y-2766060D01*
G01X9490710Y-2738120D01*
G01X9555734Y-2811780D02*
G01X9490710Y-2811780D01*
G01X9490710Y-2811780D02*
G01X9490710Y-2848864D01*
G01X9555734Y-2903728D02*
G01X9490710Y-2879090D01*
G01X9555734Y-2903728D02*
G01X9490710Y-2928620D01*
G01X9512554Y-2888234D02*
G01X9512554Y-2919222D01*
G01X9540240Y-3005074D02*
G01X9546590Y-3002026D01*
G01X9552686Y-2995930D01*
G01X9555734Y-2989580D01*
G01X9555734Y-2977388D01*
G01X9552686Y-2971038D01*
G01X9546590Y-2964942D01*
G01X9540240Y-2961894D01*
G01X9531096Y-2958846D01*
G01X9515602Y-2958846D01*
G01X9506204Y-2961894D01*
G01X9500108Y-2964942D01*
G01X9493758Y-2971038D01*
G01X9490710Y-2977388D01*
G01X9490710Y-2989580D01*
G01X9493758Y-2995930D01*
G01X9500108Y-3002026D01*
G01X9506204Y-3005074D01*
G01X9555734Y-3035300D02*
G01X9490710Y-3035300D01*
G01X9555734Y-3078480D02*
G01X9512554Y-3035300D01*
G01X9528048Y-3050540D02*
G01X9490710Y-3078480D01*
G54D10*
G01X9803892Y-3412490D02*
G01X9798558Y-3401822D01*
G01X9787890Y-3391154D01*
G01X9777222Y-3385820D01*
G01X9756140Y-3385820D01*
G01X9745472Y-3391154D01*
G01X9734804Y-3401822D01*
G01X9729470Y-3412490D01*
G01X9724136Y-3428492D01*
G01X9724136Y-3454908D01*
G01X9729470Y-3470910D01*
G01X9734804Y-3481578D01*
G01X9745472Y-3492246D01*
G01X9756140Y-3497580D01*
G01X9777222Y-3497580D01*
G01X9787890Y-3492246D01*
G01X9798558Y-3481578D01*
G01X9803892Y-3470910D01*
G01X9859518Y-3385820D02*
G01X9859518Y-3497580D01*
G01X9933686Y-3385820D02*
G01X9933686Y-3497580D01*
G01X9859518Y-3438906D02*
G01X9933686Y-3438906D01*
G01X9999726Y-3385820D02*
G01X10058146Y-3385820D01*
G01X10026396Y-3428492D01*
G01X10042398Y-3428492D01*
G01X10052812Y-3433826D01*
G01X10058146Y-3438906D01*
G01X10063480Y-3454908D01*
G01X10063480Y-3465576D01*
G01X10058146Y-3481578D01*
G01X10047732Y-3492246D01*
G01X10031730Y-3497580D01*
G01X10015728Y-3497580D01*
G01X9999726Y-3492246D01*
G01X9994392Y-3486912D01*
G01X9989312Y-3476244D01*
G54D11*
G01X9555734Y-3563620D02*
G01X9490710Y-3563620D01*
G01X9555734Y-3563620D02*
G01X9555734Y-3591560D01*
G01X9552686Y-3600704D01*
G01X9549638Y-3603752D01*
G01X9543288Y-3607054D01*
G01X9537192Y-3607054D01*
G01X9531096Y-3603752D01*
G01X9528048Y-3600704D01*
G01X9524746Y-3591560D01*
G01X9524746Y-3563620D02*
G01X9524746Y-3591560D01*
G01X9521698Y-3600704D01*
G01X9518650Y-3603752D01*
G01X9512554Y-3607054D01*
G01X9503156Y-3607054D01*
G01X9497060Y-3603752D01*
G01X9493758Y-3600704D01*
G01X9490710Y-3591560D01*
G01X9490710Y-3563620D01*
G01X9555734Y-3637280D02*
G01X9490710Y-3637280D01*
G01X9555734Y-3637280D02*
G01X9555734Y-3664966D01*
G01X9552686Y-3674364D01*
G01X9549638Y-3677412D01*
G01X9543288Y-3680460D01*
G01X9537192Y-3680460D01*
G01X9531096Y-3677412D01*
G01X9528048Y-3674364D01*
G01X9524746Y-3664966D01*
G01X9524746Y-3637280D01*
G01X9524746Y-3658870D02*
G01X9490710Y-3680460D01*
G01X9555734Y-3729228D02*
G01X9552686Y-3722878D01*
G01X9546590Y-3716782D01*
G01X9540240Y-3713734D01*
G01X9531096Y-3710686D01*
G01X9515602Y-3710686D01*
G01X9506204Y-3713734D01*
G01X9500108Y-3716782D01*
G01X9493758Y-3722878D01*
G01X9490710Y-3729228D01*
G01X9490710Y-3741420D01*
G01X9493758Y-3747770D01*
G01X9500108Y-3753866D01*
G01X9506204Y-3756914D01*
G01X9515602Y-3760216D01*
G01X9531096Y-3760216D01*
G01X9540240Y-3756914D01*
G01X9546590Y-3753866D01*
G01X9552686Y-3747770D01*
G01X9555734Y-3741420D01*
G01X9555734Y-3729228D01*
G01X9555734Y-3790442D02*
G01X9490710Y-3805682D01*
G01X9555734Y-3821176D02*
G01X9490710Y-3805682D01*
G01X9555734Y-3821176D02*
G01X9490710Y-3836670D01*
G01X9555734Y-3852164D02*
G01X9490710Y-3836670D01*
G01X9555734Y-3882390D02*
G01X9490710Y-3882390D01*
G01X9555734Y-3882390D02*
G01X9490710Y-3925570D01*
G01X9555734Y-3925570D02*
G01X9490710Y-3925570D01*
G01X9555734Y-4046220D02*
G01X9490710Y-4061714D01*
G01X9555734Y-4077208D02*
G01X9490710Y-4061714D01*
G01X9555734Y-4077208D02*
G01X9490710Y-4092702D01*
G01X9555734Y-4108196D02*
G01X9490710Y-4092702D01*
G01X9555734Y-4138422D02*
G01X9490710Y-4138422D01*
G01X9555734Y-4181602D02*
G01X9490710Y-4181602D01*
G01X9524746Y-4138422D02*
G01X9524746Y-4181602D01*
G01X9555734Y-4211828D02*
G01X9490710Y-4211828D01*
G01X9555734Y-4263644D02*
G01X9490710Y-4263644D01*
G01X9555734Y-4242054D02*
G01X9555734Y-4285234D01*
G01X9555734Y-4315460D02*
G01X9490710Y-4315460D01*
G01X9555734Y-4315460D02*
G01X9555734Y-4355592D01*
G01X9524746Y-4315460D02*
G01X9524746Y-4340098D01*
G01X9490710Y-4315460D02*
G01X9490710Y-4355592D01*
G01X9555734Y-4541520D02*
G01X9490710Y-4541520D01*
G01X9555734Y-4541520D02*
G01X9555734Y-4569460D01*
G01X9552686Y-4578604D01*
G01X9549638Y-4581652D01*
G01X9543288Y-4584954D01*
G01X9537192Y-4584954D01*
G01X9531096Y-4581652D01*
G01X9528048Y-4578604D01*
G01X9524746Y-4569460D01*
G01X9524746Y-4541520D02*
G01X9524746Y-4569460D01*
G01X9521698Y-4578604D01*
G01X9518650Y-4581652D01*
G01X9512554Y-4584954D01*
G01X9503156Y-4584954D01*
G01X9497060Y-4581652D01*
G01X9493758Y-4578604D01*
G01X9490710Y-4569460D01*
G01X9490710Y-4541520D01*
G01X9555734Y-4615180D02*
G01X9490710Y-4615180D01*
G01X9490710Y-4615180D02*
G01X9490710Y-4652264D01*
G01X9555734Y-4682490D02*
G01X9509252Y-4682490D01*
G01X9500108Y-4685538D01*
G01X9493758Y-4691634D01*
G01X9490710Y-4701032D01*
G01X9490710Y-4707128D01*
G01X9493758Y-4716526D01*
G01X9500108Y-4722622D01*
G01X9509252Y-4725670D01*
G01X9555734Y-4725670D01*
G01X9555734Y-4755896D02*
G01X9490710Y-4755896D01*
G01X9555734Y-4755896D02*
G01X9555734Y-4796028D01*
G01X9524746Y-4755896D02*
G01X9524746Y-4780534D01*
G01X9490710Y-4755896D02*
G01X9490710Y-4796028D01*
G01X9555734Y-4947920D02*
G01X9490710Y-4947920D01*
G01X9555734Y-4947920D02*
G01X9555734Y-4975860D01*
G01X9552686Y-4985004D01*
G01X9549638Y-4988052D01*
G01X9543288Y-4991354D01*
G01X9537192Y-4991354D01*
G01X9531096Y-4988052D01*
G01X9528048Y-4985004D01*
G01X9524746Y-4975860D01*
G01X9524746Y-4947920D02*
G01X9524746Y-4975860D01*
G01X9521698Y-4985004D01*
G01X9518650Y-4988052D01*
G01X9512554Y-4991354D01*
G01X9503156Y-4991354D01*
G01X9497060Y-4988052D01*
G01X9493758Y-4985004D01*
G01X9490710Y-4975860D01*
G01X9490710Y-4947920D01*
G01X9555734Y-5021580D02*
G01X9490710Y-5021580D01*
G01X9490710Y-5021580D02*
G01X9490710Y-5058664D01*
G01X9555734Y-5113528D02*
G01X9490710Y-5088890D01*
G01X9555734Y-5113528D02*
G01X9490710Y-5138420D01*
G01X9512554Y-5098034D02*
G01X9512554Y-5129022D01*
G01X9540240Y-5214874D02*
G01X9546590Y-5211826D01*
G01X9552686Y-5205730D01*
G01X9555734Y-5199380D01*
G01X9555734Y-5187188D01*
G01X9552686Y-5180838D01*
G01X9546590Y-5174742D01*
G01X9540240Y-5171694D01*
G01X9531096Y-5168646D01*
G01X9515602Y-5168646D01*
G01X9506204Y-5171694D01*
G01X9500108Y-5174742D01*
G01X9493758Y-5180838D01*
G01X9490710Y-5187188D01*
G01X9490710Y-5199380D01*
G01X9493758Y-5205730D01*
G01X9500108Y-5211826D01*
G01X9506204Y-5214874D01*
G01X9555734Y-5245100D02*
G01X9490710Y-5245100D01*
G01X9555734Y-5288280D02*
G01X9512554Y-5245100D01*
G01X9528048Y-5260340D02*
G01X9490710Y-5288280D01*
G54D10*
G01X8677910Y-5854192D02*
G01X8688578Y-5848858D01*
G01X8699246Y-5838190D01*
G01X8704580Y-5827522D01*
G01X8704580Y-5806440D01*
G01X8699246Y-5795772D01*
G01X8688578Y-5785104D01*
G01X8677910Y-5779770D01*
G01X8661908Y-5774436D01*
G01X8635492Y-5774436D01*
G01X8619490Y-5779770D01*
G01X8608822Y-5785104D01*
G01X8598154Y-5795772D01*
G01X8592820Y-5806440D01*
G01X8592820Y-5827522D01*
G01X8598154Y-5838190D01*
G01X8608822Y-5848858D01*
G01X8619490Y-5854192D01*
G01X8704580Y-5909818D02*
G01X8592820Y-5909818D01*
G01X8704580Y-5983986D02*
G01X8592820Y-5983986D01*
G01X8651494Y-5909818D02*
G01X8651494Y-5983986D01*
G01X8704580Y-6092698D02*
G01X8630158Y-6039612D01*
G01X8630158Y-6119114D01*
G01X8704580Y-6092698D02*
G01X8592820Y-6092698D01*
G54D11*
G01X8526780Y-5606034D02*
G01X8526780Y-5541010D01*
G01X8526780Y-5606034D02*
G01X8498840Y-5606034D01*
G01X8489696Y-5602986D01*
G01X8486648Y-5599938D01*
G01X8483346Y-5593588D01*
G01X8483346Y-5587492D01*
G01X8486648Y-5581396D01*
G01X8489696Y-5578348D01*
G01X8498840Y-5575046D01*
G01X8526780Y-5575046D02*
G01X8498840Y-5575046D01*
G01X8489696Y-5571998D01*
G01X8486648Y-5568950D01*
G01X8483346Y-5562854D01*
G01X8483346Y-5553456D01*
G01X8486648Y-5547360D01*
G01X8489696Y-5544058D01*
G01X8498840Y-5541010D01*
G01X8526780Y-5541010D01*
G01X8453120Y-5606034D02*
G01X8453120Y-5541010D01*
G01X8453120Y-5606034D02*
G01X8425434Y-5606034D01*
G01X8416036Y-5602986D01*
G01X8412988Y-5599938D01*
G01X8409940Y-5593588D01*
G01X8409940Y-5587492D01*
G01X8412988Y-5581396D01*
G01X8416036Y-5578348D01*
G01X8425434Y-5575046D01*
G01X8453120Y-5575046D01*
G01X8431530Y-5575046D02*
G01X8409940Y-5541010D01*
G01X8361172Y-5606034D02*
G01X8367522Y-5602986D01*
G01X8373618Y-5596890D01*
G01X8376666Y-5590540D01*
G01X8379714Y-5581396D01*
G01X8379714Y-5565902D01*
G01X8376666Y-5556504D01*
G01X8373618Y-5550408D01*
G01X8367522Y-5544058D01*
G01X8361172Y-5541010D01*
G01X8348980Y-5541010D01*
G01X8342630Y-5544058D01*
G01X8336534Y-5550408D01*
G01X8333486Y-5556504D01*
G01X8330184Y-5565902D01*
G01X8330184Y-5581396D01*
G01X8333486Y-5590540D01*
G01X8336534Y-5596890D01*
G01X8342630Y-5602986D01*
G01X8348980Y-5606034D01*
G01X8361172Y-5606034D01*
G01X8299958Y-5606034D02*
G01X8284718Y-5541010D01*
G01X8269224Y-5606034D02*
G01X8284718Y-5541010D01*
G01X8269224Y-5606034D02*
G01X8253730Y-5541010D01*
G01X8238236Y-5606034D02*
G01X8253730Y-5541010D01*
G01X8208010Y-5606034D02*
G01X8208010Y-5541010D01*
G01X8208010Y-5606034D02*
G01X8164830Y-5541010D01*
G01X8164830Y-5606034D02*
G01X8164830Y-5541010D01*
G01X8044180Y-5606034D02*
G01X8028686Y-5541010D01*
G01X8013192Y-5606034D02*
G01X8028686Y-5541010D01*
G01X8013192Y-5606034D02*
G01X7997698Y-5541010D01*
G01X7982204Y-5606034D02*
G01X7997698Y-5541010D01*
G01X7951978Y-5606034D02*
G01X7951978Y-5541010D01*
G01X7908798Y-5606034D02*
G01X7908798Y-5541010D01*
G01X7951978Y-5575046D02*
G01X7908798Y-5575046D01*
G01X7878572Y-5606034D02*
G01X7878572Y-5541010D01*
G01X7826756Y-5606034D02*
G01X7826756Y-5541010D01*
G01X7848346Y-5606034D02*
G01X7805166Y-5606034D01*
G01X7774940Y-5606034D02*
G01X7774940Y-5541010D01*
G01X7774940Y-5606034D02*
G01X7734808Y-5606034D01*
G01X7774940Y-5575046D02*
G01X7750302Y-5575046D01*
G01X7774940Y-5541010D02*
G01X7734808Y-5541010D01*
G01X7548880Y-5606034D02*
G01X7548880Y-5541010D01*
G01X7548880Y-5606034D02*
G01X7520940Y-5606034D01*
G01X7511796Y-5602986D01*
G01X7508748Y-5599938D01*
G01X7505446Y-5593588D01*
G01X7505446Y-5587492D01*
G01X7508748Y-5581396D01*
G01X7511796Y-5578348D01*
G01X7520940Y-5575046D01*
G01X7548880Y-5575046D02*
G01X7520940Y-5575046D01*
G01X7511796Y-5571998D01*
G01X7508748Y-5568950D01*
G01X7505446Y-5562854D01*
G01X7505446Y-5553456D01*
G01X7508748Y-5547360D01*
G01X7511796Y-5544058D01*
G01X7520940Y-5541010D01*
G01X7548880Y-5541010D01*
G01X7475220Y-5606034D02*
G01X7475220Y-5541010D01*
G01X7475220Y-5541010D02*
G01X7438136Y-5541010D01*
G01X7407910Y-5606034D02*
G01X7407910Y-5559552D01*
G01X7404862Y-5550408D01*
G01X7398766Y-5544058D01*
G01X7389368Y-5541010D01*
G01X7383272Y-5541010D01*
G01X7373874Y-5544058D01*
G01X7367778Y-5550408D01*
G01X7364730Y-5559552D01*
G01X7364730Y-5606034D01*
G01X7334504Y-5606034D02*
G01X7334504Y-5541010D01*
G01X7334504Y-5606034D02*
G01X7294372Y-5606034D01*
G01X7334504Y-5575046D02*
G01X7309866Y-5575046D01*
G01X7334504Y-5541010D02*
G01X7294372Y-5541010D01*
G01X7142480Y-5606034D02*
G01X7142480Y-5541010D01*
G01X7142480Y-5606034D02*
G01X7114540Y-5606034D01*
G01X7105396Y-5602986D01*
G01X7102348Y-5599938D01*
G01X7099046Y-5593588D01*
G01X7099046Y-5587492D01*
G01X7102348Y-5581396D01*
G01X7105396Y-5578348D01*
G01X7114540Y-5575046D01*
G01X7142480Y-5575046D02*
G01X7114540Y-5575046D01*
G01X7105396Y-5571998D01*
G01X7102348Y-5568950D01*
G01X7099046Y-5562854D01*
G01X7099046Y-5553456D01*
G01X7102348Y-5547360D01*
G01X7105396Y-5544058D01*
G01X7114540Y-5541010D01*
G01X7142480Y-5541010D01*
G01X7068820Y-5606034D02*
G01X7068820Y-5541010D01*
G01X7068820Y-5541010D02*
G01X7031736Y-5541010D01*
G01X6976872Y-5606034D02*
G01X7001510Y-5541010D01*
G01X6976872Y-5606034D02*
G01X6951980Y-5541010D01*
G01X6992366Y-5562854D02*
G01X6961378Y-5562854D01*
G01X6875526Y-5590540D02*
G01X6878574Y-5596890D01*
G01X6884670Y-5602986D01*
G01X6891020Y-5606034D01*
G01X6903212Y-5606034D01*
G01X6909562Y-5602986D01*
G01X6915658Y-5596890D01*
G01X6918706Y-5590540D01*
G01X6921754Y-5581396D01*
G01X6921754Y-5565902D01*
G01X6918706Y-5556504D01*
G01X6915658Y-5550408D01*
G01X6909562Y-5544058D01*
G01X6903212Y-5541010D01*
G01X6891020Y-5541010D01*
G01X6884670Y-5544058D01*
G01X6878574Y-5550408D01*
G01X6875526Y-5556504D01*
G01X6845300Y-5606034D02*
G01X6845300Y-5541010D01*
G01X6802120Y-5606034D02*
G01X6845300Y-5562854D01*
G01X6830060Y-5578348D02*
G01X6802120Y-5541010D01*
G54D10*
G01X406908Y-2839872D02*
G01X396240Y-2829204D01*
G01X380238Y-2823870D01*
G01X359156Y-2823870D01*
G01X343154Y-2829204D01*
G01X332486Y-2839872D01*
G01X332486Y-2850540D01*
G01X337820Y-2861208D01*
G01X343154Y-2866542D01*
G01X353822Y-2871876D01*
G01X385572Y-2882290D01*
G01X396240Y-2887624D01*
G01X401574Y-2892958D01*
G01X406908Y-2903626D01*
G01X406908Y-2919628D01*
G01X396240Y-2930296D01*
G01X380238Y-2935630D01*
G01X359156Y-2935630D01*
G01X343154Y-2930296D01*
G01X332486Y-2919628D01*
G01X462534Y-2823870D02*
G01X462534Y-2935630D01*
G01X462534Y-2823870D02*
G01X510286Y-2823870D01*
G01X526034Y-2829204D01*
G01X531368Y-2834538D01*
G01X536702Y-2845206D01*
G01X536702Y-2855874D01*
G01X531368Y-2866542D01*
G01X526034Y-2871876D01*
G01X510286Y-2876956D01*
G01X462534Y-2876956D01*
G01X499618Y-2876956D02*
G01X536702Y-2935630D01*
G01X592328Y-2823870D02*
G01X592328Y-2935630D01*
G01X592328Y-2823870D02*
G01X661162Y-2823870D01*
G01X592328Y-2876956D02*
G01X634746Y-2876956D01*
G01X716788Y-2823870D02*
G01X716788Y-2935630D01*
G01X716788Y-2823870D02*
G01X759206Y-2935630D01*
G01X801624Y-2823870D02*
G01X759206Y-2935630D01*
G01X801624Y-2823870D02*
G01X801624Y-2935630D01*
G01X1055878Y-2850540D02*
G01X1050544Y-2839872D01*
G01X1039876Y-2829204D01*
G01X1029208Y-2823870D01*
G01X1008126Y-2823870D01*
G01X997458Y-2829204D01*
G01X986790Y-2839872D01*
G01X981456Y-2850540D01*
G01X976122Y-2866542D01*
G01X976122Y-2892958D01*
G01X981456Y-2908960D01*
G01X986790Y-2919628D01*
G01X997458Y-2930296D01*
G01X1008126Y-2935630D01*
G01X1029208Y-2935630D01*
G01X1039876Y-2930296D01*
G01X1050544Y-2919628D01*
G01X1055878Y-2908960D01*
G01X1137920Y-2861208D02*
G01X1127252Y-2866542D01*
G01X1116584Y-2876956D01*
G01X1111504Y-2892958D01*
G01X1111504Y-2903626D01*
G01X1116584Y-2919628D01*
G01X1127252Y-2930296D01*
G01X1137920Y-2935630D01*
G01X1153922Y-2935630D01*
G01X1164590Y-2930296D01*
G01X1175004Y-2919628D01*
G01X1180338Y-2903626D01*
G01X1180338Y-2892958D01*
G01X1175004Y-2876956D01*
G01X1164590Y-2866542D01*
G01X1153922Y-2861208D01*
G01X1137920Y-2861208D01*
G01X1235964Y-2861208D02*
G01X1235964Y-2935630D01*
G01X1235964Y-2882290D02*
G01X1251712Y-2866542D01*
G01X1262380Y-2861208D01*
G01X1278382Y-2861208D01*
G01X1289050Y-2866542D01*
G01X1294384Y-2882290D01*
G01X1294384Y-2935630D01*
G01X1365758Y-2823870D02*
G01X1365758Y-2914294D01*
G01X1371092Y-2930296D01*
G01X1381760Y-2935630D01*
G01X1392428Y-2935630D01*
G01X1350010Y-2861208D02*
G01X1387094Y-2861208D01*
G01X1448054Y-2861208D02*
G01X1448054Y-2935630D01*
G01X1448054Y-2892958D02*
G01X1453134Y-2876956D01*
G01X1463802Y-2866542D01*
G01X1474470Y-2861208D01*
G01X1490472Y-2861208D01*
G01X1572514Y-2861208D02*
G01X1561846Y-2866542D01*
G01X1551178Y-2876956D01*
G01X1546098Y-2892958D01*
G01X1546098Y-2903626D01*
G01X1551178Y-2919628D01*
G01X1561846Y-2930296D01*
G01X1572514Y-2935630D01*
G01X1588516Y-2935630D01*
G01X1599184Y-2930296D01*
G01X1609598Y-2919628D01*
G01X1614932Y-2903626D01*
G01X1614932Y-2892958D01*
G01X1609598Y-2876956D01*
G01X1599184Y-2866542D01*
G01X1588516Y-2861208D01*
G01X1572514Y-2861208D01*
G01X1670558Y-2823870D02*
G01X1670558Y-2935630D01*
G01X1845056Y-2823870D02*
G01X1845056Y-2935630D01*
G01X1845056Y-2823870D02*
G01X1892808Y-2823870D01*
G01X1908810Y-2829204D01*
G01X1914144Y-2834538D01*
G01X1919478Y-2845206D01*
G01X1919478Y-2855874D01*
G01X1914144Y-2866542D01*
G01X1908810Y-2871876D01*
G01X1892808Y-2876956D01*
G01X1845056Y-2876956D02*
G01X1892808Y-2876956D01*
G01X1908810Y-2882290D01*
G01X1914144Y-2887624D01*
G01X1919478Y-2898292D01*
G01X1919478Y-2914294D01*
G01X1914144Y-2924962D01*
G01X1908810Y-2930296D01*
G01X1892808Y-2935630D01*
G01X1845056Y-2935630D01*
G01X2001520Y-2861208D02*
G01X1990852Y-2866542D01*
G01X1980184Y-2876956D01*
G01X1975104Y-2892958D01*
G01X1975104Y-2903626D01*
G01X1980184Y-2919628D01*
G01X1990852Y-2930296D01*
G01X2001520Y-2935630D01*
G01X2017522Y-2935630D01*
G01X2028190Y-2930296D01*
G01X2038604Y-2919628D01*
G01X2043938Y-2903626D01*
G01X2043938Y-2892958D01*
G01X2038604Y-2876956D01*
G01X2028190Y-2866542D01*
G01X2017522Y-2861208D01*
G01X2001520Y-2861208D01*
G01X2163064Y-2861208D02*
G01X2163064Y-2935630D01*
G01X2163064Y-2876956D02*
G01X2152650Y-2866542D01*
G01X2141982Y-2861208D01*
G01X2125980Y-2861208D01*
G01X2115312Y-2866542D01*
G01X2104644Y-2876956D01*
G01X2099564Y-2892958D01*
G01X2099564Y-2903626D01*
G01X2104644Y-2919628D01*
G01X2115312Y-2930296D01*
G01X2125980Y-2935630D01*
G01X2141982Y-2935630D01*
G01X2152650Y-2930296D01*
G01X2163064Y-2919628D01*
G01X2218690Y-2861208D02*
G01X2218690Y-2935630D01*
G01X2218690Y-2892958D02*
G01X2223770Y-2876956D01*
G01X2234438Y-2866542D01*
G01X2245106Y-2861208D01*
G01X2261108Y-2861208D01*
G01X2380234Y-2823870D02*
G01X2380234Y-2935630D01*
G01X2380234Y-2876956D02*
G01X2369820Y-2866542D01*
G01X2359152Y-2861208D01*
G01X2343150Y-2861208D01*
G01X2332482Y-2866542D01*
G01X2321814Y-2876956D01*
G01X2316734Y-2892958D01*
G01X2316734Y-2903626D01*
G01X2321814Y-2919628D01*
G01X2332482Y-2930296D01*
G01X2343150Y-2935630D01*
G01X2359152Y-2935630D01*
G01X2369820Y-2930296D01*
G01X2380234Y-2919628D01*
G01X2554732Y-2823870D02*
G01X2597150Y-2935630D01*
G01X2639822Y-2823870D02*
G01X2597150Y-2935630D01*
G01X2695448Y-2845206D02*
G01X2705862Y-2839872D01*
G01X2721864Y-2823870D01*
G01X2721864Y-2935630D01*
G01X2782570Y-2908960D02*
G01X2777490Y-2914294D01*
G01X2782570Y-2919628D01*
G01X2787904Y-2914294D01*
G01X2782570Y-2908960D01*
G01X2843530Y-2845206D02*
G01X2853944Y-2839872D01*
G01X2869946Y-2823870D01*
G01X2869946Y-2935630D01*
G01X332486Y-3024022D02*
G01X332486Y-3103524D01*
G01X337820Y-3119526D01*
G01X348488Y-3130194D01*
G01X364490Y-3135528D01*
G01X374904Y-3135528D01*
G01X390906Y-3130194D01*
G01X401574Y-3119526D01*
G01X406908Y-3103524D01*
G01X406908Y-3024022D01*
G01X488950Y-3061106D02*
G01X478282Y-3066440D01*
G01X467614Y-3077108D01*
G01X462534Y-3093110D01*
G01X462534Y-3103524D01*
G01X467614Y-3119526D01*
G01X478282Y-3130194D01*
G01X488950Y-3135528D01*
G01X504952Y-3135528D01*
G01X515620Y-3130194D01*
G01X526034Y-3119526D01*
G01X531368Y-3103524D01*
G01X531368Y-3093110D01*
G01X526034Y-3077108D01*
G01X515620Y-3066440D01*
G01X504952Y-3061106D01*
G01X488950Y-3061106D01*
G01X629412Y-3024022D02*
G01X618744Y-3024022D01*
G01X608076Y-3029356D01*
G01X602742Y-3045104D01*
G01X602742Y-3135528D01*
G01X586994Y-3061106D02*
G01X624078Y-3061106D01*
G01X685038Y-3024022D02*
G01X685038Y-3135528D01*
G01X685038Y-3024022D02*
G01X727456Y-3135528D01*
G01X769874Y-3024022D02*
G01X727456Y-3135528D01*
G01X769874Y-3024022D02*
G01X769874Y-3135528D01*
G01X986790Y-3024022D02*
G01X944372Y-3135528D01*
G01X986790Y-3024022D02*
G01X1029462Y-3135528D01*
G01X960374Y-3098444D02*
G01X1013460Y-3098444D01*
G01X1085088Y-3061106D02*
G01X1085088Y-3114192D01*
G01X1090168Y-3130194D01*
G01X1100836Y-3135528D01*
G01X1116838Y-3135528D01*
G01X1127506Y-3130194D01*
G01X1143508Y-3114192D01*
G01X1143508Y-3061106D02*
G01X1143508Y-3135528D01*
G01X1262634Y-3061106D02*
G01X1262634Y-3146196D01*
G01X1257554Y-3162198D01*
G01X1252220Y-3167278D01*
G01X1241552Y-3172612D01*
G01X1225550Y-3172612D01*
G01X1214882Y-3167278D01*
G01X1262634Y-3077108D02*
G01X1252220Y-3066440D01*
G01X1241552Y-3061106D01*
G01X1225550Y-3061106D01*
G01X1214882Y-3066440D01*
G01X1204214Y-3077108D01*
G01X1199134Y-3093110D01*
G01X1199134Y-3103524D01*
G01X1204214Y-3119526D01*
G01X1214882Y-3130194D01*
G01X1225550Y-3135528D01*
G01X1241552Y-3135528D01*
G01X1252220Y-3130194D01*
G01X1262634Y-3119526D01*
G01X1442466Y-3050438D02*
G01X1442466Y-3045104D01*
G01X1447800Y-3034690D01*
G01X1453134Y-3029356D01*
G01X1463802Y-3024022D01*
G01X1484884Y-3024022D01*
G01X1495552Y-3029356D01*
G01X1500886Y-3034690D01*
G01X1506220Y-3045104D01*
G01X1506220Y-3055772D01*
G01X1500886Y-3066440D01*
G01X1490218Y-3082442D01*
G01X1437132Y-3135528D01*
G01X1511554Y-3135528D01*
G01X1598930Y-3024022D02*
G01X1582928Y-3029356D01*
G01X1572260Y-3045104D01*
G01X1567180Y-3071774D01*
G01X1567180Y-3087776D01*
G01X1572260Y-3114192D01*
G01X1582928Y-3130194D01*
G01X1598930Y-3135528D01*
G01X1609598Y-3135528D01*
G01X1625600Y-3130194D01*
G01X1636014Y-3114192D01*
G01X1641348Y-3087776D01*
G01X1641348Y-3071774D01*
G01X1636014Y-3045104D01*
G01X1625600Y-3029356D01*
G01X1609598Y-3024022D01*
G01X1598930Y-3024022D01*
G01X1702054Y-3050438D02*
G01X1702054Y-3045104D01*
G01X1707388Y-3034690D01*
G01X1712722Y-3029356D01*
G01X1723390Y-3024022D01*
G01X1744726Y-3024022D01*
G01X1755394Y-3029356D01*
G01X1760474Y-3034690D01*
G01X1765808Y-3045104D01*
G01X1765808Y-3055772D01*
G01X1760474Y-3066440D01*
G01X1750060Y-3082442D01*
G01X1696974Y-3135528D01*
G01X1771142Y-3135528D01*
G01X1890268Y-3039770D02*
G01X1885188Y-3029356D01*
G01X1869186Y-3024022D01*
G01X1858518Y-3024022D01*
G01X1842516Y-3029356D01*
G01X1831848Y-3045104D01*
G01X1826768Y-3071774D01*
G01X1826768Y-3098444D01*
G01X1831848Y-3119526D01*
G01X1842516Y-3130194D01*
G01X1858518Y-3135528D01*
G01X1863852Y-3135528D01*
G01X1879854Y-3130194D01*
G01X1890268Y-3119526D01*
G01X1895602Y-3103524D01*
G01X1895602Y-3098444D01*
G01X1890268Y-3082442D01*
G01X1879854Y-3071774D01*
G01X1863852Y-3066440D01*
G01X1858518Y-3066440D01*
G01X1842516Y-3071774D01*
G01X1831848Y-3082442D01*
G01X1826768Y-3098444D01*
G01X2070100Y-3024022D02*
G01X2112518Y-3077108D01*
G01X2112518Y-3135528D01*
G01X2155190Y-3024022D02*
G01X2112518Y-3077108D01*
G01X2215896Y-3108858D02*
G01X2210816Y-3114192D01*
G01X2215896Y-3119526D01*
G01X2221230Y-3114192D01*
G01X2215896Y-3108858D01*
G01X2395728Y-3024022D02*
G01X2395728Y-3135528D01*
G01X2395728Y-3024022D02*
G01X2438146Y-3135528D01*
G01X2480818Y-3024022D02*
G01X2438146Y-3135528D01*
G01X2480818Y-3024022D02*
G01X2480818Y-3135528D01*
G01X2599944Y-3061106D02*
G01X2599944Y-3135528D01*
G01X2599944Y-3077108D02*
G01X2589530Y-3066440D01*
G01X2578862Y-3061106D01*
G01X2562860Y-3061106D01*
G01X2552192Y-3066440D01*
G01X2541524Y-3077108D01*
G01X2536444Y-3093110D01*
G01X2536444Y-3103524D01*
G01X2541524Y-3119526D01*
G01X2552192Y-3130194D01*
G01X2562860Y-3135528D01*
G01X2578862Y-3135528D01*
G01X2589530Y-3130194D01*
G01X2599944Y-3119526D01*
G54D11*
G01X1544320Y-5874766D02*
G01X1587754Y-5939790D01*
G01X1587754Y-5874766D02*
G01X1544320Y-5939790D01*
G01X1617980Y-5874766D02*
G01X1617980Y-5939790D01*
G01X1672844Y-5874766D02*
G01X1648206Y-5939790D01*
G01X1672844Y-5874766D02*
G01X1697736Y-5939790D01*
G01X1657350Y-5917946D02*
G01X1688338Y-5917946D01*
G01X1746504Y-5874766D02*
G01X1740154Y-5877814D01*
G01X1734058Y-5883910D01*
G01X1731010Y-5890260D01*
G01X1727962Y-5899404D01*
G01X1727962Y-5914898D01*
G01X1731010Y-5924296D01*
G01X1734058Y-5930392D01*
G01X1740154Y-5936742D01*
G01X1746504Y-5939790D01*
G01X1758696Y-5939790D01*
G01X1765046Y-5936742D01*
G01X1771142Y-5930392D01*
G01X1774190Y-5924296D01*
G01X1777492Y-5914898D01*
G01X1777492Y-5899404D01*
G01X1774190Y-5890260D01*
G01X1771142Y-5883910D01*
G01X1765046Y-5877814D01*
G01X1758696Y-5874766D01*
G01X1746504Y-5874766D01*
G01X1807718Y-5874766D02*
G01X1807718Y-5939790D01*
G01X1807718Y-5874766D02*
G01X1850898Y-5939790D01*
G01X1850898Y-5874766D02*
G01X1850898Y-5939790D01*
G01X1881124Y-5874766D02*
G01X1881124Y-5939790D01*
G01X1881124Y-5874766D02*
G01X1908810Y-5874766D01*
G01X1918208Y-5877814D01*
G01X1921256Y-5880862D01*
G01X1924304Y-5887212D01*
G01X1924304Y-5893308D01*
G01X1921256Y-5899404D01*
G01X1918208Y-5902452D01*
G01X1908810Y-5905754D01*
G01X1881124Y-5905754D01*
G01X1902714Y-5905754D02*
G01X1924304Y-5939790D01*
G01X1954530Y-5874766D02*
G01X1954530Y-5939790D01*
G01X1954530Y-5874766D02*
G01X1994662Y-5874766D01*
G01X1954530Y-5905754D02*
G01X1979168Y-5905754D01*
G01X2061972Y-5874766D02*
G01X2030984Y-5874766D01*
G01X2027936Y-5902452D01*
G01X2030984Y-5899404D01*
G01X2040128Y-5896356D01*
G01X2049526Y-5896356D01*
G01X2058924Y-5899404D01*
G01X2065020Y-5905754D01*
G01X2068068Y-5914898D01*
G01X2068068Y-5921248D01*
G01X2065020Y-5930392D01*
G01X2058924Y-5936742D01*
G01X2049526Y-5939790D01*
G01X2040128Y-5939790D01*
G01X2030984Y-5936742D01*
G01X2027936Y-5933440D01*
G01X2024888Y-5927344D01*
G01X2101342Y-5890260D02*
G01X2101342Y-5887212D01*
G01X2104390Y-5880862D01*
G01X2107438Y-5877814D01*
G01X2113534Y-5874766D01*
G01X2125980Y-5874766D01*
G01X2132330Y-5877814D01*
G01X2135378Y-5880862D01*
G01X2138426Y-5887212D01*
G01X2138426Y-5893308D01*
G01X2135378Y-5899404D01*
G01X2129028Y-5908802D01*
G01X2098294Y-5939790D01*
G01X2141474Y-5939790D01*
G01X2186940Y-5874766D02*
G01X2177796Y-5877814D01*
G01X2174748Y-5883910D01*
G01X2174748Y-5890260D01*
G01X2177796Y-5896356D01*
G01X2183892Y-5899404D01*
G01X2196338Y-5902452D01*
G01X2205736Y-5905754D01*
G01X2211832Y-5911850D01*
G01X2214880Y-5917946D01*
G01X2214880Y-5927344D01*
G01X2211832Y-5933440D01*
G01X2208784Y-5936742D01*
G01X2199386Y-5939790D01*
G01X2186940Y-5939790D01*
G01X2177796Y-5936742D01*
G01X2174748Y-5933440D01*
G01X2171700Y-5927344D01*
G01X2171700Y-5917946D01*
G01X2174748Y-5911850D01*
G01X2180844Y-5905754D01*
G01X2190242Y-5902452D01*
G01X2202434Y-5899404D01*
G01X2208784Y-5896356D01*
G01X2211832Y-5890260D01*
G01X2211832Y-5883910D01*
G01X2208784Y-5877814D01*
G01X2199386Y-5874766D01*
G01X2186940Y-5874766D01*
G01X2275840Y-5874766D02*
G01X2245106Y-5917946D01*
G01X2291334Y-5917946D01*
G01X2275840Y-5874766D02*
G01X2275840Y-5939790D01*
G01X2340102Y-5874766D02*
G01X2330704Y-5877814D01*
G01X2324608Y-5887212D01*
G01X2321560Y-5902452D01*
G01X2321560Y-5911850D01*
G01X2324608Y-5927344D01*
G01X2330704Y-5936742D01*
G01X2340102Y-5939790D01*
G01X2346198Y-5939790D01*
G01X2355596Y-5936742D01*
G01X2361692Y-5927344D01*
G01X2364740Y-5911850D01*
G01X2364740Y-5902452D01*
G01X2361692Y-5887212D01*
G01X2355596Y-5877814D01*
G01X2346198Y-5874766D01*
G01X2340102Y-5874766D01*
G01X2438146Y-5883910D02*
G01X2432050Y-5877814D01*
G01X2422652Y-5874766D01*
G01X2410206Y-5874766D01*
G01X2401062Y-5877814D01*
G01X2394966Y-5883910D01*
G01X2394966Y-5890260D01*
G01X2398014Y-5896356D01*
G01X2401062Y-5899404D01*
G01X2407158Y-5902452D01*
G01X2425700Y-5908802D01*
G01X2432050Y-5911850D01*
G01X2435098Y-5914898D01*
G01X2438146Y-5921248D01*
G01X2438146Y-5930392D01*
G01X2432050Y-5936742D01*
G01X2422652Y-5939790D01*
G01X2410206Y-5939790D01*
G01X2401062Y-5936742D01*
G01X2394966Y-5930392D01*
G01X2468372Y-5874766D02*
G01X2468372Y-5939790D01*
G01X2468372Y-5874766D02*
G01X2508504Y-5874766D01*
G01X2468372Y-5905754D02*
G01X2493010Y-5905754D01*
G01X2468372Y-5939790D02*
G01X2508504Y-5939790D01*
G01X2538730Y-5874766D02*
G01X2538730Y-5939790D01*
G01X2538730Y-5874766D02*
G01X2581910Y-5939790D01*
G01X2581910Y-5874766D02*
G01X2581910Y-5939790D01*
G01X2655316Y-5883910D02*
G01X2649220Y-5877814D01*
G01X2639822Y-5874766D01*
G01X2627376Y-5874766D01*
G01X2618232Y-5877814D01*
G01X2612136Y-5883910D01*
G01X2612136Y-5890260D01*
G01X2615184Y-5896356D01*
G01X2618232Y-5899404D01*
G01X2624328Y-5902452D01*
G01X2642870Y-5908802D01*
G01X2649220Y-5911850D01*
G01X2652268Y-5914898D01*
G01X2655316Y-5921248D01*
G01X2655316Y-5930392D01*
G01X2649220Y-5936742D01*
G01X2639822Y-5939790D01*
G01X2627376Y-5939790D01*
G01X2618232Y-5936742D01*
G01X2612136Y-5930392D01*
G01X2685542Y-5874766D02*
G01X2685542Y-5939790D01*
G01X2685542Y-5874766D02*
G01X2725674Y-5874766D01*
G01X2685542Y-5905754D02*
G01X2710180Y-5905754D01*
G01X2685542Y-5939790D02*
G01X2725674Y-5939790D01*
G54D10*
G01X3774186Y-2795270D02*
G01X3774186Y-2907030D01*
G01X3774186Y-2795270D02*
G01X3843274Y-2795270D01*
G01X3774186Y-2848356D02*
G01X3816604Y-2848356D01*
G01X3898900Y-2832608D02*
G01X3898900Y-2885694D01*
G01X3903980Y-2901696D01*
G01X3914648Y-2907030D01*
G01X3930650Y-2907030D01*
G01X3941318Y-2901696D01*
G01X3957320Y-2885694D01*
G01X3957320Y-2832608D02*
G01X3957320Y-2907030D01*
G01X4071366Y-2848356D02*
G01X4066032Y-2837942D01*
G01X4050030Y-2832608D01*
G01X4034028Y-2832608D01*
G01X4018026Y-2837942D01*
G01X4012946Y-2848356D01*
G01X4018026Y-2859024D01*
G01X4028694Y-2864358D01*
G01X4055364Y-2869692D01*
G01X4066032Y-2875026D01*
G01X4071366Y-2885694D01*
G01X4071366Y-2891028D01*
G01X4066032Y-2901696D01*
G01X4050030Y-2907030D01*
G01X4034028Y-2907030D01*
G01X4018026Y-2901696D01*
G01X4012946Y-2891028D01*
G01X4126992Y-2864358D02*
G01X4190492Y-2864358D01*
G01X4190492Y-2853690D01*
G01X4185412Y-2843276D01*
G01X4180078Y-2837942D01*
G01X4169410Y-2832608D01*
G01X4153408Y-2832608D01*
G01X4142740Y-2837942D01*
G01X4132072Y-2848356D01*
G01X4126992Y-2864358D01*
G01X4126992Y-2875026D01*
G01X4132072Y-2891028D01*
G01X4142740Y-2901696D01*
G01X4153408Y-2907030D01*
G01X4169410Y-2907030D01*
G01X4180078Y-2901696D01*
G01X4190492Y-2891028D01*
G01X4325620Y-2821940D02*
G01X4320286Y-2811272D01*
G01X4309618Y-2800604D01*
G01X4299204Y-2795270D01*
G01X4277868Y-2795270D01*
G01X4267200Y-2800604D01*
G01X4256532Y-2811272D01*
G01X4251198Y-2821940D01*
G01X4246118Y-2837942D01*
G01X4246118Y-2864358D01*
G01X4251198Y-2880360D01*
G01X4256532Y-2891028D01*
G01X4267200Y-2901696D01*
G01X4277868Y-2907030D01*
G01X4299204Y-2907030D01*
G01X4309618Y-2901696D01*
G01X4320286Y-2891028D01*
G01X4325620Y-2880360D01*
G01X4325620Y-2864358D01*
G01X4299204Y-2864358D02*
G01X4325620Y-2864358D01*
G01X4407662Y-2832608D02*
G01X4396994Y-2837942D01*
G01X4386326Y-2848356D01*
G01X4381246Y-2864358D01*
G01X4381246Y-2875026D01*
G01X4386326Y-2891028D01*
G01X4396994Y-2901696D01*
G01X4407662Y-2907030D01*
G01X4423664Y-2907030D01*
G01X4434332Y-2901696D01*
G01X4444746Y-2891028D01*
G01X4450080Y-2875026D01*
G01X4450080Y-2864358D01*
G01X4444746Y-2848356D01*
G01X4434332Y-2837942D01*
G01X4423664Y-2832608D01*
G01X4407662Y-2832608D01*
G01X4532122Y-2832608D02*
G01X4521454Y-2837942D01*
G01X4510786Y-2848356D01*
G01X4505706Y-2864358D01*
G01X4505706Y-2875026D01*
G01X4510786Y-2891028D01*
G01X4521454Y-2901696D01*
G01X4532122Y-2907030D01*
G01X4548124Y-2907030D01*
G01X4558792Y-2901696D01*
G01X4569206Y-2891028D01*
G01X4574540Y-2875026D01*
G01X4574540Y-2864358D01*
G01X4569206Y-2848356D01*
G01X4558792Y-2837942D01*
G01X4548124Y-2832608D01*
G01X4532122Y-2832608D01*
G01X4693666Y-2795270D02*
G01X4693666Y-2907030D01*
G01X4693666Y-2848356D02*
G01X4683252Y-2837942D01*
G01X4672584Y-2832608D01*
G01X4656582Y-2832608D01*
G01X4645914Y-2837942D01*
G01X4635246Y-2848356D01*
G01X4630166Y-2864358D01*
G01X4630166Y-2875026D01*
G01X4635246Y-2891028D01*
G01X4645914Y-2901696D01*
G01X4656582Y-2907030D01*
G01X4672584Y-2907030D01*
G01X4683252Y-2901696D01*
G01X4693666Y-2891028D01*
G54D11*
G01X5328920Y-2852166D02*
G01X5328920Y-2898648D01*
G01X5331968Y-2907792D01*
G01X5338318Y-2914142D01*
G01X5347462Y-2917190D01*
G01X5353812Y-2917190D01*
G01X5362956Y-2914142D01*
G01X5369052Y-2907792D01*
G01X5372354Y-2898648D01*
G01X5372354Y-2852166D01*
G01X5405628Y-2867660D02*
G01X5405628Y-2864612D01*
G01X5408676Y-2858262D01*
G01X5411724Y-2855214D01*
G01X5417820Y-2852166D01*
G01X5430266Y-2852166D01*
G01X5436616Y-2855214D01*
G01X5439664Y-2858262D01*
G01X5442712Y-2864612D01*
G01X5442712Y-2870708D01*
G01X5439664Y-2876804D01*
G01X5433314Y-2886202D01*
G01X5402580Y-2917190D01*
G01X5445760Y-2917190D01*
G01X4638802Y-314960D02*
G01X4635754Y-308610D01*
G01X4629404Y-302514D01*
G01X4623308Y-299466D01*
G01X4610862Y-299466D01*
G01X4604766Y-302514D01*
G01X4598416Y-308610D01*
G01X4595368Y-314960D01*
G01X4592320Y-324104D01*
G01X4592320Y-339598D01*
G01X4595368Y-348996D01*
G01X4598416Y-355092D01*
G01X4604766Y-361442D01*
G01X4610862Y-364490D01*
G01X4623308Y-364490D01*
G01X4629404Y-361442D01*
G01X4635754Y-355092D01*
G01X4638802Y-348996D01*
G01X4669028Y-386080D02*
G01X4724654Y-386080D01*
G01X4754880Y-299466D02*
G01X4754880Y-364490D01*
G01X4754880Y-299466D02*
G01X4782566Y-299466D01*
G01X4791964Y-302514D01*
G01X4795012Y-305562D01*
G01X4798060Y-311912D01*
G01X4798060Y-318008D01*
G01X4795012Y-324104D01*
G01X4791964Y-327152D01*
G01X4782566Y-330454D01*
G01X4754880Y-330454D02*
G01X4782566Y-330454D01*
G01X4791964Y-333502D01*
G01X4795012Y-336550D01*
G01X4798060Y-342646D01*
G01X4798060Y-352044D01*
G01X4795012Y-358140D01*
G01X4791964Y-361442D01*
G01X4782566Y-364490D01*
G01X4754880Y-364490D01*
G01X4828286Y-299466D02*
G01X4828286Y-345948D01*
G01X4831334Y-355092D01*
G01X4837430Y-361442D01*
G01X4846828Y-364490D01*
G01X4852924Y-364490D01*
G01X4862322Y-361442D01*
G01X4868418Y-355092D01*
G01X4871466Y-345948D01*
G01X4871466Y-299466D01*
G01X4901692Y-299466D02*
G01X4901692Y-364490D01*
G01X4901692Y-364490D02*
G01X4938776Y-364490D01*
G01X4969002Y-299466D02*
G01X4969002Y-364490D01*
G01X5012182Y-299466D02*
G01X4969002Y-342646D01*
G01X4984242Y-327152D02*
G01X5012182Y-364490D01*
G01X4575302Y-1686560D02*
G01X4572254Y-1680210D01*
G01X4565904Y-1674114D01*
G01X4559808Y-1671066D01*
G01X4547362Y-1671066D01*
G01X4541266Y-1674114D01*
G01X4534916Y-1680210D01*
G01X4531868Y-1686560D01*
G01X4528820Y-1695704D01*
G01X4528820Y-1711198D01*
G01X4531868Y-1720596D01*
G01X4534916Y-1726692D01*
G01X4541266Y-1733042D01*
G01X4547362Y-1736090D01*
G01X4559808Y-1736090D01*
G01X4565904Y-1733042D01*
G01X4572254Y-1726692D01*
G01X4575302Y-1720596D01*
G01X4605528Y-1757680D02*
G01X4661154Y-1757680D01*
G01X4728464Y-1671066D02*
G01X4728464Y-1736090D01*
G01X4728464Y-1702054D02*
G01X4722114Y-1695704D01*
G01X4716018Y-1692656D01*
G01X4706620Y-1692656D01*
G01X4700524Y-1695704D01*
G01X4694428Y-1702054D01*
G01X4691380Y-1711198D01*
G01X4691380Y-1717548D01*
G01X4694428Y-1726692D01*
G01X4700524Y-1733042D01*
G01X4706620Y-1736090D01*
G01X4716018Y-1736090D01*
G01X4722114Y-1733042D01*
G01X4728464Y-1726692D01*
G01X4758690Y-1671066D02*
G01X4783328Y-1736090D01*
G01X4808220Y-1671066D02*
G01X4783328Y-1736090D01*
G01X4875530Y-1671066D02*
G01X4875530Y-1736090D01*
G01X4875530Y-1702054D02*
G01X4869180Y-1695704D01*
G01X4863084Y-1692656D01*
G01X4853686Y-1692656D01*
G01X4847590Y-1695704D01*
G01X4841494Y-1702054D01*
G01X4838446Y-1711198D01*
G01X4838446Y-1717548D01*
G01X4841494Y-1726692D01*
G01X4847590Y-1733042D01*
G01X4853686Y-1736090D01*
G01X4863084Y-1736090D01*
G01X4869180Y-1733042D01*
G01X4875530Y-1726692D01*
G01X4927346Y-1671066D02*
G01X4927346Y-1736090D01*
G01X4905756Y-1671066D02*
G01X4948936Y-1671066D01*
G01X5540502Y-3235960D02*
G01X5537454Y-3229610D01*
G01X5531104Y-3223514D01*
G01X5525008Y-3220466D01*
G01X5512562Y-3220466D01*
G01X5506466Y-3223514D01*
G01X5500116Y-3229610D01*
G01X5497068Y-3235960D01*
G01X5494020Y-3245104D01*
G01X5494020Y-3260598D01*
G01X5497068Y-3269996D01*
G01X5500116Y-3276092D01*
G01X5506466Y-3282442D01*
G01X5512562Y-3285490D01*
G01X5525008Y-3285490D01*
G01X5531104Y-3282442D01*
G01X5537454Y-3276092D01*
G01X5540502Y-3269996D01*
G01X5570728Y-3307080D02*
G01X5626354Y-3307080D01*
G01X5656580Y-3220466D02*
G01X5656580Y-3285490D01*
G01X5656580Y-3220466D02*
G01X5696712Y-3220466D01*
G01X5656580Y-3251454D02*
G01X5681218Y-3251454D01*
G01X5726938Y-3220466D02*
G01X5726938Y-3285490D01*
G01X5726938Y-3220466D02*
G01X5767070Y-3220466D01*
G01X5726938Y-3251454D02*
G01X5751576Y-3251454D01*
G01X3711702Y-607060D02*
G01X3708654Y-600710D01*
G01X3702304Y-594614D01*
G01X3696208Y-591566D01*
G01X3683762Y-591566D01*
G01X3677666Y-594614D01*
G01X3671316Y-600710D01*
G01X3668268Y-607060D01*
G01X3665220Y-616204D01*
G01X3665220Y-631698D01*
G01X3668268Y-641096D01*
G01X3671316Y-647192D01*
G01X3677666Y-653542D01*
G01X3683762Y-656590D01*
G01X3696208Y-656590D01*
G01X3702304Y-653542D01*
G01X3708654Y-647192D01*
G01X3711702Y-641096D01*
G01X3741928Y-678180D02*
G01X3797554Y-678180D01*
G01X3827780Y-591566D02*
G01X3827780Y-656590D01*
G01X3870960Y-591566D02*
G01X3870960Y-656590D01*
G01X3827780Y-622554D02*
G01X3870960Y-622554D01*
G01X3901186Y-591566D02*
G01X3901186Y-656590D01*
G01X3901186Y-591566D02*
G01X3941318Y-591566D01*
G01X3901186Y-622554D02*
G01X3925824Y-622554D01*
G01X3013202Y-619760D02*
G01X3010154Y-613410D01*
G01X3003804Y-607314D01*
G01X2997708Y-604266D01*
G01X2985262Y-604266D01*
G01X2979166Y-607314D01*
G01X2972816Y-613410D01*
G01X2969768Y-619760D01*
G01X2966720Y-628904D01*
G01X2966720Y-644398D01*
G01X2969768Y-653796D01*
G01X2972816Y-659892D01*
G01X2979166Y-666242D01*
G01X2985262Y-669290D01*
G01X2997708Y-669290D01*
G01X3003804Y-666242D01*
G01X3010154Y-659892D01*
G01X3013202Y-653796D01*
G01X3043428Y-690880D02*
G01X3099054Y-690880D01*
G01X3129280Y-604266D02*
G01X3129280Y-669290D01*
G01X3159506Y-604266D02*
G01X3159506Y-669290D01*
G01X3159506Y-604266D02*
G01X3202686Y-669290D01*
G01X3202686Y-604266D02*
G01X3202686Y-669290D01*
G01X5121402Y-2397760D02*
G01X5118354Y-2391410D01*
G01X5112004Y-2385314D01*
G01X5105908Y-2382266D01*
G01X5093462Y-2382266D01*
G01X5087366Y-2385314D01*
G01X5081016Y-2391410D01*
G01X5077968Y-2397760D01*
G01X5074920Y-2406904D01*
G01X5074920Y-2422398D01*
G01X5077968Y-2431796D01*
G01X5081016Y-2437892D01*
G01X5087366Y-2444242D01*
G01X5093462Y-2447290D01*
G01X5105908Y-2447290D01*
G01X5112004Y-2444242D01*
G01X5118354Y-2437892D01*
G01X5121402Y-2431796D01*
G01X5151628Y-2468880D02*
G01X5207254Y-2468880D01*
G01X5237480Y-2382266D02*
G01X5237480Y-2447290D01*
G01X5267706Y-2382266D02*
G01X5267706Y-2447290D01*
G01X5267706Y-2382266D02*
G01X5310886Y-2447290D01*
G01X5310886Y-2382266D02*
G01X5310886Y-2447290D01*
G01X5341112Y-2394712D02*
G01X5347208Y-2391410D01*
G01X5356352Y-2382266D01*
G01X5356352Y-2447290D01*
G01X6340602Y-2423160D02*
G01X6337554Y-2416810D01*
G01X6331204Y-2410714D01*
G01X6325108Y-2407666D01*
G01X6312662Y-2407666D01*
G01X6306566Y-2410714D01*
G01X6300216Y-2416810D01*
G01X6297168Y-2423160D01*
G01X6294120Y-2432304D01*
G01X6294120Y-2447798D01*
G01X6297168Y-2457196D01*
G01X6300216Y-2463292D01*
G01X6306566Y-2469642D01*
G01X6312662Y-2472690D01*
G01X6325108Y-2472690D01*
G01X6331204Y-2469642D01*
G01X6337554Y-2463292D01*
G01X6340602Y-2457196D01*
G01X6370828Y-2494280D02*
G01X6426454Y-2494280D01*
G01X6456680Y-2407666D02*
G01X6456680Y-2472690D01*
G01X6456680Y-2407666D02*
G01X6499860Y-2472690D01*
G01X6499860Y-2407666D02*
G01X6499860Y-2472690D01*
G01X6530086Y-2407666D02*
G01X6530086Y-2472690D01*
G01X6530086Y-2407666D02*
G01X6557772Y-2407666D01*
G01X6567170Y-2410714D01*
G01X6570218Y-2413762D01*
G01X6573266Y-2420112D01*
G01X6573266Y-2426208D01*
G01X6570218Y-2432304D01*
G01X6567170Y-2435352D01*
G01X6557772Y-2438654D01*
G01X6530086Y-2438654D01*
G01X6551676Y-2438654D02*
G01X6573266Y-2472690D01*
G01X6659118Y-2395220D02*
G01X6603492Y-2494280D01*
G01X6732524Y-2416810D02*
G01X6726428Y-2410714D01*
G01X6717030Y-2407666D01*
G01X6704584Y-2407666D01*
G01X6695440Y-2410714D01*
G01X6689344Y-2416810D01*
G01X6689344Y-2423160D01*
G01X6692392Y-2429256D01*
G01X6695440Y-2432304D01*
G01X6701536Y-2435352D01*
G01X6720078Y-2441702D01*
G01X6726428Y-2444750D01*
G01X6729476Y-2447798D01*
G01X6732524Y-2454148D01*
G01X6732524Y-2463292D01*
G01X6726428Y-2469642D01*
G01X6717030Y-2472690D01*
G01X6704584Y-2472690D01*
G01X6695440Y-2469642D01*
G01X6689344Y-2463292D01*
G01X6805930Y-2416810D02*
G01X6799834Y-2410714D01*
G01X6790436Y-2407666D01*
G01X6777990Y-2407666D01*
G01X6768846Y-2410714D01*
G01X6762750Y-2416810D01*
G01X6762750Y-2423160D01*
G01X6765798Y-2429256D01*
G01X6768846Y-2432304D01*
G01X6774942Y-2435352D01*
G01X6793484Y-2441702D01*
G01X6799834Y-2444750D01*
G01X6802882Y-2447798D01*
G01X6805930Y-2454148D01*
G01X6805930Y-2463292D01*
G01X6799834Y-2469642D01*
G01X6790436Y-2472690D01*
G01X6777990Y-2472690D01*
G01X6768846Y-2469642D01*
G01X6762750Y-2463292D01*
G01X4867402Y-3274060D02*
G01X4864354Y-3267710D01*
G01X4858004Y-3261614D01*
G01X4851908Y-3258566D01*
G01X4839462Y-3258566D01*
G01X4833366Y-3261614D01*
G01X4827016Y-3267710D01*
G01X4823968Y-3274060D01*
G01X4820920Y-3283204D01*
G01X4820920Y-3298698D01*
G01X4823968Y-3308096D01*
G01X4827016Y-3314192D01*
G01X4833366Y-3320542D01*
G01X4839462Y-3323590D01*
G01X4851908Y-3323590D01*
G01X4858004Y-3320542D01*
G01X4864354Y-3314192D01*
G01X4867402Y-3308096D01*
G01X4897628Y-3345180D02*
G01X4953254Y-3345180D01*
G01X5002022Y-3258566D02*
G01X4995672Y-3261614D01*
G01X4989576Y-3267710D01*
G01X4986528Y-3274060D01*
G01X4983480Y-3283204D01*
G01X4983480Y-3298698D01*
G01X4986528Y-3308096D01*
G01X4989576Y-3314192D01*
G01X4995672Y-3320542D01*
G01X5002022Y-3323590D01*
G01X5014214Y-3323590D01*
G01X5020564Y-3320542D01*
G01X5026660Y-3314192D01*
G01X5029708Y-3308096D01*
G01X5033010Y-3298698D01*
G01X5033010Y-3283204D01*
G01X5029708Y-3274060D01*
G01X5026660Y-3267710D01*
G01X5020564Y-3261614D01*
G01X5014214Y-3258566D01*
G01X5002022Y-3258566D01*
G01X5063236Y-3258566D02*
G01X5063236Y-3305048D01*
G01X5066284Y-3314192D01*
G01X5072380Y-3320542D01*
G01X5081778Y-3323590D01*
G01X5087874Y-3323590D01*
G01X5097272Y-3320542D01*
G01X5103368Y-3314192D01*
G01X5106416Y-3305048D01*
G01X5106416Y-3258566D01*
G01X5158232Y-3258566D02*
G01X5158232Y-3323590D01*
G01X5136642Y-3258566D02*
G01X5179822Y-3258566D01*
G01X5205730Y-2030476D02*
G01X5205730Y-2095500D01*
G01X5205730Y-2030476D02*
G01X5227320Y-2030476D01*
G01X5236718Y-2033524D01*
G01X5242814Y-2039620D01*
G01X5245862Y-2045970D01*
G01X5249164Y-2055114D01*
G01X5249164Y-2070608D01*
G01X5245862Y-2080006D01*
G01X5242814Y-2086102D01*
G01X5236718Y-2092452D01*
G01X5227320Y-2095500D01*
G01X5205730Y-2095500D01*
G01X5282438Y-2045970D02*
G01X5282438Y-2042922D01*
G01X5285486Y-2036572D01*
G01X5288534Y-2033524D01*
G01X5294630Y-2030476D01*
G01X5307076Y-2030476D01*
G01X5313426Y-2033524D01*
G01X5316474Y-2036572D01*
G01X5319522Y-2042922D01*
G01X5319522Y-2049018D01*
G01X5316474Y-2055114D01*
G01X5310124Y-2064512D01*
G01X5279390Y-2095500D01*
G01X5322570Y-2095500D01*
G01X2992984Y-1494130D02*
G01X2992984Y-1559154D01*
G01X2992984Y-1494130D02*
G01X3020924Y-1494130D01*
G01X3030068Y-1497178D01*
G01X3033116Y-1500226D01*
G01X3036418Y-1506576D01*
G01X3036418Y-1512672D01*
G01X3033116Y-1518768D01*
G01X3030068Y-1521816D01*
G01X3020924Y-1525118D01*
G01X2992984Y-1525118D01*
G01X3014574Y-1525118D02*
G01X3036418Y-1559154D01*
G01X3069692Y-1509624D02*
G01X3069692Y-1506576D01*
G01X3072740Y-1500226D01*
G01X3075788Y-1497178D01*
G01X3081884Y-1494130D01*
G01X3094330Y-1494130D01*
G01X3100680Y-1497178D01*
G01X3103728Y-1500226D01*
G01X3106776Y-1506576D01*
G01X3106776Y-1512672D01*
G01X3103728Y-1518768D01*
G01X3097378Y-1528166D01*
G01X3066644Y-1559154D01*
G01X3109824Y-1559154D01*
G01X2496566Y-2075180D02*
G01X2561590Y-2075180D01*
G01X2496566Y-2075180D02*
G01X2496566Y-2047240D01*
G01X2499614Y-2038096D01*
G01X2502662Y-2035048D01*
G01X2509012Y-2031746D01*
G01X2515108Y-2031746D01*
G01X2521204Y-2035048D01*
G01X2524252Y-2038096D01*
G01X2527554Y-2047240D01*
G01X2527554Y-2075180D01*
G01X2527554Y-2053590D02*
G01X2561590Y-2031746D01*
G01X2496566Y-1995424D02*
G01X2496566Y-1961388D01*
G01X2521204Y-1979930D01*
G01X2521204Y-1970786D01*
G01X2524252Y-1964436D01*
G01X2527554Y-1961388D01*
G01X2536698Y-1958340D01*
G01X2543048Y-1958340D01*
G01X2552192Y-1961388D01*
G01X2558542Y-1967484D01*
G01X2561590Y-1976882D01*
G01X2561590Y-1986280D01*
G01X2558542Y-1995424D01*
G01X2555240Y-1998472D01*
G01X2549144Y-2001520D01*
G01X4528820Y-1378966D02*
G01X4528820Y-1443990D01*
G01X4528820Y-1378966D02*
G01X4556760Y-1378966D01*
G01X4565904Y-1382014D01*
G01X4568952Y-1385062D01*
G01X4572254Y-1391412D01*
G01X4572254Y-1397508D01*
G01X4568952Y-1403604D01*
G01X4565904Y-1406652D01*
G01X4556760Y-1409954D01*
G01X4528820Y-1409954D01*
G01X4550410Y-1409954D02*
G01X4572254Y-1443990D01*
G01X4639564Y-1378966D02*
G01X4608576Y-1378966D01*
G01X4605528Y-1406652D01*
G01X4608576Y-1403604D01*
G01X4617720Y-1400556D01*
G01X4627118Y-1400556D01*
G01X4636516Y-1403604D01*
G01X4642612Y-1409954D01*
G01X4645660Y-1419098D01*
G01X4645660Y-1425448D01*
G01X4642612Y-1434592D01*
G01X4636516Y-1440942D01*
G01X4627118Y-1443990D01*
G01X4617720Y-1443990D01*
G01X4608576Y-1440942D01*
G01X4605528Y-1437640D01*
G01X4602480Y-1431544D01*
G01X5138420Y-2826766D02*
G01X5138420Y-2891790D01*
G01X5138420Y-2826766D02*
G01X5166360Y-2826766D01*
G01X5175504Y-2829814D01*
G01X5178552Y-2832862D01*
G01X5181854Y-2839212D01*
G01X5181854Y-2845308D01*
G01X5178552Y-2851404D01*
G01X5175504Y-2854452D01*
G01X5166360Y-2857754D01*
G01X5138420Y-2857754D01*
G01X5160010Y-2857754D02*
G01X5181854Y-2891790D01*
G01X5249164Y-2835910D02*
G01X5246116Y-2829814D01*
G01X5236718Y-2826766D01*
G01X5230622Y-2826766D01*
G01X5221224Y-2829814D01*
G01X5215128Y-2839212D01*
G01X5212080Y-2854452D01*
G01X5212080Y-2869946D01*
G01X5215128Y-2882392D01*
G01X5221224Y-2888742D01*
G01X5230622Y-2891790D01*
G01X5233670Y-2891790D01*
G01X5242814Y-2888742D01*
G01X5249164Y-2882392D01*
G01X5252212Y-2873248D01*
G01X5252212Y-2869946D01*
G01X5249164Y-2860802D01*
G01X5242814Y-2854452D01*
G01X5233670Y-2851404D01*
G01X5230622Y-2851404D01*
G01X5221224Y-2854452D01*
G01X5215128Y-2860802D01*
G01X5212080Y-2869946D01*
G01X6230620Y-2814066D02*
G01X6230620Y-2879090D01*
G01X6230620Y-2814066D02*
G01X6258560Y-2814066D01*
G01X6267704Y-2817114D01*
G01X6270752Y-2820162D01*
G01X6274054Y-2826512D01*
G01X6274054Y-2832608D01*
G01X6270752Y-2838704D01*
G01X6267704Y-2841752D01*
G01X6258560Y-2845054D01*
G01X6230620Y-2845054D01*
G01X6252210Y-2845054D02*
G01X6274054Y-2879090D01*
G01X6319520Y-2814066D02*
G01X6310376Y-2817114D01*
G01X6307328Y-2823210D01*
G01X6307328Y-2829560D01*
G01X6310376Y-2835656D01*
G01X6316472Y-2838704D01*
G01X6328918Y-2841752D01*
G01X6338316Y-2845054D01*
G01X6344412Y-2851150D01*
G01X6347460Y-2857246D01*
G01X6347460Y-2866644D01*
G01X6344412Y-2872740D01*
G01X6341364Y-2876042D01*
G01X6331966Y-2879090D01*
G01X6319520Y-2879090D01*
G01X6310376Y-2876042D01*
G01X6307328Y-2872740D01*
G01X6304280Y-2866644D01*
G01X6304280Y-2857246D01*
G01X6307328Y-2851150D01*
G01X6313424Y-2845054D01*
G01X6322822Y-2841752D01*
G01X6335014Y-2838704D01*
G01X6341364Y-2835656D01*
G01X6344412Y-2829560D01*
G01X6344412Y-2823210D01*
G01X6341364Y-2817114D01*
G01X6331966Y-2814066D01*
G01X6319520Y-2814066D01*
G01X6571234Y-4655820D02*
G01X6506210Y-4655820D01*
G01X6571234Y-4655820D02*
G01X6571234Y-4683760D01*
G01X6568186Y-4692904D01*
G01X6565138Y-4695952D01*
G01X6558788Y-4699254D01*
G01X6552692Y-4699254D01*
G01X6546596Y-4695952D01*
G01X6543548Y-4692904D01*
G01X6540246Y-4683760D01*
G01X6540246Y-4655820D01*
G01X6540246Y-4677410D02*
G01X6506210Y-4699254D01*
G01X6549644Y-4769612D02*
G01X6540246Y-4766564D01*
G01X6534150Y-4760214D01*
G01X6531102Y-4751070D01*
G01X6531102Y-4748022D01*
G01X6534150Y-4738624D01*
G01X6540246Y-4732528D01*
G01X6549644Y-4729480D01*
G01X6552692Y-4729480D01*
G01X6562090Y-4732528D01*
G01X6568186Y-4738624D01*
G01X6571234Y-4748022D01*
G01X6571234Y-4751070D01*
G01X6568186Y-4760214D01*
G01X6562090Y-4766564D01*
G01X6549644Y-4769612D01*
G01X6534150Y-4769612D01*
G01X6518656Y-4766564D01*
G01X6509258Y-4760214D01*
G01X6506210Y-4751070D01*
G01X6506210Y-4744720D01*
G01X6509258Y-4735576D01*
G01X6515608Y-4732528D01*
G01X4516120Y-1137666D02*
G01X4516120Y-1202690D01*
G01X4516120Y-1137666D02*
G01X4544060Y-1137666D01*
G01X4553204Y-1140714D01*
G01X4556252Y-1143762D01*
G01X4559554Y-1150112D01*
G01X4559554Y-1156208D01*
G01X4556252Y-1162304D01*
G01X4553204Y-1165352D01*
G01X4544060Y-1168654D01*
G01X4516120Y-1168654D01*
G01X4537710Y-1168654D02*
G01X4559554Y-1202690D01*
G01X4589780Y-1224280D02*
G01X4645406Y-1224280D01*
G01X4675632Y-1137666D02*
G01X4675632Y-1202690D01*
G01X4675632Y-1137666D02*
G01X4715764Y-1137666D01*
G01X4675632Y-1168654D02*
G01X4700270Y-1168654D01*
G01X4745990Y-1137666D02*
G01X4745990Y-1202690D01*
G01X4745990Y-1202690D02*
G01X4783074Y-1202690D01*
G01X4834890Y-1137666D02*
G01X4834890Y-1202690D01*
G01X4813300Y-1137666D02*
G01X4856480Y-1137666D01*
G01X4541520Y-1912366D02*
G01X4541520Y-1977390D01*
G01X4541520Y-1912366D02*
G01X4569460Y-1912366D01*
G01X4578604Y-1915414D01*
G01X4581652Y-1918462D01*
G01X4584954Y-1924812D01*
G01X4584954Y-1930908D01*
G01X4581652Y-1937004D01*
G01X4578604Y-1940052D01*
G01X4569460Y-1943354D01*
G01X4541520Y-1943354D01*
G01X4563110Y-1943354D02*
G01X4584954Y-1977390D01*
G01X4615180Y-1998980D02*
G01X4670806Y-1998980D01*
G01X4701032Y-1912366D02*
G01X4701032Y-1977390D01*
G01X4731258Y-1912366D02*
G01X4731258Y-1977390D01*
G01X4731258Y-1977390D02*
G01X4768342Y-1977390D01*
G01X4798568Y-1912366D02*
G01X4798568Y-1977390D01*
G01X4828794Y-1912366D02*
G01X4828794Y-1977390D01*
G01X4828794Y-1912366D02*
G01X4853432Y-1977390D01*
G01X4878324Y-1912366D02*
G01X4853432Y-1977390D01*
G01X4878324Y-1912366D02*
G01X4878324Y-1977390D01*
G01X3652520Y-2077466D02*
G01X3652520Y-2142490D01*
G01X3652520Y-2077466D02*
G01X3680460Y-2077466D01*
G01X3689604Y-2080514D01*
G01X3692652Y-2083562D01*
G01X3695954Y-2089912D01*
G01X3695954Y-2096008D01*
G01X3692652Y-2102104D01*
G01X3689604Y-2105152D01*
G01X3680460Y-2108454D01*
G01X3652520Y-2108454D01*
G01X3674110Y-2108454D02*
G01X3695954Y-2142490D01*
G01X3726180Y-2164080D02*
G01X3781806Y-2164080D01*
G01X3812032Y-2077466D02*
G01X3812032Y-2142490D01*
G01X3812032Y-2077466D02*
G01X3836670Y-2142490D01*
G01X3861562Y-2077466D02*
G01X3836670Y-2142490D01*
G01X3861562Y-2077466D02*
G01X3861562Y-2142490D01*
G01X3910330Y-2077466D02*
G01X3903980Y-2080514D01*
G01X3897884Y-2086610D01*
G01X3894836Y-2092960D01*
G01X3891788Y-2102104D01*
G01X3891788Y-2117598D01*
G01X3894836Y-2126996D01*
G01X3897884Y-2133092D01*
G01X3903980Y-2139442D01*
G01X3910330Y-2142490D01*
G01X3922522Y-2142490D01*
G01X3928872Y-2139442D01*
G01X3934968Y-2133092D01*
G01X3938016Y-2126996D01*
G01X3941318Y-2117598D01*
G01X3941318Y-2102104D01*
G01X3938016Y-2092960D01*
G01X3934968Y-2086610D01*
G01X3928872Y-2080514D01*
G01X3922522Y-2077466D01*
G01X3910330Y-2077466D01*
G01X3971544Y-2077466D02*
G01X3971544Y-2142490D01*
G01X3971544Y-2077466D02*
G01X3993134Y-2077466D01*
G01X4002278Y-2080514D01*
G01X4008628Y-2086610D01*
G01X4011676Y-2092960D01*
G01X4014724Y-2102104D01*
G01X4014724Y-2117598D01*
G01X4011676Y-2126996D01*
G01X4008628Y-2133092D01*
G01X4002278Y-2139442D01*
G01X3993134Y-2142490D01*
G01X3971544Y-2142490D01*
G01X4044950Y-2077466D02*
G01X4044950Y-2142490D01*
G01X4044950Y-2077466D02*
G01X4085082Y-2077466D01*
G01X4044950Y-2108454D02*
G01X4069588Y-2108454D01*
G01X4044950Y-2142490D02*
G01X4085082Y-2142490D01*
G01X2458720Y-2242566D02*
G01X2458720Y-2307590D01*
G01X2458720Y-2242566D02*
G01X2486660Y-2242566D01*
G01X2495804Y-2245614D01*
G01X2498852Y-2248662D01*
G01X2502154Y-2255012D01*
G01X2502154Y-2261108D01*
G01X2498852Y-2267204D01*
G01X2495804Y-2270252D01*
G01X2486660Y-2273554D01*
G01X2458720Y-2273554D01*
G01X2480310Y-2273554D02*
G01X2502154Y-2307590D01*
G01X2532380Y-2329180D02*
G01X2588006Y-2329180D01*
G01X2661412Y-2251710D02*
G01X2655316Y-2245614D01*
G01X2645918Y-2242566D01*
G01X2633472Y-2242566D01*
G01X2624328Y-2245614D01*
G01X2618232Y-2251710D01*
G01X2618232Y-2258060D01*
G01X2621280Y-2264156D01*
G01X2624328Y-2267204D01*
G01X2630424Y-2270252D01*
G01X2648966Y-2276602D01*
G01X2655316Y-2279650D01*
G01X2658364Y-2282698D01*
G01X2661412Y-2289048D01*
G01X2661412Y-2298192D01*
G01X2655316Y-2304542D01*
G01X2645918Y-2307590D01*
G01X2633472Y-2307590D01*
G01X2624328Y-2304542D01*
G01X2618232Y-2298192D01*
G01X2691638Y-2242566D02*
G01X2691638Y-2307590D01*
G01X2734818Y-2242566D02*
G01X2734818Y-2307590D01*
G01X2691638Y-2273554D02*
G01X2734818Y-2273554D01*
G01X2765044Y-2242566D02*
G01X2765044Y-2307590D01*
G01X2765044Y-2242566D02*
G01X2786634Y-2242566D01*
G01X2795778Y-2245614D01*
G01X2802128Y-2251710D01*
G01X2805176Y-2258060D01*
G01X2808224Y-2267204D01*
G01X2808224Y-2282698D01*
G01X2805176Y-2292096D01*
G01X2802128Y-2298192D01*
G01X2795778Y-2304542D01*
G01X2786634Y-2307590D01*
G01X2765044Y-2307590D01*
G01X2838450Y-2242566D02*
G01X2838450Y-2307590D01*
G01X2838450Y-2242566D02*
G01X2881630Y-2307590D01*
G01X2881630Y-2242566D02*
G01X2881630Y-2307590D01*
G01X3474720Y-1201166D02*
G01X3474720Y-1247648D01*
G01X3477768Y-1256792D01*
G01X3484118Y-1263142D01*
G01X3493262Y-1266190D01*
G01X3499612Y-1266190D01*
G01X3508756Y-1263142D01*
G01X3514852Y-1256792D01*
G01X3518154Y-1247648D01*
G01X3518154Y-1201166D01*
G01X3548380Y-1213612D02*
G01X3554476Y-1210310D01*
G01X3563620Y-1201166D01*
G01X3563620Y-1266190D01*
G54D10*
G01X1500886Y-166370D02*
G01X1543304Y-278130D01*
G01X1585976Y-166370D02*
G01X1543304Y-278130D01*
G01X1641602Y-166370D02*
G01X1641602Y-278130D01*
G01X1697228Y-166370D02*
G01X1697228Y-278130D01*
G01X1697228Y-166370D02*
G01X1771396Y-278130D01*
G01X1771396Y-166370D02*
G01X1771396Y-278130D01*
G01X1890522Y-203708D02*
G01X1890522Y-288544D01*
G01X1885442Y-304546D01*
G01X1880108Y-309880D01*
G01X1869440Y-315214D01*
G01X1853438Y-315214D01*
G01X1842770Y-309880D01*
G01X1890522Y-219456D02*
G01X1880108Y-209042D01*
G01X1869440Y-203708D01*
G01X1853438Y-203708D01*
G01X1842770Y-209042D01*
G01X1832102Y-219456D01*
G01X1827022Y-235458D01*
G01X1827022Y-246126D01*
G01X1832102Y-262128D01*
G01X1842770Y-272796D01*
G01X1853438Y-278130D01*
G01X1869440Y-278130D01*
G01X1880108Y-272796D01*
G01X1890522Y-262128D01*
G01X1972564Y-203708D02*
G01X1961896Y-209042D01*
G01X1951228Y-219456D01*
G01X1946148Y-235458D01*
G01X1946148Y-246126D01*
G01X1951228Y-262128D01*
G01X1961896Y-272796D01*
G01X1972564Y-278130D01*
G01X1988566Y-278130D01*
G01X1999234Y-272796D01*
G01X2009648Y-262128D01*
G01X2014982Y-246126D01*
G01X2014982Y-235458D01*
G01X2009648Y-219456D01*
G01X1999234Y-209042D01*
G01X1988566Y-203708D01*
G01X1972564Y-203708D01*
G01X2097024Y-203708D02*
G01X2086356Y-209042D01*
G01X2075688Y-219456D01*
G01X2070608Y-235458D01*
G01X2070608Y-246126D01*
G01X2075688Y-262128D01*
G01X2086356Y-272796D01*
G01X2097024Y-278130D01*
G01X2113026Y-278130D01*
G01X2123694Y-272796D01*
G01X2134108Y-262128D01*
G01X2139442Y-246126D01*
G01X2139442Y-235458D01*
G01X2134108Y-219456D01*
G01X2123694Y-209042D01*
G01X2113026Y-203708D01*
G01X2097024Y-203708D01*
G01X2258568Y-166370D02*
G01X2258568Y-278130D01*
G01X2258568Y-219456D02*
G01X2248154Y-209042D01*
G01X2237486Y-203708D01*
G01X2221484Y-203708D01*
G01X2210816Y-209042D01*
G01X2200148Y-219456D01*
G01X2195068Y-235458D01*
G01X2195068Y-246126D01*
G01X2200148Y-262128D01*
G01X2210816Y-272796D01*
G01X2221484Y-278130D01*
G01X2237486Y-278130D01*
G01X2248154Y-272796D01*
G01X2258568Y-262128D01*
G54D11*
G01X3208020Y-5366766D02*
G01X3208020Y-5413248D01*
G01X3211068Y-5422392D01*
G01X3217418Y-5428742D01*
G01X3226562Y-5431790D01*
G01X3232912Y-5431790D01*
G01X3242056Y-5428742D01*
G01X3248152Y-5422392D01*
G01X3251454Y-5413248D01*
G01X3251454Y-5366766D01*
G01X3312414Y-5366766D02*
G01X3281680Y-5409946D01*
G01X3327908Y-5409946D01*
G01X3312414Y-5366766D02*
G01X3312414Y-5431790D01*
G01X6431171Y-3675765D02*
G01X6424821Y-3678813D01*
G01X6418725Y-3685163D01*
G01X6415677Y-3691259D01*
G01X6415677Y-3703705D01*
G01X6418725Y-3709801D01*
G01X6424821Y-3716151D01*
G01X6431171Y-3719199D01*
G01X6440315Y-3722247D01*
G01X6455809Y-3722247D01*
G01X6465207Y-3719199D01*
G01X6471303Y-3716151D01*
G01X6477653Y-3709801D01*
G01X6480701Y-3703705D01*
G01X6480701Y-3691259D01*
G01X6477653Y-3685163D01*
G01X6471303Y-3678813D01*
G01X6465207Y-3675765D01*
G01X6428123Y-3645539D02*
G01X6424821Y-3639443D01*
G01X6415677Y-3630299D01*
G01X6480701Y-3630299D01*
G01X6431171Y-3891665D02*
G01X6424821Y-3894713D01*
G01X6418725Y-3901063D01*
G01X6415677Y-3907159D01*
G01X6415677Y-3919605D01*
G01X6418725Y-3925701D01*
G01X6424821Y-3932051D01*
G01X6431171Y-3935099D01*
G01X6440315Y-3938147D01*
G01X6455809Y-3938147D01*
G01X6465207Y-3935099D01*
G01X6471303Y-3932051D01*
G01X6477653Y-3925701D01*
G01X6480701Y-3919605D01*
G01X6480701Y-3907159D01*
G01X6477653Y-3901063D01*
G01X6471303Y-3894713D01*
G01X6465207Y-3891665D01*
G01X6431171Y-3858391D02*
G01X6428123Y-3858391D01*
G01X6421773Y-3855343D01*
G01X6418725Y-3852295D01*
G01X6415677Y-3846199D01*
G01X6415677Y-3833753D01*
G01X6418725Y-3827403D01*
G01X6421773Y-3824355D01*
G01X6428123Y-3821307D01*
G01X6434219Y-3821307D01*
G01X6440315Y-3824355D01*
G01X6449713Y-3830705D01*
G01X6480701Y-3861439D01*
G01X6480701Y-3818259D01*
G01X4854702Y-3756660D02*
G01X4851654Y-3750310D01*
G01X4845304Y-3744214D01*
G01X4839208Y-3741166D01*
G01X4826762Y-3741166D01*
G01X4820666Y-3744214D01*
G01X4814316Y-3750310D01*
G01X4811268Y-3756660D01*
G01X4808220Y-3765804D01*
G01X4808220Y-3781298D01*
G01X4811268Y-3790696D01*
G01X4814316Y-3796792D01*
G01X4820666Y-3803142D01*
G01X4826762Y-3806190D01*
G01X4839208Y-3806190D01*
G01X4845304Y-3803142D01*
G01X4851654Y-3796792D01*
G01X4854702Y-3790696D01*
G01X4891024Y-3741166D02*
G01X4925060Y-3741166D01*
G01X4906518Y-3765804D01*
G01X4915662Y-3765804D01*
G01X4922012Y-3768852D01*
G01X4925060Y-3772154D01*
G01X4928108Y-3781298D01*
G01X4928108Y-3787648D01*
G01X4925060Y-3796792D01*
G01X4918964Y-3803142D01*
G01X4909566Y-3806190D01*
G01X4900168Y-3806190D01*
G01X4891024Y-3803142D01*
G01X4887976Y-3799840D01*
G01X4884928Y-3793744D01*
G01X3102102Y-4848860D02*
G01X3099054Y-4842510D01*
G01X3092704Y-4836414D01*
G01X3086608Y-4833366D01*
G01X3074162Y-4833366D01*
G01X3068066Y-4836414D01*
G01X3061716Y-4842510D01*
G01X3058668Y-4848860D01*
G01X3055620Y-4858004D01*
G01X3055620Y-4873498D01*
G01X3058668Y-4882896D01*
G01X3061716Y-4888992D01*
G01X3068066Y-4895342D01*
G01X3074162Y-4898390D01*
G01X3086608Y-4898390D01*
G01X3092704Y-4895342D01*
G01X3099054Y-4888992D01*
G01X3102102Y-4882896D01*
G01X3163062Y-4833366D02*
G01X3132328Y-4876546D01*
G01X3178556Y-4876546D01*
G01X3163062Y-4833366D02*
G01X3163062Y-4898390D01*
G01X3495802Y-4683760D02*
G01X3492754Y-4677410D01*
G01X3486404Y-4671314D01*
G01X3480308Y-4668266D01*
G01X3467862Y-4668266D01*
G01X3461766Y-4671314D01*
G01X3455416Y-4677410D01*
G01X3452368Y-4683760D01*
G01X3449320Y-4692904D01*
G01X3449320Y-4708398D01*
G01X3452368Y-4717796D01*
G01X3455416Y-4723892D01*
G01X3461766Y-4730242D01*
G01X3467862Y-4733290D01*
G01X3480308Y-4733290D01*
G01X3486404Y-4730242D01*
G01X3492754Y-4723892D01*
G01X3495802Y-4717796D01*
G01X3563112Y-4668266D02*
G01X3532124Y-4668266D01*
G01X3529076Y-4695952D01*
G01X3532124Y-4692904D01*
G01X3541268Y-4689856D01*
G01X3550666Y-4689856D01*
G01X3560064Y-4692904D01*
G01X3566160Y-4699254D01*
G01X3569208Y-4708398D01*
G01X3569208Y-4714748D01*
G01X3566160Y-4723892D01*
G01X3560064Y-4730242D01*
G01X3550666Y-4733290D01*
G01X3541268Y-4733290D01*
G01X3532124Y-4730242D01*
G01X3529076Y-4726940D01*
G01X3526028Y-4720844D01*
G01X3744722Y-4531360D02*
G01X3741674Y-4525010D01*
G01X3735324Y-4518914D01*
G01X3729228Y-4515866D01*
G01X3716782Y-4515866D01*
G01X3710686Y-4518914D01*
G01X3704336Y-4525010D01*
G01X3701288Y-4531360D01*
G01X3698240Y-4540504D01*
G01X3698240Y-4555998D01*
G01X3701288Y-4565396D01*
G01X3704336Y-4571492D01*
G01X3710686Y-4577842D01*
G01X3716782Y-4580890D01*
G01X3729228Y-4580890D01*
G01X3735324Y-4577842D01*
G01X3741674Y-4571492D01*
G01X3744722Y-4565396D01*
G01X3812032Y-4525010D02*
G01X3808984Y-4518914D01*
G01X3799586Y-4515866D01*
G01X3793490Y-4515866D01*
G01X3784092Y-4518914D01*
G01X3777996Y-4528312D01*
G01X3774948Y-4543552D01*
G01X3774948Y-4559046D01*
G01X3777996Y-4571492D01*
G01X3784092Y-4577842D01*
G01X3793490Y-4580890D01*
G01X3796538Y-4580890D01*
G01X3805682Y-4577842D01*
G01X3812032Y-4571492D01*
G01X3815080Y-4562348D01*
G01X3815080Y-4559046D01*
G01X3812032Y-4549902D01*
G01X3805682Y-4543552D01*
G01X3796538Y-4540504D01*
G01X3793490Y-4540504D01*
G01X3784092Y-4543552D01*
G01X3777996Y-4549902D01*
G01X3774948Y-4559046D01*
G01X3737102Y-5547360D02*
G01X3734054Y-5541010D01*
G01X3727704Y-5534914D01*
G01X3721608Y-5531866D01*
G01X3709162Y-5531866D01*
G01X3703066Y-5534914D01*
G01X3696716Y-5541010D01*
G01X3693668Y-5547360D01*
G01X3690620Y-5556504D01*
G01X3690620Y-5571998D01*
G01X3693668Y-5581396D01*
G01X3696716Y-5587492D01*
G01X3703066Y-5593842D01*
G01X3709162Y-5596890D01*
G01X3721608Y-5596890D01*
G01X3727704Y-5593842D01*
G01X3734054Y-5587492D01*
G01X3737102Y-5581396D01*
G01X3810508Y-5531866D02*
G01X3779520Y-5596890D01*
G01X3767328Y-5531866D02*
G01X3810508Y-5531866D01*
G01X3342749Y-5710989D02*
G01X3336399Y-5714037D01*
G01X3330303Y-5720387D01*
G01X3327255Y-5726483D01*
G01X3327255Y-5738929D01*
G01X3330303Y-5745025D01*
G01X3336399Y-5751375D01*
G01X3342749Y-5754423D01*
G01X3351893Y-5757471D01*
G01X3367387Y-5757471D01*
G01X3376785Y-5754423D01*
G01X3382881Y-5751375D01*
G01X3389231Y-5745025D01*
G01X3392279Y-5738929D01*
G01X3392279Y-5726483D01*
G01X3389231Y-5720387D01*
G01X3382881Y-5714037D01*
G01X3376785Y-5710989D01*
G01X3327255Y-5665523D02*
G01X3330303Y-5674667D01*
G01X3336399Y-5677715D01*
G01X3342749Y-5677715D01*
G01X3348845Y-5674667D01*
G01X3351893Y-5668571D01*
G01X3354941Y-5656125D01*
G01X3358243Y-5646727D01*
G01X3364339Y-5640631D01*
G01X3370435Y-5637583D01*
G01X3379833Y-5637583D01*
G01X3385929Y-5640631D01*
G01X3389231Y-5643679D01*
G01X3392279Y-5653077D01*
G01X3392279Y-5665523D01*
G01X3389231Y-5674667D01*
G01X3385929Y-5677715D01*
G01X3379833Y-5680763D01*
G01X3370435Y-5680763D01*
G01X3364339Y-5677715D01*
G01X3358243Y-5671619D01*
G01X3354941Y-5662221D01*
G01X3351893Y-5650029D01*
G01X3348845Y-5643679D01*
G01X3342749Y-5640631D01*
G01X3336399Y-5640631D01*
G01X3330303Y-5643679D01*
G01X3327255Y-5653077D01*
G01X3327255Y-5665523D01*
G01X4084320Y-3918966D02*
G01X4084320Y-3983990D01*
G01X4084320Y-3918966D02*
G01X4105910Y-3918966D01*
G01X4115308Y-3922014D01*
G01X4121404Y-3928110D01*
G01X4124452Y-3934460D01*
G01X4127754Y-3943604D01*
G01X4127754Y-3959098D01*
G01X4124452Y-3968496D01*
G01X4121404Y-3974592D01*
G01X4115308Y-3980942D01*
G01X4105910Y-3983990D01*
G01X4084320Y-3983990D01*
G01X4164076Y-3918966D02*
G01X4198112Y-3918966D01*
G01X4179570Y-3943604D01*
G01X4188714Y-3943604D01*
G01X4195064Y-3946652D01*
G01X4198112Y-3949954D01*
G01X4201160Y-3959098D01*
G01X4201160Y-3965448D01*
G01X4198112Y-3974592D01*
G01X4192016Y-3980942D01*
G01X4182618Y-3983990D01*
G01X4173220Y-3983990D01*
G01X4164076Y-3980942D01*
G01X4161028Y-3977640D01*
G01X4157980Y-3971544D01*
G01X4084320Y-4528566D02*
G01X4084320Y-4593590D01*
G01X4084320Y-4528566D02*
G01X4105910Y-4528566D01*
G01X4115308Y-4531614D01*
G01X4121404Y-4537710D01*
G01X4124452Y-4544060D01*
G01X4127754Y-4553204D01*
G01X4127754Y-4568698D01*
G01X4124452Y-4578096D01*
G01X4121404Y-4584192D01*
G01X4115308Y-4590542D01*
G01X4105910Y-4593590D01*
G01X4084320Y-4593590D01*
G01X4188714Y-4528566D02*
G01X4157980Y-4571746D01*
G01X4204208Y-4571746D01*
G01X4188714Y-4528566D02*
G01X4188714Y-4593590D01*
G01X3982720Y-5049266D02*
G01X3982720Y-5114290D01*
G01X3982720Y-5049266D02*
G01X4004310Y-5049266D01*
G01X4013708Y-5052314D01*
G01X4019804Y-5058410D01*
G01X4022852Y-5064760D01*
G01X4026154Y-5073904D01*
G01X4026154Y-5089398D01*
G01X4022852Y-5098796D01*
G01X4019804Y-5104892D01*
G01X4013708Y-5111242D01*
G01X4004310Y-5114290D01*
G01X3982720Y-5114290D01*
G01X4093464Y-5049266D02*
G01X4062476Y-5049266D01*
G01X4059428Y-5076952D01*
G01X4062476Y-5073904D01*
G01X4071620Y-5070856D01*
G01X4081018Y-5070856D01*
G01X4090416Y-5073904D01*
G01X4096512Y-5080254D01*
G01X4099560Y-5089398D01*
G01X4099560Y-5095748D01*
G01X4096512Y-5104892D01*
G01X4090416Y-5111242D01*
G01X4081018Y-5114290D01*
G01X4071620Y-5114290D01*
G01X4062476Y-5111242D01*
G01X4059428Y-5107940D01*
G01X4056380Y-5101844D01*
G01X4084320Y-5620766D02*
G01X4084320Y-5685790D01*
G01X4084320Y-5620766D02*
G01X4105910Y-5620766D01*
G01X4115308Y-5623814D01*
G01X4121404Y-5629910D01*
G01X4124452Y-5636260D01*
G01X4127754Y-5645404D01*
G01X4127754Y-5660898D01*
G01X4124452Y-5670296D01*
G01X4121404Y-5676392D01*
G01X4115308Y-5682742D01*
G01X4105910Y-5685790D01*
G01X4084320Y-5685790D01*
G01X4195064Y-5629910D02*
G01X4192016Y-5623814D01*
G01X4182618Y-5620766D01*
G01X4176522Y-5620766D01*
G01X4167124Y-5623814D01*
G01X4161028Y-5633212D01*
G01X4157980Y-5648452D01*
G01X4157980Y-5663946D01*
G01X4161028Y-5676392D01*
G01X4167124Y-5682742D01*
G01X4176522Y-5685790D01*
G01X4179570Y-5685790D01*
G01X4188714Y-5682742D01*
G01X4195064Y-5676392D01*
G01X4198112Y-5667248D01*
G01X4198112Y-5663946D01*
G01X4195064Y-5654802D01*
G01X4188714Y-5648452D01*
G01X4179570Y-5645404D01*
G01X4176522Y-5645404D01*
G01X4167124Y-5648452D01*
G01X4161028Y-5654802D01*
G01X4157980Y-5663946D01*
G01X6571234Y-4452620D02*
G01X6506210Y-4452620D01*
G01X6571234Y-4452620D02*
G01X6571234Y-4480560D01*
G01X6568186Y-4489704D01*
G01X6565138Y-4492752D01*
G01X6558788Y-4496054D01*
G01X6552692Y-4496054D01*
G01X6546596Y-4492752D01*
G01X6543548Y-4489704D01*
G01X6540246Y-4480560D01*
G01X6540246Y-4452620D01*
G01X6540246Y-4474210D02*
G01X6506210Y-4496054D01*
G01X6558788Y-4526280D02*
G01X6562090Y-4532376D01*
G01X6571234Y-4541520D01*
G01X6506210Y-4541520D01*
G01X6571234Y-4590288D02*
G01X6568186Y-4580890D01*
G01X6558788Y-4574794D01*
G01X6543548Y-4571746D01*
G01X6534150Y-4571746D01*
G01X6518656Y-4574794D01*
G01X6509258Y-4580890D01*
G01X6506210Y-4590288D01*
G01X6506210Y-4596384D01*
G01X6509258Y-4605782D01*
G01X6518656Y-4611878D01*
G01X6534150Y-4614926D01*
G01X6543548Y-4614926D01*
G01X6558788Y-4611878D01*
G01X6568186Y-4605782D01*
G01X6571234Y-4596384D01*
G01X6571234Y-4590288D01*
G01X3296839Y-3535815D02*
G01X3296839Y-3600839D01*
G01X3296839Y-3535815D02*
G01X3324779Y-3535815D01*
G01X3333923Y-3538863D01*
G01X3336971Y-3541911D01*
G01X3340273Y-3548261D01*
G01X3340273Y-3554357D01*
G01X3336971Y-3560453D01*
G01X3333923Y-3563501D01*
G01X3324779Y-3566803D01*
G01X3296839Y-3566803D01*
G01X3318429Y-3566803D02*
G01X3340273Y-3600839D01*
G01X3370499Y-3548261D02*
G01X3376595Y-3544959D01*
G01X3385739Y-3535815D01*
G01X3385739Y-3600839D01*
G01X3415965Y-3548261D02*
G01X3422061Y-3544959D01*
G01X3431205Y-3535815D01*
G01X3431205Y-3600839D01*
G01X3309620Y-3258566D02*
G01X3309620Y-3323590D01*
G01X3309620Y-3258566D02*
G01X3337560Y-3258566D01*
G01X3346704Y-3261614D01*
G01X3349752Y-3264662D01*
G01X3353054Y-3271012D01*
G01X3353054Y-3277108D01*
G01X3349752Y-3283204D01*
G01X3346704Y-3286252D01*
G01X3337560Y-3289554D01*
G01X3309620Y-3289554D01*
G01X3331210Y-3289554D02*
G01X3353054Y-3323590D01*
G01X3383280Y-3271012D02*
G01X3389376Y-3267710D01*
G01X3398520Y-3258566D01*
G01X3398520Y-3323590D01*
G01X3431794Y-3274060D02*
G01X3431794Y-3271012D01*
G01X3434842Y-3264662D01*
G01X3437890Y-3261614D01*
G01X3443986Y-3258566D01*
G01X3456432Y-3258566D01*
G01X3462782Y-3261614D01*
G01X3465830Y-3264662D01*
G01X3468878Y-3271012D01*
G01X3468878Y-3277108D01*
G01X3465830Y-3283204D01*
G01X3459480Y-3292602D01*
G01X3428746Y-3323590D01*
G01X3471926Y-3323590D01*
G01X3284220Y-3791966D02*
G01X3284220Y-3856990D01*
G01X3284220Y-3791966D02*
G01X3312160Y-3791966D01*
G01X3321304Y-3795014D01*
G01X3324352Y-3798062D01*
G01X3327654Y-3804412D01*
G01X3327654Y-3810508D01*
G01X3324352Y-3816604D01*
G01X3321304Y-3819652D01*
G01X3312160Y-3822954D01*
G01X3284220Y-3822954D01*
G01X3305810Y-3822954D02*
G01X3327654Y-3856990D01*
G01X3357880Y-3804412D02*
G01X3363976Y-3801110D01*
G01X3373120Y-3791966D01*
G01X3373120Y-3856990D01*
G01X3409442Y-3791966D02*
G01X3443478Y-3791966D01*
G01X3424936Y-3816604D01*
G01X3434080Y-3816604D01*
G01X3440430Y-3819652D01*
G01X3443478Y-3822954D01*
G01X3446526Y-3832098D01*
G01X3446526Y-3838448D01*
G01X3443478Y-3847592D01*
G01X3437382Y-3853942D01*
G01X3427984Y-3856990D01*
G01X3418586Y-3856990D01*
G01X3409442Y-3853942D01*
G01X3406394Y-3850640D01*
G01X3403346Y-3844544D01*
G01X6415677Y-4369951D02*
G01X6480701Y-4369951D01*
G01X6415677Y-4369951D02*
G01X6415677Y-4342011D01*
G01X6418725Y-4332867D01*
G01X6421773Y-4329819D01*
G01X6428123Y-4326517D01*
G01X6434219Y-4326517D01*
G01X6440315Y-4329819D01*
G01X6443363Y-4332867D01*
G01X6446665Y-4342011D01*
G01X6446665Y-4369951D01*
G01X6446665Y-4348361D02*
G01X6480701Y-4326517D01*
G01X6428123Y-4296291D02*
G01X6424821Y-4290195D01*
G01X6415677Y-4281051D01*
G01X6480701Y-4281051D01*
G01X6415677Y-4220091D02*
G01X6458857Y-4250825D01*
G01X6458857Y-4204597D01*
G01X6415677Y-4220091D02*
G01X6480701Y-4220091D01*
G01X6415677Y-4166751D02*
G01X6480701Y-4166751D01*
G01X6415677Y-4166751D02*
G01X6415677Y-4138811D01*
G01X6418725Y-4129667D01*
G01X6421773Y-4126619D01*
G01X6428123Y-4123317D01*
G01X6434219Y-4123317D01*
G01X6440315Y-4126619D01*
G01X6443363Y-4129667D01*
G01X6446665Y-4138811D01*
G01X6446665Y-4166751D01*
G01X6446665Y-4145161D02*
G01X6480701Y-4123317D01*
G01X6428123Y-4093091D02*
G01X6424821Y-4086995D01*
G01X6415677Y-4077851D01*
G01X6480701Y-4077851D01*
G01X6415677Y-4010541D02*
G01X6415677Y-4041529D01*
G01X6443363Y-4044577D01*
G01X6440315Y-4041529D01*
G01X6437267Y-4032385D01*
G01X6437267Y-4022987D01*
G01X6440315Y-4013589D01*
G01X6446665Y-4007493D01*
G01X6455809Y-4004445D01*
G01X6462159Y-4004445D01*
G01X6471303Y-4007493D01*
G01X6477653Y-4013589D01*
G01X6480701Y-4022987D01*
G01X6480701Y-4032385D01*
G01X6477653Y-4041529D01*
G01X6474351Y-4044577D01*
G01X6468255Y-4047625D01*
G01X2395220Y-5277866D02*
G01X2395220Y-5342890D01*
G01X2395220Y-5277866D02*
G01X2423160Y-5277866D01*
G01X2432304Y-5280914D01*
G01X2435352Y-5283962D01*
G01X2438654Y-5290312D01*
G01X2438654Y-5296408D01*
G01X2435352Y-5302504D01*
G01X2432304Y-5305552D01*
G01X2423160Y-5308854D01*
G01X2395220Y-5308854D01*
G01X2416810Y-5308854D02*
G01X2438654Y-5342890D01*
G01X2468880Y-5290312D02*
G01X2474976Y-5287010D01*
G01X2484120Y-5277866D01*
G01X2484120Y-5342890D01*
G01X2551430Y-5287010D02*
G01X2548382Y-5280914D01*
G01X2538984Y-5277866D01*
G01X2532888Y-5277866D01*
G01X2523490Y-5280914D01*
G01X2517394Y-5290312D01*
G01X2514346Y-5305552D01*
G01X2514346Y-5321046D01*
G01X2517394Y-5333492D01*
G01X2523490Y-5339842D01*
G01X2532888Y-5342890D01*
G01X2535936Y-5342890D01*
G01X2545080Y-5339842D01*
G01X2551430Y-5333492D01*
G01X2554478Y-5324348D01*
G01X2554478Y-5321046D01*
G01X2551430Y-5311902D01*
G01X2545080Y-5305552D01*
G01X2535936Y-5302504D01*
G01X2532888Y-5302504D01*
G01X2523490Y-5305552D01*
G01X2517394Y-5311902D01*
G01X2514346Y-5321046D01*
G01X2700274Y-4668266D02*
G01X2700274Y-4733290D01*
G01X2700274Y-4668266D02*
G01X2728214Y-4668266D01*
G01X2737358Y-4671314D01*
G01X2740406Y-4674362D01*
G01X2743708Y-4680712D01*
G01X2743708Y-4686808D01*
G01X2740406Y-4692904D01*
G01X2737358Y-4695952D01*
G01X2728214Y-4699254D01*
G01X2700274Y-4699254D01*
G01X2721864Y-4699254D02*
G01X2743708Y-4733290D01*
G01X2773934Y-4680712D02*
G01X2780030Y-4677410D01*
G01X2789174Y-4668266D01*
G01X2789174Y-4733290D01*
G01X2862580Y-4668266D02*
G01X2831592Y-4733290D01*
G01X2819400Y-4668266D02*
G01X2862580Y-4668266D01*
G01X4427220Y-3918966D02*
G01X4427220Y-3983990D01*
G01X4427220Y-3918966D02*
G01X4455160Y-3918966D01*
G01X4464304Y-3922014D01*
G01X4467352Y-3925062D01*
G01X4470654Y-3931412D01*
G01X4470654Y-3937508D01*
G01X4467352Y-3943604D01*
G01X4464304Y-3946652D01*
G01X4455160Y-3949954D01*
G01X4427220Y-3949954D01*
G01X4448810Y-3949954D02*
G01X4470654Y-3983990D01*
G01X4500880Y-4005580D02*
G01X4556506Y-4005580D01*
G01X4586732Y-3918966D02*
G01X4586732Y-3983990D01*
G01X4586732Y-3918966D02*
G01X4614418Y-3918966D01*
G01X4623816Y-3922014D01*
G01X4626864Y-3925062D01*
G01X4629912Y-3931412D01*
G01X4629912Y-3937508D01*
G01X4626864Y-3943604D01*
G01X4623816Y-3946652D01*
G01X4614418Y-3949954D01*
G01X4586732Y-3949954D02*
G01X4614418Y-3949954D01*
G01X4623816Y-3953002D01*
G01X4626864Y-3956050D01*
G01X4629912Y-3962146D01*
G01X4629912Y-3971544D01*
G01X4626864Y-3977640D01*
G01X4623816Y-3980942D01*
G01X4614418Y-3983990D01*
G01X4586732Y-3983990D01*
G01X4675378Y-3940556D02*
G01X4669282Y-3943604D01*
G01X4663186Y-3949954D01*
G01X4660138Y-3959098D01*
G01X4660138Y-3965448D01*
G01X4663186Y-3974592D01*
G01X4669282Y-3980942D01*
G01X4675378Y-3983990D01*
G01X4684776Y-3983990D01*
G01X4690872Y-3980942D01*
G01X4697222Y-3974592D01*
G01X4700270Y-3965448D01*
G01X4700270Y-3959098D01*
G01X4697222Y-3949954D01*
G01X4690872Y-3943604D01*
G01X4684776Y-3940556D01*
G01X4675378Y-3940556D01*
G01X4739640Y-3918966D02*
G01X4739640Y-3971544D01*
G01X4742688Y-3980942D01*
G01X4749038Y-3983990D01*
G01X4755134Y-3983990D01*
G01X4730496Y-3940556D02*
G01X4752086Y-3940556D01*
G01X4785360Y-3931412D02*
G01X4791456Y-3928110D01*
G01X4800600Y-3918966D01*
G01X4800600Y-3983990D01*
G01X4401820Y-4515866D02*
G01X4401820Y-4580890D01*
G01X4401820Y-4515866D02*
G01X4429760Y-4515866D01*
G01X4438904Y-4518914D01*
G01X4441952Y-4521962D01*
G01X4445254Y-4528312D01*
G01X4445254Y-4534408D01*
G01X4441952Y-4540504D01*
G01X4438904Y-4543552D01*
G01X4429760Y-4546854D01*
G01X4401820Y-4546854D01*
G01X4423410Y-4546854D02*
G01X4445254Y-4580890D01*
G01X4475480Y-4602480D02*
G01X4531106Y-4602480D01*
G01X4561332Y-4515866D02*
G01X4561332Y-4580890D01*
G01X4561332Y-4515866D02*
G01X4589018Y-4515866D01*
G01X4598416Y-4518914D01*
G01X4601464Y-4521962D01*
G01X4604512Y-4528312D01*
G01X4604512Y-4534408D01*
G01X4601464Y-4540504D01*
G01X4598416Y-4543552D01*
G01X4589018Y-4546854D01*
G01X4561332Y-4546854D02*
G01X4589018Y-4546854D01*
G01X4598416Y-4549902D01*
G01X4601464Y-4552950D01*
G01X4604512Y-4559046D01*
G01X4604512Y-4568444D01*
G01X4601464Y-4574540D01*
G01X4598416Y-4577842D01*
G01X4589018Y-4580890D01*
G01X4561332Y-4580890D01*
G01X4649978Y-4537456D02*
G01X4643882Y-4540504D01*
G01X4637786Y-4546854D01*
G01X4634738Y-4555998D01*
G01X4634738Y-4562348D01*
G01X4637786Y-4571492D01*
G01X4643882Y-4577842D01*
G01X4649978Y-4580890D01*
G01X4659376Y-4580890D01*
G01X4665472Y-4577842D01*
G01X4671822Y-4571492D01*
G01X4674870Y-4562348D01*
G01X4674870Y-4555998D01*
G01X4671822Y-4546854D01*
G01X4665472Y-4540504D01*
G01X4659376Y-4537456D01*
G01X4649978Y-4537456D01*
G01X4714240Y-4515866D02*
G01X4714240Y-4568444D01*
G01X4717288Y-4577842D01*
G01X4723638Y-4580890D01*
G01X4729734Y-4580890D01*
G01X4705096Y-4537456D02*
G01X4726686Y-4537456D01*
G01X4763008Y-4531360D02*
G01X4763008Y-4528312D01*
G01X4766056Y-4521962D01*
G01X4769104Y-4518914D01*
G01X4775200Y-4515866D01*
G01X4787646Y-4515866D01*
G01X4793996Y-4518914D01*
G01X4797044Y-4521962D01*
G01X4800092Y-4528312D01*
G01X4800092Y-4534408D01*
G01X4797044Y-4540504D01*
G01X4790694Y-4549902D01*
G01X4759960Y-4580890D01*
G01X4803140Y-4580890D01*
G01X4414520Y-5087366D02*
G01X4414520Y-5152390D01*
G01X4414520Y-5087366D02*
G01X4442460Y-5087366D01*
G01X4451604Y-5090414D01*
G01X4454652Y-5093462D01*
G01X4457954Y-5099812D01*
G01X4457954Y-5105908D01*
G01X4454652Y-5112004D01*
G01X4451604Y-5115052D01*
G01X4442460Y-5118354D01*
G01X4414520Y-5118354D01*
G01X4436110Y-5118354D02*
G01X4457954Y-5152390D01*
G01X4488180Y-5173980D02*
G01X4543806Y-5173980D01*
G01X4574032Y-5087366D02*
G01X4574032Y-5152390D01*
G01X4574032Y-5087366D02*
G01X4601718Y-5087366D01*
G01X4611116Y-5090414D01*
G01X4614164Y-5093462D01*
G01X4617212Y-5099812D01*
G01X4617212Y-5105908D01*
G01X4614164Y-5112004D01*
G01X4611116Y-5115052D01*
G01X4601718Y-5118354D01*
G01X4574032Y-5118354D02*
G01X4601718Y-5118354D01*
G01X4611116Y-5121402D01*
G01X4614164Y-5124450D01*
G01X4617212Y-5130546D01*
G01X4617212Y-5139944D01*
G01X4614164Y-5146040D01*
G01X4611116Y-5149342D01*
G01X4601718Y-5152390D01*
G01X4574032Y-5152390D01*
G01X4662678Y-5108956D02*
G01X4656582Y-5112004D01*
G01X4650486Y-5118354D01*
G01X4647438Y-5127498D01*
G01X4647438Y-5133848D01*
G01X4650486Y-5142992D01*
G01X4656582Y-5149342D01*
G01X4662678Y-5152390D01*
G01X4672076Y-5152390D01*
G01X4678172Y-5149342D01*
G01X4684522Y-5142992D01*
G01X4687570Y-5133848D01*
G01X4687570Y-5127498D01*
G01X4684522Y-5118354D01*
G01X4678172Y-5112004D01*
G01X4672076Y-5108956D01*
G01X4662678Y-5108956D01*
G01X4726940Y-5087366D02*
G01X4726940Y-5139944D01*
G01X4729988Y-5149342D01*
G01X4736338Y-5152390D01*
G01X4742434Y-5152390D01*
G01X4717796Y-5108956D02*
G01X4739386Y-5108956D01*
G01X4778756Y-5087366D02*
G01X4812792Y-5087366D01*
G01X4794250Y-5112004D01*
G01X4803394Y-5112004D01*
G01X4809744Y-5115052D01*
G01X4812792Y-5118354D01*
G01X4815840Y-5127498D01*
G01X4815840Y-5133848D01*
G01X4812792Y-5142992D01*
G01X4806696Y-5149342D01*
G01X4797298Y-5152390D01*
G01X4787900Y-5152390D01*
G01X4778756Y-5149342D01*
G01X4775708Y-5146040D01*
G01X4772660Y-5139944D01*
G01X4401820Y-5633466D02*
G01X4401820Y-5698490D01*
G01X4401820Y-5633466D02*
G01X4429760Y-5633466D01*
G01X4438904Y-5636514D01*
G01X4441952Y-5639562D01*
G01X4445254Y-5645912D01*
G01X4445254Y-5652008D01*
G01X4441952Y-5658104D01*
G01X4438904Y-5661152D01*
G01X4429760Y-5664454D01*
G01X4401820Y-5664454D01*
G01X4423410Y-5664454D02*
G01X4445254Y-5698490D01*
G01X4475480Y-5720080D02*
G01X4531106Y-5720080D01*
G01X4561332Y-5633466D02*
G01X4561332Y-5698490D01*
G01X4561332Y-5633466D02*
G01X4589018Y-5633466D01*
G01X4598416Y-5636514D01*
G01X4601464Y-5639562D01*
G01X4604512Y-5645912D01*
G01X4604512Y-5652008D01*
G01X4601464Y-5658104D01*
G01X4598416Y-5661152D01*
G01X4589018Y-5664454D01*
G01X4561332Y-5664454D02*
G01X4589018Y-5664454D01*
G01X4598416Y-5667502D01*
G01X4601464Y-5670550D01*
G01X4604512Y-5676646D01*
G01X4604512Y-5686044D01*
G01X4601464Y-5692140D01*
G01X4598416Y-5695442D01*
G01X4589018Y-5698490D01*
G01X4561332Y-5698490D01*
G01X4649978Y-5655056D02*
G01X4643882Y-5658104D01*
G01X4637786Y-5664454D01*
G01X4634738Y-5673598D01*
G01X4634738Y-5679948D01*
G01X4637786Y-5689092D01*
G01X4643882Y-5695442D01*
G01X4649978Y-5698490D01*
G01X4659376Y-5698490D01*
G01X4665472Y-5695442D01*
G01X4671822Y-5689092D01*
G01X4674870Y-5679948D01*
G01X4674870Y-5673598D01*
G01X4671822Y-5664454D01*
G01X4665472Y-5658104D01*
G01X4659376Y-5655056D01*
G01X4649978Y-5655056D01*
G01X4714240Y-5633466D02*
G01X4714240Y-5686044D01*
G01X4717288Y-5695442D01*
G01X4723638Y-5698490D01*
G01X4729734Y-5698490D01*
G01X4705096Y-5655056D02*
G01X4726686Y-5655056D01*
G01X4790694Y-5633466D02*
G01X4759960Y-5676646D01*
G01X4806188Y-5676646D01*
G01X4790694Y-5633466D02*
G01X4790694Y-5698490D01*
G01X4847184Y-4110330D02*
G01X4847184Y-4175354D01*
G01X4847184Y-4110330D02*
G01X4875124Y-4110330D01*
G01X4884268Y-4113378D01*
G01X4887316Y-4116426D01*
G01X4890618Y-4122776D01*
G01X4890618Y-4128872D01*
G01X4887316Y-4134968D01*
G01X4884268Y-4138016D01*
G01X4875124Y-4141318D01*
G01X4847184Y-4141318D01*
G01X4868774Y-4141318D02*
G01X4890618Y-4175354D01*
G01X4920844Y-4196944D02*
G01X4976470Y-4196944D01*
G01X5028286Y-4110330D02*
G01X5028286Y-4175354D01*
G01X5006696Y-4110330D02*
G01X5049876Y-4110330D01*
G01X5095342Y-4131920D02*
G01X5089246Y-4134968D01*
G01X5083150Y-4141318D01*
G01X5080102Y-4150462D01*
G01X5080102Y-4156812D01*
G01X5083150Y-4165956D01*
G01X5089246Y-4172306D01*
G01X5095342Y-4175354D01*
G01X5104740Y-4175354D01*
G01X5110836Y-4172306D01*
G01X5117186Y-4165956D01*
G01X5120234Y-4156812D01*
G01X5120234Y-4150462D01*
G01X5117186Y-4141318D01*
G01X5110836Y-4134968D01*
G01X5104740Y-4131920D01*
G01X5095342Y-4131920D01*
G01X5150460Y-4131920D02*
G01X5150460Y-4196944D01*
G01X5150460Y-4141318D02*
G01X5156556Y-4134968D01*
G01X5162652Y-4131920D01*
G01X5172050Y-4131920D01*
G01X5178146Y-4134968D01*
G01X5184496Y-4141318D01*
G01X5187544Y-4150462D01*
G01X5187544Y-4156812D01*
G01X5184496Y-4165956D01*
G01X5178146Y-4172306D01*
G01X5172050Y-4175354D01*
G01X5162652Y-4175354D01*
G01X5156556Y-4172306D01*
G01X5150460Y-4165956D01*
G01X5217770Y-4122776D02*
G01X5223866Y-4119474D01*
G01X5233010Y-4110330D01*
G01X5233010Y-4175354D01*
G01X4846320Y-4846066D02*
G01X4846320Y-4911090D01*
G01X4846320Y-4846066D02*
G01X4874260Y-4846066D01*
G01X4883404Y-4849114D01*
G01X4886452Y-4852162D01*
G01X4889754Y-4858512D01*
G01X4889754Y-4864608D01*
G01X4886452Y-4870704D01*
G01X4883404Y-4873752D01*
G01X4874260Y-4877054D01*
G01X4846320Y-4877054D01*
G01X4867910Y-4877054D02*
G01X4889754Y-4911090D01*
G01X4919980Y-4932680D02*
G01X4975606Y-4932680D01*
G01X5027422Y-4846066D02*
G01X5027422Y-4911090D01*
G01X5005832Y-4846066D02*
G01X5049012Y-4846066D01*
G01X5094478Y-4867656D02*
G01X5088382Y-4870704D01*
G01X5082286Y-4877054D01*
G01X5079238Y-4886198D01*
G01X5079238Y-4892548D01*
G01X5082286Y-4901692D01*
G01X5088382Y-4908042D01*
G01X5094478Y-4911090D01*
G01X5103876Y-4911090D01*
G01X5109972Y-4908042D01*
G01X5116322Y-4901692D01*
G01X5119370Y-4892548D01*
G01X5119370Y-4886198D01*
G01X5116322Y-4877054D01*
G01X5109972Y-4870704D01*
G01X5103876Y-4867656D01*
G01X5094478Y-4867656D01*
G01X5149596Y-4867656D02*
G01X5149596Y-4932680D01*
G01X5149596Y-4877054D02*
G01X5155692Y-4870704D01*
G01X5161788Y-4867656D01*
G01X5171186Y-4867656D01*
G01X5177282Y-4870704D01*
G01X5183632Y-4877054D01*
G01X5186680Y-4886198D01*
G01X5186680Y-4892548D01*
G01X5183632Y-4901692D01*
G01X5177282Y-4908042D01*
G01X5171186Y-4911090D01*
G01X5161788Y-4911090D01*
G01X5155692Y-4908042D01*
G01X5149596Y-4901692D01*
G01X5219954Y-4861560D02*
G01X5219954Y-4858512D01*
G01X5223002Y-4852162D01*
G01X5226050Y-4849114D01*
G01X5232146Y-4846066D01*
G01X5244592Y-4846066D01*
G01X5250942Y-4849114D01*
G01X5253990Y-4852162D01*
G01X5257038Y-4858512D01*
G01X5257038Y-4864608D01*
G01X5253990Y-4870704D01*
G01X5247640Y-4880102D01*
G01X5216906Y-4911090D01*
G01X5260086Y-4911090D01*
G01X4884420Y-5227066D02*
G01X4884420Y-5292090D01*
G01X4884420Y-5227066D02*
G01X4912360Y-5227066D01*
G01X4921504Y-5230114D01*
G01X4924552Y-5233162D01*
G01X4927854Y-5239512D01*
G01X4927854Y-5245608D01*
G01X4924552Y-5251704D01*
G01X4921504Y-5254752D01*
G01X4912360Y-5258054D01*
G01X4884420Y-5258054D01*
G01X4906010Y-5258054D02*
G01X4927854Y-5292090D01*
G01X4958080Y-5313680D02*
G01X5013706Y-5313680D01*
G01X5065522Y-5227066D02*
G01X5065522Y-5292090D01*
G01X5043932Y-5227066D02*
G01X5087112Y-5227066D01*
G01X5132578Y-5248656D02*
G01X5126482Y-5251704D01*
G01X5120386Y-5258054D01*
G01X5117338Y-5267198D01*
G01X5117338Y-5273548D01*
G01X5120386Y-5282692D01*
G01X5126482Y-5289042D01*
G01X5132578Y-5292090D01*
G01X5141976Y-5292090D01*
G01X5148072Y-5289042D01*
G01X5154422Y-5282692D01*
G01X5157470Y-5273548D01*
G01X5157470Y-5267198D01*
G01X5154422Y-5258054D01*
G01X5148072Y-5251704D01*
G01X5141976Y-5248656D01*
G01X5132578Y-5248656D01*
G01X5187696Y-5248656D02*
G01X5187696Y-5313680D01*
G01X5187696Y-5258054D02*
G01X5193792Y-5251704D01*
G01X5199888Y-5248656D01*
G01X5209286Y-5248656D01*
G01X5215382Y-5251704D01*
G01X5221732Y-5258054D01*
G01X5224780Y-5267198D01*
G01X5224780Y-5273548D01*
G01X5221732Y-5282692D01*
G01X5215382Y-5289042D01*
G01X5209286Y-5292090D01*
G01X5199888Y-5292090D01*
G01X5193792Y-5289042D01*
G01X5187696Y-5282692D01*
G01X5261102Y-5227066D02*
G01X5295138Y-5227066D01*
G01X5276596Y-5251704D01*
G01X5285740Y-5251704D01*
G01X5292090Y-5254752D01*
G01X5295138Y-5258054D01*
G01X5298186Y-5267198D01*
G01X5298186Y-5273548D01*
G01X5295138Y-5282692D01*
G01X5289042Y-5289042D01*
G01X5279644Y-5292090D01*
G01X5270246Y-5292090D01*
G01X5261102Y-5289042D01*
G01X5258054Y-5285740D01*
G01X5255006Y-5279644D01*
G01X4859020Y-5912866D02*
G01X4859020Y-5977890D01*
G01X4859020Y-5912866D02*
G01X4886960Y-5912866D01*
G01X4896104Y-5915914D01*
G01X4899152Y-5918962D01*
G01X4902454Y-5925312D01*
G01X4902454Y-5931408D01*
G01X4899152Y-5937504D01*
G01X4896104Y-5940552D01*
G01X4886960Y-5943854D01*
G01X4859020Y-5943854D01*
G01X4880610Y-5943854D02*
G01X4902454Y-5977890D01*
G01X4932680Y-5999480D02*
G01X4988306Y-5999480D01*
G01X5040122Y-5912866D02*
G01X5040122Y-5977890D01*
G01X5018532Y-5912866D02*
G01X5061712Y-5912866D01*
G01X5107178Y-5934456D02*
G01X5101082Y-5937504D01*
G01X5094986Y-5943854D01*
G01X5091938Y-5952998D01*
G01X5091938Y-5959348D01*
G01X5094986Y-5968492D01*
G01X5101082Y-5974842D01*
G01X5107178Y-5977890D01*
G01X5116576Y-5977890D01*
G01X5122672Y-5974842D01*
G01X5129022Y-5968492D01*
G01X5132070Y-5959348D01*
G01X5132070Y-5952998D01*
G01X5129022Y-5943854D01*
G01X5122672Y-5937504D01*
G01X5116576Y-5934456D01*
G01X5107178Y-5934456D01*
G01X5162296Y-5934456D02*
G01X5162296Y-5999480D01*
G01X5162296Y-5943854D02*
G01X5168392Y-5937504D01*
G01X5174488Y-5934456D01*
G01X5183886Y-5934456D01*
G01X5189982Y-5937504D01*
G01X5196332Y-5943854D01*
G01X5199380Y-5952998D01*
G01X5199380Y-5959348D01*
G01X5196332Y-5968492D01*
G01X5189982Y-5974842D01*
G01X5183886Y-5977890D01*
G01X5174488Y-5977890D01*
G01X5168392Y-5974842D01*
G01X5162296Y-5968492D01*
G01X5260340Y-5912866D02*
G01X5229606Y-5956046D01*
G01X5275834Y-5956046D01*
G01X5260340Y-5912866D02*
G01X5260340Y-5977890D01*
G01X1709166Y-2329180D02*
G01X1774190Y-2329180D01*
G01X1709166Y-2329180D02*
G01X1709166Y-2301240D01*
G01X1712214Y-2292096D01*
G01X1715262Y-2289048D01*
G01X1721612Y-2285746D01*
G01X1727708Y-2285746D01*
G01X1733804Y-2289048D01*
G01X1736852Y-2292096D01*
G01X1740154Y-2301240D01*
G01X1740154Y-2329180D01*
G01X1740154Y-2307590D02*
G01X1774190Y-2285746D01*
G01X1709166Y-2224786D02*
G01X1752346Y-2255520D01*
G01X1752346Y-2209292D01*
G01X1709166Y-2224786D02*
G01X1774190Y-2224786D01*
G01X2484120Y-1112266D02*
G01X2484120Y-1177290D01*
G01X2484120Y-1112266D02*
G01X2512060Y-1112266D01*
G01X2521204Y-1115314D01*
G01X2524252Y-1118362D01*
G01X2527554Y-1124712D01*
G01X2527554Y-1130808D01*
G01X2524252Y-1136904D01*
G01X2521204Y-1139952D01*
G01X2512060Y-1143254D01*
G01X2484120Y-1143254D01*
G01X2505710Y-1143254D02*
G01X2527554Y-1177290D01*
G01X2557780Y-1124712D02*
G01X2563876Y-1121410D01*
G01X2573020Y-1112266D01*
G01X2573020Y-1177290D01*
G01X6353302Y-3388360D02*
G01X6350254Y-3382010D01*
G01X6343904Y-3375914D01*
G01X6337808Y-3372866D01*
G01X6325362Y-3372866D01*
G01X6319266Y-3375914D01*
G01X6312916Y-3382010D01*
G01X6309868Y-3388360D01*
G01X6306820Y-3397504D01*
G01X6306820Y-3412998D01*
G01X6309868Y-3422396D01*
G01X6312916Y-3428492D01*
G01X6319266Y-3434842D01*
G01X6325362Y-3437890D01*
G01X6337808Y-3437890D01*
G01X6343904Y-3434842D01*
G01X6350254Y-3428492D01*
G01X6353302Y-3422396D01*
G01X6383528Y-3459480D02*
G01X6439154Y-3459480D01*
G01X6469380Y-3372866D02*
G01X6469380Y-3437890D01*
G01X6469380Y-3372866D02*
G01X6497066Y-3372866D01*
G01X6506464Y-3375914D01*
G01X6509512Y-3378962D01*
G01X6512560Y-3385312D01*
G01X6512560Y-3391408D01*
G01X6509512Y-3397504D01*
G01X6506464Y-3400552D01*
G01X6497066Y-3403854D01*
G01X6469380Y-3403854D01*
G01X6490970Y-3403854D02*
G01X6512560Y-3437890D01*
G01X6542786Y-3372866D02*
G01X6542786Y-3437890D01*
G01X6542786Y-3372866D02*
G01X6582918Y-3372866D01*
G01X6542786Y-3403854D02*
G01X6567424Y-3403854D01*
G01X6542786Y-3437890D02*
G01X6582918Y-3437890D01*
G01X6613144Y-3372866D02*
G01X6613144Y-3437890D01*
G01X6613144Y-3372866D02*
G01X6653276Y-3372866D01*
G01X6613144Y-3403854D02*
G01X6637782Y-3403854D01*
G01X7724902Y-1432560D02*
G01X7721854Y-1426210D01*
G01X7715504Y-1420114D01*
G01X7709408Y-1417066D01*
G01X7696962Y-1417066D01*
G01X7690866Y-1420114D01*
G01X7684516Y-1426210D01*
G01X7681468Y-1432560D01*
G01X7678420Y-1441704D01*
G01X7678420Y-1457198D01*
G01X7681468Y-1466596D01*
G01X7684516Y-1472692D01*
G01X7690866Y-1479042D01*
G01X7696962Y-1482090D01*
G01X7709408Y-1482090D01*
G01X7715504Y-1479042D01*
G01X7721854Y-1472692D01*
G01X7724902Y-1466596D01*
G01X7755128Y-1429512D02*
G01X7761224Y-1426210D01*
G01X7770368Y-1417066D01*
G01X7770368Y-1482090D01*
G01X7806690Y-1417066D02*
G01X7840726Y-1417066D01*
G01X7822184Y-1441704D01*
G01X7831328Y-1441704D01*
G01X7837678Y-1444752D01*
G01X7840726Y-1448054D01*
G01X7843774Y-1457198D01*
G01X7843774Y-1463548D01*
G01X7840726Y-1472692D01*
G01X7834630Y-1479042D01*
G01X7825232Y-1482090D01*
G01X7815834Y-1482090D01*
G01X7806690Y-1479042D01*
G01X7803642Y-1475740D01*
G01X7800594Y-1469644D01*
G01X7712202Y-1140460D02*
G01X7709154Y-1134110D01*
G01X7702804Y-1128014D01*
G01X7696708Y-1124966D01*
G01X7684262Y-1124966D01*
G01X7678166Y-1128014D01*
G01X7671816Y-1134110D01*
G01X7668768Y-1140460D01*
G01X7665720Y-1149604D01*
G01X7665720Y-1165098D01*
G01X7668768Y-1174496D01*
G01X7671816Y-1180592D01*
G01X7678166Y-1186942D01*
G01X7684262Y-1189990D01*
G01X7696708Y-1189990D01*
G01X7702804Y-1186942D01*
G01X7709154Y-1180592D01*
G01X7712202Y-1174496D01*
G01X7742428Y-1137412D02*
G01X7748524Y-1134110D01*
G01X7757668Y-1124966D01*
G01X7757668Y-1189990D01*
G01X7818628Y-1124966D02*
G01X7787894Y-1168146D01*
G01X7834122Y-1168146D01*
G01X7818628Y-1124966D02*
G01X7818628Y-1189990D01*
G01X8969502Y-2131060D02*
G01X8966454Y-2124710D01*
G01X8960104Y-2118614D01*
G01X8954008Y-2115566D01*
G01X8941562Y-2115566D01*
G01X8935466Y-2118614D01*
G01X8929116Y-2124710D01*
G01X8926068Y-2131060D01*
G01X8923020Y-2140204D01*
G01X8923020Y-2155698D01*
G01X8926068Y-2165096D01*
G01X8929116Y-2171192D01*
G01X8935466Y-2177542D01*
G01X8941562Y-2180590D01*
G01X8954008Y-2180590D01*
G01X8960104Y-2177542D01*
G01X8966454Y-2171192D01*
G01X8969502Y-2165096D01*
G01X8999728Y-2128012D02*
G01X9005824Y-2124710D01*
G01X9014968Y-2115566D01*
G01X9014968Y-2180590D01*
G01X9082278Y-2115566D02*
G01X9051290Y-2115566D01*
G01X9048242Y-2143252D01*
G01X9051290Y-2140204D01*
G01X9060434Y-2137156D01*
G01X9069832Y-2137156D01*
G01X9079230Y-2140204D01*
G01X9085326Y-2146554D01*
G01X9088374Y-2155698D01*
G01X9088374Y-2162048D01*
G01X9085326Y-2171192D01*
G01X9079230Y-2177542D01*
G01X9069832Y-2180590D01*
G01X9060434Y-2180590D01*
G01X9051290Y-2177542D01*
G01X9048242Y-2174240D01*
G01X9045194Y-2168144D01*
G01X9261602Y-2143760D02*
G01X9258554Y-2137410D01*
G01X9252204Y-2131314D01*
G01X9246108Y-2128266D01*
G01X9233662Y-2128266D01*
G01X9227566Y-2131314D01*
G01X9221216Y-2137410D01*
G01X9218168Y-2143760D01*
G01X9215120Y-2152904D01*
G01X9215120Y-2168398D01*
G01X9218168Y-2177796D01*
G01X9221216Y-2183892D01*
G01X9227566Y-2190242D01*
G01X9233662Y-2193290D01*
G01X9246108Y-2193290D01*
G01X9252204Y-2190242D01*
G01X9258554Y-2183892D01*
G01X9261602Y-2177796D01*
G01X9291828Y-2140712D02*
G01X9297924Y-2137410D01*
G01X9307068Y-2128266D01*
G01X9307068Y-2193290D01*
G01X9374378Y-2137410D02*
G01X9371330Y-2131314D01*
G01X9361932Y-2128266D01*
G01X9355836Y-2128266D01*
G01X9346438Y-2131314D01*
G01X9340342Y-2140712D01*
G01X9337294Y-2155952D01*
G01X9337294Y-2171446D01*
G01X9340342Y-2183892D01*
G01X9346438Y-2190242D01*
G01X9355836Y-2193290D01*
G01X9358884Y-2193290D01*
G01X9368028Y-2190242D01*
G01X9374378Y-2183892D01*
G01X9377426Y-2174748D01*
G01X9377426Y-2171446D01*
G01X9374378Y-2162302D01*
G01X9368028Y-2155952D01*
G01X9358884Y-2152904D01*
G01X9355836Y-2152904D01*
G01X9346438Y-2155952D01*
G01X9340342Y-2162302D01*
G01X9337294Y-2171446D01*
G01X8969502Y-4391660D02*
G01X8966454Y-4385310D01*
G01X8960104Y-4379214D01*
G01X8954008Y-4376166D01*
G01X8941562Y-4376166D01*
G01X8935466Y-4379214D01*
G01X8929116Y-4385310D01*
G01X8926068Y-4391660D01*
G01X8923020Y-4400804D01*
G01X8923020Y-4416298D01*
G01X8926068Y-4425696D01*
G01X8929116Y-4431792D01*
G01X8935466Y-4438142D01*
G01X8941562Y-4441190D01*
G01X8954008Y-4441190D01*
G01X8960104Y-4438142D01*
G01X8966454Y-4431792D01*
G01X8969502Y-4425696D01*
G01X8999728Y-4388612D02*
G01X9005824Y-4385310D01*
G01X9014968Y-4376166D01*
G01X9014968Y-4441190D01*
G01X9088374Y-4376166D02*
G01X9057386Y-4441190D01*
G01X9045194Y-4376166D02*
G01X9088374Y-4376166D01*
G01X9248902Y-4391660D02*
G01X9245854Y-4385310D01*
G01X9239504Y-4379214D01*
G01X9233408Y-4376166D01*
G01X9220962Y-4376166D01*
G01X9214866Y-4379214D01*
G01X9208516Y-4385310D01*
G01X9205468Y-4391660D01*
G01X9202420Y-4400804D01*
G01X9202420Y-4416298D01*
G01X9205468Y-4425696D01*
G01X9208516Y-4431792D01*
G01X9214866Y-4438142D01*
G01X9220962Y-4441190D01*
G01X9233408Y-4441190D01*
G01X9239504Y-4438142D01*
G01X9245854Y-4431792D01*
G01X9248902Y-4425696D01*
G01X9279128Y-4388612D02*
G01X9285224Y-4385310D01*
G01X9294368Y-4376166D01*
G01X9294368Y-4441190D01*
G01X9339834Y-4376166D02*
G01X9330690Y-4379214D01*
G01X9327642Y-4385310D01*
G01X9327642Y-4391660D01*
G01X9330690Y-4397756D01*
G01X9336786Y-4400804D01*
G01X9349232Y-4403852D01*
G01X9358630Y-4407154D01*
G01X9364726Y-4413250D01*
G01X9367774Y-4419346D01*
G01X9367774Y-4428744D01*
G01X9364726Y-4434840D01*
G01X9361678Y-4438142D01*
G01X9352280Y-4441190D01*
G01X9339834Y-4441190D01*
G01X9330690Y-4438142D01*
G01X9327642Y-4434840D01*
G01X9324594Y-4428744D01*
G01X9324594Y-4419346D01*
G01X9327642Y-4413250D01*
G01X9333738Y-4407154D01*
G01X9343136Y-4403852D01*
G01X9355328Y-4400804D01*
G01X9361678Y-4397756D01*
G01X9364726Y-4391660D01*
G01X9364726Y-4385310D01*
G01X9361678Y-4379214D01*
G01X9352280Y-4376166D01*
G01X9339834Y-4376166D01*
G01X7636002Y-5026660D02*
G01X7632954Y-5020310D01*
G01X7626604Y-5014214D01*
G01X7620508Y-5011166D01*
G01X7608062Y-5011166D01*
G01X7601966Y-5014214D01*
G01X7595616Y-5020310D01*
G01X7592568Y-5026660D01*
G01X7589520Y-5035804D01*
G01X7589520Y-5051298D01*
G01X7592568Y-5060696D01*
G01X7595616Y-5066792D01*
G01X7601966Y-5073142D01*
G01X7608062Y-5076190D01*
G01X7620508Y-5076190D01*
G01X7626604Y-5073142D01*
G01X7632954Y-5066792D01*
G01X7636002Y-5060696D01*
G01X7666228Y-5023612D02*
G01X7672324Y-5020310D01*
G01X7681468Y-5011166D01*
G01X7681468Y-5076190D01*
G01X7751826Y-5032756D02*
G01X7748778Y-5042154D01*
G01X7742428Y-5048250D01*
G01X7733284Y-5051298D01*
G01X7730236Y-5051298D01*
G01X7720838Y-5048250D01*
G01X7714742Y-5042154D01*
G01X7711694Y-5032756D01*
G01X7711694Y-5029708D01*
G01X7714742Y-5020310D01*
G01X7720838Y-5014214D01*
G01X7730236Y-5011166D01*
G01X7733284Y-5011166D01*
G01X7742428Y-5014214D01*
G01X7748778Y-5020310D01*
G01X7751826Y-5032756D01*
G01X7751826Y-5048250D01*
G01X7748778Y-5063744D01*
G01X7742428Y-5073142D01*
G01X7733284Y-5076190D01*
G01X7726934Y-5076190D01*
G01X7717790Y-5073142D01*
G01X7714742Y-5066792D01*
G01X7623302Y-5306060D02*
G01X7620254Y-5299710D01*
G01X7613904Y-5293614D01*
G01X7607808Y-5290566D01*
G01X7595362Y-5290566D01*
G01X7589266Y-5293614D01*
G01X7582916Y-5299710D01*
G01X7579868Y-5306060D01*
G01X7576820Y-5315204D01*
G01X7576820Y-5330698D01*
G01X7579868Y-5340096D01*
G01X7582916Y-5346192D01*
G01X7589266Y-5352542D01*
G01X7595362Y-5355590D01*
G01X7607808Y-5355590D01*
G01X7613904Y-5352542D01*
G01X7620254Y-5346192D01*
G01X7623302Y-5340096D01*
G01X7656576Y-5306060D02*
G01X7656576Y-5303012D01*
G01X7659624Y-5296662D01*
G01X7662672Y-5293614D01*
G01X7668768Y-5290566D01*
G01X7681214Y-5290566D01*
G01X7687564Y-5293614D01*
G01X7690612Y-5296662D01*
G01X7693660Y-5303012D01*
G01X7693660Y-5309108D01*
G01X7690612Y-5315204D01*
G01X7684262Y-5324602D01*
G01X7653528Y-5355590D01*
G01X7696708Y-5355590D01*
G01X7745476Y-5290566D02*
G01X7736078Y-5293614D01*
G01X7729982Y-5303012D01*
G01X7726934Y-5318252D01*
G01X7726934Y-5327650D01*
G01X7729982Y-5343144D01*
G01X7736078Y-5352542D01*
G01X7745476Y-5355590D01*
G01X7751572Y-5355590D01*
G01X7760970Y-5352542D01*
G01X7767066Y-5343144D01*
G01X7770114Y-5327650D01*
G01X7770114Y-5318252D01*
G01X7767066Y-5303012D01*
G01X7760970Y-5293614D01*
G01X7751572Y-5290566D01*
G01X7745476Y-5290566D01*
G01X7424420Y-2255266D02*
G01X7424420Y-2320290D01*
G01X7424420Y-2255266D02*
G01X7446010Y-2255266D01*
G01X7455408Y-2258314D01*
G01X7461504Y-2264410D01*
G01X7464552Y-2270760D01*
G01X7467854Y-2279904D01*
G01X7467854Y-2295398D01*
G01X7464552Y-2304796D01*
G01X7461504Y-2310892D01*
G01X7455408Y-2317242D01*
G01X7446010Y-2320290D01*
G01X7424420Y-2320290D01*
G01X7541260Y-2255266D02*
G01X7510272Y-2320290D01*
G01X7498080Y-2255266D02*
G01X7541260Y-2255266D01*
G01X8326120Y-2445766D02*
G01X8326120Y-2510790D01*
G01X8326120Y-2445766D02*
G01X8347710Y-2445766D01*
G01X8357108Y-2448814D01*
G01X8363204Y-2454910D01*
G01X8366252Y-2461260D01*
G01X8369554Y-2470404D01*
G01X8369554Y-2485898D01*
G01X8366252Y-2495296D01*
G01X8363204Y-2501392D01*
G01X8357108Y-2507742D01*
G01X8347710Y-2510790D01*
G01X8326120Y-2510790D01*
G01X8415020Y-2445766D02*
G01X8405876Y-2448814D01*
G01X8402828Y-2454910D01*
G01X8402828Y-2461260D01*
G01X8405876Y-2467356D01*
G01X8411972Y-2470404D01*
G01X8424418Y-2473452D01*
G01X8433816Y-2476754D01*
G01X8439912Y-2482850D01*
G01X8442960Y-2488946D01*
G01X8442960Y-2498344D01*
G01X8439912Y-2504440D01*
G01X8436864Y-2507742D01*
G01X8427466Y-2510790D01*
G01X8415020Y-2510790D01*
G01X8405876Y-2507742D01*
G01X8402828Y-2504440D01*
G01X8399780Y-2498344D01*
G01X8399780Y-2488946D01*
G01X8402828Y-2482850D01*
G01X8408924Y-2476754D01*
G01X8418322Y-2473452D01*
G01X8430514Y-2470404D01*
G01X8436864Y-2467356D01*
G01X8439912Y-2461260D01*
G01X8439912Y-2454910D01*
G01X8436864Y-2448814D01*
G01X8427466Y-2445766D01*
G01X8415020Y-2445766D01*
G01X8326120Y-3944366D02*
G01X8326120Y-4009390D01*
G01X8326120Y-3944366D02*
G01X8347710Y-3944366D01*
G01X8357108Y-3947414D01*
G01X8363204Y-3953510D01*
G01X8366252Y-3959860D01*
G01X8369554Y-3969004D01*
G01X8369554Y-3984498D01*
G01X8366252Y-3993896D01*
G01X8363204Y-3999992D01*
G01X8357108Y-4006342D01*
G01X8347710Y-4009390D01*
G01X8326120Y-4009390D01*
G01X8439912Y-3965956D02*
G01X8436864Y-3975354D01*
G01X8430514Y-3981450D01*
G01X8421370Y-3984498D01*
G01X8418322Y-3984498D01*
G01X8408924Y-3981450D01*
G01X8402828Y-3975354D01*
G01X8399780Y-3965956D01*
G01X8399780Y-3962908D01*
G01X8402828Y-3953510D01*
G01X8408924Y-3947414D01*
G01X8418322Y-3944366D01*
G01X8421370Y-3944366D01*
G01X8430514Y-3947414D01*
G01X8436864Y-3953510D01*
G01X8439912Y-3965956D01*
G01X8439912Y-3981450D01*
G01X8436864Y-3996944D01*
G01X8430514Y-4006342D01*
G01X8421370Y-4009390D01*
G01X8415020Y-4009390D01*
G01X8405876Y-4006342D01*
G01X8402828Y-3999992D01*
G01X8097520Y-4642866D02*
G01X8097520Y-4707890D01*
G01X8097520Y-4642866D02*
G01X8119110Y-4642866D01*
G01X8128508Y-4645914D01*
G01X8134604Y-4652010D01*
G01X8137652Y-4658360D01*
G01X8140954Y-4667504D01*
G01X8140954Y-4682998D01*
G01X8137652Y-4692396D01*
G01X8134604Y-4698492D01*
G01X8128508Y-4704842D01*
G01X8119110Y-4707890D01*
G01X8097520Y-4707890D01*
G01X8171180Y-4655312D02*
G01X8177276Y-4652010D01*
G01X8186420Y-4642866D01*
G01X8186420Y-4707890D01*
G01X8235188Y-4642866D02*
G01X8225790Y-4645914D01*
G01X8219694Y-4655312D01*
G01X8216646Y-4670552D01*
G01X8216646Y-4679950D01*
G01X8219694Y-4695444D01*
G01X8225790Y-4704842D01*
G01X8235188Y-4707890D01*
G01X8241284Y-4707890D01*
G01X8250682Y-4704842D01*
G01X8256778Y-4695444D01*
G01X8259826Y-4679950D01*
G01X8259826Y-4670552D01*
G01X8256778Y-4655312D01*
G01X8250682Y-4645914D01*
G01X8241284Y-4642866D01*
G01X8235188Y-4642866D01*
G01X6713220Y-1747266D02*
G01X6713220Y-1812290D01*
G01X6713220Y-1747266D02*
G01X6753352Y-1747266D01*
G01X6713220Y-1778254D02*
G01X6738112Y-1778254D01*
G01X6783578Y-1759712D02*
G01X6789674Y-1756410D01*
G01X6798818Y-1747266D01*
G01X6798818Y-1812290D01*
G01X9100820Y-794766D02*
G01X9100820Y-859790D01*
G01X9100820Y-794766D02*
G01X9140952Y-794766D01*
G01X9100820Y-825754D02*
G01X9125712Y-825754D01*
G01X9174226Y-810260D02*
G01X9174226Y-807212D01*
G01X9177274Y-800862D01*
G01X9180322Y-797814D01*
G01X9186418Y-794766D01*
G01X9198864Y-794766D01*
G01X9205214Y-797814D01*
G01X9208262Y-800862D01*
G01X9211310Y-807212D01*
G01X9211310Y-813308D01*
G01X9208262Y-819404D01*
G01X9201912Y-828802D01*
G01X9171178Y-859790D01*
G01X9214358Y-859790D01*
G01X8745220Y-3410966D02*
G01X8745220Y-3475990D01*
G01X8745220Y-3410966D02*
G01X8785352Y-3410966D01*
G01X8745220Y-3441954D02*
G01X8770112Y-3441954D01*
G01X8821674Y-3410966D02*
G01X8855710Y-3410966D01*
G01X8837168Y-3435604D01*
G01X8846312Y-3435604D01*
G01X8852662Y-3438652D01*
G01X8855710Y-3441954D01*
G01X8858758Y-3451098D01*
G01X8858758Y-3457448D01*
G01X8855710Y-3466592D01*
G01X8849614Y-3472942D01*
G01X8840216Y-3475990D01*
G01X8830818Y-3475990D01*
G01X8821674Y-3472942D01*
G01X8818626Y-3469640D01*
G01X8815578Y-3463544D01*
G01X8389620Y-4871466D02*
G01X8389620Y-4936490D01*
G01X8389620Y-4871466D02*
G01X8429752Y-4871466D01*
G01X8389620Y-4902454D02*
G01X8414512Y-4902454D01*
G01X8490712Y-4871466D02*
G01X8459978Y-4914646D01*
G01X8506206Y-4914646D01*
G01X8490712Y-4871466D02*
G01X8490712Y-4936490D01*
G01X4935220Y-2826766D02*
G01X4935220Y-2891790D01*
G01X4935220Y-2826766D02*
G01X4963160Y-2826766D01*
G01X4972304Y-2829814D01*
G01X4975352Y-2832862D01*
G01X4978654Y-2839212D01*
G01X4978654Y-2845308D01*
G01X4975352Y-2851404D01*
G01X4972304Y-2854452D01*
G01X4963160Y-2857754D01*
G01X4935220Y-2857754D01*
G01X4956810Y-2857754D02*
G01X4978654Y-2891790D01*
G01X5052060Y-2826766D02*
G01X5021072Y-2891790D01*
G01X5008880Y-2826766D02*
G01X5052060Y-2826766D01*
G01X8097520Y-2179066D02*
G01X8097520Y-2244090D01*
G01X8097520Y-2179066D02*
G01X8125460Y-2179066D01*
G01X8134604Y-2182114D01*
G01X8137652Y-2185162D01*
G01X8140954Y-2191512D01*
G01X8140954Y-2197608D01*
G01X8137652Y-2203704D01*
G01X8134604Y-2206752D01*
G01X8125460Y-2210054D01*
G01X8097520Y-2210054D01*
G01X8119110Y-2210054D02*
G01X8140954Y-2244090D01*
G01X8171180Y-2191512D02*
G01X8177276Y-2188210D01*
G01X8186420Y-2179066D01*
G01X8186420Y-2244090D01*
G01X8231886Y-2179066D02*
G01X8222742Y-2182114D01*
G01X8219694Y-2188210D01*
G01X8219694Y-2194560D01*
G01X8222742Y-2200656D01*
G01X8228838Y-2203704D01*
G01X8241284Y-2206752D01*
G01X8250682Y-2210054D01*
G01X8256778Y-2216150D01*
G01X8259826Y-2222246D01*
G01X8259826Y-2231644D01*
G01X8256778Y-2237740D01*
G01X8253730Y-2241042D01*
G01X8244332Y-2244090D01*
G01X8231886Y-2244090D01*
G01X8222742Y-2241042D01*
G01X8219694Y-2237740D01*
G01X8216646Y-2231644D01*
G01X8216646Y-2222246D01*
G01X8219694Y-2216150D01*
G01X8225790Y-2210054D01*
G01X8235188Y-2206752D01*
G01X8247380Y-2203704D01*
G01X8253730Y-2200656D01*
G01X8256778Y-2194560D01*
G01X8256778Y-2188210D01*
G01X8253730Y-2182114D01*
G01X8244332Y-2179066D01*
G01X8231886Y-2179066D01*
G01X9215120Y-2356866D02*
G01X9215120Y-2421890D01*
G01X9215120Y-2356866D02*
G01X9243060Y-2356866D01*
G01X9252204Y-2359914D01*
G01X9255252Y-2362962D01*
G01X9258554Y-2369312D01*
G01X9258554Y-2375408D01*
G01X9255252Y-2381504D01*
G01X9252204Y-2384552D01*
G01X9243060Y-2387854D01*
G01X9215120Y-2387854D01*
G01X9236710Y-2387854D02*
G01X9258554Y-2421890D01*
G01X9288780Y-2369312D02*
G01X9294876Y-2366010D01*
G01X9304020Y-2356866D01*
G01X9304020Y-2421890D01*
G01X9374378Y-2378456D02*
G01X9371330Y-2387854D01*
G01X9364980Y-2393950D01*
G01X9355836Y-2396998D01*
G01X9352788Y-2396998D01*
G01X9343390Y-2393950D01*
G01X9337294Y-2387854D01*
G01X9334246Y-2378456D01*
G01X9334246Y-2375408D01*
G01X9337294Y-2366010D01*
G01X9343390Y-2359914D01*
G01X9352788Y-2356866D01*
G01X9355836Y-2356866D01*
G01X9364980Y-2359914D01*
G01X9371330Y-2366010D01*
G01X9374378Y-2378456D01*
G01X9374378Y-2393950D01*
G01X9371330Y-2409444D01*
G01X9364980Y-2418842D01*
G01X9355836Y-2421890D01*
G01X9349486Y-2421890D01*
G01X9340342Y-2418842D01*
G01X9337294Y-2412492D01*
G01X8516620Y-4414266D02*
G01X8516620Y-4479290D01*
G01X8516620Y-4414266D02*
G01X8544560Y-4414266D01*
G01X8553704Y-4417314D01*
G01X8556752Y-4420362D01*
G01X8560054Y-4426712D01*
G01X8560054Y-4432808D01*
G01X8556752Y-4438904D01*
G01X8553704Y-4441952D01*
G01X8544560Y-4445254D01*
G01X8516620Y-4445254D01*
G01X8538210Y-4445254D02*
G01X8560054Y-4479290D01*
G01X8593328Y-4429760D02*
G01X8593328Y-4426712D01*
G01X8596376Y-4420362D01*
G01X8599424Y-4417314D01*
G01X8605520Y-4414266D01*
G01X8617966Y-4414266D01*
G01X8624316Y-4417314D01*
G01X8627364Y-4420362D01*
G01X8630412Y-4426712D01*
G01X8630412Y-4432808D01*
G01X8627364Y-4438904D01*
G01X8621014Y-4448302D01*
G01X8590280Y-4479290D01*
G01X8633460Y-4479290D01*
G01X8682228Y-4414266D02*
G01X8672830Y-4417314D01*
G01X8666734Y-4426712D01*
G01X8663686Y-4441952D01*
G01X8663686Y-4451350D01*
G01X8666734Y-4466844D01*
G01X8672830Y-4476242D01*
G01X8682228Y-4479290D01*
G01X8688324Y-4479290D01*
G01X8697722Y-4476242D01*
G01X8703818Y-4466844D01*
G01X8706866Y-4451350D01*
G01X8706866Y-4441952D01*
G01X8703818Y-4426712D01*
G01X8697722Y-4417314D01*
G01X8688324Y-4414266D01*
G01X8682228Y-4414266D01*
G01X7195820Y-4833366D02*
G01X7195820Y-4898390D01*
G01X7195820Y-4833366D02*
G01X7223760Y-4833366D01*
G01X7232904Y-4836414D01*
G01X7235952Y-4839462D01*
G01X7239254Y-4845812D01*
G01X7239254Y-4851908D01*
G01X7235952Y-4858004D01*
G01X7232904Y-4861052D01*
G01X7223760Y-4864354D01*
G01X7195820Y-4864354D01*
G01X7217410Y-4864354D02*
G01X7239254Y-4898390D01*
G01X7272528Y-4848860D02*
G01X7272528Y-4845812D01*
G01X7275576Y-4839462D01*
G01X7278624Y-4836414D01*
G01X7284720Y-4833366D01*
G01X7297166Y-4833366D01*
G01X7303516Y-4836414D01*
G01X7306564Y-4839462D01*
G01X7309612Y-4845812D01*
G01X7309612Y-4851908D01*
G01X7306564Y-4858004D01*
G01X7300214Y-4867402D01*
G01X7269480Y-4898390D01*
G01X7312660Y-4898390D01*
G01X7342886Y-4845812D02*
G01X7348982Y-4842510D01*
G01X7358126Y-4833366D01*
G01X7358126Y-4898390D01*
G01X1998980Y-1404366D02*
G01X1998980Y-1469390D01*
G01X1998980Y-1404366D02*
G01X2020570Y-1404366D01*
G01X2029968Y-1407414D01*
G01X2036064Y-1413510D01*
G01X2039112Y-1419860D01*
G01X2042414Y-1429004D01*
G01X2042414Y-1444498D01*
G01X2039112Y-1453896D01*
G01X2036064Y-1459992D01*
G01X2029968Y-1466342D01*
G01X2020570Y-1469390D01*
G01X1998980Y-1469390D01*
G01X2072640Y-1416812D02*
G01X2078736Y-1413510D01*
G01X2087880Y-1404366D01*
G01X2087880Y-1469390D01*
G01X5316220Y-4236466D02*
G01X5316220Y-4282948D01*
G01X5319268Y-4292092D01*
G01X5325618Y-4298442D01*
G01X5334762Y-4301490D01*
G01X5341112Y-4301490D01*
G01X5350256Y-4298442D01*
G01X5356352Y-4292092D01*
G01X5359654Y-4282948D01*
G01X5359654Y-4236466D01*
G01X5395976Y-4236466D02*
G01X5430012Y-4236466D01*
G01X5411470Y-4261104D01*
G01X5420614Y-4261104D01*
G01X5426964Y-4264152D01*
G01X5430012Y-4267454D01*
G01X5433060Y-4276598D01*
G01X5433060Y-4282948D01*
G01X5430012Y-4292092D01*
G01X5423916Y-4298442D01*
G01X5414518Y-4301490D01*
G01X5405120Y-4301490D01*
G01X5395976Y-4298442D01*
G01X5392928Y-4295140D01*
G01X5389880Y-4289044D01*
G01X8105902Y-1597660D02*
G01X8102854Y-1591310D01*
G01X8096504Y-1585214D01*
G01X8090408Y-1582166D01*
G01X8077962Y-1582166D01*
G01X8071866Y-1585214D01*
G01X8065516Y-1591310D01*
G01X8062468Y-1597660D01*
G01X8059420Y-1606804D01*
G01X8059420Y-1622298D01*
G01X8062468Y-1631696D01*
G01X8065516Y-1637792D01*
G01X8071866Y-1644142D01*
G01X8077962Y-1647190D01*
G01X8090408Y-1647190D01*
G01X8096504Y-1644142D01*
G01X8102854Y-1637792D01*
G01X8105902Y-1631696D01*
G01X8136128Y-1582166D02*
G01X8136128Y-1647190D01*
G01X8136128Y-1582166D02*
G01X8160766Y-1647190D01*
G01X8185658Y-1582166D02*
G01X8160766Y-1647190D01*
G01X8185658Y-1582166D02*
G01X8185658Y-1647190D01*
G01X8215884Y-1582166D02*
G01X8215884Y-1647190D01*
G01X8215884Y-1582166D02*
G01X8237474Y-1582166D01*
G01X8246618Y-1585214D01*
G01X8252968Y-1591310D01*
G01X8256016Y-1597660D01*
G01X8259064Y-1606804D01*
G01X8259064Y-1622298D01*
G01X8256016Y-1631696D01*
G01X8252968Y-1637792D01*
G01X8246618Y-1644142D01*
G01X8237474Y-1647190D01*
G01X8215884Y-1647190D01*
G01X8289290Y-1594612D02*
G01X8295386Y-1591310D01*
G01X8304530Y-1582166D01*
G01X8304530Y-1647190D01*
G01X8918702Y-3007360D02*
G01X8915654Y-3001010D01*
G01X8909304Y-2994914D01*
G01X8903208Y-2991866D01*
G01X8890762Y-2991866D01*
G01X8884666Y-2994914D01*
G01X8878316Y-3001010D01*
G01X8875268Y-3007360D01*
G01X8872220Y-3016504D01*
G01X8872220Y-3031998D01*
G01X8875268Y-3041396D01*
G01X8878316Y-3047492D01*
G01X8884666Y-3053842D01*
G01X8890762Y-3056890D01*
G01X8903208Y-3056890D01*
G01X8909304Y-3053842D01*
G01X8915654Y-3047492D01*
G01X8918702Y-3041396D01*
G01X8948928Y-2991866D02*
G01X8948928Y-3056890D01*
G01X8948928Y-2991866D02*
G01X8973566Y-3056890D01*
G01X8998458Y-2991866D02*
G01X8973566Y-3056890D01*
G01X8998458Y-2991866D02*
G01X8998458Y-3056890D01*
G01X9028684Y-2991866D02*
G01X9028684Y-3056890D01*
G01X9028684Y-2991866D02*
G01X9050274Y-2991866D01*
G01X9059418Y-2994914D01*
G01X9065768Y-3001010D01*
G01X9068816Y-3007360D01*
G01X9071864Y-3016504D01*
G01X9071864Y-3031998D01*
G01X9068816Y-3041396D01*
G01X9065768Y-3047492D01*
G01X9059418Y-3053842D01*
G01X9050274Y-3056890D01*
G01X9028684Y-3056890D01*
G01X9105138Y-3007360D02*
G01X9105138Y-3004312D01*
G01X9108186Y-2997962D01*
G01X9111234Y-2994914D01*
G01X9117330Y-2991866D01*
G01X9129776Y-2991866D01*
G01X9136126Y-2994914D01*
G01X9139174Y-2997962D01*
G01X9142222Y-3004312D01*
G01X9142222Y-3010408D01*
G01X9139174Y-3016504D01*
G01X9132824Y-3025902D01*
G01X9102090Y-3056890D01*
G01X9145270Y-3056890D01*
G01X9096502Y-5090160D02*
G01X9093454Y-5083810D01*
G01X9087104Y-5077714D01*
G01X9081008Y-5074666D01*
G01X9068562Y-5074666D01*
G01X9062466Y-5077714D01*
G01X9056116Y-5083810D01*
G01X9053068Y-5090160D01*
G01X9050020Y-5099304D01*
G01X9050020Y-5114798D01*
G01X9053068Y-5124196D01*
G01X9056116Y-5130292D01*
G01X9062466Y-5136642D01*
G01X9068562Y-5139690D01*
G01X9081008Y-5139690D01*
G01X9087104Y-5136642D01*
G01X9093454Y-5130292D01*
G01X9096502Y-5124196D01*
G01X9126728Y-5074666D02*
G01X9126728Y-5139690D01*
G01X9126728Y-5074666D02*
G01X9151366Y-5139690D01*
G01X9176258Y-5074666D02*
G01X9151366Y-5139690D01*
G01X9176258Y-5074666D02*
G01X9176258Y-5139690D01*
G01X9206484Y-5074666D02*
G01X9206484Y-5139690D01*
G01X9206484Y-5074666D02*
G01X9228074Y-5074666D01*
G01X9237218Y-5077714D01*
G01X9243568Y-5083810D01*
G01X9246616Y-5090160D01*
G01X9249664Y-5099304D01*
G01X9249664Y-5114798D01*
G01X9246616Y-5124196D01*
G01X9243568Y-5130292D01*
G01X9237218Y-5136642D01*
G01X9228074Y-5139690D01*
G01X9206484Y-5139690D01*
G01X9285986Y-5074666D02*
G01X9320022Y-5074666D01*
G01X9301480Y-5099304D01*
G01X9310624Y-5099304D01*
G01X9316974Y-5102352D01*
G01X9320022Y-5105654D01*
G01X9323070Y-5114798D01*
G01X9323070Y-5121148D01*
G01X9320022Y-5130292D01*
G01X9313926Y-5136642D01*
G01X9304528Y-5139690D01*
G01X9295130Y-5139690D01*
G01X9285986Y-5136642D01*
G01X9282938Y-5133340D01*
G01X9279890Y-5127244D01*
G01X6975602Y-5356860D02*
G01X6972554Y-5350510D01*
G01X6966204Y-5344414D01*
G01X6960108Y-5341366D01*
G01X6947662Y-5341366D01*
G01X6941566Y-5344414D01*
G01X6935216Y-5350510D01*
G01X6932168Y-5356860D01*
G01X6929120Y-5366004D01*
G01X6929120Y-5381498D01*
G01X6932168Y-5390896D01*
G01X6935216Y-5396992D01*
G01X6941566Y-5403342D01*
G01X6947662Y-5406390D01*
G01X6960108Y-5406390D01*
G01X6966204Y-5403342D01*
G01X6972554Y-5396992D01*
G01X6975602Y-5390896D01*
G01X7005828Y-5341366D02*
G01X7005828Y-5406390D01*
G01X7005828Y-5341366D02*
G01X7030466Y-5406390D01*
G01X7055358Y-5341366D02*
G01X7030466Y-5406390D01*
G01X7055358Y-5341366D02*
G01X7055358Y-5406390D01*
G01X7085584Y-5341366D02*
G01X7085584Y-5406390D01*
G01X7085584Y-5341366D02*
G01X7107174Y-5341366D01*
G01X7116318Y-5344414D01*
G01X7122668Y-5350510D01*
G01X7125716Y-5356860D01*
G01X7128764Y-5366004D01*
G01X7128764Y-5381498D01*
G01X7125716Y-5390896D01*
G01X7122668Y-5396992D01*
G01X7116318Y-5403342D01*
G01X7107174Y-5406390D01*
G01X7085584Y-5406390D01*
G01X7189724Y-5341366D02*
G01X7158990Y-5384546D01*
G01X7205218Y-5384546D01*
G01X7189724Y-5341366D02*
G01X7189724Y-5406390D01*
G01X8580120Y-1569466D02*
G01X8580120Y-1634490D01*
G01X8580120Y-1569466D02*
G01X8608060Y-1569466D01*
G01X8617204Y-1572514D01*
G01X8620252Y-1575562D01*
G01X8623554Y-1581912D01*
G01X8623554Y-1588008D01*
G01X8620252Y-1594104D01*
G01X8617204Y-1597152D01*
G01X8608060Y-1600454D01*
G01X8580120Y-1600454D01*
G01X8601710Y-1600454D02*
G01X8623554Y-1634490D01*
G01X8653780Y-1569466D02*
G01X8653780Y-1634490D01*
G01X8653780Y-1569466D02*
G01X8675370Y-1569466D01*
G01X8684514Y-1572514D01*
G01X8690864Y-1578610D01*
G01X8693912Y-1584960D01*
G01X8696960Y-1594104D01*
G01X8696960Y-1609598D01*
G01X8693912Y-1618996D01*
G01X8690864Y-1625092D01*
G01X8684514Y-1631442D01*
G01X8675370Y-1634490D01*
G01X8653780Y-1634490D01*
G01X8727186Y-1581912D02*
G01X8733282Y-1578610D01*
G01X8742426Y-1569466D01*
G01X8742426Y-1634490D01*
G01X8478520Y-2991866D02*
G01X8478520Y-3056890D01*
G01X8478520Y-2991866D02*
G01X8506460Y-2991866D01*
G01X8515604Y-2994914D01*
G01X8518652Y-2997962D01*
G01X8521954Y-3004312D01*
G01X8521954Y-3010408D01*
G01X8518652Y-3016504D01*
G01X8515604Y-3019552D01*
G01X8506460Y-3022854D01*
G01X8478520Y-3022854D01*
G01X8500110Y-3022854D02*
G01X8521954Y-3056890D01*
G01X8552180Y-2991866D02*
G01X8552180Y-3056890D01*
G01X8552180Y-2991866D02*
G01X8573770Y-2991866D01*
G01X8582914Y-2994914D01*
G01X8589264Y-3001010D01*
G01X8592312Y-3007360D01*
G01X8595360Y-3016504D01*
G01X8595360Y-3031998D01*
G01X8592312Y-3041396D01*
G01X8589264Y-3047492D01*
G01X8582914Y-3053842D01*
G01X8573770Y-3056890D01*
G01X8552180Y-3056890D01*
G01X8628634Y-3007360D02*
G01X8628634Y-3004312D01*
G01X8631682Y-2997962D01*
G01X8634730Y-2994914D01*
G01X8640826Y-2991866D01*
G01X8653272Y-2991866D01*
G01X8659622Y-2994914D01*
G01X8662670Y-2997962D01*
G01X8665718Y-3004312D01*
G01X8665718Y-3010408D01*
G01X8662670Y-3016504D01*
G01X8656320Y-3025902D01*
G01X8625586Y-3056890D01*
G01X8668766Y-3056890D01*
G01X9088120Y-5709666D02*
G01X9088120Y-5774690D01*
G01X9088120Y-5709666D02*
G01X9116060Y-5709666D01*
G01X9125204Y-5712714D01*
G01X9128252Y-5715762D01*
G01X9131554Y-5722112D01*
G01X9131554Y-5728208D01*
G01X9128252Y-5734304D01*
G01X9125204Y-5737352D01*
G01X9116060Y-5740654D01*
G01X9088120Y-5740654D01*
G01X9109710Y-5740654D02*
G01X9131554Y-5774690D01*
G01X9161780Y-5709666D02*
G01X9161780Y-5774690D01*
G01X9161780Y-5709666D02*
G01X9183370Y-5709666D01*
G01X9192514Y-5712714D01*
G01X9198864Y-5718810D01*
G01X9201912Y-5725160D01*
G01X9204960Y-5734304D01*
G01X9204960Y-5749798D01*
G01X9201912Y-5759196D01*
G01X9198864Y-5765292D01*
G01X9192514Y-5771642D01*
G01X9183370Y-5774690D01*
G01X9161780Y-5774690D01*
G01X9241282Y-5709666D02*
G01X9275318Y-5709666D01*
G01X9256776Y-5734304D01*
G01X9265920Y-5734304D01*
G01X9272270Y-5737352D01*
G01X9275318Y-5740654D01*
G01X9278366Y-5749798D01*
G01X9278366Y-5756148D01*
G01X9275318Y-5765292D01*
G01X9269222Y-5771642D01*
G01X9259824Y-5774690D01*
G01X9250426Y-5774690D01*
G01X9241282Y-5771642D01*
G01X9238234Y-5768340D01*
G01X9235186Y-5762244D01*
G01X6408420Y-5849366D02*
G01X6408420Y-5914390D01*
G01X6408420Y-5849366D02*
G01X6436360Y-5849366D01*
G01X6445504Y-5852414D01*
G01X6448552Y-5855462D01*
G01X6451854Y-5861812D01*
G01X6451854Y-5867908D01*
G01X6448552Y-5874004D01*
G01X6445504Y-5877052D01*
G01X6436360Y-5880354D01*
G01X6408420Y-5880354D01*
G01X6430010Y-5880354D02*
G01X6451854Y-5914390D01*
G01X6482080Y-5849366D02*
G01X6482080Y-5914390D01*
G01X6482080Y-5849366D02*
G01X6503670Y-5849366D01*
G01X6512814Y-5852414D01*
G01X6519164Y-5858510D01*
G01X6522212Y-5864860D01*
G01X6525260Y-5874004D01*
G01X6525260Y-5889498D01*
G01X6522212Y-5898896D01*
G01X6519164Y-5904992D01*
G01X6512814Y-5911342D01*
G01X6503670Y-5914390D01*
G01X6482080Y-5914390D01*
G01X6586220Y-5849366D02*
G01X6555486Y-5892546D01*
G01X6601714Y-5892546D01*
G01X6586220Y-5849366D02*
G01X6586220Y-5914390D01*
G01X3292602Y-2588260D02*
G01X3289554Y-2581910D01*
G01X3283204Y-2575814D01*
G01X3277108Y-2572766D01*
G01X3264662Y-2572766D01*
G01X3258566Y-2575814D01*
G01X3252216Y-2581910D01*
G01X3249168Y-2588260D01*
G01X3246120Y-2597404D01*
G01X3246120Y-2612898D01*
G01X3249168Y-2622296D01*
G01X3252216Y-2628392D01*
G01X3258566Y-2634742D01*
G01X3264662Y-2637790D01*
G01X3277108Y-2637790D01*
G01X3283204Y-2634742D01*
G01X3289554Y-2628392D01*
G01X3292602Y-2622296D01*
G01X3292602Y-2612898D01*
G01X3277108Y-2612898D02*
G01X3292602Y-2612898D01*
G01X3322828Y-2572766D02*
G01X3322828Y-2637790D01*
G01X3322828Y-2572766D02*
G01X3366008Y-2637790D01*
G01X3366008Y-2572766D02*
G01X3366008Y-2637790D01*
G01X3396234Y-2572766D02*
G01X3396234Y-2637790D01*
G01X3396234Y-2572766D02*
G01X3417824Y-2572766D01*
G01X3426968Y-2575814D01*
G01X3433318Y-2581910D01*
G01X3436366Y-2588260D01*
G01X3439414Y-2597404D01*
G01X3439414Y-2612898D01*
G01X3436366Y-2622296D01*
G01X3433318Y-2628392D01*
G01X3426968Y-2634742D01*
G01X3417824Y-2637790D01*
G01X3396234Y-2637790D01*
G01X3469640Y-2585212D02*
G01X3475736Y-2581910D01*
G01X3484880Y-2572766D01*
G01X3484880Y-2637790D01*
G01X7699502Y-3312160D02*
G01X7696454Y-3305810D01*
G01X7690104Y-3299714D01*
G01X7684008Y-3296666D01*
G01X7671562Y-3296666D01*
G01X7665466Y-3299714D01*
G01X7659116Y-3305810D01*
G01X7656068Y-3312160D01*
G01X7653020Y-3321304D01*
G01X7653020Y-3336798D01*
G01X7656068Y-3346196D01*
G01X7659116Y-3352292D01*
G01X7665466Y-3358642D01*
G01X7671562Y-3361690D01*
G01X7684008Y-3361690D01*
G01X7690104Y-3358642D01*
G01X7696454Y-3352292D01*
G01X7699502Y-3346196D01*
G01X7699502Y-3336798D01*
G01X7684008Y-3336798D02*
G01X7699502Y-3336798D01*
G01X7729728Y-3296666D02*
G01X7729728Y-3361690D01*
G01X7729728Y-3296666D02*
G01X7772908Y-3361690D01*
G01X7772908Y-3296666D02*
G01X7772908Y-3361690D01*
G01X7803134Y-3296666D02*
G01X7803134Y-3361690D01*
G01X7803134Y-3296666D02*
G01X7824724Y-3296666D01*
G01X7833868Y-3299714D01*
G01X7840218Y-3305810D01*
G01X7843266Y-3312160D01*
G01X7846314Y-3321304D01*
G01X7846314Y-3336798D01*
G01X7843266Y-3346196D01*
G01X7840218Y-3352292D01*
G01X7833868Y-3358642D01*
G01X7824724Y-3361690D01*
G01X7803134Y-3361690D01*
G01X7879588Y-3312160D02*
G01X7879588Y-3309112D01*
G01X7882636Y-3302762D01*
G01X7885684Y-3299714D01*
G01X7891780Y-3296666D01*
G01X7904226Y-3296666D01*
G01X7910576Y-3299714D01*
G01X7913624Y-3302762D01*
G01X7916672Y-3309112D01*
G01X7916672Y-3315208D01*
G01X7913624Y-3321304D01*
G01X7907274Y-3330702D01*
G01X7876540Y-3361690D01*
G01X7919720Y-3361690D01*
G01X210820Y-667766D02*
G01X210820Y-732790D01*
G01X210820Y-667766D02*
G01X232410Y-667766D01*
G01X241808Y-670814D01*
G01X247904Y-676910D01*
G01X250952Y-683260D01*
G01X254254Y-692404D01*
G01X254254Y-707898D01*
G01X250952Y-717296D01*
G01X247904Y-723392D01*
G01X241808Y-729742D01*
G01X232410Y-732790D01*
G01X210820Y-732790D01*
G01X330708Y-683260D02*
G01X327660Y-676910D01*
G01X321564Y-670814D01*
G01X315214Y-667766D01*
G01X303022Y-667766D01*
G01X296672Y-670814D01*
G01X290576Y-676910D01*
G01X287528Y-683260D01*
G01X284480Y-692404D01*
G01X284480Y-707898D01*
G01X287528Y-717296D01*
G01X290576Y-723392D01*
G01X296672Y-729742D01*
G01X303022Y-732790D01*
G01X315214Y-732790D01*
G01X321564Y-729742D01*
G01X327660Y-723392D01*
G01X330708Y-717296D01*
G01X363982Y-683260D02*
G01X363982Y-680212D01*
G01X367030Y-673862D01*
G01X370078Y-670814D01*
G01X376174Y-667766D01*
G01X388620Y-667766D01*
G01X394970Y-670814D01*
G01X398018Y-673862D01*
G01X401066Y-680212D01*
G01X401066Y-686308D01*
G01X398018Y-692404D01*
G01X391668Y-701802D01*
G01X360934Y-732790D01*
G01X404114Y-732790D01*
G01X465074Y-667766D02*
G01X434340Y-710946D01*
G01X480568Y-710946D01*
G01X465074Y-667766D02*
G01X465074Y-732790D01*
G01X510794Y-667766D02*
G01X535432Y-732790D01*
G01X560324Y-667766D02*
G01X535432Y-732790D01*
G04 Text End*

G04 PolygonModel Start*
G54D12*
G01X199009Y-5514398D02*
G01X29202Y-5514398D01*
G01X29202Y-5514398D02*
G01X29202Y-5514698D01*
G01X29202Y-5514698D02*
G01X29202Y-3734702D01*
G01X453009Y-5514398D02*
G01X445138Y-5514398D01*
G01X707009Y-5514398D02*
G01X699138Y-5514398D01*
G01X961009Y-5514398D02*
G01X953138Y-5514398D01*
G01X1215009Y-5514398D02*
G01X1207138Y-5514398D01*
G01X1469009Y-5514398D02*
G01X1461138Y-5514398D01*
G01X1723009Y-5514398D02*
G01X1715138Y-5514398D01*
G01X2124197Y-5514398D02*
G01X1969138Y-5514398D01*
G01X2124197Y-4322569D02*
G01X2124197Y-5514398D01*
G01X2124197Y-4132069D02*
G01X2124197Y-4166365D01*
G01X2124197Y-3734702D02*
G01X2124197Y-3975865D01*
G01X1969138Y-3734702D02*
G01X2124197Y-3734702D01*
G01X1715138Y-3734702D02*
G01X1723006Y-3734702D01*
G01X1461138Y-3734702D02*
G01X1469006Y-3734702D01*
G01X1207138Y-3734702D02*
G01X1215006Y-3734702D01*
G01X953138Y-3734702D02*
G01X961006Y-3734702D01*
G01X699138Y-3734702D02*
G01X707006Y-3734702D01*
G01X445138Y-3734702D02*
G01X453006Y-3734702D01*
G01X29202Y-3734702D02*
G01X199006Y-3734702D01*
G01X30480Y-5075047D02*
G01X-70612Y-5074793D01*
G01X-70612Y-5074793D02*
G01X-80267Y-5073774D01*
G01X-80267Y-5073774D02*
G01X-89662Y-5070986D01*
G01X-89662Y-5070986D02*
G01X-98298Y-5066154D01*
G01X-98298Y-5066154D02*
G01X-105921Y-5060058D01*
G01X-105921Y-5060058D02*
G01X-112017Y-5052444D01*
G01X-112017Y-5052444D02*
G01X-116840Y-5043805D01*
G01X-116840Y-5043805D02*
G01X-119631Y-5034404D01*
G01X-119631Y-5034404D02*
G01X-120647Y-5024755D01*
G01X-120647Y-5024755D02*
G01X-120647Y-4225163D01*
G01X-120647Y-4225163D02*
G01X-119631Y-4215508D01*
G01X-119631Y-4215508D02*
G01X-116840Y-4206113D01*
G01X-116840Y-4206113D02*
G01X-112017Y-4197474D01*
G01X-112017Y-4197474D02*
G01X-105921Y-4189854D01*
G01X-105921Y-4189854D02*
G01X-98298Y-4183504D01*
G01X-98298Y-4183504D02*
G01X-89662Y-4178935D01*
G01X-89662Y-4178935D02*
G01X-80267Y-4176144D01*
G01X-80267Y-4176144D02*
G01X-70612Y-4175125D01*
G01X-70612Y-4175125D02*
G01X30480Y-4175125D01*
G54D13*
G01X4797242Y-2673952D02*
G01X4796246Y-2673952D01*
G01X4796246Y-2673952D02*
G01X4763242Y-2640947D01*
G01X4797242Y-2605949D02*
G01X4797242Y-2606947D01*
G01X4797242Y-2606947D02*
G01X4763242Y-2640947D01*
G01X4797242Y-2605949D02*
G01X4797242Y-2673952D01*
G01X4799246Y-2565941D02*
G01X4914247Y-2565941D01*
G01X4799246Y-2715953D02*
G01X4914247Y-2715953D01*
G01X4914247Y-2565951D02*
G01X4914247Y-2713944D01*
G01X4761245Y-2716185D02*
G01X4656234Y-2716185D01*
G01X4626239Y-2676177D02*
G01X4626239Y-2686180D01*
G01X4626239Y-2686180D02*
G01X4656234Y-2716185D01*
G01X4626239Y-2606182D02*
G01X4626239Y-2676177D01*
G01X4626239Y-2606182D02*
G01X4626239Y-2596167D01*
G01X4626239Y-2596167D02*
G01X4656234Y-2566172D01*
G01X4761245Y-2566172D02*
G01X4656234Y-2566172D01*
G01X4797242Y-2640947D02*
G01X4763242Y-2640947D01*
G54D11*
G01X5503288Y-3002938D02*
G01X5503288Y-2788663D01*
G01X5503288Y-2788663D02*
G01X5818533Y-2788663D01*
G01X5818533Y-2788663D02*
G01X5818533Y-3002938D01*
G01X5818533Y-3002938D02*
G01X5503288Y-3002938D01*
G54D12*
G01X6351900Y-1614800D02*
G01X5226901Y-1614800D01*
G01X6351900Y-264800D02*
G01X5226901Y-264800D01*
G01X6351900Y-264800D02*
G01X6351900Y-836686D01*
G01X6351900Y-1042914D02*
G01X6351900Y-1614800D01*
G01X5001900Y-489801D02*
G01X5001900Y-836686D01*
G01X5001900Y-1042914D02*
G01X5001900Y-1389799D01*
G01X5226901Y-264800D02*
G01X5001900Y-489801D01*
G01X5001900Y-1389799D02*
G01X5226901Y-1614800D01*
G01X6276899Y-811799D02*
G03X5073901Y-831799I-599315J-141332D01*
G01X5070902Y-1047801D02*
G03X6281263Y-1058857I606280J114838D01*
G36*
G01X5833900Y-347802D02*
G01X5834901Y-344800D01*
G01X5891898Y-364802D01*
G01X5992899Y-414802D01*
G01X6060900Y-457802D01*
G01X6103899Y-494802D01*
G01X6133899Y-527802D01*
G01X6171900Y-569801D01*
G01X6205898Y-626801D01*
G01X6240899Y-694802D01*
G01X6261900Y-756801D01*
G01X6276899Y-814802D01*
G01X5971896Y-816813D01*
G01X5971901Y-934801D01*
G01X5971896Y-1051789D01*
G01X6280899Y-1050801D01*
G01X6280899Y-1055799D01*
G01X6276899Y-1081799D01*
G01X6265898Y-1113800D01*
G01X6247900Y-1155799D01*
G01X6234900Y-1201798D01*
G01X6206899Y-1241798D01*
G01X6183899Y-1295799D01*
G01X6138898Y-1353800D01*
G01X6100900Y-1394798D01*
G01X6051901Y-1427800D01*
G01X6018898Y-1455798D01*
G01X5967900Y-1488798D01*
G01X5901901Y-1511798D01*
G01X5835899Y-1536799D01*
G01X5833900Y-347802D01*
G37*
G01X4384119Y-1643543D02*
G01X4464116Y-1643543D01*
G01X4328074Y-1643497D02*
G01X4248076Y-1643497D01*
G01X4384119Y-1785511D02*
G01X4464116Y-1785511D01*
G01X4328074Y-1785463D02*
G01X4248076Y-1785463D01*
G01X4495091Y-1674525D02*
G01X4495091Y-1754530D01*
G01X4217099Y-1754477D02*
G01X4217099Y-1674475D01*
G01X4248081Y-1785463D02*
G02X4217099Y-1754477I0J30983D01*
G01X4217099Y-1674480D02*
G02X4248081Y-1643497I30983J0D01*
G01X4464111Y-1643543D02*
G02X4495091Y-1674525I-3J-30983D01*
G01X4495091Y-1754523D02*
G02X4464111Y-1785511I-30983J-5D01*
G01X5654119Y-3332643D02*
G01X5734116Y-3332643D01*
G01X5598074Y-3332597D02*
G01X5518076Y-3332597D01*
G01X5654119Y-3474611D02*
G01X5734116Y-3474611D01*
G01X5598074Y-3474563D02*
G01X5518076Y-3474563D01*
G01X5765091Y-3363625D02*
G01X5765091Y-3443630D01*
G01X5487099Y-3443577D02*
G01X5487099Y-3363575D01*
G01X5518081Y-3474563D02*
G02X5487099Y-3443577I0J30983D01*
G01X5487099Y-3363580D02*
G02X5518081Y-3332597I30983J0D01*
G01X5734111Y-3332643D02*
G02X5765091Y-3363625I-3J-30983D01*
G01X5765091Y-3443623D02*
G02X5734111Y-3474611I-30983J-5D01*
G54D11*
G01X4038420Y-728939D02*
G01X3889921Y-728939D01*
G01X3889921Y-947461D02*
G01X4038420Y-947461D01*
G01X4053660Y-932221D02*
G01X4053660Y-744179D01*
G01X3556180Y-728939D02*
G01X3704679Y-728939D01*
G01X3704679Y-947461D02*
G01X3556180Y-947461D01*
G01X3540940Y-932221D02*
G01X3540940Y-744179D01*
G01X4038420Y-947461D02*
G03X4053660Y-932221I0J15240D01*
G01X4053660Y-744179D02*
G03X4038420Y-728939I-15240J0D01*
G01X3556180Y-947461D02*
G02X3540940Y-932221I0J15240D01*
G01X3540940Y-744179D02*
G02X3556180Y-728939I15240J0D01*
G01X3195361Y-1257120D02*
G01X3195361Y-1108621D01*
G01X2976839Y-1108621D02*
G01X2976839Y-1257120D01*
G01X2992079Y-1272360D02*
G01X3180121Y-1272360D01*
G01X3195361Y-774880D02*
G01X3195361Y-923379D01*
G01X2976839Y-923379D02*
G01X2976839Y-774880D01*
G01X2992079Y-759640D02*
G01X3180121Y-759640D01*
G01X2976839Y-1257120D02*
G03X2992079Y-1272360I15240J0D01*
G01X3180121Y-1272360D02*
G03X3195361Y-1257120I0J15240D01*
G01X2976839Y-774880D02*
G02X2992079Y-759640I15240J0D01*
G01X3180121Y-759640D02*
G02X3195361Y-774880I0J-15240D01*
G01X5423080Y-2522261D02*
G01X5571579Y-2522261D01*
G01X5571579Y-2303739D02*
G01X5423080Y-2303739D01*
G01X5407840Y-2318979D02*
G01X5407840Y-2507021D01*
G01X5905320Y-2522261D02*
G01X5756821Y-2522261D01*
G01X5756821Y-2303739D02*
G01X5905320Y-2303739D01*
G01X5920560Y-2318979D02*
G01X5920560Y-2507021D01*
G01X5423080Y-2303739D02*
G03X5407840Y-2318979I0J-15240D01*
G01X5407840Y-2507021D02*
G03X5423080Y-2522261I15240J0D01*
G01X5905320Y-2303739D02*
G02X5920560Y-2318979I0J-15240D01*
G01X5920560Y-2507021D02*
G02X5905320Y-2522261I-15240J0D01*
G54D12*
G01X6088543Y-2499281D02*
G01X6088543Y-2419284D01*
G01X6088497Y-2555326D02*
G01X6088497Y-2635324D01*
G01X6230511Y-2499281D02*
G01X6230511Y-2419284D01*
G01X6230463Y-2555326D02*
G01X6230463Y-2635324D01*
G01X6119525Y-2388309D02*
G01X6199530Y-2388309D01*
G01X6199477Y-2666301D02*
G01X6119475Y-2666301D01*
G01X6230463Y-2635319D02*
G02X6199477Y-2666301I-30983J0D01*
G01X6119480Y-2666301D02*
G02X6088497Y-2635319I0J30983D01*
G01X6088543Y-2419289D02*
G02X6119525Y-2388309I30983J-3D01*
G01X6199523Y-2388309D02*
G02X6230511Y-2419289I5J-30983D01*
G54D11*
G01X5301562Y-3376381D02*
G01X5153063Y-3376381D01*
G01X5153063Y-3594903D02*
G01X5301562Y-3594903D01*
G01X5316802Y-3579663D02*
G01X5316802Y-3391621D01*
G01X4819322Y-3376381D02*
G01X4967821Y-3376381D01*
G01X4967821Y-3594903D02*
G01X4819322Y-3594903D01*
G01X4804082Y-3579663D02*
G01X4804082Y-3391621D01*
G01X5301562Y-3594903D02*
G03X5316802Y-3579663I0J15240D01*
G01X5316802Y-3391621D02*
G03X5301562Y-3376381I-15240J0D01*
G01X4819322Y-3594903D02*
G02X4804082Y-3579663I0J15240D01*
G01X4804082Y-3391621D02*
G02X4819322Y-3376381I15240J0D01*
G01X5588511Y-1838582D02*
G01X5588511Y-2123824D01*
G01X5417284Y-1838582D02*
G01X5936521Y-1838582D01*
G01X5936231Y-2098764D02*
G01X5936899Y-2122686D01*
G01X5936521Y-1838582D02*
G01X5937189Y-1862503D01*
G01X5417284Y-2123824D02*
G01X5936521Y-2123824D01*
G36*
G01X5425724Y-2090798D02*
G01X5425592Y-2131459D01*
G01X5379639Y-2131007D01*
G01X5380004Y-2090798D01*
G01X5425724Y-2090798D01*
G37*
G36*
G01X5424902Y-1830962D02*
G01X5424769Y-1871622D01*
G01X5378816Y-1871170D01*
G01X5379182Y-1830962D01*
G01X5424902Y-1830962D01*
G37*
G01X3114060Y-1722679D02*
G01X3114060Y-1626791D01*
G01X3114060Y-1626791D02*
G01X2981940Y-1626791D01*
G01X2981940Y-1626791D02*
G01X2981940Y-1722679D01*
G01X3114060Y-1807921D02*
G01X3114060Y-1903809D01*
G01X3114060Y-1903809D02*
G01X2981940Y-1903809D01*
G01X2981940Y-1903809D02*
G01X2981940Y-1807921D01*
G01X2733060Y-1989379D02*
G01X2733060Y-1893491D01*
G01X2733060Y-1893491D02*
G01X2600940Y-1893491D01*
G01X2600940Y-1893491D02*
G01X2600940Y-1989379D01*
G01X2733060Y-2074621D02*
G01X2733060Y-2170509D01*
G01X2733060Y-2170509D02*
G01X2600940Y-2170509D01*
G01X2600940Y-2170509D02*
G01X2600940Y-2074621D01*
G01X4398721Y-1551960D02*
G01X4494609Y-1551960D01*
G01X4494609Y-1551960D02*
G01X4494609Y-1419840D01*
G01X4494609Y-1419840D02*
G01X4398721Y-1419840D01*
G01X4313479Y-1551960D02*
G01X4217591Y-1551960D01*
G01X4217591Y-1551960D02*
G01X4217591Y-1419840D01*
G01X4217591Y-1419840D02*
G01X4313479Y-1419840D01*
G01X5128240Y-3116021D02*
G01X5128240Y-3211909D01*
G01X5128240Y-3211909D02*
G01X5260360Y-3211909D01*
G01X5260360Y-3211909D02*
G01X5260360Y-3116021D01*
G01X5128240Y-3030779D02*
G01X5128240Y-2934891D01*
G01X5128240Y-2934891D02*
G01X5260360Y-2934891D01*
G01X5260360Y-2934891D02*
G01X5260360Y-3030779D01*
G01X6100521Y-2910860D02*
G01X6196409Y-2910860D01*
G01X6196409Y-2910860D02*
G01X6196409Y-2778740D01*
G01X6196409Y-2778740D02*
G01X6100521Y-2778740D01*
G01X6015279Y-2910860D02*
G01X5919391Y-2910860D01*
G01X5919391Y-2910860D02*
G01X5919391Y-2778740D01*
G01X5919391Y-2778740D02*
G01X6015279Y-2778740D01*
G01X6281979Y-4645640D02*
G01X6186091Y-4645640D01*
G01X6186091Y-4645640D02*
G01X6186091Y-4777760D01*
G01X6186091Y-4777760D02*
G01X6281979Y-4777760D01*
G01X6367221Y-4645640D02*
G01X6463109Y-4645640D01*
G01X6463109Y-4645640D02*
G01X6463109Y-4777760D01*
G01X6463109Y-4777760D02*
G01X6367221Y-4777760D01*
G01X2040179Y-391140D02*
G01X1944291Y-391140D01*
G01X1944291Y-391140D02*
G01X1944291Y-523260D01*
G01X1944291Y-523260D02*
G01X2040179Y-523260D01*
G01X2125421Y-391140D02*
G01X2221309Y-391140D01*
G01X2221309Y-391140D02*
G01X2221309Y-523260D01*
G01X2221309Y-523260D02*
G01X2125421Y-523260D01*
G01X4632940Y-2392121D02*
G01X4632940Y-2488009D01*
G01X4632940Y-2488009D02*
G01X4765060Y-2488009D01*
G01X4765060Y-2488009D02*
G01X4765060Y-2392121D01*
G01X4632940Y-2306879D02*
G01X4632940Y-2210991D01*
G01X4632940Y-2210991D02*
G01X4765060Y-2210991D01*
G01X4765060Y-2210991D02*
G01X4765060Y-2306879D01*
G01X4398721Y-1348760D02*
G01X4494609Y-1348760D01*
G01X4494609Y-1348760D02*
G01X4494609Y-1216640D01*
G01X4494609Y-1216640D02*
G01X4398721Y-1216640D01*
G01X4313479Y-1348760D02*
G01X4217591Y-1348760D01*
G01X4217591Y-1348760D02*
G01X4217591Y-1216640D01*
G01X4217591Y-1216640D02*
G01X4313479Y-1216640D01*
G01X4313479Y-1877040D02*
G01X4217591Y-1877040D01*
G01X4217591Y-1877040D02*
G01X4217591Y-2009160D01*
G01X4217591Y-2009160D02*
G01X4313479Y-2009160D01*
G01X4398721Y-1877040D02*
G01X4494609Y-1877040D01*
G01X4494609Y-1877040D02*
G01X4494609Y-2009160D01*
G01X4494609Y-2009160D02*
G01X4398721Y-2009160D01*
G01X3497021Y-2174260D02*
G01X3592909Y-2174260D01*
G01X3592909Y-2174260D02*
G01X3592909Y-2042140D01*
G01X3592909Y-2042140D02*
G01X3497021Y-2042140D01*
G01X3411779Y-2174260D02*
G01X3315891Y-2174260D01*
G01X3315891Y-2174260D02*
G01X3315891Y-2042140D01*
G01X3315891Y-2042140D02*
G01X3411779Y-2042140D01*
G01X3005379Y-2207240D02*
G01X2909491Y-2207240D01*
G01X2909491Y-2207240D02*
G01X2909491Y-2339360D01*
G01X2909491Y-2339360D02*
G01X3005379Y-2339360D01*
G01X3090621Y-2207240D02*
G01X3186509Y-2207240D01*
G01X3186509Y-2207240D02*
G01X3186509Y-2339360D01*
G01X3186509Y-2339360D02*
G01X3090621Y-2339360D01*
G01X3494480Y-1328295D02*
G01X3848764Y-1328295D01*
G01X3848764Y-1328295D02*
G01X3848764Y-1843539D01*
G01X3848764Y-1843539D02*
G01X3494480Y-1843539D01*
G01X3494480Y-1843539D02*
G01X3494480Y-1328295D01*
G54D13*
G01X1679758Y-424848D02*
G01X1680754Y-424848D01*
G01X1680754Y-424848D02*
G01X1713758Y-457853D01*
G01X1679758Y-492851D02*
G01X1679758Y-491853D01*
G01X1679758Y-491853D02*
G01X1713758Y-457853D01*
G01X1679758Y-492851D02*
G01X1679758Y-424848D01*
G01X1677754Y-532859D02*
G01X1562753Y-532859D01*
G01X1677754Y-382847D02*
G01X1562753Y-382847D01*
G01X1562753Y-532849D02*
G01X1562753Y-384856D01*
G01X1715755Y-382615D02*
G01X1820766Y-382615D01*
G01X1850761Y-422623D02*
G01X1850761Y-412620D01*
G01X1850761Y-412620D02*
G01X1820766Y-382615D01*
G01X1850761Y-492618D02*
G01X1850761Y-422623D01*
G01X1850761Y-492618D02*
G01X1850761Y-502633D01*
G01X1850761Y-502633D02*
G01X1820766Y-532628D01*
G01X1715755Y-532628D02*
G01X1820766Y-532628D01*
G01X1679758Y-457853D02*
G01X1713758Y-457853D01*
G01X3309252Y-4926348D02*
G01X3619259Y-4926348D01*
G01X3619259Y-5236355D02*
G01X3619259Y-4926348D01*
G01X3309252Y-5236228D02*
G01X3619259Y-5236228D01*
G01X3306839Y-4926348D02*
G01X3306839Y-5010168D01*
G01X3306839Y-5152408D02*
G01X3306839Y-5236228D01*
G01X3306839Y-5012708D02*
G02X3306839Y-5152408I-21730J-69850D01*
G54D12*
G01X6703030Y-3608109D02*
G01X6783027Y-3608109D01*
G01X6646984Y-3608064D02*
G01X6566987Y-3608064D01*
G01X6703030Y-3750078D02*
G01X6783027Y-3750078D01*
G01X6646984Y-3750029D02*
G01X6566987Y-3750029D01*
G01X6814002Y-3639092D02*
G01X6814002Y-3719097D01*
G01X6536009Y-3719044D02*
G01X6536009Y-3639041D01*
G01X6566992Y-3750029D02*
G02X6536009Y-3719044I0J30983D01*
G01X6536009Y-3639047D02*
G02X6566992Y-3608064I30983J0D01*
G01X6783022Y-3608109D02*
G02X6814002Y-3639092I-3J-30983D01*
G01X6814002Y-3719090D02*
G02X6783022Y-3750078I-30983J-5D01*
G01X6703030Y-3811309D02*
G01X6783027Y-3811309D01*
G01X6646984Y-3811264D02*
G01X6566987Y-3811264D01*
G01X6703030Y-3953278D02*
G01X6783027Y-3953278D01*
G01X6646984Y-3953229D02*
G01X6566987Y-3953229D01*
G01X6814002Y-3842292D02*
G01X6814002Y-3922297D01*
G01X6536009Y-3922244D02*
G01X6536009Y-3842241D01*
G01X6566992Y-3953229D02*
G02X6536009Y-3922244I0J30983D01*
G01X6536009Y-3842247D02*
G02X6566992Y-3811264I30983J0D01*
G01X6783022Y-3811309D02*
G02X6814002Y-3842292I-3J-30983D01*
G01X6814002Y-3922290D02*
G02X6783022Y-3953278I-30983J-5D01*
G01X5090081Y-3842857D02*
G01X5010084Y-3842857D01*
G01X5146126Y-3842903D02*
G01X5226124Y-3842903D01*
G01X5090081Y-3700889D02*
G01X5010084Y-3700889D01*
G01X5146126Y-3700937D02*
G01X5226124Y-3700937D01*
G01X4979109Y-3811875D02*
G01X4979109Y-3731870D01*
G01X5257102Y-3731923D02*
G01X5257102Y-3811925D01*
G01X5226119Y-3700937D02*
G02X5257102Y-3731923I0J-30983D01*
G01X5257102Y-3811920D02*
G02X5226119Y-3842903I-30983J0D01*
G01X5010089Y-3842857D02*
G02X4979109Y-3811875I3J30983D01*
G01X4979109Y-3731877D02*
G02X5010089Y-3700889I30983J5D01*
G01X3195157Y-5120719D02*
G01X3195157Y-5200716D01*
G01X3195203Y-5064674D02*
G01X3195203Y-4984676D01*
G01X3053189Y-5120719D02*
G01X3053189Y-5200716D01*
G01X3053237Y-5064674D02*
G01X3053237Y-4984676D01*
G01X3164175Y-5231691D02*
G01X3084170Y-5231691D01*
G01X3084223Y-4953698D02*
G01X3164225Y-4953698D01*
G01X3053237Y-4984681D02*
G02X3084223Y-4953698I30983J0D01*
G01X3164220Y-4953698D02*
G02X3195203Y-4984681I0J-30983D01*
G01X3195157Y-5200711D02*
G02X3164175Y-5231691I-30983J3D01*
G01X3084177Y-5231691D02*
G02X3053189Y-5200711I-5J30983D01*
G01X3446943Y-4455081D02*
G01X3446943Y-4375084D01*
G01X3446897Y-4511126D02*
G01X3446897Y-4591124D01*
G01X3588911Y-4455081D02*
G01X3588911Y-4375084D01*
G01X3588863Y-4511126D02*
G01X3588863Y-4591124D01*
G01X3477925Y-4344109D02*
G01X3557930Y-4344109D01*
G01X3557877Y-4622101D02*
G01X3477875Y-4622101D01*
G01X3588863Y-4591119D02*
G02X3557877Y-4622101I-30983J0D01*
G01X3477880Y-4622101D02*
G02X3446897Y-4591119I0J30983D01*
G01X3446943Y-4375089D02*
G02X3477925Y-4344109I30983J-3D01*
G01X3557923Y-4344109D02*
G02X3588911Y-4375089I5J-30983D01*
G01X3830157Y-4803219D02*
G01X3830157Y-4883216D01*
G01X3830203Y-4747174D02*
G01X3830203Y-4667176D01*
G01X3688189Y-4803219D02*
G01X3688189Y-4883216D01*
G01X3688237Y-4747174D02*
G01X3688237Y-4667176D01*
G01X3799175Y-4914191D02*
G01X3719170Y-4914191D01*
G01X3719223Y-4636198D02*
G01X3799225Y-4636198D01*
G01X3688237Y-4667181D02*
G02X3719223Y-4636198I30983J0D01*
G01X3799220Y-4636198D02*
G02X3830203Y-4667181I0J-30983D01*
G01X3830157Y-4883211D02*
G02X3799175Y-4914191I-30983J3D01*
G01X3719177Y-4914191D02*
G02X3688189Y-4883211I-5J30983D01*
G01X3688243Y-5318681D02*
G01X3688243Y-5238684D01*
G01X3688197Y-5374726D02*
G01X3688197Y-5454724D01*
G01X3830211Y-5318681D02*
G01X3830211Y-5238684D01*
G01X3830163Y-5374726D02*
G01X3830163Y-5454724D01*
G01X3719225Y-5207709D02*
G01X3799230Y-5207709D01*
G01X3799177Y-5485701D02*
G01X3719175Y-5485701D01*
G01X3830163Y-5454719D02*
G02X3799177Y-5485701I-30983J0D01*
G01X3719180Y-5485701D02*
G02X3688197Y-5454719I0J30983D01*
G01X3688243Y-5238689D02*
G02X3719225Y-5207709I30983J-3D01*
G01X3799223Y-5207709D02*
G02X3830211Y-5238689I5J-30983D01*
G01X3588857Y-5641419D02*
G01X3588857Y-5721416D01*
G01X3588903Y-5585374D02*
G01X3588903Y-5505376D01*
G01X3446889Y-5641419D02*
G01X3446889Y-5721416D01*
G01X3446937Y-5585374D02*
G01X3446937Y-5505376D01*
G01X3557875Y-5752391D02*
G01X3477870Y-5752391D01*
G01X3477923Y-5474398D02*
G01X3557925Y-5474398D01*
G01X3446937Y-5505381D02*
G02X3477923Y-5474398I30983J0D01*
G01X3557920Y-5474398D02*
G02X3588903Y-5505381I0J-30983D01*
G01X3588857Y-5721411D02*
G02X3557875Y-5752391I-30983J3D01*
G01X3477877Y-5752391D02*
G02X3446889Y-5721411I-5J30983D01*
G54D11*
G01X3987579Y-4118379D02*
G01X3987579Y-4263621D01*
G01X3987579Y-4263621D02*
G01X4090741Y-4263621D01*
G01X4292821Y-4118379D02*
G01X4292821Y-4263621D01*
G01X4292821Y-4263621D02*
G01X4189659Y-4263621D01*
G01X4094660Y-4118379D02*
G01X4185740Y-4118379D01*
G01X4292821Y-4873221D02*
G01X4292821Y-4727979D01*
G01X4292821Y-4727979D02*
G01X4189659Y-4727979D01*
G01X3987579Y-4873221D02*
G01X3987579Y-4727979D01*
G01X3987579Y-4727979D02*
G01X4090741Y-4727979D01*
G01X4185740Y-4873221D02*
G01X4094660Y-4873221D01*
G01X3987579Y-5248679D02*
G01X3987579Y-5393921D01*
G01X3987579Y-5393921D02*
G01X4090741Y-5393921D01*
G01X4292821Y-5248679D02*
G01X4292821Y-5393921D01*
G01X4292821Y-5393921D02*
G01X4189659Y-5393921D01*
G01X4094660Y-5248679D02*
G01X4185740Y-5248679D01*
G01X4292821Y-5965421D02*
G01X4292821Y-5820179D01*
G01X4292821Y-5820179D02*
G01X4189659Y-5820179D01*
G01X3987579Y-5965421D02*
G01X3987579Y-5820179D01*
G01X3987579Y-5820179D02*
G01X4090741Y-5820179D01*
G01X4185740Y-5965421D02*
G01X4094660Y-5965421D01*
G01X6367221Y-4599960D02*
G01X6463109Y-4599960D01*
G01X6463109Y-4599960D02*
G01X6463109Y-4467840D01*
G01X6463109Y-4467840D02*
G01X6367221Y-4467840D01*
G01X6281979Y-4599960D02*
G01X6186091Y-4599960D01*
G01X6186091Y-4599960D02*
G01X6186091Y-4467840D01*
G01X6186091Y-4467840D02*
G01X6281979Y-4467840D01*
G01X3386379Y-3629640D02*
G01X3290491Y-3629640D01*
G01X3290491Y-3629640D02*
G01X3290491Y-3761760D01*
G01X3290491Y-3761760D02*
G01X3386379Y-3761760D01*
G01X3471621Y-3629640D02*
G01X3567509Y-3629640D01*
G01X3567509Y-3629640D02*
G01X3567509Y-3761760D01*
G01X3567509Y-3761760D02*
G01X3471621Y-3761760D01*
G01X3399079Y-3362940D02*
G01X3303191Y-3362940D01*
G01X3303191Y-3362940D02*
G01X3303191Y-3495060D01*
G01X3303191Y-3495060D02*
G01X3399079Y-3495060D01*
G01X3484321Y-3362940D02*
G01X3580209Y-3362940D01*
G01X3580209Y-3362940D02*
G01X3580209Y-3495060D01*
G01X3580209Y-3495060D02*
G01X3484321Y-3495060D01*
G01X3386379Y-3896340D02*
G01X3290491Y-3896340D01*
G01X3290491Y-3896340D02*
G01X3290491Y-4028460D01*
G01X3290491Y-4028460D02*
G01X3386379Y-4028460D01*
G01X3471621Y-3896340D02*
G01X3567509Y-3896340D01*
G01X3567509Y-3896340D02*
G01X3567509Y-4028460D01*
G01X3567509Y-4028460D02*
G01X3471621Y-4028460D01*
G01X6632390Y-4222610D02*
G01X6536502Y-4222610D01*
G01X6536502Y-4222610D02*
G01X6536502Y-4354731D01*
G01X6536502Y-4354731D02*
G01X6632390Y-4354731D01*
G01X6717632Y-4222610D02*
G01X6813520Y-4222610D01*
G01X6813520Y-4222610D02*
G01X6813520Y-4354731D01*
G01X6813520Y-4354731D02*
G01X6717632Y-4354731D01*
G01X6632390Y-4019410D02*
G01X6536502Y-4019410D01*
G01X6536502Y-4019410D02*
G01X6536502Y-4151531D01*
G01X6536502Y-4151531D02*
G01X6632390Y-4151531D01*
G01X6717632Y-4019410D02*
G01X6813520Y-4019410D01*
G01X6813520Y-4019410D02*
G01X6813520Y-4151531D01*
G01X6813520Y-4151531D02*
G01X6717632Y-4151531D01*
G01X2542560Y-5050079D02*
G01X2542560Y-4954191D01*
G01X2542560Y-4954191D02*
G01X2410440Y-4954191D01*
G01X2410440Y-4954191D02*
G01X2410440Y-5050079D01*
G01X2542560Y-5135321D02*
G01X2542560Y-5231209D01*
G01X2542560Y-5231209D02*
G01X2410440Y-5231209D01*
G01X2410440Y-5231209D02*
G01X2410440Y-5135321D01*
G01X2715240Y-4970221D02*
G01X2715240Y-5066109D01*
G01X2715240Y-5066109D02*
G01X2847360Y-5066109D01*
G01X2847360Y-5066109D02*
G01X2847360Y-4970221D01*
G01X2715240Y-4884979D02*
G01X2715240Y-4789091D01*
G01X2715240Y-4789091D02*
G01X2847360Y-4789091D01*
G01X2847360Y-4789091D02*
G01X2847360Y-4884979D01*
G01X4531340Y-4259021D02*
G01X4531340Y-4354909D01*
G01X4531340Y-4354909D02*
G01X4663460Y-4354909D01*
G01X4663460Y-4354909D02*
G01X4663460Y-4259021D01*
G01X4531340Y-4173779D02*
G01X4531340Y-4077891D01*
G01X4531340Y-4077891D02*
G01X4663460Y-4077891D01*
G01X4663460Y-4077891D02*
G01X4663460Y-4173779D01*
G01X4663460Y-4732579D02*
G01X4663460Y-4636691D01*
G01X4663460Y-4636691D02*
G01X4531340Y-4636691D01*
G01X4531340Y-4636691D02*
G01X4531340Y-4732579D01*
G01X4663460Y-4817821D02*
G01X4663460Y-4913709D01*
G01X4663460Y-4913709D02*
G01X4531340Y-4913709D01*
G01X4531340Y-4913709D02*
G01X4531340Y-4817821D01*
G01X4531340Y-5389321D02*
G01X4531340Y-5485209D01*
G01X4531340Y-5485209D02*
G01X4663460Y-5485209D01*
G01X4663460Y-5485209D02*
G01X4663460Y-5389321D01*
G01X4531340Y-5304079D02*
G01X4531340Y-5208191D01*
G01X4531340Y-5208191D02*
G01X4663460Y-5208191D01*
G01X4663460Y-5208191D02*
G01X4663460Y-5304079D01*
G01X4663460Y-5837479D02*
G01X4663460Y-5741591D01*
G01X4663460Y-5741591D02*
G01X4531340Y-5741591D01*
G01X4531340Y-5741591D02*
G01X4531340Y-5837479D01*
G01X4663460Y-5922721D02*
G01X4663460Y-6018609D01*
G01X4663460Y-6018609D02*
G01X4531340Y-6018609D01*
G01X4531340Y-6018609D02*
G01X4531340Y-5922721D01*
G01X4986579Y-4226540D02*
G01X4890691Y-4226540D01*
G01X4890691Y-4226540D02*
G01X4890691Y-4358660D01*
G01X4890691Y-4358660D02*
G01X4986579Y-4358660D01*
G01X5071821Y-4226540D02*
G01X5167709Y-4226540D01*
G01X5167709Y-4226540D02*
G01X5167709Y-4358660D01*
G01X5167709Y-4358660D02*
G01X5071821Y-4358660D01*
G01X4986579Y-4645640D02*
G01X4890691Y-4645640D01*
G01X4890691Y-4645640D02*
G01X4890691Y-4777760D01*
G01X4890691Y-4777760D02*
G01X4986579Y-4777760D01*
G01X5071821Y-4645640D02*
G01X5167709Y-4645640D01*
G01X5167709Y-4645640D02*
G01X5167709Y-4777760D01*
G01X5167709Y-4777760D02*
G01X5071821Y-4777760D01*
G01X4986579Y-5356840D02*
G01X4890691Y-5356840D01*
G01X4890691Y-5356840D02*
G01X4890691Y-5488960D01*
G01X4890691Y-5488960D02*
G01X4986579Y-5488960D01*
G01X5071821Y-5356840D02*
G01X5167709Y-5356840D01*
G01X5167709Y-5356840D02*
G01X5167709Y-5488960D01*
G01X5167709Y-5488960D02*
G01X5071821Y-5488960D01*
G01X4986579Y-5737840D02*
G01X4890691Y-5737840D01*
G01X4890691Y-5737840D02*
G01X4890691Y-5869960D01*
G01X4890691Y-5869960D02*
G01X4986579Y-5869960D01*
G01X5071821Y-5737840D02*
G01X5167709Y-5737840D01*
G01X5167709Y-5737840D02*
G01X5167709Y-5869960D01*
G01X5167709Y-5869960D02*
G01X5071821Y-5869960D01*
G01X2011121Y-2339360D02*
G01X2107009Y-2339360D01*
G01X2107009Y-2339360D02*
G01X2107009Y-2207240D01*
G01X2107009Y-2207240D02*
G01X2011121Y-2207240D01*
G01X1925879Y-2339360D02*
G01X1829991Y-2339360D01*
G01X1829991Y-2339360D02*
G01X1829991Y-2207240D01*
G01X1829991Y-2207240D02*
G01X1925879Y-2207240D01*
G01X2647909Y-1390780D02*
G01X2647909Y-1254788D01*
G01X2647909Y-1254788D02*
G01X2432091Y-1254788D01*
G01X2432091Y-1254788D02*
G01X2432091Y-1390780D01*
G01X2647909Y-1581020D02*
G01X2647909Y-1717012D01*
G01X2647909Y-1717012D02*
G01X2432091Y-1717012D01*
G01X2432091Y-1717012D02*
G01X2432091Y-1581020D01*
G54D12*
G01X6136719Y-3345343D02*
G01X6216716Y-3345343D01*
G01X6080674Y-3345297D02*
G01X6000676Y-3345297D01*
G01X6136719Y-3487311D02*
G01X6216716Y-3487311D01*
G01X6080674Y-3487263D02*
G01X6000676Y-3487263D01*
G01X6247691Y-3376325D02*
G01X6247691Y-3456330D01*
G01X5969699Y-3456277D02*
G01X5969699Y-3376275D01*
G01X6000681Y-3487263D02*
G02X5969699Y-3456277I0J30983D01*
G01X5969699Y-3376280D02*
G02X6000681Y-3345297I30983J0D01*
G01X6216711Y-3345343D02*
G02X6247691Y-3376325I-3J-30983D01*
G01X6247691Y-3456323D02*
G02X6216711Y-3487311I-30983J-5D01*
G54D11*
G01X7340780Y-1747561D02*
G01X7489279Y-1747561D01*
G01X7489279Y-1529039D02*
G01X7340780Y-1529039D01*
G01X7325540Y-1544279D02*
G01X7325540Y-1732321D01*
G01X7823020Y-1747561D02*
G01X7674521Y-1747561D01*
G01X7674521Y-1529039D02*
G01X7823020Y-1529039D01*
G01X7838260Y-1544279D02*
G01X7838260Y-1732321D01*
G01X7340780Y-1529039D02*
G03X7325540Y-1544279I0J-15240D01*
G01X7325540Y-1732321D02*
G03X7340780Y-1747561I15240J0D01*
G01X7823020Y-1529039D02*
G02X7838260Y-1544279I0J-15240D01*
G01X7838260Y-1732321D02*
G02X7823020Y-1747561I-15240J0D01*
G54D12*
G01X7559119Y-1237143D02*
G01X7639116Y-1237143D01*
G01X7503074Y-1237097D02*
G01X7423076Y-1237097D01*
G01X7559119Y-1379111D02*
G01X7639116Y-1379111D01*
G01X7503074Y-1379063D02*
G01X7423076Y-1379063D01*
G01X7670091Y-1268125D02*
G01X7670091Y-1348130D01*
G01X7392099Y-1348077D02*
G01X7392099Y-1268075D01*
G01X7423081Y-1379063D02*
G02X7392099Y-1348077I0J30983D01*
G01X7392099Y-1268080D02*
G02X7423081Y-1237097I30983J0D01*
G01X7639111Y-1237143D02*
G02X7670091Y-1268125I-3J-30983D01*
G01X7670091Y-1348123D02*
G02X7639111Y-1379111I-30983J-5D01*
G54D11*
G01X8895039Y-1562280D02*
G01X8895039Y-1710779D01*
G01X9113561Y-1710779D02*
G01X9113561Y-1562280D01*
G01X9098321Y-1547040D02*
G01X8910279Y-1547040D01*
G01X8895039Y-2044520D02*
G01X8895039Y-1896021D01*
G01X9113561Y-1896021D02*
G01X9113561Y-2044520D01*
G01X9098321Y-2059760D02*
G01X8910279Y-2059760D01*
G01X9113561Y-1562280D02*
G03X9098321Y-1547040I-15240J0D01*
G01X8910279Y-1547040D02*
G03X8895039Y-1562280I0J-15240D01*
G01X9113561Y-2044520D02*
G02X9098321Y-2059760I-15240J0D01*
G01X8910279Y-2059760D02*
G02X8895039Y-2044520I0J15240D01*
G54D12*
G01X9367357Y-1806019D02*
G01X9367357Y-1886016D01*
G01X9367403Y-1749974D02*
G01X9367403Y-1669976D01*
G01X9225389Y-1806019D02*
G01X9225389Y-1886016D01*
G01X9225437Y-1749974D02*
G01X9225437Y-1669976D01*
G01X9336375Y-1916991D02*
G01X9256370Y-1916991D01*
G01X9256423Y-1638998D02*
G01X9336425Y-1638998D01*
G01X9225437Y-1669981D02*
G02X9256423Y-1638998I30983J0D01*
G01X9336420Y-1638998D02*
G02X9367403Y-1669981I0J-30983D01*
G01X9367357Y-1886011D02*
G02X9336375Y-1916991I-30983J3D01*
G01X9256377Y-1916991D02*
G02X9225389Y-1886011I-5J30983D01*
G54D11*
G01X8895039Y-3810180D02*
G01X8895039Y-3958679D01*
G01X9113561Y-3958679D02*
G01X9113561Y-3810180D01*
G01X9098321Y-3794940D02*
G01X8910279Y-3794940D01*
G01X8895039Y-4292420D02*
G01X8895039Y-4143921D01*
G01X9113561Y-4143921D02*
G01X9113561Y-4292420D01*
G01X9098321Y-4307660D02*
G01X8910279Y-4307660D01*
G01X9113561Y-3810180D02*
G03X9098321Y-3794940I-15240J0D01*
G01X8910279Y-3794940D02*
G03X8895039Y-3810180I0J-15240D01*
G01X9113561Y-4292420D02*
G02X9098321Y-4307660I-15240J0D01*
G01X8910279Y-4307660D02*
G02X8895039Y-4292420I0J15240D01*
G54D12*
G01X9354657Y-4053919D02*
G01X9354657Y-4133916D01*
G01X9354703Y-3997874D02*
G01X9354703Y-3917876D01*
G01X9212689Y-4053919D02*
G01X9212689Y-4133916D01*
G01X9212737Y-3997874D02*
G01X9212737Y-3917876D01*
G01X9323675Y-4164891D02*
G01X9243670Y-4164891D01*
G01X9243723Y-3886898D02*
G01X9323725Y-3886898D01*
G01X9212737Y-3917881D02*
G02X9243723Y-3886898I30983J0D01*
G01X9323720Y-3886898D02*
G02X9354703Y-3917881I0J-30983D01*
G01X9354657Y-4133911D02*
G02X9323675Y-4164891I-30983J3D01*
G01X9243677Y-4164891D02*
G02X9212689Y-4133911I-5J30983D01*
G54D11*
G01X8290898Y-4953117D02*
G01X8142399Y-4953117D01*
G01X8142399Y-5171638D02*
G01X8290898Y-5171638D01*
G01X8306138Y-5156398D02*
G01X8306138Y-4968357D01*
G01X7808659Y-4953117D02*
G01X7957157Y-4953117D01*
G01X7957157Y-5171638D02*
G01X7808659Y-5171638D01*
G01X7793419Y-5156398D02*
G01X7793419Y-4968357D01*
G01X8290898Y-5171638D02*
G03X8306138Y-5156398I0J15240D01*
G01X8306138Y-4968357D02*
G03X8290898Y-4953117I-15240J0D01*
G01X7808659Y-5171638D02*
G02X7793419Y-5156398I0J15240D01*
G01X7793419Y-4968357D02*
G02X7808659Y-4953117I15240J0D01*
G54D12*
G01X8061881Y-5404957D02*
G01X7981884Y-5404957D01*
G01X8117926Y-5405003D02*
G01X8197924Y-5405003D01*
G01X8061881Y-5262989D02*
G01X7981884Y-5262989D01*
G01X8117926Y-5263037D02*
G01X8197924Y-5263037D01*
G01X7950909Y-5373975D02*
G01X7950909Y-5293970D01*
G01X8228902Y-5294023D02*
G01X8228902Y-5374025D01*
G01X8197919Y-5263037D02*
G02X8228902Y-5294023I0J-30983D01*
G01X8228902Y-5374020D02*
G02X8197919Y-5405003I-30983J0D01*
G01X7981889Y-5404957D02*
G02X7950909Y-5373975I3J30983D01*
G01X7950909Y-5293977D02*
G02X7981889Y-5262989I30983J5D01*
G54D11*
G01X7642482Y-2310889D02*
G01X7927724Y-2310889D01*
G01X7642482Y-2482116D02*
G01X7642482Y-1962879D01*
G01X7902664Y-1963169D02*
G01X7926586Y-1962501D01*
G01X7642482Y-1962879D02*
G01X7666403Y-1962211D01*
G01X7927724Y-2482116D02*
G01X7927724Y-1962879D01*
G36*
G01X7894698Y-2473676D02*
G01X7935359Y-2473808D01*
G01X7934907Y-2519761D01*
G01X7894698Y-2519396D01*
G01X7894698Y-2473676D01*
G37*
G36*
G01X7634862Y-2474498D02*
G01X7675522Y-2474631D01*
G01X7675070Y-2520584D01*
G01X7634862Y-2520218D01*
G01X7634862Y-2474498D01*
G37*
G01X8480682Y-2272789D02*
G01X8765924Y-2272789D01*
G01X8480682Y-2444016D02*
G01X8480682Y-1924779D01*
G01X8740864Y-1925069D02*
G01X8764786Y-1924401D01*
G01X8480682Y-1924779D02*
G01X8504603Y-1924111D01*
G01X8765924Y-2444016D02*
G01X8765924Y-1924779D01*
G36*
G01X8732898Y-2435576D02*
G01X8773559Y-2435708D01*
G01X8773107Y-2481661D01*
G01X8732898Y-2481296D01*
G01X8732898Y-2435576D01*
G37*
G36*
G01X8473062Y-2436398D02*
G01X8513722Y-2436531D01*
G01X8513270Y-2482484D01*
G01X8473062Y-2482118D01*
G01X8473062Y-2436398D01*
G37*
G01X8319011Y-4073782D02*
G01X8319011Y-4359024D01*
G01X8147784Y-4073782D02*
G01X8667021Y-4073782D01*
G01X8666731Y-4333964D02*
G01X8667399Y-4357886D01*
G01X8667021Y-4073782D02*
G01X8667689Y-4097703D01*
G01X8147784Y-4359024D02*
G01X8667021Y-4359024D01*
G36*
G01X8156224Y-4325998D02*
G01X8156092Y-4366659D01*
G01X8110139Y-4366207D01*
G01X8110504Y-4325998D01*
G01X8156224Y-4325998D01*
G37*
G36*
G01X8155402Y-4066162D02*
G01X8155269Y-4106822D01*
G01X8109316Y-4106370D01*
G01X8109682Y-4066162D01*
G01X8155402Y-4066162D01*
G37*
G01X7582411Y-4530982D02*
G01X7582411Y-4816224D01*
G01X7411184Y-4530982D02*
G01X7930421Y-4530982D01*
G01X7930131Y-4791164D02*
G01X7930799Y-4815086D01*
G01X7930421Y-4530982D02*
G01X7931089Y-4554903D01*
G01X7411184Y-4816224D02*
G01X7930421Y-4816224D01*
G36*
G01X7419624Y-4783198D02*
G01X7419492Y-4823859D01*
G01X7373539Y-4823407D01*
G01X7373904Y-4783198D01*
G01X7419624Y-4783198D01*
G37*
G36*
G01X7418802Y-4523362D02*
G01X7418669Y-4564022D01*
G01X7372716Y-4563570D01*
G01X7373082Y-4523362D01*
G01X7418802Y-4523362D01*
G37*
G54D14*
G01X7239000Y-1665676D02*
G01X7239000Y-1310076D01*
G01X6680200Y-1663700D02*
G01X6680200Y-1308100D01*
G54D11*
G01X7086600Y-1282700D02*
G01X7213600Y-1282700D01*
G01X6832600Y-1282700D02*
G01X6705600Y-1282700D01*
G01X7213600Y-1689100D02*
G01X7083095Y-1689100D01*
G01X6705600Y-1689100D02*
G01X6832600Y-1689100D01*
G54D14*
G01X6959600Y-1485900D02*
G02X6959600Y-1422400I0J31750D01*
G01X6959600Y-1485900D02*
G02X6959600Y-1549400I0J-31750D01*
G01X8976924Y-1473200D02*
G01X9332524Y-1473200D01*
G01X8978900Y-914400D02*
G01X9334500Y-914400D01*
G54D11*
G01X9359900Y-1320800D02*
G01X9359900Y-1447800D01*
G01X9359900Y-1066800D02*
G01X9359900Y-939800D01*
G01X8953500Y-1447800D02*
G01X8953500Y-1317295D01*
G01X8953500Y-939800D02*
G01X8953500Y-1066800D01*
G54D14*
G01X9156700Y-1193800D02*
G02X9220200Y-1193800I31750J0D01*
G01X9156700Y-1193800D02*
G02X9093200Y-1193800I-31750J0D01*
G01X8938824Y-3759200D02*
G01X9294424Y-3759200D01*
G01X8940800Y-3200400D02*
G01X9296400Y-3200400D01*
G54D11*
G01X9321800Y-3606800D02*
G01X9321800Y-3733800D01*
G01X9321800Y-3352800D02*
G01X9321800Y-3225800D01*
G01X8915400Y-3733800D02*
G01X8915400Y-3603295D01*
G01X8915400Y-3225800D02*
G01X8915400Y-3352800D01*
G54D14*
G01X9118600Y-3479800D02*
G02X9182100Y-3479800I31750J0D01*
G01X9118600Y-3479800D02*
G02X9055100Y-3479800I-31750J0D01*
G01X8382000Y-5027224D02*
G01X8382000Y-5382824D01*
G01X8940800Y-5029200D02*
G01X8940800Y-5384800D01*
G54D11*
G01X8534400Y-5410200D02*
G01X8407400Y-5410200D01*
G01X8788400Y-5410200D02*
G01X8915400Y-5410200D01*
G01X8407400Y-5003800D02*
G01X8537905Y-5003800D01*
G01X8915400Y-5003800D02*
G01X8788400Y-5003800D01*
G54D14*
G01X8661400Y-5207000D02*
G02X8661400Y-5270500I0J-31750D01*
G01X8661400Y-5207000D02*
G02X8661400Y-5143500I0J31750D01*
G54D11*
G01X5057160Y-3030779D02*
G01X5057160Y-2934891D01*
G01X5057160Y-2934891D02*
G01X4925040Y-2934891D01*
G01X4925040Y-2934891D02*
G01X4925040Y-3030779D01*
G01X5057160Y-3116021D02*
G01X5057160Y-3211909D01*
G01X5057160Y-3211909D02*
G01X4925040Y-3211909D01*
G01X4925040Y-3211909D02*
G01X4925040Y-3116021D01*
G01X7998440Y-2023821D02*
G01X7998440Y-2119709D01*
G01X7998440Y-2119709D02*
G01X8130560Y-2119709D01*
G01X8130560Y-2119709D02*
G01X8130560Y-2023821D01*
G01X7998440Y-1938579D02*
G01X7998440Y-1842691D01*
G01X7998440Y-1842691D02*
G01X8130560Y-1842691D01*
G01X8130560Y-1842691D02*
G01X8130560Y-1938579D01*
G01X8999779Y-2334240D02*
G01X8903891Y-2334240D01*
G01X8903891Y-2334240D02*
G01X8903891Y-2466360D01*
G01X8903891Y-2466360D02*
G01X8999779Y-2466360D01*
G01X9085021Y-2334240D02*
G01X9180909Y-2334240D01*
G01X9180909Y-2334240D02*
G01X9180909Y-2466360D01*
G01X9180909Y-2466360D02*
G01X9085021Y-2466360D01*
G01X8567979Y-4505940D02*
G01X8472091Y-4505940D01*
G01X8472091Y-4505940D02*
G01X8472091Y-4638060D01*
G01X8472091Y-4638060D02*
G01X8567979Y-4638060D01*
G01X8653221Y-4505940D02*
G01X8749109Y-4505940D01*
G01X8749109Y-4505940D02*
G01X8749109Y-4638060D01*
G01X8749109Y-4638060D02*
G01X8653221Y-4638060D01*
G01X7520960Y-4999279D02*
G01X7520960Y-4903391D01*
G01X7520960Y-4903391D02*
G01X7388840Y-4903391D01*
G01X7388840Y-4903391D02*
G01X7388840Y-4999279D01*
G01X7520960Y-5084521D02*
G01X7520960Y-5180409D01*
G01X7520960Y-5180409D02*
G01X7388840Y-5180409D01*
G01X7388840Y-5180409D02*
G01X7388840Y-5084521D01*
G01X1841500Y-1269997D02*
G01X1842963Y-743369D01*
G01X2222500Y-1269576D02*
G01X2220719Y-744220D01*
G36*
G01X1841500Y-1231900D02*
G01X1910451Y-1231900D01*
G01X1910451Y-1277620D01*
G01X1841500Y-1277620D01*
G01X1841500Y-1231900D01*
G37*
G36*
G01X2222500Y-1231900D02*
G01X2222500Y-1277620D01*
G01X2153549Y-1277620D01*
G01X2153549Y-1231900D01*
G01X2222500Y-1231900D01*
G37*
G36*
G01X2222500Y-736600D02*
G01X2222500Y-782320D01*
G01X2153549Y-782320D01*
G01X2153549Y-736600D01*
G01X2222500Y-736600D01*
G37*
G36*
G01X1841500Y-736600D02*
G01X1910451Y-736600D01*
G01X1910451Y-782320D01*
G01X1841500Y-782320D01*
G01X1841500Y-736600D01*
G37*
G36*
G01X1955800Y-1079500D02*
G01X2032000Y-1003300D01*
G01X2108200Y-1079500D01*
G01X1955800Y-1079500D01*
G37*
G36*
G01X1955800Y-927100D02*
G01X2108200Y-927100D01*
G01X2032000Y-1003300D01*
G01X1955800Y-927100D01*
G37*
G01X5521336Y-4166624D02*
G01X5521336Y-3812344D01*
G01X5521336Y-3812344D02*
G01X6316575Y-3812344D01*
G01X6316575Y-3812344D02*
G01X6316575Y-4166624D01*
G01X6316575Y-4166624D02*
G01X5521336Y-4166624D01*
G54D15*
G01X394462Y-2171700D02*
G01X394462Y-2324100D01*
G01X394462Y-2324100D02*
G01X496062Y-2324100D01*
G01X496062Y-2324100D02*
G01X851662Y-2324100D01*
G01X851662Y-2324100D02*
G01X953262Y-2324100D01*
G01X953262Y-2324100D02*
G01X953262Y-2171700D01*
G01X953262Y-2171700D02*
G01X851662Y-2171700D01*
G01X851662Y-2171700D02*
G01X496062Y-2171700D01*
G01X496062Y-2171700D02*
G01X394462Y-2171700D01*
G54D12*
G01X673100Y-2019300D02*
G01X266700Y-2019300D01*
G01X673100Y-2476500D02*
G01X266700Y-2476500D01*
G01X263144Y-2476500D02*
G01X263144Y-2019300D01*
G01X673100Y-2476500D02*
G01X1079500Y-2476500D01*
G01X673100Y-2019300D02*
G01X1079500Y-2019300D01*
G01X1083056Y-2476500D02*
G01X1083056Y-2019300D01*
G01X52896Y-818934D02*
G01X1493723Y-818934D01*
G01X52893Y-818096D02*
G01X52896Y-1718092D01*
G01X380975Y-818934D02*
G01X380975Y-1718932D01*
G01X1493723Y-818934D02*
G01X1493723Y-1036919D01*
G01X1493723Y-1489949D02*
G01X1493723Y-1718092D01*
G01X52896Y-1718092D02*
G01X933656Y-1718092D01*
G01X1377693Y-1718092D02*
G01X1493723Y-1718092D01*

G04 Rect Start*
G01X8896350Y-1085850D02*
G01X6877050Y-1085850D01*
G01X6877050Y-285750D01*
G01X8896350Y-285750D01*
G01X8896350Y-1085850D01*
G01X9417050Y-3143250D02*
G01X9417050Y-1123950D01*
G01X10217150Y-1123950D01*
G01X10217150Y-3143250D01*
G01X9417050Y-3143250D01*
G01X9417050Y-5353050D02*
G01X9417050Y-3333750D01*
G01X10217150Y-3333750D01*
G01X10217150Y-5353050D01*
G01X9417050Y-5353050D01*
G01X6737350Y-5467350D02*
G01X8756650Y-5467350D01*
G01X8756650Y-6267450D01*
G01X6737350Y-6267450D01*
G01X6737350Y-5467350D01*
G04 Rect End*

G04 Circle Start*
G54D10*
G01X5484965Y-3108907D02*
G03X5514988Y-3108907I15011J0D01*
G03X5484965Y-3108907I-15011J0D01*
G01X3529585Y-1382717D02*
G03X3559608Y-1382717I15011J0D01*
G03X3529585Y-1382717I-15011J0D01*
G01X3370022Y-1296027D02*
G03X3400045Y-1296027I15011J0D01*
G03X3370022Y-1296027I-15011J0D01*
G54D17*
G01X3304705Y-5278120D02*
G03X3324720Y-5278120I10008J0D01*
G03X3304705Y-5278120I-10008J0D01*
G54D10*
G01X5546439Y-4091389D02*
G03X5576462Y-4091389I15011J0D01*
G03X5546439Y-4091389I-15011J0D01*
G01X5484057Y-4276072D02*
G03X5514080Y-4276072I15011J0D01*
G03X5484057Y-4276072I-15011J0D01*
G54D12*
G01X7981152Y-1344902D02*
G03X8362152Y-1344902I190500J0D01*
G03X7981152Y-1344902I-190500J0D01*
G01X8819352Y-2753002D02*
G03X9200352Y-2753002I190500J0D01*
G03X8819352Y-2753002I-190500J0D01*
G01X8984452Y-4834202D02*
G03X9365452Y-4834202I190500J0D01*
G03X8984452Y-4834202I-190500J0D01*
G01X6863552Y-5112001D02*
G03X7244552Y-5112001I190500J0D01*
G03X6863552Y-5112001I-190500J0D01*
G01X8458200Y-1333500D02*
G03X8839200Y-1333500I190500J0D01*
G03X8458200Y-1333500I-190500J0D01*
G01X8382000Y-2755900D02*
G03X8763000Y-2755900I190500J0D01*
G03X8382000Y-2755900I-190500J0D01*
G01X8997152Y-5461000D02*
G03X9378152Y-5461000I190500J0D01*
G03X8997152Y-5461000I-190500J0D01*
G01X6305553Y-5619201D02*
G03X6686553Y-5619201I190500J0D01*
G03X6305553Y-5619201I-190500J0D01*
G01X3168653Y-2881602D02*
G03X3549653Y-2881602I190500J0D01*
G03X3168653Y-2881602I-190500J0D01*
G01X7612852Y-3618202D02*
G03X7993852Y-3618202I190500J0D01*
G03X7612852Y-3618202I-190500J0D01*
G04 Circle End*

M02*

