G04 Layer: TopLayer*
G04 EasyEDA Pro v3.2.149.88089769, 2026-09-11 15:25:01*
G04 Gerber Generator version 0.3*
G04 Scale: 100 percent, Rotated: No, Reflected: No*
G04 Dimensions in millimeters*
G04 Leading zeros omitted, absolute positions, 4 integers and 5 decimals*
G04 Generated by one-click*
G04 Object Configs: Pad,Via,Track,Text,Image,Dimension,BoardOutline,BoardCutout,CopperFilled,SolidRegion,FPCStiffener,Line,PlaneZone,ComponentProperty,ComponentSilkscreen,TearDrop*
G04 Layer Configs: 1,2,3,4,5,6,7,8,9,10,11,13,14,56*
G04 Copper Areas: 200*
%FSLAX45Y45*%
%MOMM*%
%AMPolygonMacro1*4,1,4,1.52961,-2.82074,-1.52961,-2.82074,-1.52961,2.82074,1.52961,2.82074,1.52961,-2.82074,0*%
%AMPolygonMacro2*4,1,4,-2.82074,-1.52961,-2.82074,1.52961,2.82074,1.52961,2.82074,-1.52961,-2.82074,-1.52961,0*%
%AMPolygonMacro3*4,1,4,-1.52961,2.82074,1.52961,2.82074,1.52961,-2.82074,-1.52961,-2.82074,-1.52961,2.82074,0*%
%ADD10C,0.2032*%
%ADD11C,0.254*%
%ADD12PolygonMacro1*%
%ADD13PolygonMacro2*%
%ADD14PolygonMacro3*%
%ADD15C,3.5008*%
%ADD16C,3.5*%
%ADD17R,1.99901X2.75085*%
%ADD18R,1.99901X2.75077*%
%ADD19C,1.69926*%
%ADD20R,1.09985X2.49931*%
%ADD21R,2.49931X1.09977*%
%ADD22R,0.8X0.8*%
%ADD23R,1.8X1.5*%
%ADD24O,0.36401X1.662*%
%ADD25R,4.99999X1.6*%
%ADD26R,0.8X0.9*%
%ADD27R,1.48501X1.72799*%
%ADD28R,1.72799X1.48501*%
%ADD29R,0.9X0.8*%
%ADD30R,2.0X2.0*%
%ADD31R,0.86401X0.80648*%
%ADD32R,0.80648X0.86401*%
%ADD33O,1.73149X0.343*%
%ADD34R,2.51X2.3*%
%ADD35R,0.3X1.3*%
%ADD36R,0.65001X1.0*%
%ADD37R,1.70101X1.20752*%
%ADD38R,1.40668X3.49921*%
%ADD39R,3.49921X1.40668*%
%ADD40R,2.4X2.04749*%
%ADD41O,0.343X1.73149*%
%ADD42R,4.985X3.19999*%
%ADD43O,1.59995X1.29997*%
%ADD44O,2.0X2.99999*%
%ADD45C,2.59999*%
%ADD46O,1.8X4.19999*%
%ADD47O,1.8X3.99999*%
%ADD48O,3.99999X1.8*%
%ADD49C,0.61*%
%ADD50C,0.6096*%
%ADD51C,1.27*%
%ADD52C,0.1524*%
G75*


G04 Copper Start*
G36*
G01X4030809Y-715987D02*
G01X3887381Y-715987D01*
G01X3887381Y-586209D01*
G01X5577840Y-586209D01*
G01X5577840Y-1145540D01*
G01X3887381Y-1145540D01*
G01X3887381Y-960413D01*
G01X4030809Y-960413D01*
G01X4041876Y-958661D01*
G01X4051859Y-953574D01*
G01X4059783Y-945650D01*
G01X4064870Y-935667D01*
G01X4066623Y-924599D01*
G01X4066623Y-859800D01*
G01X4811078Y-859800D01*
G01X4811078Y-1019800D01*
G01X4812830Y-1030867D01*
G01X4817917Y-1040851D01*
G01X4825841Y-1048774D01*
G01X4835824Y-1053861D01*
G01X4846892Y-1055614D01*
G01X5346891Y-1055614D01*
G01X5357958Y-1053861D01*
G01X5367941Y-1048774D01*
G01X5375865Y-1040851D01*
G01X5380952Y-1030867D01*
G01X5382705Y-1019800D01*
G01X5382705Y-859800D01*
G01X5382705Y-859800D01*
G01X5380952Y-848733D01*
G01X5375865Y-838749D01*
G01X5367941Y-830826D01*
G01X5357958Y-825739D01*
G01X5346891Y-823986D01*
G01X4846892Y-823986D01*
G01X4835824Y-825739D01*
G01X4825841Y-830826D01*
G01X4817917Y-838749D01*
G01X4812830Y-848733D01*
G01X4811078Y-859800D01*
G01X4066623Y-859800D01*
G01X4066623Y-751801D01*
G01X4064870Y-740733D01*
G01X4059783Y-730750D01*
G01X4051859Y-722826D01*
G01X4041876Y-717739D01*
G01X4030809Y-715987D01*
G37*
G36*
G01X3456940Y-1051560D02*
G01X3456940Y-1305504D01*
G01X3454458Y-1305445D01*
G01X3315609Y-1305445D01*
G01X3302612Y-1307065D01*
G01X3290409Y-1311825D01*
G01X3279747Y-1319433D01*
G01X3271279Y-1329426D01*
G01X3265522Y-1341191D01*
G01X3262828Y-1354009D01*
G01X3263362Y-1367096D01*
G01X3267092Y-1379652D01*
G01X3273788Y-1390909D01*
G01X3267411Y-1401452D01*
G01X3263641Y-1413183D01*
G01X3262685Y-1425467D01*
G01X3264593Y-1437640D01*
G01X1673860Y-1437640D01*
G01X1673860Y-1140015D01*
G01X1876186Y-1140015D01*
G01X1876186Y-1344765D01*
G01X1877939Y-1355832D01*
G01X1883026Y-1365816D01*
G01X1890949Y-1373739D01*
G01X1900933Y-1378826D01*
G01X1912000Y-1380579D01*
G01X2152000Y-1380579D01*
G01X2163067Y-1378826D01*
G01X2173051Y-1373739D01*
G01X2180974Y-1365816D01*
G01X2186061Y-1355832D01*
G01X2187814Y-1344765D01*
G01X2187814Y-1277645D01*
G01X2419135Y-1277645D01*
G01X2419135Y-1398397D01*
G01X2420888Y-1409464D01*
G01X2425975Y-1419448D01*
G01X2433898Y-1427371D01*
G01X2443882Y-1432458D01*
G01X2454949Y-1434211D01*
G01X2625051Y-1434211D01*
G01X2625051Y-1434211D01*
G01X2636118Y-1432458D01*
G01X2646102Y-1427371D01*
G01X2654025Y-1419448D01*
G01X2659112Y-1409464D01*
G01X2660865Y-1398397D01*
G01X2660865Y-1277645D01*
G01X2659112Y-1266578D01*
G01X2654025Y-1256594D01*
G01X2646102Y-1248671D01*
G01X2636118Y-1243584D01*
G01X2625051Y-1241831D01*
G01X2454949Y-1241831D01*
G01X2443882Y-1243584D01*
G01X2433898Y-1248671D01*
G01X2425975Y-1256594D01*
G01X2420888Y-1266578D01*
G01X2419135Y-1277645D01*
G01X2187814Y-1277645D01*
G01X2187814Y-1140015D01*
G01X2186061Y-1128948D01*
G01X2180974Y-1118965D01*
G01X2173051Y-1111041D01*
G01X2163067Y-1105954D01*
G01X2152000Y-1104201D01*
G01X1912000Y-1104201D01*
G01X1912000Y-1104201D01*
G01X1900933Y-1105954D01*
G01X1890949Y-1111041D01*
G01X1883026Y-1118965D01*
G01X1877939Y-1128948D01*
G01X1876186Y-1140015D01*
G01X1673860Y-1140015D01*
G01X1673860Y-1101007D01*
G01X2963887Y-1101007D01*
G01X2963887Y-1249509D01*
G01X2965639Y-1260576D01*
G01X2970726Y-1270559D01*
G01X2978650Y-1278483D01*
G01X2988633Y-1283570D01*
G01X2999701Y-1285323D01*
G01X3172499Y-1285323D01*
G01X3183567Y-1283570D01*
G01X3193550Y-1278483D01*
G01X3201474Y-1270559D01*
G01X3206561Y-1260576D01*
G01X3208313Y-1249509D01*
G01X3208313Y-1101007D01*
G01X3206561Y-1089940D01*
G01X3201474Y-1079957D01*
G01X3193550Y-1072033D01*
G01X3183567Y-1066946D01*
G01X3172499Y-1065193D01*
G01X2999701Y-1065193D01*
G01X2999701Y-1065193D01*
G01X2988633Y-1066946D01*
G01X2978650Y-1072033D01*
G01X2970726Y-1079957D01*
G01X2965639Y-1089940D01*
G01X2963887Y-1101007D01*
G01X1673860Y-1101007D01*
G01X1673860Y-1051560D01*
G01X3456940Y-1051560D01*
G37*
G36*
G01X1831300Y-975400D02*
G01X1831300Y-661835D01*
G01X1876186Y-661835D01*
G01X1876186Y-866584D01*
G01X1877939Y-877652D01*
G01X1883026Y-887635D01*
G01X1890949Y-895559D01*
G01X1900933Y-900646D01*
G01X1912000Y-902398D01*
G01X2152000Y-902398D01*
G01X2163067Y-900646D01*
G01X2173051Y-895559D01*
G01X2180974Y-887635D01*
G01X2186061Y-877652D01*
G01X2187814Y-866584D01*
G01X2187814Y-782491D01*
G01X2963887Y-782491D01*
G01X2963887Y-930993D01*
G01X2965639Y-942060D01*
G01X2970726Y-952043D01*
G01X2978650Y-959967D01*
G01X2988633Y-965054D01*
G01X2999701Y-966807D01*
G01X3172499Y-966807D01*
G01X3183567Y-965054D01*
G01X3193550Y-959967D01*
G01X3201474Y-952043D01*
G01X3206561Y-942060D01*
G01X3208313Y-930993D01*
G01X3208313Y-924599D01*
G01X3527977Y-924599D01*
G01X3529730Y-935667D01*
G01X3534817Y-945650D01*
G01X3542741Y-953574D01*
G01X3552724Y-958661D01*
G01X3563791Y-960413D01*
G01X3712293Y-960413D01*
G01X3723360Y-958661D01*
G01X3733343Y-953574D01*
G01X3741267Y-945650D01*
G01X3746354Y-935667D01*
G01X3748107Y-924599D01*
G01X3748107Y-751801D01*
G01X3746354Y-740733D01*
G01X3741267Y-730750D01*
G01X3733343Y-722826D01*
G01X3723360Y-717739D01*
G01X3712293Y-715987D01*
G01X3563791Y-715987D01*
G01X3552724Y-717739D01*
G01X3542741Y-722826D01*
G01X3534817Y-730750D01*
G01X3529730Y-740733D01*
G01X3527977Y-751801D01*
G01X3527977Y-924599D01*
G01X3527977Y-924599D01*
G01X3208313Y-924599D01*
G01X3208313Y-782491D01*
G01X3206561Y-771424D01*
G01X3201474Y-761441D01*
G01X3193550Y-753517D01*
G01X3183567Y-748430D01*
G01X3172499Y-746677D01*
G01X2999701Y-746677D01*
G01X2999701Y-746677D01*
G01X2988633Y-748430D01*
G01X2978650Y-753517D01*
G01X2970726Y-761441D01*
G01X2965639Y-771424D01*
G01X2963887Y-782491D01*
G01X2187814Y-782491D01*
G01X2187814Y-661835D01*
G01X2186061Y-650768D01*
G01X2180974Y-640784D01*
G01X2173051Y-632861D01*
G01X2163067Y-627774D01*
G01X2152000Y-626021D01*
G01X1912000Y-626021D01*
G01X1912000Y-626021D01*
G01X1900933Y-627774D01*
G01X1890949Y-632861D01*
G01X1883026Y-640784D01*
G01X1877939Y-650768D01*
G01X1876186Y-661835D01*
G01X1831300Y-661835D01*
G01X1831300Y-574690D01*
G01X3753290Y-574690D01*
G01X3753290Y-975400D01*
G01X1831300Y-975400D01*
G37*
G36*
G01X5749207Y-2290787D02*
G01X5742460Y-2291428D01*
G01X5742460Y-1881200D01*
G01X5761088Y-1881200D01*
G01X5761088Y-2081200D01*
G01X5762841Y-2092267D01*
G01X5767928Y-2102251D01*
G01X5775851Y-2110174D01*
G01X5785835Y-2115261D01*
G01X5796902Y-2117014D01*
G01X5996902Y-2117014D01*
G01X6007969Y-2115261D01*
G01X6017953Y-2110174D01*
G01X6025876Y-2102251D01*
G01X6030963Y-2092267D01*
G01X6032716Y-2081200D01*
G01X6032716Y-1881200D01*
G01X6032716Y-1881200D01*
G01X6030963Y-1870133D01*
G01X6025876Y-1860149D01*
G01X6017953Y-1852226D01*
G01X6007969Y-1847139D01*
G01X5996902Y-1845386D01*
G01X5796902Y-1845386D01*
G01X5785835Y-1847139D01*
G01X5775851Y-1852226D01*
G01X5767928Y-1860149D01*
G01X5762841Y-1870133D01*
G01X5761088Y-1881200D01*
G01X5742460Y-1881200D01*
G01X5742460Y-859800D01*
G01X5971096Y-859800D01*
G01X5971096Y-1019800D01*
G01X5972848Y-1030867D01*
G01X5977935Y-1040851D01*
G01X5985859Y-1048774D01*
G01X5995842Y-1053861D01*
G01X6006910Y-1055614D01*
G01X6506909Y-1055614D01*
G01X6517976Y-1053861D01*
G01X6527959Y-1048774D01*
G01X6535883Y-1040851D01*
G01X6540970Y-1030867D01*
G01X6542723Y-1019800D01*
G01X6542723Y-859800D01*
G01X6542723Y-859800D01*
G01X6540970Y-848733D01*
G01X6535883Y-838749D01*
G01X6527959Y-830826D01*
G01X6517976Y-825739D01*
G01X6506909Y-823986D01*
G01X6006910Y-823986D01*
G01X5995842Y-825739D01*
G01X5985859Y-830826D01*
G01X5977935Y-838749D01*
G01X5972848Y-848733D01*
G01X5971096Y-859800D01*
G01X5742460Y-859800D01*
G01X5742460Y-586562D01*
G01X6555740Y-586562D01*
G01X6555740Y-2517140D01*
G01X6234315Y-2517140D01*
G01X6238781Y-2507662D01*
G01X6240314Y-2497298D01*
G01X6240314Y-2417298D01*
G01X6238561Y-2406231D01*
G01X6233474Y-2396247D01*
G01X6225551Y-2388324D01*
G01X6215567Y-2383237D01*
G01X6204500Y-2381484D01*
G01X6114500Y-2381484D01*
G01X6103433Y-2383237D01*
G01X6093449Y-2388324D01*
G01X6085526Y-2396247D01*
G01X6080439Y-2406231D01*
G01X6078686Y-2417298D01*
G01X6078686Y-2497298D01*
G01X6080219Y-2507662D01*
G01X6084685Y-2517140D01*
G01X5928820Y-2517140D01*
G01X5932327Y-2508576D01*
G01X5933523Y-2499399D01*
G01X5933523Y-2326601D01*
G01X5931770Y-2315533D01*
G01X5926683Y-2305550D01*
G01X5918759Y-2297626D01*
G01X5908776Y-2292539D01*
G01X5897709Y-2290787D01*
G01X5749207Y-2290787D01*
G37*
G36*
G01X4810760Y-2758440D02*
G01X4810760Y-2717401D01*
G01X4890099Y-2717401D01*
G01X4901167Y-2715648D01*
G01X4911150Y-2710561D01*
G01X4919074Y-2702638D01*
G01X4924161Y-2692654D01*
G01X4925913Y-2681587D01*
G01X4925913Y-2601587D01*
G01X4924161Y-2590520D01*
G01X4919074Y-2580536D01*
G01X4911150Y-2572613D01*
G01X4901167Y-2567526D01*
G01X4890099Y-2565773D01*
G01X4810760Y-2565773D01*
G01X4810760Y-859800D01*
G01X4811078Y-859800D01*
G01X4811078Y-1019800D01*
G01X4812830Y-1030867D01*
G01X4817917Y-1040851D01*
G01X4825841Y-1048774D01*
G01X4835824Y-1053861D01*
G01X4846892Y-1055614D01*
G01X5346891Y-1055614D01*
G01X5357958Y-1053861D01*
G01X5367941Y-1048774D01*
G01X5375865Y-1040851D01*
G01X5380952Y-1030867D01*
G01X5382705Y-1019800D01*
G01X5382705Y-859800D01*
G01X5382705Y-859800D01*
G01X5380952Y-848733D01*
G01X5375865Y-838749D01*
G01X5367941Y-830826D01*
G01X5357958Y-825739D01*
G01X5346891Y-823986D01*
G01X4846892Y-823986D01*
G01X4835824Y-825739D01*
G01X4825841Y-830826D01*
G01X4817917Y-838749D01*
G01X4812830Y-848733D01*
G01X4811078Y-859800D01*
G01X4810760Y-859800D01*
G01X4810760Y-594360D01*
G01X5577840Y-594360D01*
G01X5577840Y-1852147D01*
G01X5567901Y-1847118D01*
G01X5556898Y-1845386D01*
G01X5356898Y-1845386D01*
G01X5345831Y-1847139D01*
G01X5335847Y-1852226D01*
G01X5327924Y-1860149D01*
G01X5322837Y-1870133D01*
G01X5321084Y-1881200D01*
G01X5321084Y-2081200D01*
G01X5322837Y-2092267D01*
G01X5327924Y-2102251D01*
G01X5335847Y-2110174D01*
G01X5345831Y-2115261D01*
G01X5356898Y-2117014D01*
G01X5556898Y-2117014D01*
G01X5567901Y-2115282D01*
G01X5577840Y-2110253D01*
G01X5577840Y-2290787D01*
G01X5430691Y-2290787D01*
G01X5419624Y-2292539D01*
G01X5409641Y-2297626D01*
G01X5401717Y-2305550D01*
G01X5396630Y-2315533D01*
G01X5394877Y-2326601D01*
G01X5394877Y-2499399D01*
G01X5396630Y-2510467D01*
G01X5401717Y-2520450D01*
G01X5409641Y-2528374D01*
G01X5419624Y-2533461D01*
G01X5430691Y-2535213D01*
G01X5577840Y-2535213D01*
G01X5577840Y-2565747D01*
G01X5563809Y-2563782D01*
G01X5549749Y-2565534D01*
G01X5536629Y-2570882D01*
G01X5525351Y-2579457D01*
G01X5516691Y-2590670D01*
G01X5511244Y-2603749D01*
G01X5509386Y-2617795D01*
G01X5509386Y-2747594D01*
G01X5510486Y-2758440D01*
G01X4810760Y-2758440D01*
G37*
G36*
G01X4030809Y-715987D02*
G01X3883660Y-715987D01*
G01X3883660Y-594820D01*
G01X4119700Y-594820D01*
G01X4119700Y-1437640D01*
G01X4078625Y-1437640D01*
G01X4080533Y-1425467D01*
G01X4079577Y-1413183D01*
G01X4075808Y-1401452D01*
G01X4069430Y-1390909D01*
G01X4076127Y-1379652D01*
G01X4079856Y-1367096D01*
G01X4080390Y-1354009D01*
G01X4077696Y-1341191D01*
G01X4071939Y-1329426D01*
G01X4063471Y-1319433D01*
G01X4052809Y-1311825D01*
G01X4040607Y-1307065D01*
G01X4027609Y-1305445D01*
G01X3888760Y-1305445D01*
G01X3883660Y-1305692D01*
G01X3883660Y-960413D01*
G01X4030809Y-960413D01*
G01X4041876Y-958661D01*
G01X4051859Y-953574D01*
G01X4059783Y-945650D01*
G01X4064870Y-935667D01*
G01X4066623Y-924599D01*
G01X4066623Y-751801D01*
G01X4064870Y-740733D01*
G01X4059783Y-730750D01*
G01X4051859Y-722826D01*
G01X4041876Y-717739D01*
G01X4030809Y-715987D01*
G37*
G36*
G01X7058660Y-1805940D02*
G01X7058660Y-1692926D01*
G01X7066418Y-1695725D01*
G01X7074610Y-1696674D01*
G01X7215278Y-1696674D01*
G01X7226345Y-1694921D01*
G01X7236329Y-1689834D01*
G01X7244252Y-1681911D01*
G01X7249339Y-1671927D01*
G01X7251092Y-1660860D01*
G01X7251092Y-1310940D01*
G01X7249339Y-1299873D01*
G01X7244252Y-1289889D01*
G01X7236329Y-1281966D01*
G01X7226345Y-1276879D01*
G01X7215278Y-1275126D01*
G01X7074610Y-1275126D01*
G01X7066418Y-1276075D01*
G01X7058660Y-1278874D01*
G01X7058660Y-893304D01*
G01X7105792Y-893304D01*
G01X7107545Y-904371D01*
G01X7112632Y-914355D01*
G01X7120555Y-922278D01*
G01X7130539Y-927365D01*
G01X7141606Y-929118D01*
G01X7447528Y-929118D01*
G01X7458596Y-927365D01*
G01X7468579Y-922278D01*
G01X7476503Y-914355D01*
G01X7481590Y-904371D01*
G01X7483342Y-893304D01*
G01X7483342Y-329155D01*
G01X7481590Y-318088D01*
G01X7476503Y-308104D01*
G01X7468579Y-300181D01*
G01X7458596Y-295094D01*
G01X7447528Y-293341D01*
G01X7141606Y-293341D01*
G01X7130539Y-295094D01*
G01X7120555Y-300181D01*
G01X7112632Y-308104D01*
G01X7107545Y-318088D01*
G01X7105792Y-329155D01*
G01X7105792Y-893304D01*
G01X7105792Y-893304D01*
G01X7058660Y-893304D01*
G01X7058660Y-289560D01*
G01X7495540Y-289560D01*
G01X7495540Y-1227286D01*
G01X7421098Y-1227286D01*
G01X7410031Y-1229039D01*
G01X7400047Y-1234126D01*
G01X7392124Y-1242049D01*
G01X7387037Y-1252033D01*
G01X7385284Y-1263100D01*
G01X7385284Y-1353100D01*
G01X7387037Y-1364167D01*
G01X7392124Y-1374151D01*
G01X7400047Y-1382074D01*
G01X7410031Y-1387161D01*
G01X7421098Y-1388914D01*
G01X7495540Y-1388914D01*
G01X7495540Y-1516087D01*
G01X7348391Y-1516087D01*
G01X7337324Y-1517839D01*
G01X7327341Y-1522926D01*
G01X7319417Y-1530850D01*
G01X7314330Y-1540833D01*
G01X7312577Y-1551901D01*
G01X7312577Y-1724699D01*
G01X7314330Y-1735767D01*
G01X7319417Y-1745750D01*
G01X7327341Y-1753674D01*
G01X7337324Y-1758761D01*
G01X7348391Y-1760513D01*
G01X7495540Y-1760513D01*
G01X7495540Y-1805940D01*
G01X7058660Y-1805940D01*
G37*
G36*
G01X5153460Y-3363429D02*
G01X5153460Y-3224874D01*
G01X5237500Y-3224874D01*
G01X5248567Y-3223121D01*
G01X5258551Y-3218034D01*
G01X5266474Y-3210111D01*
G01X5271561Y-3200127D01*
G01X5273314Y-3189060D01*
G01X5273314Y-3108413D01*
G01X5272000Y-3098799D01*
G01X5268153Y-3089891D01*
G01X5262056Y-3082342D01*
G01X5254156Y-3076707D01*
G01X5245034Y-3073400D01*
G01X5252606Y-3070860D01*
G01X5509386Y-3070860D01*
G01X5509386Y-3173806D01*
G01X5511244Y-3187852D01*
G01X5516691Y-3200931D01*
G01X5525351Y-3212144D01*
G01X5536629Y-3220720D01*
G01X5549749Y-3226067D01*
G01X5563809Y-3227819D01*
G01X5577840Y-3225855D01*
G01X5577840Y-3322786D01*
G01X5516098Y-3322786D01*
G01X5505031Y-3324539D01*
G01X5495047Y-3329626D01*
G01X5487124Y-3337549D01*
G01X5482037Y-3347533D01*
G01X5480284Y-3358600D01*
G01X5480284Y-3448600D01*
G01X5482037Y-3459667D01*
G01X5487124Y-3469651D01*
G01X5495047Y-3477574D01*
G01X5505031Y-3482661D01*
G01X5516098Y-3484414D01*
G01X5577840Y-3484414D01*
G01X5577840Y-3583132D01*
G01X5563847Y-3580587D01*
G01X5549682Y-3581857D01*
G01X5536365Y-3586850D01*
G01X5524856Y-3595207D01*
G01X5515987Y-3606326D01*
G01X5510396Y-3619403D01*
G01X5508487Y-3633497D01*
G01X5508487Y-3772346D01*
G01X5510396Y-3786439D01*
G01X5515987Y-3799517D01*
G01X5524856Y-3810635D01*
G01X5536365Y-3818992D01*
G01X5549682Y-3823986D01*
G01X5563847Y-3825256D01*
G01X5577840Y-3822710D01*
G01X5577840Y-3853457D01*
G01X5153460Y-3853457D01*
G01X5153460Y-3852714D01*
G01X5228102Y-3852714D01*
G01X5239169Y-3850961D01*
G01X5249153Y-3845874D01*
G01X5257076Y-3837951D01*
G01X5262163Y-3827967D01*
G01X5263916Y-3816900D01*
G01X5263916Y-3726900D01*
G01X5262163Y-3715833D01*
G01X5257076Y-3705849D01*
G01X5249153Y-3697926D01*
G01X5239169Y-3692839D01*
G01X5228102Y-3691086D01*
G01X5153460Y-3691086D01*
G01X5153460Y-3607855D01*
G01X5293951Y-3607855D01*
G01X5305018Y-3606103D01*
G01X5315001Y-3601016D01*
G01X5322925Y-3593092D01*
G01X5328012Y-3583109D01*
G01X5329765Y-3572041D01*
G01X5329765Y-3399243D01*
G01X5328012Y-3388175D01*
G01X5322925Y-3378192D01*
G01X5315001Y-3370268D01*
G01X5305018Y-3365181D01*
G01X5293951Y-3363429D01*
G01X5153460Y-3363429D01*
G37*
G36*
G01X8874760Y-1318260D02*
G01X8945926Y-1318260D01*
G01X8945926Y-1449478D01*
G01X8947679Y-1460545D01*
G01X8952766Y-1470529D01*
G01X8960689Y-1478452D01*
G01X8970673Y-1483539D01*
G01X8981740Y-1485292D01*
G01X9331660Y-1485292D01*
G01X9342727Y-1483539D01*
G01X9352711Y-1478452D01*
G01X9360634Y-1470529D01*
G01X9365721Y-1460545D01*
G01X9367474Y-1449478D01*
G01X9367474Y-1388506D01*
G01X9573782Y-1388506D01*
G01X9573782Y-1694428D01*
G01X9575535Y-1705496D01*
G01X9580622Y-1715479D01*
G01X9588545Y-1723403D01*
G01X9598529Y-1728490D01*
G01X9609596Y-1730242D01*
G01X10173745Y-1730242D01*
G01X10184812Y-1728490D01*
G01X10194796Y-1723403D01*
G01X10202719Y-1715479D01*
G01X10207806Y-1705496D01*
G01X10209559Y-1694428D01*
G01X10209559Y-1388506D01*
G01X10207806Y-1377439D01*
G01X10202719Y-1367455D01*
G01X10194796Y-1359532D01*
G01X10184812Y-1354445D01*
G01X10173745Y-1352692D01*
G01X9609596Y-1352692D01*
G01X9609596Y-1352692D01*
G01X9598529Y-1354445D01*
G01X9588545Y-1359532D01*
G01X9580622Y-1367455D01*
G01X9575535Y-1377439D01*
G01X9573782Y-1388506D01*
G01X9367474Y-1388506D01*
G01X9367474Y-1318260D01*
G01X10232390Y-1318260D01*
G01X10232390Y-1756528D01*
G01X9370243Y-1756528D01*
G01X9375426Y-1746470D01*
G01X9377214Y-1735298D01*
G01X9377214Y-1655298D01*
G01X9375461Y-1644231D01*
G01X9370374Y-1634247D01*
G01X9362451Y-1626324D01*
G01X9352467Y-1621237D01*
G01X9341400Y-1619484D01*
G01X9251400Y-1619484D01*
G01X9240333Y-1621237D01*
G01X9230349Y-1626324D01*
G01X9222426Y-1634247D01*
G01X9217339Y-1644231D01*
G01X9215586Y-1655298D01*
G01X9215586Y-1735298D01*
G01X9217374Y-1746470D01*
G01X9222557Y-1756528D01*
G01X8874760Y-1756528D01*
G01X8874760Y-1569891D01*
G01X8882087Y-1569891D01*
G01X8882087Y-1718393D01*
G01X8883839Y-1729460D01*
G01X8888926Y-1739443D01*
G01X8896850Y-1747367D01*
G01X8906833Y-1752454D01*
G01X8917901Y-1754207D01*
G01X9090699Y-1754207D01*
G01X9090699Y-1754207D01*
G01X9101767Y-1752454D01*
G01X9111750Y-1747367D01*
G01X9119674Y-1739443D01*
G01X9124761Y-1729460D01*
G01X9126513Y-1718393D01*
G01X9126513Y-1569891D01*
G01X9124761Y-1558824D01*
G01X9119674Y-1548841D01*
G01X9111750Y-1540917D01*
G01X9101767Y-1535830D01*
G01X9090699Y-1534077D01*
G01X8917901Y-1534077D01*
G01X8906833Y-1535830D01*
G01X8896850Y-1540917D01*
G01X8888926Y-1548841D01*
G01X8883839Y-1558824D01*
G01X8882087Y-1569891D01*
G01X8874760Y-1569891D01*
G01X8874760Y-1318260D01*
G37*
G36*
G01X8882087Y-3966293D02*
G01X8883238Y-3975299D01*
G01X8886617Y-3983727D01*
G01X8892007Y-3991034D01*
G01X8877935Y-3991034D01*
G01X8877935Y-3594810D01*
G01X8907826Y-3594810D01*
G01X8907826Y-3735478D01*
G01X8909579Y-3746545D01*
G01X8914666Y-3756529D01*
G01X8922589Y-3764452D01*
G01X8932573Y-3769539D01*
G01X8943640Y-3771292D01*
G01X9293560Y-3771292D01*
G01X9293560Y-3771292D01*
G01X9304627Y-3769539D01*
G01X9314611Y-3764452D01*
G01X9322534Y-3756529D01*
G01X9327621Y-3746545D01*
G01X9329374Y-3735478D01*
G01X9329374Y-3598306D01*
G01X9573782Y-3598306D01*
G01X9573782Y-3904228D01*
G01X9575535Y-3915296D01*
G01X9580622Y-3925279D01*
G01X9588545Y-3933203D01*
G01X9598529Y-3938290D01*
G01X9609596Y-3940042D01*
G01X10173745Y-3940042D01*
G01X10184812Y-3938290D01*
G01X10194796Y-3933203D01*
G01X10202719Y-3925279D01*
G01X10207806Y-3915296D01*
G01X10209559Y-3904228D01*
G01X10209559Y-3598306D01*
G01X10207806Y-3587239D01*
G01X10202719Y-3577255D01*
G01X10194796Y-3569332D01*
G01X10184812Y-3564245D01*
G01X10173745Y-3562492D01*
G01X9609596Y-3562492D01*
G01X9609596Y-3562492D01*
G01X9598529Y-3564245D01*
G01X9588545Y-3569332D01*
G01X9580622Y-3577255D01*
G01X9575535Y-3587239D01*
G01X9573782Y-3598306D01*
G01X9329374Y-3598306D01*
G01X9329374Y-3594810D01*
G01X9327621Y-3583743D01*
G01X9322534Y-3573759D01*
G01X9314611Y-3565836D01*
G01X9304627Y-3560749D01*
G01X9293560Y-3558996D01*
G01X8943640Y-3558996D01*
G01X8932573Y-3560749D01*
G01X8922589Y-3565836D01*
G01X8914666Y-3573759D01*
G01X8909579Y-3583743D01*
G01X8907826Y-3594810D01*
G01X8877935Y-3594810D01*
G01X8877935Y-3527366D01*
G01X10222865Y-3527366D01*
G01X10222865Y-3991034D01*
G01X9364514Y-3991034D01*
G01X9364514Y-3915898D01*
G01X9362761Y-3904831D01*
G01X9357674Y-3894847D01*
G01X9349751Y-3886924D01*
G01X9339767Y-3881837D01*
G01X9328700Y-3880084D01*
G01X9238700Y-3880084D01*
G01X9227633Y-3881837D01*
G01X9217649Y-3886924D01*
G01X9209726Y-3894847D01*
G01X9204639Y-3904831D01*
G01X9202886Y-3915898D01*
G01X9202886Y-3991034D01*
G01X9116593Y-3991034D01*
G01X9121983Y-3983727D01*
G01X9125362Y-3975299D01*
G01X9126513Y-3966293D01*
G01X9126513Y-3817791D01*
G01X9124761Y-3806724D01*
G01X9119674Y-3796741D01*
G01X9111750Y-3788817D01*
G01X9101767Y-3783730D01*
G01X9090699Y-3781977D01*
G01X8917901Y-3781977D01*
G01X8906833Y-3783730D01*
G01X8896850Y-3788817D01*
G01X8888926Y-3796741D01*
G01X8883839Y-3806724D01*
G01X8882087Y-3817791D01*
G01X8882087Y-3966293D01*
G37*
G36*
G01X8119902Y-5253186D02*
G01X8112066Y-5254054D01*
G01X8112066Y-5176462D01*
G01X8118946Y-5180898D01*
G01X8126653Y-5183655D01*
G01X8134786Y-5184591D01*
G01X8283287Y-5184591D01*
G01X8294354Y-5182838D01*
G01X8304338Y-5177751D01*
G01X8312261Y-5169828D01*
G01X8317348Y-5159844D01*
G01X8319101Y-5148777D01*
G01X8319101Y-4975978D01*
G01X8317348Y-4964911D01*
G01X8312261Y-4954927D01*
G01X8304338Y-4947004D01*
G01X8294354Y-4941917D01*
G01X8283287Y-4940164D01*
G01X8134786Y-4940164D01*
G01X8126653Y-4941100D01*
G01X8118946Y-4943857D01*
G01X8112066Y-4948293D01*
G01X8112066Y-4928235D01*
G01X8550334Y-4928235D01*
G01X8550334Y-4996444D01*
G01X8546390Y-4996226D01*
G01X8405722Y-4996226D01*
G01X8394655Y-4997979D01*
G01X8384671Y-5003066D01*
G01X8376748Y-5010989D01*
G01X8371661Y-5020973D01*
G01X8369908Y-5032040D01*
G01X8369908Y-5381960D01*
G01X8371661Y-5393027D01*
G01X8376748Y-5403011D01*
G01X8384671Y-5410934D01*
G01X8394655Y-5416021D01*
G01X8405722Y-5417774D01*
G01X8546390Y-5417774D01*
G01X8550334Y-5417556D01*
G01X8550334Y-6285865D01*
G01X8112066Y-6285865D01*
G01X8112066Y-5659896D01*
G01X8150358Y-5659896D01*
G01X8150358Y-6224045D01*
G01X8152110Y-6235112D01*
G01X8157197Y-6245096D01*
G01X8165121Y-6253019D01*
G01X8175104Y-6258106D01*
G01X8186172Y-6259859D01*
G01X8492094Y-6259859D01*
G01X8503161Y-6258106D01*
G01X8513145Y-6253019D01*
G01X8521068Y-6245096D01*
G01X8526155Y-6235112D01*
G01X8527908Y-6224045D01*
G01X8527908Y-5659896D01*
G01X8527908Y-5659896D01*
G01X8526155Y-5648829D01*
G01X8521068Y-5638845D01*
G01X8513145Y-5630922D01*
G01X8503161Y-5625835D01*
G01X8492094Y-5624082D01*
G01X8186172Y-5624082D01*
G01X8175104Y-5625835D01*
G01X8165121Y-5630922D01*
G01X8157197Y-5638845D01*
G01X8152110Y-5648829D01*
G01X8150358Y-5659896D01*
G01X8112066Y-5659896D01*
G01X8112066Y-5413946D01*
G01X8119902Y-5414814D01*
G01X8199902Y-5414814D01*
G01X8210969Y-5413061D01*
G01X8220953Y-5407974D01*
G01X8228876Y-5400051D01*
G01X8233963Y-5390067D01*
G01X8235716Y-5379000D01*
G01X8235716Y-5289000D01*
G01X8233963Y-5277933D01*
G01X8228876Y-5267949D01*
G01X8220953Y-5260026D01*
G01X8210969Y-5254939D01*
G01X8199902Y-5253186D01*
G01X8119902Y-5253186D01*
G37*
G36*
G01X7566660Y-2192346D02*
G01X7566660Y-2102498D01*
G01X7649286Y-2102498D01*
G01X7651039Y-2113565D01*
G01X7656126Y-2123549D01*
G01X7664049Y-2131472D01*
G01X7674033Y-2136559D01*
G01X7685100Y-2138312D01*
G01X7885100Y-2138312D01*
G01X7885100Y-2138312D01*
G01X7896167Y-2136559D01*
G01X7906151Y-2131472D01*
G01X7914074Y-2123549D01*
G01X7919161Y-2113565D01*
G01X7920914Y-2102498D01*
G01X7920914Y-1902498D01*
G01X7919161Y-1891431D01*
G01X7914074Y-1881447D01*
G01X7906151Y-1873524D01*
G01X7896167Y-1868437D01*
G01X7885100Y-1866684D01*
G01X7685100Y-1866684D01*
G01X7674033Y-1868437D01*
G01X7664049Y-1873524D01*
G01X7656126Y-1881447D01*
G01X7651039Y-1891431D01*
G01X7649286Y-1902498D01*
G01X7649286Y-2102498D01*
G01X7566660Y-2102498D01*
G01X7566660Y-1551901D01*
G01X7631093Y-1551901D01*
G01X7631093Y-1724699D01*
G01X7632846Y-1735767D01*
G01X7637933Y-1745750D01*
G01X7645857Y-1753674D01*
G01X7655840Y-1758761D01*
G01X7666907Y-1760513D01*
G01X7815409Y-1760513D01*
G01X7826476Y-1758761D01*
G01X7836459Y-1753674D01*
G01X7844383Y-1745750D01*
G01X7849470Y-1735767D01*
G01X7851223Y-1724699D01*
G01X7851223Y-1551901D01*
G01X7851223Y-1551901D01*
G01X7849470Y-1540833D01*
G01X7844383Y-1530850D01*
G01X7836459Y-1522926D01*
G01X7826476Y-1517839D01*
G01X7815409Y-1516087D01*
G01X7666907Y-1516087D01*
G01X7655840Y-1517839D01*
G01X7645857Y-1522926D01*
G01X7637933Y-1530850D01*
G01X7632846Y-1540833D01*
G01X7631093Y-1551901D01*
G01X7566660Y-1551901D01*
G01X7566660Y-1388914D01*
G01X7641102Y-1388914D01*
G01X7652169Y-1387161D01*
G01X7662153Y-1382074D01*
G01X7670076Y-1374151D01*
G01X7675163Y-1364167D01*
G01X7676916Y-1353100D01*
G01X7676916Y-1263100D01*
G01X7675240Y-1252270D01*
G01X7670366Y-1242454D01*
G01X7662753Y-1234571D01*
G01X7653113Y-1229360D01*
G01X7927340Y-1229360D01*
G01X7927340Y-2192346D01*
G01X7566660Y-2192346D01*
G37*
G36*
G01X8442960Y-1813560D02*
G01X9215586Y-1813560D01*
G01X9215586Y-1888002D01*
G01X9217339Y-1899069D01*
G01X9222426Y-1909053D01*
G01X9230349Y-1916976D01*
G01X9240333Y-1922063D01*
G01X9251400Y-1923816D01*
G01X9341400Y-1923816D01*
G01X9352467Y-1922063D01*
G01X9362451Y-1916976D01*
G01X9370374Y-1909053D01*
G01X9375461Y-1899069D01*
G01X9377214Y-1888002D01*
G01X9377214Y-1813560D01*
G01X9406890Y-1813560D01*
G01X9406890Y-2110740D01*
G01X8442960Y-2110740D01*
G01X8442960Y-2064398D01*
G01X8487486Y-2064398D01*
G01X8489239Y-2075465D01*
G01X8494326Y-2085449D01*
G01X8502249Y-2093372D01*
G01X8512233Y-2098459D01*
G01X8523300Y-2100212D01*
G01X8723300Y-2100212D01*
G01X8723300Y-2100212D01*
G01X8734367Y-2098459D01*
G01X8744351Y-2093372D01*
G01X8752274Y-2085449D01*
G01X8757361Y-2075465D01*
G01X8759114Y-2064398D01*
G01X8759114Y-1888407D01*
G01X8882087Y-1888407D01*
G01X8882087Y-2036909D01*
G01X8883839Y-2047976D01*
G01X8888926Y-2057959D01*
G01X8896850Y-2065883D01*
G01X8906833Y-2070970D01*
G01X8917901Y-2072723D01*
G01X9090699Y-2072723D01*
G01X9090699Y-2072723D01*
G01X9101767Y-2070970D01*
G01X9111750Y-2065883D01*
G01X9119674Y-2057959D01*
G01X9124761Y-2047976D01*
G01X9126513Y-2036909D01*
G01X9126513Y-1888407D01*
G01X9124761Y-1877340D01*
G01X9119674Y-1867357D01*
G01X9111750Y-1859433D01*
G01X9101767Y-1854346D01*
G01X9090699Y-1852593D01*
G01X8917901Y-1852593D01*
G01X8906833Y-1854346D01*
G01X8896850Y-1859433D01*
G01X8888926Y-1867357D01*
G01X8883839Y-1877340D01*
G01X8882087Y-1888407D01*
G01X8759114Y-1888407D01*
G01X8759114Y-1864398D01*
G01X8757361Y-1853331D01*
G01X8752274Y-1843347D01*
G01X8744351Y-1835424D01*
G01X8734367Y-1830337D01*
G01X8723300Y-1828584D01*
G01X8523300Y-1828584D01*
G01X8512233Y-1830337D01*
G01X8502249Y-1835424D01*
G01X8494326Y-1843347D01*
G01X8489239Y-1853331D01*
G01X8487486Y-1864398D01*
G01X8487486Y-2064398D01*
G01X8442960Y-2064398D01*
G01X8442960Y-1813560D01*
G37*
G36*
G01X8442335Y-4062710D02*
G01X9202886Y-4062710D01*
G01X9202886Y-4135902D01*
G01X9204639Y-4146969D01*
G01X9209726Y-4156953D01*
G01X9217649Y-4164876D01*
G01X9227633Y-4169963D01*
G01X9238700Y-4171716D01*
G01X9328700Y-4171716D01*
G01X9339767Y-4169963D01*
G01X9349751Y-4164876D01*
G01X9357674Y-4156953D01*
G01X9362761Y-4146969D01*
G01X9364514Y-4135902D01*
G01X9364514Y-4062710D01*
G01X9406265Y-4062710D01*
G01X9406265Y-4359890D01*
G01X8442335Y-4359890D01*
G01X8442335Y-4316400D01*
G01X8491588Y-4316400D01*
G01X8493341Y-4327467D01*
G01X8498428Y-4337451D01*
G01X8506351Y-4345374D01*
G01X8516335Y-4350461D01*
G01X8527402Y-4352214D01*
G01X8727402Y-4352214D01*
G01X8738469Y-4350461D01*
G01X8748453Y-4345374D01*
G01X8756376Y-4337451D01*
G01X8761463Y-4327467D01*
G01X8763216Y-4316400D01*
G01X8763216Y-4136307D01*
G01X8882087Y-4136307D01*
G01X8882087Y-4284809D01*
G01X8883839Y-4295876D01*
G01X8888926Y-4305859D01*
G01X8896850Y-4313783D01*
G01X8906833Y-4318870D01*
G01X8917901Y-4320623D01*
G01X9090699Y-4320623D01*
G01X9090699Y-4320623D01*
G01X9101767Y-4318870D01*
G01X9111750Y-4313783D01*
G01X9119674Y-4305859D01*
G01X9124761Y-4295876D01*
G01X9126513Y-4284809D01*
G01X9126513Y-4136307D01*
G01X9124761Y-4125240D01*
G01X9119674Y-4115257D01*
G01X9111750Y-4107333D01*
G01X9101767Y-4102246D01*
G01X9090699Y-4100493D01*
G01X8917901Y-4100493D01*
G01X8906833Y-4102246D01*
G01X8896850Y-4107333D01*
G01X8888926Y-4115257D01*
G01X8883839Y-4125240D01*
G01X8882087Y-4136307D01*
G01X8763216Y-4136307D01*
G01X8763216Y-4116400D01*
G01X8761463Y-4105333D01*
G01X8756376Y-4095349D01*
G01X8748453Y-4087426D01*
G01X8738469Y-4082339D01*
G01X8727402Y-4080586D01*
G01X8527402Y-4080586D01*
G01X8516335Y-4082339D01*
G01X8506351Y-4087426D01*
G01X8498428Y-4095349D01*
G01X8493341Y-4105333D01*
G01X8491588Y-4116400D01*
G01X8491588Y-4316400D01*
G01X8491588Y-4316400D01*
G01X8442335Y-4316400D01*
G01X8442335Y-4062710D01*
G37*
G36*
G01X8039118Y-4494012D02*
G01X8039118Y-5253186D01*
G01X7979898Y-5253186D01*
G01X7968831Y-5254939D01*
G01X7958847Y-5260026D01*
G01X7950924Y-5267949D01*
G01X7945837Y-5277933D01*
G01X7944084Y-5289000D01*
G01X7944084Y-5379000D01*
G01X7945837Y-5390067D01*
G01X7950924Y-5400051D01*
G01X7958847Y-5407974D01*
G01X7968831Y-5413061D01*
G01X7979898Y-5414814D01*
G01X8039118Y-5414814D01*
G01X8039118Y-5457942D01*
G01X7741938Y-5457942D01*
G01X7741938Y-5148777D01*
G01X7780456Y-5148777D01*
G01X7782208Y-5159844D01*
G01X7787295Y-5169828D01*
G01X7795219Y-5177751D01*
G01X7805202Y-5182838D01*
G01X7816270Y-5184591D01*
G01X7964771Y-5184591D01*
G01X7975838Y-5182838D01*
G01X7985822Y-5177751D01*
G01X7993745Y-5169828D01*
G01X7998832Y-5159844D01*
G01X8000585Y-5148777D01*
G01X8000585Y-4975978D01*
G01X7998832Y-4964911D01*
G01X7993745Y-4954927D01*
G01X7985822Y-4947004D01*
G01X7975838Y-4941917D01*
G01X7964771Y-4940164D01*
G01X7816270Y-4940164D01*
G01X7805202Y-4941917D01*
G01X7795219Y-4947004D01*
G01X7787295Y-4954927D01*
G01X7782208Y-4964911D01*
G01X7780456Y-4975978D01*
G01X7780456Y-5148777D01*
G01X7780456Y-5148777D01*
G01X7741938Y-5148777D01*
G01X7741938Y-4773600D01*
G01X7754988Y-4773600D01*
G01X7756741Y-4784667D01*
G01X7761828Y-4794651D01*
G01X7769751Y-4802574D01*
G01X7779735Y-4807661D01*
G01X7790802Y-4809414D01*
G01X7990802Y-4809414D01*
G01X8001869Y-4807661D01*
G01X8011853Y-4802574D01*
G01X8019776Y-4794651D01*
G01X8024863Y-4784667D01*
G01X8026616Y-4773600D01*
G01X8026616Y-4573600D01*
G01X8024863Y-4562533D01*
G01X8019776Y-4552549D01*
G01X8011853Y-4544626D01*
G01X8001869Y-4539539D01*
G01X7990802Y-4537786D01*
G01X7790802Y-4537786D01*
G01X7779735Y-4539539D01*
G01X7769751Y-4544626D01*
G01X7761828Y-4552549D01*
G01X7756741Y-4562533D01*
G01X7754988Y-4573600D01*
G01X7754988Y-4773600D01*
G01X7754988Y-4773600D01*
G01X7741938Y-4773600D01*
G01X7741938Y-4494012D01*
G01X8039118Y-4494012D01*
G37*
G36*
G01X1229360Y-1551940D02*
G01X1229360Y-1143434D01*
G01X1329886Y-1143434D01*
G01X1329886Y-1383434D01*
G01X1331797Y-1405281D01*
G01X1337473Y-1426465D01*
G01X1346741Y-1446341D01*
G01X1359320Y-1464305D01*
G01X1374828Y-1479813D01*
G01X1392792Y-1492392D01*
G01X1412669Y-1501660D01*
G01X1433852Y-1507336D01*
G01X1455699Y-1509248D01*
G01X1477547Y-1507336D01*
G01X1498730Y-1501660D01*
G01X1518606Y-1492392D01*
G01X1536571Y-1479813D01*
G01X1552078Y-1464305D01*
G01X1564657Y-1446341D01*
G01X1573926Y-1426465D01*
G01X1579602Y-1405281D01*
G01X1581513Y-1383434D01*
G01X1581513Y-1143434D01*
G01X1579602Y-1121587D01*
G01X1573926Y-1100403D01*
G01X1564657Y-1080527D01*
G01X1552078Y-1062563D01*
G01X1536571Y-1047055D01*
G01X1518606Y-1034476D01*
G01X1498730Y-1025208D01*
G01X1477547Y-1019532D01*
G01X1455699Y-1017621D01*
G01X1433852Y-1019532D01*
G01X1412669Y-1025208D01*
G01X1392792Y-1034476D01*
G01X1374828Y-1047055D01*
G01X1359320Y-1062563D01*
G01X1346741Y-1080527D01*
G01X1337473Y-1100403D01*
G01X1331797Y-1121587D01*
G01X1329886Y-1143434D01*
G01X1329886Y-1143434D01*
G01X1229360Y-1143434D01*
G01X1229360Y-899160D01*
G01X1729740Y-899160D01*
G01X1729740Y-1551940D01*
G01X1229360Y-1551940D01*
G37*
G54D10*
G01X4030809Y-715987D02*
G01X3887381Y-715987D01*
G01X3887381Y-586209D01*
G01X5577840Y-586209D01*
G01X5577840Y-1145540D01*
G01X3887381Y-1145540D01*
G01X3887381Y-960413D01*
G01X4030809Y-960413D01*
G03X4066623Y-924599I0J35814D01*
G01X4066623Y-751801D01*
G03X4030809Y-715987I-35814J0D01*
G01X5382705Y-859800D02*
G03X5346891Y-823986I-35814J0D01*
G01X4846892Y-823986D01*
G03X4811078Y-859800I0J-35814D01*
G01X4811078Y-1019800D01*
G03X4846892Y-1055614I35814J0D01*
G01X5346891Y-1055614D01*
G03X5382705Y-1019800I0J35814D01*
G01X5382705Y-859800D01*
G01X3456940Y-1051560D02*
G01X3456940Y-1305504D01*
G01X3454458Y-1305445D01*
G01X3315609Y-1305445D01*
G03X3273788Y-1390909I0J-52964D01*
G03X3264593Y-1437640I41821J-32499D01*
G01X1673860Y-1437640D01*
G01X1673860Y-1051560D01*
G01X3456940Y-1051560D01*
G01X1912000Y-1104201D02*
G03X1876186Y-1140015I0J-35814D01*
G01X1876186Y-1344765D01*
G03X1912000Y-1380579I35814J0D01*
G01X2152000Y-1380579D01*
G03X2187814Y-1344765I0J35814D01*
G01X2187814Y-1140015D01*
G03X2152000Y-1104201I-35814J0D01*
G01X1912000Y-1104201D01*
G01X2625051Y-1434211D02*
G03X2660865Y-1398397I0J35814D01*
G01X2660865Y-1277645D01*
G03X2625051Y-1241831I-35814J0D01*
G01X2454949Y-1241831D01*
G03X2419135Y-1277645I0J-35814D01*
G01X2419135Y-1398397D01*
G03X2454949Y-1434211I35814J0D01*
G01X2625051Y-1434211D01*
G01X2999701Y-1065193D02*
G03X2963887Y-1101007I0J-35814D01*
G01X2963887Y-1249509D01*
G03X2999701Y-1285323I35814J0D01*
G01X3172499Y-1285323D01*
G03X3208313Y-1249509I0J35814D01*
G01X3208313Y-1101007D01*
G03X3172499Y-1065193I-35814J0D01*
G01X2999701Y-1065193D01*
G01X1831300Y-975400D02*
G01X1831300Y-574690D01*
G01X3753290Y-574690D01*
G01X3753290Y-975400D01*
G01X1831300Y-975400D01*
G01X1912000Y-626021D02*
G03X1876186Y-661835I0J-35814D01*
G01X1876186Y-866584D01*
G03X1912000Y-902398I35814J0D01*
G01X2152000Y-902398D01*
G03X2187814Y-866584I0J35814D01*
G01X2187814Y-661835D01*
G03X2152000Y-626021I-35814J0D01*
G01X1912000Y-626021D01*
G01X2999701Y-746677D02*
G03X2963887Y-782491I0J-35814D01*
G01X2963887Y-930993D01*
G03X2999701Y-966807I35814J0D01*
G01X3172499Y-966807D01*
G03X3208313Y-930993I0J35814D01*
G01X3208313Y-782491D01*
G03X3172499Y-746677I-35814J0D01*
G01X2999701Y-746677D01*
G01X3527977Y-924599D02*
G03X3563791Y-960413I35814J0D01*
G01X3712293Y-960413D01*
G03X3748107Y-924599I0J35814D01*
G01X3748107Y-751801D01*
G03X3712293Y-715987I-35814J0D01*
G01X3563791Y-715987D01*
G03X3527977Y-751801I0J-35814D01*
G01X3527977Y-924599D01*
G01X5749207Y-2290787D02*
G03X5742460Y-2291428I0J-35814D01*
G01X5742460Y-586562D01*
G01X6555740Y-586562D01*
G01X6555740Y-2517140D01*
G01X6234315Y-2517140D01*
G03X6240314Y-2497298I-29815J19842D01*
G01X6240314Y-2417298D01*
G03X6204500Y-2381484I-35814J0D01*
G01X6114500Y-2381484D01*
G03X6078686Y-2417298I0J-35814D01*
G01X6078686Y-2497298D01*
G03X6084685Y-2517140I35814J0D01*
G01X5928820Y-2517140D01*
G03X5933523Y-2499399I-31111J17741D01*
G01X5933523Y-2326601D01*
G03X5897709Y-2290787I-35814J0D01*
G01X5749207Y-2290787D01*
G01X6032716Y-1881200D02*
G03X5996902Y-1845386I-35814J0D01*
G01X5796902Y-1845386D01*
G03X5761088Y-1881200I0J-35814D01*
G01X5761088Y-2081200D01*
G03X5796902Y-2117014I35814J0D01*
G01X5996902Y-2117014D01*
G03X6032716Y-2081200I0J35814D01*
G01X6032716Y-1881200D01*
G01X6542723Y-859800D02*
G03X6506909Y-823986I-35814J0D01*
G01X6006910Y-823986D01*
G03X5971096Y-859800I0J-35814D01*
G01X5971096Y-1019800D01*
G03X6006910Y-1055614I35814J0D01*
G01X6506909Y-1055614D01*
G03X6542723Y-1019800I0J35814D01*
G01X6542723Y-859800D01*
G01X4810760Y-2758440D02*
G01X4810760Y-2717401D01*
G01X4890099Y-2717401D01*
G03X4925913Y-2681587I0J35814D01*
G01X4925913Y-2601587D01*
G03X4890099Y-2565773I-35814J0D01*
G01X4810760Y-2565773D01*
G01X4810760Y-594360D01*
G01X5577840Y-594360D01*
G01X5577840Y-1852147D01*
G03X5556898Y-1845386I-20942J-29053D01*
G01X5356898Y-1845386D01*
G03X5321084Y-1881200I0J-35814D01*
G01X5321084Y-2081200D01*
G03X5356898Y-2117014I35814J0D01*
G01X5556898Y-2117014D01*
G03X5577840Y-2110253I0J35814D01*
G01X5577840Y-2290787D01*
G01X5430691Y-2290787D01*
G03X5394877Y-2326601I0J-35814D01*
G01X5394877Y-2499399D01*
G03X5430691Y-2535213I35814J0D01*
G01X5577840Y-2535213D01*
G01X5577840Y-2565747D01*
G03X5509386Y-2617795I-14440J-52048D01*
G01X5509386Y-2747594D01*
G03X5510486Y-2758440I54014J0D01*
G01X4810760Y-2758440D01*
G01X5382705Y-859800D02*
G03X5346891Y-823986I-35814J0D01*
G01X4846892Y-823986D01*
G03X4811078Y-859800I0J-35814D01*
G01X4811078Y-1019800D01*
G03X4846892Y-1055614I35814J0D01*
G01X5346891Y-1055614D01*
G03X5382705Y-1019800I0J35814D01*
G01X5382705Y-859800D01*
G01X4030809Y-715987D02*
G01X3883660Y-715987D01*
G01X3883660Y-594820D01*
G01X4119700Y-594820D01*
G01X4119700Y-1437640D01*
G01X4078625Y-1437640D01*
G03X4069430Y-1390909I-51016J14232D01*
G03X4027609Y-1305445I-41821J32499D01*
G01X3888760Y-1305445D01*
G03X3883660Y-1305692I0J-52964D01*
G01X3883660Y-960413D01*
G01X4030809Y-960413D01*
G03X4066623Y-924599I0J35814D01*
G01X4066623Y-751801D01*
G03X4030809Y-715987I-35814J0D01*
G01X7058660Y-1805940D02*
G01X7058660Y-1692926D01*
G03X7074610Y-1696674I15950J32066D01*
G01X7215278Y-1696674D01*
G03X7251092Y-1660860I0J35814D01*
G01X7251092Y-1310940D01*
G03X7215278Y-1275126I-35814J0D01*
G01X7074610Y-1275126D01*
G03X7058660Y-1278874I0J-35814D01*
G01X7058660Y-289560D01*
G01X7495540Y-289560D01*
G01X7495540Y-1227286D01*
G01X7421098Y-1227286D01*
G03X7385284Y-1263100I0J-35814D01*
G01X7385284Y-1353100D01*
G03X7421098Y-1388914I35814J0D01*
G01X7495540Y-1388914D01*
G01X7495540Y-1516087D01*
G01X7348391Y-1516087D01*
G03X7312577Y-1551901I0J-35814D01*
G01X7312577Y-1724699D01*
G03X7348391Y-1760513I35814J0D01*
G01X7495540Y-1760513D01*
G01X7495540Y-1805940D01*
G01X7058660Y-1805940D01*
G01X7105792Y-893304D02*
G03X7141606Y-929118I35814J0D01*
G01X7447528Y-929118D01*
G03X7483342Y-893304I0J35814D01*
G01X7483342Y-329155D01*
G03X7447528Y-293341I-35814J0D01*
G01X7141606Y-293341D01*
G03X7105792Y-329155I0J-35814D01*
G01X7105792Y-893304D01*
G01X5153460Y-3363429D02*
G01X5153460Y-3224874D01*
G01X5237500Y-3224874D01*
G03X5273314Y-3189060I0J35814D01*
G01X5273314Y-3108413D01*
G03X5245034Y-3073400I-35814J0D01*
G03X5252606Y-3070860I-7534J35013D01*
G01X5509386Y-3070860D01*
G01X5509386Y-3173806D01*
G03X5577840Y-3225855I54014J0D01*
G01X5577840Y-3322786D01*
G01X5516098Y-3322786D01*
G03X5480284Y-3358600I0J-35814D01*
G01X5480284Y-3448600D01*
G03X5516098Y-3484414I35814J0D01*
G01X5577840Y-3484414D01*
G01X5577840Y-3583132D01*
G03X5508487Y-3633497I-16389J-50365D01*
G01X5508487Y-3772346D01*
G03X5577840Y-3822710I52964J0D01*
G01X5577840Y-3853457D01*
G01X5153460Y-3853457D01*
G01X5153460Y-3852714D01*
G01X5228102Y-3852714D01*
G03X5263916Y-3816900I0J35814D01*
G01X5263916Y-3726900D01*
G03X5228102Y-3691086I-35814J0D01*
G01X5153460Y-3691086D01*
G01X5153460Y-3607855D01*
G01X5293951Y-3607855D01*
G03X5329765Y-3572041I0J35814D01*
G01X5329765Y-3399243D01*
G03X5293951Y-3363429I-35814J0D01*
G01X5153460Y-3363429D01*
G01X8874760Y-1318260D02*
G01X8945926Y-1318260D01*
G01X8945926Y-1449478D01*
G03X8981740Y-1485292I35814J0D01*
G01X9331660Y-1485292D01*
G03X9367474Y-1449478I0J35814D01*
G01X9367474Y-1318260D01*
G01X10232390Y-1318260D01*
G01X10232390Y-1756528D01*
G01X9370243Y-1756528D01*
G03X9377214Y-1735298I-28843J21231D01*
G01X9377214Y-1655298D01*
G03X9341400Y-1619484I-35814J0D01*
G01X9251400Y-1619484D01*
G03X9215586Y-1655298I0J-35814D01*
G01X9215586Y-1735298D01*
G03X9222557Y-1756528I35814J0D01*
G01X8874760Y-1756528D01*
G01X8874760Y-1318260D01*
G01X9090699Y-1754207D02*
G03X9126513Y-1718393I0J35814D01*
G01X9126513Y-1569891D01*
G03X9090699Y-1534077I-35814J0D01*
G01X8917901Y-1534077D01*
G03X8882087Y-1569891I0J-35814D01*
G01X8882087Y-1718393D01*
G03X8917901Y-1754207I35814J0D01*
G01X9090699Y-1754207D01*
G01X9609596Y-1352692D02*
G03X9573782Y-1388506I0J-35814D01*
G01X9573782Y-1694428D01*
G03X9609596Y-1730242I35814J0D01*
G01X10173745Y-1730242D01*
G03X10209559Y-1694428I0J35814D01*
G01X10209559Y-1388506D01*
G03X10173745Y-1352692I-35814J0D01*
G01X9609596Y-1352692D01*
G01X8882087Y-3966293D02*
G03X8892007Y-3991034I35814J0D01*
G01X8877935Y-3991034D01*
G01X8877935Y-3527366D01*
G01X10222865Y-3527366D01*
G01X10222865Y-3991034D01*
G01X9364514Y-3991034D01*
G01X9364514Y-3915898D01*
G03X9328700Y-3880084I-35814J0D01*
G01X9238700Y-3880084D01*
G03X9202886Y-3915898I0J-35814D01*
G01X9202886Y-3991034D01*
G01X9116593Y-3991034D01*
G03X9126513Y-3966293I-25894J24742D01*
G01X9126513Y-3817791D01*
G03X9090699Y-3781977I-35814J0D01*
G01X8917901Y-3781977D01*
G03X8882087Y-3817791I0J-35814D01*
G01X8882087Y-3966293D01*
G01X9293560Y-3771292D02*
G03X9329374Y-3735478I0J35814D01*
G01X9329374Y-3594810D01*
G03X9293560Y-3558996I-35814J0D01*
G01X8943640Y-3558996D01*
G03X8907826Y-3594810I0J-35814D01*
G01X8907826Y-3735478D01*
G03X8943640Y-3771292I35814J0D01*
G01X9293560Y-3771292D01*
G01X9609596Y-3562492D02*
G03X9573782Y-3598306I0J-35814D01*
G01X9573782Y-3904228D01*
G03X9609596Y-3940042I35814J0D01*
G01X10173745Y-3940042D01*
G03X10209559Y-3904228I0J35814D01*
G01X10209559Y-3598306D01*
G03X10173745Y-3562492I-35814J0D01*
G01X9609596Y-3562492D01*
G01X8119902Y-5253186D02*
G03X8112066Y-5254054I0J-35814D01*
G01X8112066Y-5176462D01*
G03X8134786Y-5184591I22720J27685D01*
G01X8283287Y-5184591D01*
G03X8319101Y-5148777I0J35814D01*
G01X8319101Y-4975978D01*
G03X8283287Y-4940164I-35814J0D01*
G01X8134786Y-4940164D01*
G03X8112066Y-4948293I0J-35814D01*
G01X8112066Y-4928235D01*
G01X8550334Y-4928235D01*
G01X8550334Y-4996444D01*
G03X8546390Y-4996226I-3944J-35596D01*
G01X8405722Y-4996226D01*
G03X8369908Y-5032040I0J-35814D01*
G01X8369908Y-5381960D01*
G03X8405722Y-5417774I35814J0D01*
G01X8546390Y-5417774D01*
G03X8550334Y-5417556I0J35814D01*
G01X8550334Y-6285865D01*
G01X8112066Y-6285865D01*
G01X8112066Y-5413946D01*
G03X8119902Y-5414814I7837J34946D01*
G01X8199902Y-5414814D01*
G03X8235716Y-5379000I0J35814D01*
G01X8235716Y-5289000D01*
G03X8199902Y-5253186I-35814J0D01*
G01X8119902Y-5253186D01*
G01X8527908Y-5659896D02*
G03X8492094Y-5624082I-35814J0D01*
G01X8186172Y-5624082D01*
G03X8150358Y-5659896I0J-35814D01*
G01X8150358Y-6224045D01*
G03X8186172Y-6259859I35814J0D01*
G01X8492094Y-6259859D01*
G03X8527908Y-6224045I0J35814D01*
G01X8527908Y-5659896D01*
G01X7566660Y-2192346D02*
G01X7566660Y-1388914D01*
G01X7641102Y-1388914D01*
G03X7676916Y-1353100I0J35814D01*
G01X7676916Y-1263100D01*
G03X7653113Y-1229360I-35814J0D01*
G01X7927340Y-1229360D01*
G01X7927340Y-2192346D01*
G01X7566660Y-2192346D01*
G01X7851223Y-1551901D02*
G03X7815409Y-1516087I-35814J0D01*
G01X7666907Y-1516087D01*
G03X7631093Y-1551901I0J-35814D01*
G01X7631093Y-1724699D01*
G03X7666907Y-1760513I35814J0D01*
G01X7815409Y-1760513D01*
G03X7851223Y-1724699I0J35814D01*
G01X7851223Y-1551901D01*
G01X7885100Y-2138312D02*
G03X7920914Y-2102498I0J35814D01*
G01X7920914Y-1902498D01*
G03X7885100Y-1866684I-35814J0D01*
G01X7685100Y-1866684D01*
G03X7649286Y-1902498I0J-35814D01*
G01X7649286Y-2102498D01*
G03X7685100Y-2138312I35814J0D01*
G01X7885100Y-2138312D01*
G01X8442960Y-1813560D02*
G01X9215586Y-1813560D01*
G01X9215586Y-1888002D01*
G03X9251400Y-1923816I35814J0D01*
G01X9341400Y-1923816D01*
G03X9377214Y-1888002I0J35814D01*
G01X9377214Y-1813560D01*
G01X9406890Y-1813560D01*
G01X9406890Y-2110740D01*
G01X8442960Y-2110740D01*
G01X8442960Y-1813560D01*
G01X8723300Y-2100212D02*
G03X8759114Y-2064398I0J35814D01*
G01X8759114Y-1864398D01*
G03X8723300Y-1828584I-35814J0D01*
G01X8523300Y-1828584D01*
G03X8487486Y-1864398I0J-35814D01*
G01X8487486Y-2064398D01*
G03X8523300Y-2100212I35814J0D01*
G01X8723300Y-2100212D01*
G01X9090699Y-2072723D02*
G03X9126513Y-2036909I0J35814D01*
G01X9126513Y-1888407D01*
G03X9090699Y-1852593I-35814J0D01*
G01X8917901Y-1852593D01*
G03X8882087Y-1888407I0J-35814D01*
G01X8882087Y-2036909D01*
G03X8917901Y-2072723I35814J0D01*
G01X9090699Y-2072723D01*
G01X8442335Y-4062710D02*
G01X9202886Y-4062710D01*
G01X9202886Y-4135902D01*
G03X9238700Y-4171716I35814J0D01*
G01X9328700Y-4171716D01*
G03X9364514Y-4135902I0J35814D01*
G01X9364514Y-4062710D01*
G01X9406265Y-4062710D01*
G01X9406265Y-4359890D01*
G01X8442335Y-4359890D01*
G01X8442335Y-4062710D01*
G01X8491588Y-4316400D02*
G03X8527402Y-4352214I35814J0D01*
G01X8727402Y-4352214D01*
G03X8763216Y-4316400I0J35814D01*
G01X8763216Y-4116400D01*
G03X8727402Y-4080586I-35814J0D01*
G01X8527402Y-4080586D01*
G03X8491588Y-4116400I0J-35814D01*
G01X8491588Y-4316400D01*
G01X9090699Y-4320623D02*
G03X9126513Y-4284809I0J35814D01*
G01X9126513Y-4136307D01*
G03X9090699Y-4100493I-35814J0D01*
G01X8917901Y-4100493D01*
G03X8882087Y-4136307I0J-35814D01*
G01X8882087Y-4284809D01*
G03X8917901Y-4320623I35814J0D01*
G01X9090699Y-4320623D01*
G01X8039118Y-4494012D02*
G01X8039118Y-5253186D01*
G01X7979898Y-5253186D01*
G03X7944084Y-5289000I0J-35814D01*
G01X7944084Y-5379000D01*
G03X7979898Y-5414814I35814J0D01*
G01X8039118Y-5414814D01*
G01X8039118Y-5457942D01*
G01X7741938Y-5457942D01*
G01X7741938Y-4494012D01*
G01X8039118Y-4494012D01*
G01X7754988Y-4773600D02*
G03X7790802Y-4809414I35814J0D01*
G01X7990802Y-4809414D01*
G03X8026616Y-4773600I0J35814D01*
G01X8026616Y-4573600D01*
G03X7990802Y-4537786I-35814J0D01*
G01X7790802Y-4537786D01*
G03X7754988Y-4573600I0J-35814D01*
G01X7754988Y-4773600D01*
G01X7780456Y-5148777D02*
G03X7816270Y-5184591I35814J0D01*
G01X7964771Y-5184591D01*
G03X8000585Y-5148777I0J35814D01*
G01X8000585Y-4975978D01*
G03X7964771Y-4940164I-35814J0D01*
G01X7816270Y-4940164D01*
G03X7780456Y-4975978I0J-35814D01*
G01X7780456Y-5148777D01*
G01X1229360Y-1551940D02*
G01X1229360Y-899160D01*
G01X1729740Y-899160D01*
G01X1729740Y-1551940D01*
G01X1229360Y-1551940D01*
G01X1329886Y-1143434D02*
G01X1329886Y-1383434D01*
G03X1581513Y-1383434I125814J0D01*
G01X1581513Y-1143434D01*
G03X1329886Y-1143434I-125814J0D01*
G54D11*
G01X5096891Y-939800D02*
G01X5372545Y-939800D01*
G01X5096891Y-939800D02*
G01X4821238Y-939800D01*
G01X5096891Y-939800D02*
G01X5096891Y-1045454D01*
G01X5096891Y-939800D02*
G01X5096891Y-834146D01*
G01X3956558Y-838200D02*
G01X4056463Y-838200D01*
G01X3956558Y-838200D02*
G01X3956558Y-726147D01*
G01X3956558Y-838200D02*
G01X3956558Y-950253D01*
G01X2032000Y-1242390D02*
G01X2032000Y-1114361D01*
G01X2032000Y-1242390D02*
G01X2032000Y-1370419D01*
G01X2032000Y-1242390D02*
G01X2177654Y-1242390D01*
G01X2032000Y-1242390D02*
G01X1886346Y-1242390D01*
G01X2540000Y-1338021D02*
G01X2540000Y-1424051D01*
G01X2540000Y-1338021D02*
G01X2540000Y-1251991D01*
G01X2540000Y-1338021D02*
G01X2429295Y-1338021D01*
G01X2540000Y-1338021D02*
G01X2650705Y-1338021D01*
G01X3086100Y-1175258D02*
G01X3086100Y-1075353D01*
G01X3086100Y-1175258D02*
G01X3086100Y-1275163D01*
G01X3086100Y-1175258D02*
G01X3198153Y-1175258D01*
G01X3086100Y-1175258D02*
G01X2974047Y-1175258D01*
G01X3385034Y-1423408D02*
G01X3272805Y-1423408D01*
G01X3385034Y-1358410D02*
G01X3385034Y-1315605D01*
G01X3385034Y-1358410D02*
G01X3272805Y-1358410D01*
G01X2032000Y-764210D02*
G01X2032000Y-636181D01*
G01X2032000Y-764210D02*
G01X2032000Y-892238D01*
G01X2032000Y-764210D02*
G01X2177654Y-764210D01*
G01X2032000Y-764210D02*
G01X1886346Y-764210D01*
G01X3086100Y-856742D02*
G01X3086100Y-756837D01*
G01X3086100Y-856742D02*
G01X3086100Y-956647D01*
G01X3086100Y-856742D02*
G01X3198153Y-856742D01*
G01X3086100Y-856742D02*
G01X2974047Y-856742D01*
G01X3638042Y-838200D02*
G01X3538137Y-838200D01*
G01X3638042Y-838200D02*
G01X3737947Y-838200D01*
G01X3638042Y-838200D02*
G01X3638042Y-726147D01*
G01X3638042Y-838200D02*
G01X3638042Y-950253D01*
G01X5823458Y-2413000D02*
G01X5923363Y-2413000D01*
G01X5823458Y-2413000D02*
G01X5823458Y-2300947D01*
G01X5896902Y-1981200D02*
G01X6022556Y-1981200D01*
G01X5896902Y-1981200D02*
G01X5771248Y-1981200D01*
G01X5896902Y-1981200D02*
G01X5896902Y-2106854D01*
G01X5896902Y-1981200D02*
G01X5896902Y-1855546D01*
G01X6256909Y-939800D02*
G01X6532563Y-939800D01*
G01X6256909Y-939800D02*
G01X5981256Y-939800D01*
G01X6256909Y-939800D02*
G01X6256909Y-1045454D01*
G01X6256909Y-939800D02*
G01X6256909Y-834146D01*
G01X6159500Y-2457298D02*
G01X6159500Y-2391644D01*
G01X6159500Y-2457298D02*
G01X6230154Y-2457298D01*
G01X6159500Y-2457298D02*
G01X6088846Y-2457298D01*
G01X5096891Y-939800D02*
G01X5372545Y-939800D01*
G01X5096891Y-939800D02*
G01X4821238Y-939800D01*
G01X5096891Y-939800D02*
G01X5096891Y-1045454D01*
G01X5096891Y-939800D02*
G01X5096891Y-834146D01*
G01X5504942Y-2413000D02*
G01X5405037Y-2413000D01*
G01X5504942Y-2413000D02*
G01X5504942Y-2525053D01*
G01X5504942Y-2413000D02*
G01X5504942Y-2300947D01*
G01X5456898Y-1981200D02*
G01X5331244Y-1981200D01*
G01X5456898Y-1981200D02*
G01X5456898Y-2106854D01*
G01X5456898Y-1981200D02*
G01X5456898Y-1855546D01*
G01X5563400Y-2682695D02*
G01X5519546Y-2682695D01*
G01X5563400Y-2682695D02*
G01X5563400Y-2573941D01*
G01X4850100Y-2641587D02*
G01X4850100Y-2707241D01*
G01X4850100Y-2641587D02*
G01X4850100Y-2575933D01*
G01X4850100Y-2641587D02*
G01X4915753Y-2641587D01*
G01X3958185Y-1358410D02*
G01X3958185Y-1315605D01*
G01X3958185Y-1358410D02*
G01X4070413Y-1358410D01*
G01X3958185Y-1423408D02*
G01X4070413Y-1423408D01*
G01X3956558Y-838200D02*
G01X4056463Y-838200D01*
G01X3956558Y-838200D02*
G01X3956558Y-726147D01*
G01X3956558Y-838200D02*
G01X3956558Y-950253D01*
G01X7294566Y-611230D02*
G01X7294566Y-303501D01*
G01X7294566Y-611230D02*
G01X7294566Y-918958D01*
G01X7294566Y-611230D02*
G01X7473182Y-611230D01*
G01X7294566Y-611230D02*
G01X7115952Y-611230D01*
G01X7461098Y-1308100D02*
G01X7395444Y-1308100D01*
G01X7461098Y-1308100D02*
G01X7461098Y-1378754D01*
G01X7461098Y-1308100D02*
G01X7461098Y-1237446D01*
G01X7422642Y-1638300D02*
G01X7322737Y-1638300D01*
G01X7422642Y-1638300D02*
G01X7422642Y-1750353D01*
G01X7422642Y-1638300D02*
G01X7422642Y-1526247D01*
G01X7144944Y-1485900D02*
G01X7240932Y-1485900D01*
G01X7144944Y-1485900D02*
G01X7144944Y-1686514D01*
G01X7144944Y-1485900D02*
G01X7144944Y-1285286D01*
G01X5188102Y-3771900D02*
G01X5253756Y-3771900D01*
G01X5188102Y-3771900D02*
G01X5188102Y-3701246D01*
G01X5188102Y-3771900D02*
G01X5188102Y-3842554D01*
G01X5219700Y-3485642D02*
G01X5319605Y-3485642D01*
G01X5219700Y-3485642D02*
G01X5219700Y-3373589D01*
G01X5219700Y-3485642D02*
G01X5219700Y-3597695D01*
G01X5194300Y-3148736D02*
G01X5194300Y-3214714D01*
G01X5194300Y-3148736D02*
G01X5263154Y-3148736D01*
G01X5556098Y-3403600D02*
G01X5490444Y-3403600D01*
G01X5556098Y-3403600D02*
G01X5556098Y-3474254D01*
G01X5556098Y-3403600D02*
G01X5556098Y-3332946D01*
G01X5561451Y-3702921D02*
G01X5518647Y-3702921D01*
G01X5561451Y-3702921D02*
G01X5561451Y-3590693D01*
G01X5561451Y-3702921D02*
G01X5561451Y-3815150D01*
G01X5563400Y-3108907D02*
G01X5519546Y-3108907D01*
G01X5563400Y-3108907D02*
G01X5563400Y-3217661D01*
G01X9891670Y-1541467D02*
G01X10199399Y-1541467D01*
G01X9891670Y-1541467D02*
G01X9583942Y-1541467D01*
G01X9891670Y-1541467D02*
G01X9891670Y-1720082D01*
G01X9891670Y-1541467D02*
G01X9891670Y-1362852D01*
G01X9296400Y-1695298D02*
G01X9296400Y-1629644D01*
G01X9296400Y-1695298D02*
G01X9225746Y-1695298D01*
G01X9296400Y-1695298D02*
G01X9367054Y-1695298D01*
G01X9004300Y-1644142D02*
G01X9004300Y-1744047D01*
G01X9004300Y-1644142D02*
G01X9004300Y-1544237D01*
G01X9004300Y-1644142D02*
G01X8892247Y-1644142D01*
G01X9004300Y-1644142D02*
G01X9116353Y-1644142D01*
G01X9156700Y-1379144D02*
G01X9156700Y-1475132D01*
G01X9156700Y-1379144D02*
G01X8956086Y-1379144D01*
G01X9156700Y-1379144D02*
G01X9357314Y-1379144D01*
G01X9891670Y-3751267D02*
G01X10199399Y-3751267D01*
G01X9891670Y-3751267D02*
G01X9583942Y-3751267D01*
G01X9891670Y-3751267D02*
G01X9891670Y-3929882D01*
G01X9891670Y-3751267D02*
G01X9891670Y-3572652D01*
G01X9283700Y-3955898D02*
G01X9283700Y-3890244D01*
G01X9283700Y-3955898D02*
G01X9213046Y-3955898D01*
G01X9283700Y-3955898D02*
G01X9354354Y-3955898D01*
G01X9118600Y-3665144D02*
G01X9118600Y-3761132D01*
G01X9118600Y-3665144D02*
G01X9118600Y-3569156D01*
G01X9118600Y-3665144D02*
G01X8917986Y-3665144D01*
G01X9118600Y-3665144D02*
G01X9319214Y-3665144D01*
G01X9004300Y-3892042D02*
G01X9004300Y-3792137D01*
G01X9004300Y-3892042D02*
G01X8892247Y-3892042D01*
G01X9004300Y-3892042D02*
G01X9116353Y-3892042D01*
G01X8209036Y-5062377D02*
G01X8308941Y-5062377D01*
G01X8209036Y-5062377D02*
G01X8209036Y-4950324D01*
G01X8209036Y-5062377D02*
G01X8209036Y-5174431D01*
G01X8476056Y-5207000D02*
G01X8380068Y-5207000D01*
G01X8476056Y-5207000D02*
G01X8476056Y-5006386D01*
G01X8476056Y-5207000D02*
G01X8476056Y-5407614D01*
G01X8339134Y-5941970D02*
G01X8339134Y-6249699D01*
G01X8339134Y-5941970D02*
G01X8339134Y-5634242D01*
G01X8339134Y-5941970D02*
G01X8160518Y-5941970D01*
G01X8339134Y-5941970D02*
G01X8517748Y-5941970D01*
G01X8159902Y-5334000D02*
G01X8225556Y-5334000D01*
G01X8159902Y-5334000D02*
G01X8159902Y-5263346D01*
G01X8159902Y-5334000D02*
G01X8159902Y-5404654D01*
G01X7785100Y-2002498D02*
G01X7785100Y-2128152D01*
G01X7785100Y-2002498D02*
G01X7785100Y-1876844D01*
G01X7785100Y-2002498D02*
G01X7659446Y-2002498D01*
G01X7785100Y-2002498D02*
G01X7910754Y-2002498D01*
G01X7601102Y-1308100D02*
G01X7666756Y-1308100D01*
G01X7601102Y-1308100D02*
G01X7601102Y-1378754D01*
G01X7741158Y-1638300D02*
G01X7841063Y-1638300D01*
G01X7741158Y-1638300D02*
G01X7641253Y-1638300D01*
G01X7741158Y-1638300D02*
G01X7741158Y-1750353D01*
G01X7741158Y-1638300D02*
G01X7741158Y-1526247D01*
G01X9296400Y-1848002D02*
G01X9296400Y-1913656D01*
G01X9296400Y-1848002D02*
G01X9225746Y-1848002D01*
G01X9296400Y-1848002D02*
G01X9367054Y-1848002D01*
G01X9004300Y-1962658D02*
G01X9004300Y-2062563D01*
G01X9004300Y-1962658D02*
G01X9004300Y-1862753D01*
G01X9004300Y-1962658D02*
G01X8892247Y-1962658D01*
G01X9004300Y-1962658D02*
G01X9116353Y-1962658D01*
G01X8623300Y-1964398D02*
G01X8623300Y-2090052D01*
G01X8623300Y-1964398D02*
G01X8623300Y-1838744D01*
G01X8623300Y-1964398D02*
G01X8497646Y-1964398D01*
G01X8623300Y-1964398D02*
G01X8748954Y-1964398D01*
G01X9283700Y-4095902D02*
G01X9283700Y-4161556D01*
G01X9283700Y-4095902D02*
G01X9213046Y-4095902D01*
G01X9283700Y-4095902D02*
G01X9354354Y-4095902D01*
G01X9004300Y-4210558D02*
G01X9004300Y-4310463D01*
G01X9004300Y-4210558D02*
G01X9004300Y-4110653D01*
G01X9004300Y-4210558D02*
G01X8892247Y-4210558D01*
G01X9004300Y-4210558D02*
G01X9116353Y-4210558D01*
G01X8627402Y-4216400D02*
G01X8501748Y-4216400D01*
G01X8627402Y-4216400D02*
G01X8753056Y-4216400D01*
G01X8627402Y-4216400D02*
G01X8627402Y-4090746D01*
G01X8627402Y-4216400D02*
G01X8627402Y-4342054D01*
G01X7890520Y-5062377D02*
G01X7790616Y-5062377D01*
G01X7890520Y-5062377D02*
G01X7990425Y-5062377D01*
G01X7890520Y-5062377D02*
G01X7890520Y-4950324D01*
G01X7890520Y-5062377D02*
G01X7890520Y-5174431D01*
G01X8019898Y-5334000D02*
G01X8019898Y-5263346D01*
G01X8019898Y-5334000D02*
G01X8019898Y-5404654D01*
G01X7890802Y-4673600D02*
G01X7765148Y-4673600D01*
G01X7890802Y-4673600D02*
G01X8016456Y-4673600D01*
G01X7890802Y-4673600D02*
G01X7890802Y-4547946D01*
G01X7890802Y-4673600D02*
G01X7890802Y-4799254D01*
G01X1455699Y-1263434D02*
G01X1455699Y-1499088D01*
G01X1455699Y-1263434D02*
G01X1455699Y-1027781D01*
G01X1455699Y-1263434D02*
G01X1340046Y-1263434D01*
G01X1455699Y-1263434D02*
G01X1571353Y-1263434D01*
G04 Copper End*

G04 Pad Start*
G54D12*
G01X8662334Y-611230D03*
G01X8206412Y-611230D03*
G01X7750490Y-611230D03*
G01X7294567Y-611230D03*
G54D13*
G01X9891670Y-1997390D03*
G01X9891670Y-2453312D03*
G01X9891670Y-2909234D03*
G01X9891670Y-1541467D03*
G01X9891670Y-4207190D03*
G01X9891670Y-4663112D03*
G01X9891670Y-5119034D03*
G01X9891670Y-3751267D03*
G54D14*
G01X7883210Y-5941970D03*
G01X7427288Y-5941970D03*
G01X6971366Y-5941970D03*
G01X8339133Y-5941970D03*
G54D16*
G01X762000Y-340715D03*
G01X762000Y-6040715D03*
G01X9880600Y-6040715D03*
G01X9880600Y-340715D03*
G54D17*
G01X322072Y-5431155D03*
G01X576072Y-5431155D03*
G01X830072Y-5431155D03*
G01X1084072Y-5431155D03*
G01X1338072Y-5431155D03*
G01X1592072Y-5431155D03*
G01X1846072Y-5431155D03*
G54D18*
G01X1846072Y-3814445D03*
G01X1592072Y-3814445D03*
G01X1338072Y-3814445D03*
G01X1084072Y-3814445D03*
G01X830072Y-3814445D03*
G01X576072Y-3814445D03*
G01X322072Y-3814445D03*
G54D19*
G01X227330Y-4752467D03*
G01X227330Y-4498467D03*
G01X481330Y-4752467D03*
G01X481330Y-4498467D03*
G54D20*
G01X1052830Y-5069967D03*
G01X862330Y-5069967D03*
G54D21*
G01X2007870Y-4244467D03*
G01X2007870Y-4053967D03*
G54D22*
G01X4850100Y-2641587D03*
G01X4700300Y-2641613D03*
G54D23*
G01X5660911Y-2895801D03*
G54D24*
G01X5758421Y-2682695D03*
G01X5693423Y-2682695D03*
G01X5628424Y-2682695D03*
G01X5563400Y-2682695D03*
G01X5758421Y-3108907D03*
G01X5693423Y-3108907D03*
G01X5628424Y-3108907D03*
G01X5563400Y-3108907D03*
G54D25*
G01X5096891Y-939800D03*
G01X6256909Y-939800D03*
G54D26*
G01X4286098Y-1714500D03*
G01X4426102Y-1714500D03*
G01X5556098Y-3403600D03*
G01X5696102Y-3403600D03*
G54D27*
G01X3956558Y-838200D03*
G01X3638042Y-838200D03*
G54D28*
G01X3086100Y-1175258D03*
G01X3086100Y-856742D03*
G54D27*
G01X5504942Y-2413000D03*
G01X5823458Y-2413000D03*
G54D29*
G01X6159500Y-2597302D03*
G01X6159500Y-2457298D03*
G54D27*
G01X5219700Y-3485642D03*
G01X4901184Y-3485642D03*
G54D30*
G01X5456898Y-1981200D03*
G01X5896902Y-1981200D03*
G54D31*
G01X3048000Y-1689964D03*
G01X3048000Y-1840636D03*
G01X2667000Y-1956664D03*
G01X2667000Y-2107336D03*
G54D32*
G01X4431436Y-1485900D03*
G01X4280764Y-1485900D03*
G54D31*
G01X5194300Y-3148736D03*
G01X5194300Y-2998064D03*
G54D32*
G01X6133236Y-2844800D03*
G01X5982564Y-2844800D03*
G01X6249264Y-4711700D03*
G01X6399936Y-4711700D03*
G01X2007464Y-457200D03*
G01X2158136Y-457200D03*
G54D31*
G01X4699000Y-2424836D03*
G01X4699000Y-2274164D03*
G54D32*
G01X4431436Y-1282700D03*
G01X4280764Y-1282700D03*
G01X4280764Y-1943100D03*
G01X4431436Y-1943100D03*
G01X3529736Y-2108200D03*
G01X3379064Y-2108200D03*
G01X2972664Y-2273300D03*
G01X3123336Y-2273300D03*
G54D33*
G01X3385034Y-1358410D03*
G01X3385034Y-1423408D03*
G01X3385034Y-1488407D03*
G01X3385034Y-1553431D03*
G01X3385034Y-1618429D03*
G01X3385034Y-1683428D03*
G01X3385034Y-1748427D03*
G01X3385034Y-1813425D03*
G01X3958185Y-1358410D03*
G01X3958185Y-1423408D03*
G01X3958185Y-1488407D03*
G01X3958185Y-1553431D03*
G01X3958185Y-1618429D03*
G01X3958185Y-1683428D03*
G01X3958185Y-1748427D03*
G01X3958185Y-1813425D03*
G54D34*
G01X3671622Y-1585917D03*
G54D22*
G01X1626900Y-457213D03*
G01X1776700Y-457187D03*
G54D35*
G01X3367113Y-5315001D03*
G01X3417100Y-5315001D03*
G01X3467087Y-5315001D03*
G01X3517100Y-5315001D03*
G01X3567113Y-5315001D03*
G01X3567087Y-4844999D03*
G01X3517100Y-4844999D03*
G01X3467113Y-4844999D03*
G01X3417100Y-4844999D03*
G01X3367088Y-4844999D03*
G54D26*
G01X6605008Y-3679067D03*
G01X6745013Y-3679067D03*
G01X6605008Y-3882267D03*
G01X6745013Y-3882267D03*
G01X5188102Y-3771900D03*
G01X5048098Y-3771900D03*
G54D29*
G01X3124200Y-5022698D03*
G01X3124200Y-5162702D03*
G01X3517900Y-4553102D03*
G01X3517900Y-4413098D03*
G01X3759200Y-4705198D03*
G01X3759200Y-4845202D03*
G01X3759200Y-5416702D03*
G01X3759200Y-5276698D03*
G01X3517900Y-5543398D03*
G01X3517900Y-5683402D03*
G54D36*
G01X4235196Y-4091000D03*
G01X4045204Y-4091000D03*
G01X4140200Y-4291000D03*
G01X4045204Y-4900600D03*
G01X4235196Y-4900600D03*
G01X4140200Y-4700600D03*
G01X4235196Y-5221300D03*
G01X4045204Y-5221300D03*
G01X4140200Y-5421300D03*
G01X4045204Y-5992800D03*
G01X4235196Y-5992800D03*
G01X4140200Y-5792800D03*
G54D32*
G01X6399936Y-4533900D03*
G01X6249264Y-4533900D03*
G01X3353664Y-3695700D03*
G01X3504336Y-3695700D03*
G01X3366364Y-3429000D03*
G01X3517036Y-3429000D03*
G01X3353664Y-3962400D03*
G01X3504336Y-3962400D03*
G01X6599674Y-4288671D03*
G01X6750347Y-4288671D03*
G01X6599674Y-4085471D03*
G01X6750347Y-4085471D03*
G54D31*
G01X2476500Y-5017364D03*
G01X2476500Y-5168036D03*
G01X2781300Y-5002936D03*
G01X2781300Y-4852264D03*
G01X4597400Y-4291736D03*
G01X4597400Y-4141064D03*
G01X4597400Y-4699864D03*
G01X4597400Y-4850536D03*
G01X4597400Y-5422036D03*
G01X4597400Y-5271364D03*
G01X4597400Y-5804764D03*
G01X4597400Y-5955436D03*
G54D32*
G01X4953864Y-4292600D03*
G01X5104536Y-4292600D03*
G01X4953864Y-4711700D03*
G01X5104536Y-4711700D03*
G01X4953864Y-5422900D03*
G01X5104536Y-5422900D03*
G01X4953864Y-5803900D03*
G01X5104536Y-5803900D03*
G01X2043836Y-2273300D03*
G01X1893164Y-2273300D03*
G54D37*
G01X2540000Y-1338021D03*
G01X2540000Y-1633779D03*
G54D26*
G01X6038698Y-3416300D03*
G01X6178702Y-3416300D03*
G54D27*
G01X7422642Y-1638300D03*
G01X7741158Y-1638300D03*
G54D26*
G01X7461098Y-1308100D03*
G01X7601102Y-1308100D03*
G54D28*
G01X9004300Y-1644142D03*
G01X9004300Y-1962658D03*
G54D29*
G01X9296400Y-1707998D03*
G01X9296400Y-1848002D03*
G54D28*
G01X9004300Y-3892042D03*
G01X9004300Y-4210558D03*
G54D29*
G01X9283700Y-3955898D03*
G01X9283700Y-4095902D03*
G54D27*
G01X8209036Y-5062377D03*
G01X7890520Y-5062377D03*
G54D26*
G01X8159902Y-5334000D03*
G01X8019898Y-5334000D03*
G54D30*
G01X7785100Y-2442502D03*
G01X7785100Y-2002498D03*
G01X8623300Y-2404402D03*
G01X8623300Y-1964398D03*
G01X8187398Y-4216400D03*
G01X8627402Y-4216400D03*
G01X7450798Y-4673600D03*
G01X7890802Y-4673600D03*
G54D38*
G01X6774256Y-1485900D03*
G01X7144944Y-1485900D03*
G54D39*
G01X9156700Y-1008456D03*
G01X9156700Y-1379144D03*
G01X9118600Y-3294456D03*
G01X9118600Y-3665144D03*
G54D38*
G01X8846744Y-5207000D03*
G01X8476056Y-5207000D03*
G54D31*
G01X4991100Y-2998064D03*
G01X4991100Y-3148736D03*
G01X8064500Y-2056536D03*
G01X8064500Y-1905864D03*
G54D32*
G01X8967064Y-2400300D03*
G01X9117736Y-2400300D03*
G01X8535264Y-4572000D03*
G01X8685936Y-4572000D03*
G54D31*
G01X7454900Y-4966564D03*
G01X7454900Y-5117236D03*
G54D40*
G01X2032000Y-1242390D03*
G01X2032000Y-764210D03*
G54D41*
G01X5561451Y-4276072D03*
G01X5626449Y-4276072D03*
G01X5691448Y-4276072D03*
G01X5756446Y-4276072D03*
G01X5821445Y-4276072D03*
G01X5886469Y-4276072D03*
G01X5951468Y-4276072D03*
G01X6016466Y-4276072D03*
G01X6081465Y-4276072D03*
G01X6146463Y-4276072D03*
G01X6211462Y-4276072D03*
G01X6276461Y-4276072D03*
G01X5561451Y-3702921D03*
G01X5626449Y-3702921D03*
G01X5691448Y-3702921D03*
G01X5756446Y-3702921D03*
G01X5821445Y-3702921D03*
G01X5886469Y-3702921D03*
G01X5951468Y-3702921D03*
G01X6016466Y-3702921D03*
G01X6081465Y-3702921D03*
G01X6146463Y-3702921D03*
G01X6211462Y-3702921D03*
G01X6276461Y-3702921D03*
G54D42*
G01X5918956Y-3989484D03*
G54D43*
G01X873100Y-2247900D03*
G01X473100Y-2247900D03*
G01X673760Y-2247900D03*
G54D44*
G01X263093Y-2247900D03*
G01X1083107Y-2247900D03*
G54D45*
G01X8171652Y-1344902D03*
G01X9009852Y-2753002D03*
G01X9174952Y-4834202D03*
G01X7054052Y-5112001D03*
G01X8648700Y-1333500D03*
G01X8572500Y-2755900D03*
G01X9187652Y-5461000D03*
G01X6496053Y-5619201D03*
G01X3359153Y-2881602D03*
G01X7803352Y-3618202D03*
G54D46*
G01X1455699Y-1263434D03*
G54D47*
G01X855701Y-1263434D03*
G54D48*
G01X1155675Y-1733766D03*
G04 Pad End*

G04 Via Start*
G54D49*
G01X8206411Y-608477D03*
G01X8206411Y-428477D03*
G01X8204200Y-788477D03*
G01X3962400Y-1905000D03*
G01X4699000Y-2133600D03*
G01X9714423Y-2451100D03*
G01X10074423Y-2453311D03*
G01X9894423Y-2453311D03*
G01X9714423Y-4660900D03*
G01X10074423Y-4663111D03*
G01X9894423Y-4663111D03*
G01X7429500Y-5764723D03*
G01X7427289Y-6124723D03*
G01X7427289Y-5944723D03*
G01X6167500Y-1345095D03*
G01X5954100Y-1345095D03*
G01X6380900Y-1347305D03*
G01X6167500Y-1702905D03*
G01X6380900Y-1702905D03*
G01X5954100Y-1700695D03*
G01X6167500Y-699605D03*
G01X6380900Y-699605D03*
G01X5954100Y-697395D03*
G01X5918956Y-3989484D03*
G01X6098956Y-3989484D03*
G01X5738956Y-3989484D03*
G01X7835900Y-5334000D03*
G01X3759200Y-5123104D03*
G01X4408858Y-4091000D03*
G01X4597400Y-5039248D03*
G01X3683115Y-5848617D03*
G01X4419600Y-5956300D03*
G01X2982844Y-5024354D03*
G01X2641600Y-5092700D03*
G01X3657600Y-4414054D03*
G01X3124196Y-5427353D03*
G01X3086100Y-2108200D03*
G01X2857500Y-2108200D03*
G01X6858000Y-3987800D03*
G01X6016466Y-4419600D03*
G01X6083300Y-4488200D03*
G01X6081465Y-3556000D03*
G01X5880100Y-3543300D03*
G01X5854700Y-3172407D03*
G01X6133236Y-3035300D03*
G01X6299200Y-3517900D03*
G01X4813300Y-3035300D03*
G01X9271000Y-2006600D03*
G01X9271000Y-4267200D03*
G01X3893937Y-4940300D03*
G01X6032500Y-4559300D03*
G01X6565900Y-4965700D03*
G01X6972300Y-4495800D03*
G01X8191500Y-2489200D03*
G01X8369300Y-2298700D03*
G01X6642100Y-5016500D03*
G01X7088479Y-4493921D03*
G01X7048500Y-4711700D03*
G01X8229600Y-4546600D03*
G01X7785100Y-1803400D03*
G01X7772400Y-1346200D03*
G01X8826500Y-1955800D03*
G01X5461000Y-4495800D03*
G01X5499100Y-4419600D03*
G01X4584700Y-3429000D03*
G01X5048098Y-3632556D03*
G01X2514600Y-4775200D03*
G01X6019800Y-5422900D03*
G01X6248400Y-5359400D03*
G01X6362700Y-4305300D03*
G01X1473200Y-2273300D03*
G01X1828800Y-5727700D03*
G01X571500Y-3530600D03*
G01X1414800Y-4076700D03*
G01X723900Y-3517900D03*
G01X6629400Y-4660900D03*
G01X8828613Y-4210550D03*
G01X7890528Y-4880872D03*
G01X4838700Y-3149600D03*
G01X5448300Y-4165600D03*
G01X6184900Y-3263900D03*
G01X3314700Y-2273300D03*
G01X2400300Y-692150D03*
G01X2588300Y-692150D03*
G01X2776300Y-692150D03*
G01X6167100Y-1981200D03*
G01X6380500Y-1981200D03*
G01X6167100Y-2247900D03*
G01X6380500Y-2247900D03*
G01X2402800Y-844550D03*
G01X2590800Y-844550D03*
G01X2778800Y-844550D03*
G01X3368000Y-850900D03*
G01X3365500Y-698500D03*
G54D50*
G01X5711711Y-2933901D03*
G01X5610111Y-2933901D03*
G01X5711711Y-2857701D03*
G01X5610111Y-2857701D03*
G04 Via End*

G04 Track Start*
G54D11*
G01X3958185Y-1813425D02*
G01X3962400Y-1817641D01*
G01X3962400Y-1905000D01*
G01X3385034Y-1488407D02*
G01X3162300Y-1488407D01*
G01X3048000Y-1602707D01*
G01X3048000Y-1689964D01*
G01X3034436Y-1676400D01*
G01X2582621Y-1676400D01*
G01X2540000Y-1633779D01*
G01X3385034Y-1618429D02*
G01X3238500Y-1618429D01*
G01X3175000Y-1681929D01*
G01X3175000Y-1790700D01*
G01X3125064Y-1840636D01*
G01X3048000Y-1840636D01*
G01X2718664Y-1840636D01*
G01X2667000Y-1892300D01*
G01X2667000Y-1956664D01*
G01X4280764Y-1485900D02*
G01X4280764Y-1282700D01*
G01X3958185Y-1488407D02*
G01X4278257Y-1488407D01*
G01X4280764Y-1485900D01*
G01X3958185Y-1618429D02*
G01X4069529Y-1618429D01*
G01X4165600Y-1714500D01*
G01X4286098Y-1714500D01*
G01X4071028Y-1683428D02*
G01X3958185Y-1683428D01*
G01X4127500Y-1739900D02*
G01X4071028Y-1683428D01*
G01X4280764Y-1943100D02*
G01X4178300Y-1943100D01*
G01X4127500Y-1892300D01*
G01X4127500Y-1739900D01*
G01X4426102Y-1714500D02*
G01X4426102Y-1937766D01*
G01X4431436Y-1943100D01*
G01X5951468Y-3702921D02*
G01X5886469Y-3702921D01*
G01X5821445Y-3702921D01*
G01X3517100Y-4844999D02*
G01X3517100Y-4553902D01*
G01X3517900Y-4553102D01*
G01X3410102Y-5162702D02*
G01X3467100Y-5219700D01*
G01X3467100Y-5314988D01*
G01X3367113Y-5315001D02*
G01X3367113Y-5209589D01*
G01X3320226Y-5162702D01*
G01X3124200Y-5162702D02*
G01X3320226Y-5162702D01*
G01X3410102Y-5162702D01*
G01X3517100Y-5315001D02*
G01X3517100Y-5542597D01*
G01X3517900Y-5543398D01*
G01X3417100Y-4844999D02*
G01X3417100Y-4661700D01*
G01X3365500Y-4610100D01*
G01X3023464Y-4610100D01*
G01X2781300Y-4852264D01*
G01X4547337Y-4091000D02*
G01X4597400Y-4141064D01*
G01X4235196Y-4091000D02*
G01X4408858Y-4091000D01*
G01X4547337Y-4091000D01*
G01X3517900Y-4553102D02*
G01X3727298Y-4553102D01*
G01X3987800Y-4292600D01*
G01X4953864Y-4292600D02*
G01X3987800Y-4292600D01*
G01X3567087Y-4844999D02*
G01X3567087Y-4737100D01*
G01X3592487Y-4711700D01*
G01X4953864Y-4711700D02*
G01X3592487Y-4711700D01*
G01X3567113Y-5315001D02*
G01X3567113Y-5383212D01*
G01X3606800Y-5422900D01*
G01X4953864Y-5422900D01*
G01X3517900Y-5543398D02*
G01X3778402Y-5803900D01*
G01X4953864Y-5803900D02*
G01X3778402Y-5803900D01*
G01X4235196Y-5221300D02*
G01X4459300Y-5221300D01*
G01X4508500Y-5270500D01*
G01X4596536Y-5270500D01*
G01X4597400Y-5271364D01*
G01X4597400Y-5039248D01*
G01X4597400Y-4850536D01*
G01X4045204Y-5221300D02*
G01X4045204Y-5174996D01*
G01X4235196Y-4985004D02*
G01X4235196Y-4900600D01*
G01X4045204Y-5992800D02*
G01X3827297Y-5992800D01*
G01X3683115Y-5848617D01*
G01X3517900Y-5683402D01*
G01X4597400Y-5955436D02*
G01X4420464Y-5955436D01*
G01X4419600Y-5956300D01*
G01X2273300Y-4852264D02*
G01X2781300Y-4852264D01*
G01X2766873Y-5017364D02*
G01X2781300Y-5002936D01*
G01X3086100Y-4699000D02*
G01X3314700Y-4699000D01*
G01X3367088Y-4751387D01*
G01X3367088Y-4844999D01*
G01X2641600Y-5092700D02*
G01X2641600Y-5018342D01*
G01X2640622Y-5017364D01*
G01X2476500Y-5017364D02*
G01X2640622Y-5017364D01*
G01X2766873Y-5017364D01*
G01X2908300Y-4876800D02*
G01X3086100Y-4699000D01*
G01X2476500Y-5168036D02*
G01X2782164Y-5168036D01*
G01X2908300Y-5041900D01*
G01X2908300Y-4876800D01*
G01X3124200Y-5022698D02*
G01X2984500Y-5022698D01*
G01X2982844Y-5024354D01*
G01X3467113Y-4844999D02*
G01X3467113Y-4635513D01*
G01X3390900Y-4559300D01*
G01X3644900Y-4089400D02*
G01X4043604Y-4089400D01*
G01X4045204Y-4091000D01*
G01X3517900Y-4413098D02*
G01X3518856Y-4414054D01*
G01X3657600Y-4414054D01*
G01X3390900Y-4559300D02*
G01X3390900Y-4343400D01*
G01X3644900Y-4089400D01*
G01X3124196Y-5427353D02*
G01X3124196Y-5162706D01*
G54D51*
G01X5096891Y-440309D02*
G01X5096891Y-939800D01*
G01X5384800Y-152400D02*
G01X5096891Y-440309D01*
G54D11*
G01X3385034Y-1683428D02*
G01X3474128Y-1683428D01*
G01X2043836Y-2273300D02*
G01X2972664Y-2273300D01*
G01X3385034Y-1748427D02*
G01X3263900Y-1748427D01*
G01X3238500Y-1773827D01*
G01X3238500Y-1841500D01*
G01X2972664Y-2107336D01*
G01X2972664Y-2273300D01*
G01X3474128Y-1683428D02*
G01X3530600Y-1739900D01*
G01X3530600Y-2096364D01*
G01X3379064Y-2108200D02*
G01X3379064Y-2197964D01*
G01X3416300Y-2235200D01*
G01X3606800Y-2235200D01*
G01X3671622Y-2170378D01*
G01X3671622Y-1585917D01*
G01X4431436Y-1943100D02*
G01X4204158Y-2170378D01*
G01X3671622Y-2170378D01*
G01X3385034Y-1813425D02*
G01X3379064Y-1819395D01*
G01X3379064Y-2108200D01*
G01X2857500Y-2108200D02*
G01X2667864Y-2108200D01*
G01X2667000Y-2107336D01*
G01X3379064Y-2108200D02*
G01X3086100Y-2108200D01*
G54D51*
G01X5384800Y-152400D02*
G01X6767809Y-152400D01*
G01X6774256Y-158847D01*
G01X6774256Y-1447800D02*
G01X6774256Y-158847D01*
G54D11*
G01X6605008Y-3679067D02*
G01X6605008Y-3882267D01*
G01X6211462Y-3702921D02*
G01X6211462Y-3817433D01*
G01X6281311Y-3887282D01*
G01X6599993Y-3887282D01*
G01X6605008Y-3882267D01*
G01X6211462Y-4173031D02*
G01X6211462Y-4276072D01*
G01X6299022Y-4085471D02*
G01X6211462Y-4173031D01*
G01X6598811Y-4289534D02*
G01X6599674Y-4288671D01*
G01X5821445Y-3702921D02*
G01X5756446Y-3702921D01*
G01X6745013Y-4283337D02*
G01X6750347Y-4288671D01*
G01X6745013Y-3679067D02*
G01X6745013Y-3882267D01*
G01X6858000Y-3987800D02*
G01X6746691Y-3987800D01*
G01X6745013Y-3986122D01*
G01X6745013Y-3882267D02*
G01X6745013Y-3986122D01*
G01X6745013Y-4283337D01*
G01X6146463Y-4276072D02*
G01X6146463Y-4381500D01*
G01X6171863Y-4406900D01*
G01X6573411Y-4406900D01*
G01X6598811Y-4381500D01*
G01X6598811Y-4289534D01*
G01X6016466Y-4276072D02*
G01X6016466Y-4419600D01*
G01X6081465Y-3702921D02*
G01X6081465Y-3556000D01*
G01X6016466Y-3702921D02*
G01X6016466Y-3438531D01*
G01X6038698Y-3416300D01*
G01X6146463Y-3702921D02*
G01X6146463Y-3581737D01*
G01X6178702Y-3549498D01*
G01X6178702Y-3416300D01*
G01X5691448Y-3702921D02*
G01X5691448Y-3604952D01*
G01X5951468Y-4276072D02*
G01X5951468Y-4478268D01*
G01X5821445Y-4276072D02*
G01X5821445Y-4602245D01*
G01X5930900Y-4711700D01*
G01X6249264Y-4711700D01*
G01X5756446Y-4276072D02*
G01X5756446Y-4638846D01*
G01X5628424Y-3108907D02*
G01X5628424Y-3335922D01*
G01X5696102Y-3403600D01*
G01X4699000Y-2274164D02*
G01X4699000Y-2133600D01*
G01X4699000Y-2424836D02*
G01X4699000Y-2640312D01*
G01X4700300Y-2641613D01*
G01X4431436Y-1282700D02*
G01X4584700Y-1282700D01*
G01X4699000Y-1397000D01*
G01X4699000Y-1993900D01*
G01X4584700Y-2108200D01*
G01X4584700Y-2806700D01*
G01X4813300Y-3035300D01*
G01X6299200Y-3517900D02*
G01X6211462Y-3605638D01*
G01X6211462Y-3702921D01*
G01X830072Y-3814445D02*
G01X830072Y-2941828D01*
G01X1320800Y-2451100D01*
G01X4241800Y-2451100D01*
G01X4584700Y-2108200D01*
G54D51*
G01X9159129Y-1006027D02*
G01X9156700Y-1008456D01*
G01X9120315Y-3292742D02*
G01X9118600Y-3294456D01*
G54D11*
G01X1338072Y-5431155D02*
G01X1338072Y-4999228D01*
G01X1485900Y-4851400D01*
G01X2272436Y-4851400D01*
G01X2273300Y-4852264D01*
G01X1592072Y-5431155D02*
G01X1592072Y-5265928D01*
G01X1689100Y-5168900D01*
G01X2475636Y-5168900D01*
G01X2476500Y-5168036D01*
G01X4197502Y-5022698D02*
G01X4235196Y-4985004D01*
G01X4045204Y-5174996D02*
G01X4197502Y-5022698D01*
G01X3759200Y-5123104D02*
G01X3759200Y-5276698D01*
G01X3759200Y-4940300D02*
G01X3759200Y-4845202D01*
G01X3893937Y-4940300D02*
G01X3759200Y-4940300D01*
G01X4045204Y-4900600D02*
G01X3933637Y-4900600D01*
G01X3893937Y-4940300D01*
G01X5930900Y-4813300D02*
G01X5756446Y-4638846D01*
G01X6565900Y-4813300D02*
G01X5930900Y-4813300D01*
G01X5104536Y-4711700D02*
G01X5372100Y-4711700D01*
G01X5104536Y-4292600D02*
G01X5777636Y-4965700D01*
G01X6565900Y-4965700D01*
G01X5626449Y-3702921D02*
G01X5626449Y-3606451D01*
G01X9271000Y-2400300D02*
G01X9673911Y-1997389D01*
G01X9891670Y-1997389D01*
G01X6024258Y-4551058D02*
G01X6232106Y-4551058D01*
G01X6249264Y-4533900D01*
G01X6081465Y-4276072D02*
G01X6083300Y-4277907D01*
G01X6083300Y-4488200D01*
G01X3366364Y-3429000D02*
G01X1511300Y-3429000D01*
G01X1333500Y-3606800D01*
G01X1333500Y-3809873D01*
G01X1338072Y-3814445D01*
G01X1592072Y-3814445D02*
G01X1592072Y-3627628D01*
G01X1689100Y-3530600D01*
G01X2806700Y-3530600D01*
G01X2971800Y-3695700D01*
G01X3353664Y-3695700D01*
G01X1084072Y-3814445D02*
G01X1084072Y-4030472D01*
G01X1473200Y-4419600D01*
G01X2311400Y-4419600D01*
G01X2768600Y-3962400D01*
G01X3353664Y-3962400D01*
G01X3504336Y-3695700D02*
G01X4775200Y-3695700D01*
G01X5499100Y-4419600D01*
G01X4901184Y-3485642D02*
G01X5048098Y-3632556D01*
G01X5048098Y-3771900D01*
G01X3504336Y-3962400D02*
G01X4927600Y-3962400D01*
G01X5461000Y-4495800D01*
G01X4235196Y-5992800D02*
G01X4106596Y-6121400D01*
G01X3187700Y-6121400D01*
G01X2982844Y-5916544D01*
G01X2982844Y-5024354D01*
G01X6599674Y-4085471D02*
G01X6349964Y-4085471D01*
G01X6299022Y-4085471D01*
G01X5104536Y-5422900D02*
G01X5346700Y-5422900D01*
G01X6362700Y-4305300D02*
G01X6362700Y-4098207D01*
G01X6350000Y-4085507D01*
G01X5041900Y-6197600D02*
G01X5880100Y-5359400D01*
G01X6248400Y-5359400D01*
G01X5156200Y-6286500D02*
G01X6019800Y-5422900D01*
G01X830072Y-3814445D02*
G01X830072Y-4449572D01*
G01X1155700Y-4775200D01*
G01X2514600Y-4775200D01*
G01X1893164Y-2273300D02*
G01X1473200Y-2273300D01*
G01X576072Y-3814445D02*
G01X576072Y-3535172D01*
G01X571500Y-3530600D01*
G01X4431436Y-1485900D02*
G01X4572000Y-1485900D01*
G01X4622800Y-1536700D01*
G01X4622800Y-1930400D01*
G01X4152900Y-2400300D02*
G01X4622800Y-1930400D01*
G01X1846072Y-3814445D02*
G01X1846072Y-4059428D01*
G01X1257300Y-2400300D02*
G01X4152900Y-2400300D01*
G01X723900Y-3517900D02*
G01X723900Y-2933700D01*
G01X1257300Y-2400300D01*
G01X1846072Y-4059428D02*
G01X1828800Y-4076700D01*
G01X1414800Y-4076700D01*
G01X1776700Y-457187D02*
G01X2007451Y-457187D01*
G01X2158136Y-457200D02*
G01X2158136Y-638073D01*
G01X2032000Y-764210D01*
G01X3467113Y-4844999D02*
G01X3467113Y-4974004D01*
G01X3418419Y-5022698D01*
G01X3124200Y-5022698D02*
G01X3418419Y-5022698D01*
G01X4197502Y-5022698D01*
G01X6605008Y-3679067D02*
G01X6605008Y-3618492D01*
G01X6921500Y-4356100D02*
G01X6743700Y-4533900D01*
G01X6399936Y-4533900D01*
G01X6921500Y-3644900D02*
G01X6921500Y-4356100D01*
G01X6605008Y-3618492D02*
G01X6667500Y-3556000D01*
G01X6832600Y-3556000D01*
G01X6921500Y-3644900D01*
G01X6399936Y-4711700D02*
G01X6578600Y-4711700D01*
G01X6629400Y-4660900D01*
G01X7883211Y-5941970D02*
G01X7883211Y-5648011D01*
G01X7747000Y-5511800D02*
G01X7543800Y-5511800D01*
G01X7454900Y-5422900D01*
G01X7883211Y-5648011D02*
G01X7747000Y-5511800D01*
G01X7454900Y-4677702D02*
G01X7450798Y-4673600D01*
G01X6565900Y-4889500D02*
G01X5867400Y-4889500D01*
G01X5691448Y-4713548D01*
G01X5691448Y-4276072D01*
G01X7450798Y-4673600D02*
G01X7412698Y-4635500D01*
G01X6819900Y-4635500D01*
G01X6565900Y-4889500D01*
G01X6807200Y-4572000D02*
G01X6565900Y-4813300D01*
G01X8521700Y-4838700D02*
G01X8229600Y-4546600D01*
G54D52*
G01X5194300Y-2998064D02*
G01X4991100Y-2998064D01*
G01X5197983Y-2994381D02*
G01X5194300Y-2998064D01*
G01X5628424Y-3108907D02*
G01X5628424Y-3051019D01*
G01X5571785Y-2994381D01*
G01X5197983Y-2994381D01*
G54D11*
G01X4991100Y-3148736D02*
G01X4990236Y-3149600D01*
G01X4838700Y-3149600D01*
G01X5561451Y-4276072D02*
G01X5561451Y-4215251D01*
G01X5511800Y-4165600D01*
G01X5448300Y-4165600D01*
G01X5626449Y-3606451D02*
G01X6121400Y-3111500D01*
G01X6184900Y-3263900D02*
G01X6184900Y-3410102D01*
G01X6178702Y-3416300D01*
G01X3123336Y-2273300D02*
G01X3314700Y-2273300D01*
G01X6133236Y-2870200D02*
G01X6133236Y-3035300D01*
G01X5873902Y-2597302D02*
G01X6159500Y-2597302D01*
G01X5829300Y-2552700D02*
G01X5873902Y-2597302D01*
G01X5693423Y-2682695D02*
G01X5693423Y-2599677D01*
G01X5740400Y-2552700D01*
G01X5829300Y-2552700D01*
G01X5758421Y-2682695D02*
G01X5908495Y-2682695D01*
G01X5981700Y-2755900D01*
G01X5981700Y-2843936D01*
G01X5982564Y-2844800D01*
G01X6024258Y-4551058D02*
G01X6032500Y-4559300D01*
G01X5951468Y-4478268D02*
G01X6024258Y-4551058D01*
G01X1828800Y-5727700D02*
G01X1828800Y-5448427D01*
G01X1846072Y-5431155D01*
G01X1084072Y-5431155D02*
G01X1084072Y-5770372D01*
G01X1511300Y-6197600D01*
G01X5041900Y-6197600D01*
G01X830072Y-5431155D02*
G01X830072Y-5706872D01*
G01X1409700Y-6286500D01*
G01X5156200Y-6286500D01*
G54D51*
G01X6767809Y-152400D02*
G01X9017000Y-152400D01*
G01X9870627Y-1006027D01*
G01X9159129Y-1006027D01*
G54D11*
G01X7454900Y-4966564D02*
G01X7454900Y-4677702D01*
G01X5372100Y-4711700D02*
G01X5715000Y-5054600D01*
G01X6604000Y-5054600D01*
G01X6642100Y-5016500D01*
G01X5346700Y-5422900D02*
G01X5651500Y-5118100D01*
G01X5104536Y-5803900D02*
G01X5714136Y-5194300D01*
G01X6642100Y-5118100D02*
G01X5651500Y-5118100D01*
G01X6642100Y-5118100D02*
G01X7048500Y-4711700D01*
G01X7112000Y-4572000D02*
G01X6807200Y-4572000D01*
G01X9347200Y-2933700D02*
G01X9867203Y-2933700D01*
G01X9891670Y-2909233D01*
G01X7937500Y-2438400D02*
G01X8064500Y-2311400D01*
G01X8064500Y-2056536D01*
G01X9207500Y-3073400D02*
G01X9347200Y-2933700D01*
G54D51*
G01X8846744Y-5207000D02*
G01X8846744Y-5570144D01*
G54D11*
G01X8788400Y-4838700D02*
G01X8521700Y-4838700D01*
G01X9187652Y-5461000D02*
G01X9187652Y-5237952D01*
G01X7454900Y-5422900D02*
G01X7454900Y-5117236D01*
G01X6731000Y-5194300D02*
G01X6971367Y-5434667D01*
G01X6971367Y-5941970D01*
G01X6496053Y-5619201D02*
G01X6496053Y-5283559D01*
G01X6406794Y-5194300D01*
G01X5714136Y-5194300D02*
G01X6406794Y-5194300D01*
G01X6731000Y-5194300D01*
G01X8187398Y-4216400D02*
G01X7467600Y-4216400D01*
G01X7112000Y-4572000D01*
G01X9699311Y-4207189D02*
G01X9891670Y-4207189D01*
G01X9334500Y-4572000D02*
G01X9699311Y-4207189D01*
G01X8187398Y-4216400D02*
G01X8187398Y-4339298D01*
G01X8420100Y-4572000D01*
G01X8535264Y-4572000D01*
G01X9891670Y-5119033D02*
G01X9068733Y-5119033D01*
G01X9187652Y-5237952D01*
G01X9068733Y-5119033D02*
G01X8788400Y-4838700D01*
G01X9174952Y-4834202D02*
G01X8912751Y-4572000D01*
G01X9334500Y-4572000D01*
G01X8912751Y-4572000D02*
G01X8685936Y-4572000D01*
G01X7054052Y-5112001D02*
G01X7449665Y-5112001D01*
G01X7454900Y-5117236D01*
G01X9271000Y-2400300D02*
G01X9117736Y-2400300D01*
G01X9009852Y-2753002D02*
G01X9117736Y-2645118D01*
G01X9117736Y-2400300D01*
G01X9207500Y-3073400D02*
G01X8102600Y-3073400D01*
G01X8572500Y-2755900D02*
G01X8420100Y-2755900D01*
G01X8102600Y-3073400D01*
G01X7750489Y-611230D02*
G01X7750489Y-867089D01*
G01X8064500Y-1181100D01*
G01X8064500Y-1905864D02*
G01X8064500Y-1452054D01*
G01X8171652Y-1344902D01*
G01X8064500Y-1181100D02*
G01X8064500Y-1452054D01*
G01X8662333Y-900767D02*
G01X8662333Y-611230D01*
G01X8369300Y-1193800D02*
G01X8662333Y-900767D01*
G01X8648700Y-1333500D02*
G01X8369300Y-1612900D01*
G01X8369300Y-1193800D01*
G01X8369300Y-1612900D02*
G01X8369300Y-2298700D01*
G01X5691448Y-3604952D02*
G01X6096000Y-3200400D01*
G01X7848600Y-2654300D02*
G01X8102600Y-2400300D01*
G01X8967064Y-2400300D01*
G01X6121400Y-3111500D02*
G01X6477000Y-3111500D01*
G01X7150100Y-2438400D01*
G01X7937500Y-2438400D01*
G01X7861300Y-2819400D02*
G01X8191500Y-2489200D01*
G54D51*
G01X9017000Y-5740400D02*
G01X9982200Y-5740400D01*
G01X8846744Y-5570144D02*
G01X9017000Y-5740400D01*
G54D11*
G01X8102600Y-3073400D02*
G01X7581900Y-3073400D01*
G01X7088479Y-3566821D01*
G01X7088479Y-4493921D01*
G01X6972300Y-4495800D02*
G01X6972300Y-3340100D01*
G01X7493000Y-2819400D01*
G01X7861300Y-2819400D01*
G01X6096000Y-3200400D02*
G01X6743700Y-3200400D01*
G01X7289800Y-2654300D01*
G01X7848600Y-2654300D01*
G01X2043836Y-2273300D02*
G01X2043836Y-2208936D01*
G01X1866900Y-2032000D02*
G01X2043836Y-2208936D01*
G01X2032000Y-1242390D02*
G01X1712290Y-1242390D01*
G01X1626900Y-1157000D01*
G01X1626900Y-457213D01*
G01X673760Y-2247900D02*
G01X889660Y-2032000D01*
G01X1866900Y-2032000D01*
G54D51*
G01X10337800Y-1006027D02*
G01X9870627Y-1006027D01*
G01X9982200Y-5740400D02*
G01X10325100Y-5397500D01*
G01X10325100Y-3276600D02*
G01X10337800Y-1006027D01*
G01X10325100Y-3292742D02*
G01X9120315Y-3292742D01*
G01X10325100Y-5397500D02*
G01X10325100Y-3292742D01*
G01X10325100Y-3276600D01*
G01X10325100Y-3263900D01*
G54D11*
G01X5886469Y-3702921D02*
G01X5886469Y-3549669D01*
G01X5880100Y-3543300D01*
G01X5758421Y-3108907D02*
G01X5821921Y-3172407D01*
G01X5854700Y-3172407D01*
G01X3517036Y-3429000D02*
G01X4584700Y-3429000D01*
G04 Track End*

M02*

