G04 Layer: BottomLayer*
G04 EasyEDA Pro v3.2.149.88089769, 2026-09-11 15:25:01*
G04 Gerber Generator version 0.3*
G04 Scale: 100 percent, Rotated: No, Reflected: No*
G04 Dimensions in millimeters*
G04 Leading zeros omitted, absolute positions, 4 integers and 5 decimals*
G04 Generated by one-click*
G04 Object Configs: Pad,Via,Track,Text,Image,Dimension,BoardOutline,BoardCutout,CopperFilled,SolidRegion,FPCStiffener,Line,PlaneZone,ComponentProperty,ComponentSilkscreen,TearDrop*
G04 Layer Configs: 1,2,3,4,5,6,7,8,9,10,11,13,14,56*
G04 Copper Areas: 35*
%FSLAX45Y45*%
%MOMM*%
%ADD10C,0.2032*%
%ADD11C,0.254*%
%ADD12C,3.5*%
%ADD13O,1.59995X1.29997*%
%ADD14O,2.0X2.99999*%
%ADD15C,2.59999*%
%ADD16O,1.8X4.19999*%
%ADD17O,1.8X3.99999*%
%ADD18O,4.0052X1.8*%
%ADD19O,3.99999X1.8*%
%ADD20C,0.61*%
%ADD21C,0.6096*%
G75*


G04 Copper Start*
G36*
G01X99060Y-60960D02*
G01X10464186Y-60960D01*
G01X10464186Y-6352540D01*
G01X99060Y-6352540D01*
G01X99060Y-6040715D01*
G01X551186Y-6040715D01*
G01X553150Y-6069421D01*
G01X559004Y-6097592D01*
G01X568639Y-6124704D01*
G01X581876Y-6150251D01*
G01X598469Y-6173757D01*
G01X618108Y-6194786D01*
G01X640428Y-6212944D01*
G01X665012Y-6227894D01*
G01X691403Y-6239357D01*
G01X719109Y-6247120D01*
G01X747614Y-6251038D01*
G01X776386Y-6251038D01*
G01X804891Y-6247120D01*
G01X832597Y-6239357D01*
G01X858988Y-6227894D01*
G01X883572Y-6212944D01*
G01X905892Y-6194786D01*
G01X925531Y-6173757D01*
G01X942124Y-6150251D01*
G01X955361Y-6124704D01*
G01X964996Y-6097592D01*
G01X970850Y-6069421D01*
G01X972814Y-6040715D01*
G01X9669786Y-6040715D01*
G01X9671750Y-6069421D01*
G01X9677604Y-6097592D01*
G01X9687239Y-6124704D01*
G01X9700476Y-6150251D01*
G01X9717069Y-6173757D01*
G01X9736708Y-6194786D01*
G01X9759028Y-6212944D01*
G01X9783612Y-6227894D01*
G01X9810003Y-6239357D01*
G01X9837709Y-6247120D01*
G01X9866214Y-6251038D01*
G01X9894986Y-6251038D01*
G01X9923491Y-6247120D01*
G01X9951197Y-6239357D01*
G01X9977588Y-6227894D01*
G01X10002172Y-6212944D01*
G01X10024492Y-6194786D01*
G01X10044131Y-6173757D01*
G01X10060724Y-6150251D01*
G01X10073961Y-6124704D01*
G01X10083596Y-6097592D01*
G01X10089450Y-6069421D01*
G01X10091414Y-6040715D01*
G01X10089450Y-6012009D01*
G01X10083596Y-5983838D01*
G01X10073961Y-5956727D01*
G01X10060724Y-5931180D01*
G01X10044131Y-5907673D01*
G01X10024492Y-5886645D01*
G01X10002172Y-5868486D01*
G01X9977588Y-5853536D01*
G01X9951197Y-5842073D01*
G01X9923491Y-5834310D01*
G01X9894986Y-5830393D01*
G01X9866214Y-5830393D01*
G01X9837709Y-5834310D01*
G01X9810003Y-5842073D01*
G01X9783612Y-5853536D01*
G01X9759028Y-5868486D01*
G01X9736708Y-5886645D01*
G01X9717069Y-5907673D01*
G01X9700476Y-5931180D01*
G01X9687239Y-5956727D01*
G01X9677604Y-5983838D01*
G01X9671750Y-6012009D01*
G01X9669786Y-6040715D01*
G01X9669786Y-6040715D01*
G01X972814Y-6040715D01*
G01X972814Y-6040715D01*
G01X970850Y-6012009D01*
G01X964996Y-5983838D01*
G01X955361Y-5956727D01*
G01X942124Y-5931180D01*
G01X925531Y-5907673D01*
G01X905892Y-5886645D01*
G01X883572Y-5868486D01*
G01X858988Y-5853536D01*
G01X832597Y-5842073D01*
G01X804891Y-5834310D01*
G01X776386Y-5830393D01*
G01X747614Y-5830393D01*
G01X719109Y-5834310D01*
G01X691403Y-5842073D01*
G01X665012Y-5853536D01*
G01X640428Y-5868486D01*
G01X618108Y-5886645D01*
G01X598469Y-5907673D01*
G01X581876Y-5931180D01*
G01X568639Y-5956727D01*
G01X559004Y-5983838D01*
G01X553150Y-6012009D01*
G01X551186Y-6040715D01*
G01X551186Y-6040715D01*
G01X99060Y-6040715D01*
G01X99060Y-3517900D01*
G01X657586Y-3517900D01*
G01X659364Y-3533153D01*
G01X664603Y-3547589D01*
G01X673022Y-3560432D01*
G01X684169Y-3570994D01*
G01X697447Y-3578710D01*
G01X712144Y-3583164D01*
G01X727471Y-3584118D01*
G01X742606Y-3581521D01*
G01X756739Y-3575512D01*
G01X769110Y-3566414D01*
G01X919705Y-3566414D01*
G01X1366286Y-4012995D01*
G01X1366286Y-4031490D01*
G01X1356703Y-4044727D01*
G01X1350648Y-4059906D01*
G01X1348488Y-4076104D01*
G01X1350356Y-4092339D01*
G01X1356138Y-4107624D01*
G01X1365482Y-4121031D01*
G01X1377820Y-4131746D01*
G01X1392405Y-4139118D01*
G01X1408350Y-4142700D01*
G01X1424686Y-4142273D01*
G01X1424686Y-5372100D01*
G01X1426339Y-5384656D01*
G01X1431186Y-5396357D01*
G01X1438895Y-5406405D01*
G01X1762527Y-5730036D01*
G01X1764841Y-5745218D01*
G01X1770586Y-5759459D01*
G01X1779452Y-5771998D01*
G01X1790964Y-5782161D01*
G01X1804506Y-5789404D01*
G01X1819350Y-5793337D01*
G01X1834701Y-5793751D01*
G01X1849736Y-5790622D01*
G01X1863648Y-5784120D01*
G01X1875691Y-5774591D01*
G01X1885220Y-5762548D01*
G01X1891722Y-5748636D01*
G01X1894851Y-5733601D01*
G01X1894437Y-5718250D01*
G01X1890504Y-5703406D01*
G01X1883261Y-5689864D01*
G01X1873098Y-5678352D01*
G01X1860559Y-5669486D01*
G01X1846318Y-5663741D01*
G01X1831136Y-5661427D01*
G01X1788911Y-5619201D01*
G01X6330239Y-5619201D01*
G01X6332091Y-5643915D01*
G01X6337605Y-5668076D01*
G01X6346660Y-5691145D01*
G01X6359051Y-5712608D01*
G01X6374502Y-5731983D01*
G01X6392669Y-5748840D01*
G01X6413146Y-5762800D01*
G01X6435474Y-5773553D01*
G01X6459156Y-5780858D01*
G01X6483661Y-5784551D01*
G01X6508444Y-5784551D01*
G01X6532950Y-5780858D01*
G01X6556631Y-5773553D01*
G01X6578959Y-5762800D01*
G01X6599436Y-5748840D01*
G01X6617603Y-5731983D01*
G01X6633054Y-5712608D01*
G01X6645446Y-5691145D01*
G01X6654500Y-5668076D01*
G01X6660014Y-5643915D01*
G01X6661866Y-5619201D01*
G01X6660014Y-5594488D01*
G01X6654500Y-5570327D01*
G01X6645446Y-5547257D01*
G01X6633054Y-5525795D01*
G01X6617603Y-5506419D01*
G01X6599436Y-5489563D01*
G01X6578959Y-5475602D01*
G01X6556631Y-5464850D01*
G01X6544151Y-5461000D01*
G01X9021839Y-5461000D01*
G01X9023691Y-5485713D01*
G01X9029205Y-5509874D01*
G01X9038259Y-5532944D01*
G01X9050651Y-5554406D01*
G01X9066102Y-5573782D01*
G01X9084269Y-5590638D01*
G01X9104746Y-5604599D01*
G01X9127074Y-5615352D01*
G01X9150755Y-5622656D01*
G01X9175261Y-5626350D01*
G01X9200044Y-5626350D01*
G01X9224549Y-5622656D01*
G01X9248231Y-5615352D01*
G01X9270559Y-5604599D01*
G01X9291036Y-5590638D01*
G01X9309203Y-5573782D01*
G01X9324654Y-5554406D01*
G01X9337045Y-5532944D01*
G01X9346100Y-5509874D01*
G01X9351614Y-5485713D01*
G01X9353466Y-5461000D01*
G01X9351614Y-5436287D01*
G01X9346100Y-5412126D01*
G01X9337045Y-5389056D01*
G01X9324654Y-5367594D01*
G01X9309203Y-5348218D01*
G01X9291036Y-5331362D01*
G01X9270559Y-5317401D01*
G01X9248231Y-5306648D01*
G01X9224549Y-5299344D01*
G01X9200044Y-5295650D01*
G01X9175261Y-5295650D01*
G01X9150755Y-5299344D01*
G01X9127074Y-5306648D01*
G01X9104746Y-5317401D01*
G01X9084269Y-5331362D01*
G01X9066102Y-5348218D01*
G01X9050651Y-5367594D01*
G01X9038259Y-5389056D01*
G01X9029205Y-5412126D01*
G01X9023691Y-5436287D01*
G01X9021839Y-5461000D01*
G01X9021839Y-5461000D01*
G01X6544151Y-5461000D01*
G01X6532950Y-5457545D01*
G01X6508444Y-5453851D01*
G01X6483661Y-5453851D01*
G01X6459156Y-5457545D01*
G01X6435474Y-5464850D01*
G01X6413146Y-5475602D01*
G01X6392669Y-5489563D01*
G01X6374502Y-5506419D01*
G01X6359051Y-5525795D01*
G01X6346660Y-5547257D01*
G01X6337605Y-5570327D01*
G01X6332091Y-5594488D01*
G01X6330239Y-5619201D01*
G01X6330239Y-5619201D01*
G01X1788911Y-5619201D01*
G01X1521714Y-5352005D01*
G01X1521714Y-4769299D01*
G01X2448549Y-4769299D01*
G01X2448963Y-4784650D01*
G01X2452896Y-4799494D01*
G01X2460139Y-4813036D01*
G01X2470302Y-4824548D01*
G01X2482841Y-4833414D01*
G01X2497082Y-4839159D01*
G01X2512264Y-4841473D01*
G01X2593086Y-4922295D01*
G01X2593086Y-5047490D01*
G01X2593086Y-5047490D01*
G01X2584410Y-5059131D01*
G01X2578476Y-5072380D01*
G01X2575567Y-5086603D01*
G01X2575823Y-5101119D01*
G01X2579231Y-5115231D01*
G01X2585629Y-5128263D01*
G01X2594709Y-5139591D01*
G01X2606037Y-5148671D01*
G01X2619069Y-5155069D01*
G01X2633181Y-5158477D01*
G01X2647697Y-5158733D01*
G01X2661920Y-5155824D01*
G01X2675169Y-5149890D01*
G01X2686810Y-5141214D01*
G01X2914498Y-5141214D01*
G01X2927054Y-5139561D01*
G01X2938755Y-5134714D01*
G01X2948802Y-5127005D01*
G01X2985180Y-5090627D01*
G01X3000361Y-5088312D01*
G01X3014603Y-5082568D01*
G01X3027142Y-5073702D01*
G01X3037305Y-5062189D01*
G01X3044548Y-5048648D01*
G01X3048481Y-5033803D01*
G01X3048895Y-5018452D01*
G01X3045766Y-5003418D01*
G01X3039264Y-4989506D01*
G01X3029735Y-4977463D01*
G01X3017692Y-4967934D01*
G01X3003780Y-4961431D01*
G01X2988745Y-4958303D01*
G01X2973394Y-4958716D01*
G01X2958550Y-4962650D01*
G01X2945008Y-4969892D01*
G01X2933496Y-4980056D01*
G01X2924630Y-4992594D01*
G01X2918885Y-5006836D01*
G01X2916571Y-5022017D01*
G01X2894402Y-5044186D01*
G01X2690114Y-5044186D01*
G01X2690114Y-4902200D01*
G01X2688461Y-4889644D01*
G01X2683614Y-4877943D01*
G01X2675905Y-4867895D01*
G01X2580873Y-4772864D01*
G01X2578559Y-4757682D01*
G01X2572814Y-4743441D01*
G01X2563948Y-4730902D01*
G01X2552436Y-4720739D01*
G01X2538894Y-4713496D01*
G01X2524050Y-4709563D01*
G01X2508699Y-4709149D01*
G01X2493664Y-4712278D01*
G01X2479752Y-4718780D01*
G01X2467709Y-4728309D01*
G01X2458180Y-4740352D01*
G01X2451678Y-4754264D01*
G01X2448549Y-4769299D01*
G01X1521714Y-4769299D01*
G01X1521714Y-4494185D01*
G01X5394706Y-4494185D01*
G01X5396048Y-4509170D01*
G01X5400733Y-4523467D01*
G01X5408521Y-4536340D01*
G01X5419010Y-4547126D01*
G01X5431660Y-4555271D01*
G01X5445821Y-4560354D01*
G01X5460763Y-4562114D01*
G01X5475717Y-4560460D01*
G01X5489914Y-4555479D01*
G01X5502622Y-4547425D01*
G01X5513188Y-4536714D01*
G01X5970151Y-4536714D01*
G01X5966728Y-4550835D01*
G01X5966464Y-4565362D01*
G01X5969369Y-4579598D01*
G01X5975305Y-4592859D01*
G01X5983986Y-4604510D01*
G01X5983986Y-5367089D01*
G01X5983986Y-5367089D01*
G01X5972352Y-5376573D01*
G01X5963149Y-5388430D01*
G01X5956848Y-5402053D01*
G01X5953772Y-5416745D01*
G01X5954079Y-5431751D01*
G01X5957753Y-5446305D01*
G01X5964606Y-5459659D01*
G01X5974287Y-5471130D01*
G01X5986299Y-5480130D01*
G01X6000028Y-5486198D01*
G01X6014769Y-5489023D01*
G01X6029769Y-5488461D01*
G01X6044257Y-5484539D01*
G01X6057493Y-5477460D01*
G01X6068797Y-5467586D01*
G01X6077592Y-5455422D01*
G01X6083425Y-5441592D01*
G01X6085999Y-5426804D01*
G01X6085181Y-5411817D01*
G01X6081014Y-5397397D01*
G01X6081014Y-5365301D01*
G01X6182349Y-5365301D01*
G01X6185478Y-5380336D01*
G01X6191980Y-5394248D01*
G01X6201509Y-5406291D01*
G01X6213552Y-5415820D01*
G01X6227464Y-5422322D01*
G01X6242499Y-5425451D01*
G01X6257850Y-5425037D01*
G01X6272694Y-5421104D01*
G01X6286236Y-5413861D01*
G01X6297748Y-5403698D01*
G01X6306614Y-5391159D01*
G01X6312359Y-5376918D01*
G01X6314673Y-5361736D01*
G01X6358905Y-5317505D01*
G01X6366614Y-5307457D01*
G01X6371461Y-5295756D01*
G01X6373114Y-5283200D01*
G01X6373114Y-5112001D01*
G01X6888239Y-5112001D01*
G01X6890091Y-5136715D01*
G01X6895605Y-5160876D01*
G01X6904659Y-5183945D01*
G01X6917051Y-5205408D01*
G01X6932502Y-5224783D01*
G01X6950669Y-5241640D01*
G01X6971146Y-5255600D01*
G01X6993474Y-5266353D01*
G01X7017155Y-5273658D01*
G01X7041661Y-5277352D01*
G01X7066444Y-5277352D01*
G01X7090949Y-5273658D01*
G01X7114631Y-5266353D01*
G01X7136959Y-5255600D01*
G01X7157436Y-5241640D01*
G01X7175603Y-5224783D01*
G01X7191054Y-5205408D01*
G01X7203445Y-5183945D01*
G01X7212500Y-5160876D01*
G01X7218014Y-5136715D01*
G01X7219866Y-5112001D01*
G01X7218014Y-5087288D01*
G01X7212500Y-5063127D01*
G01X7203445Y-5040058D01*
G01X7191054Y-5018595D01*
G01X7175603Y-4999219D01*
G01X7157436Y-4982363D01*
G01X7136959Y-4968403D01*
G01X7114631Y-4957650D01*
G01X7090949Y-4950345D01*
G01X7066444Y-4946651D01*
G01X7041661Y-4946651D01*
G01X7017155Y-4950345D01*
G01X6993474Y-4957650D01*
G01X6971146Y-4968403D01*
G01X6950669Y-4982363D01*
G01X6932502Y-4999219D01*
G01X6917051Y-5018595D01*
G01X6904659Y-5040058D01*
G01X6895605Y-5063127D01*
G01X6890091Y-5087288D01*
G01X6888239Y-5112001D01*
G01X6888239Y-5112001D01*
G01X6373114Y-5112001D01*
G01X6373114Y-4972631D01*
G01X6499949Y-4972631D01*
G01X6503361Y-4987755D01*
G01X6510191Y-5001673D01*
G01X6520066Y-5013625D01*
G01X6532446Y-5022957D01*
G01X6546654Y-5029160D01*
G01X6561915Y-5031894D01*
G01X6577393Y-5031011D01*
G01X6582711Y-5046004D01*
G01X6591447Y-5059300D01*
G01X6603098Y-5070132D01*
G01X6616994Y-5077878D01*
G01X6632335Y-5082091D01*
G01X6648237Y-5082529D01*
G01X6663787Y-5079168D01*
G01X6678088Y-5072199D01*
G01X6690318Y-5062025D01*
G01X6699774Y-5049231D01*
G01X6705909Y-5034553D01*
G01X6708373Y-5018836D01*
G01X6893007Y-4834202D01*
G01X9009139Y-4834202D01*
G01X9010991Y-4858915D01*
G01X9016505Y-4883076D01*
G01X9025559Y-4906146D01*
G01X9037951Y-4927608D01*
G01X9053402Y-4946984D01*
G01X9071569Y-4963840D01*
G01X9092046Y-4977801D01*
G01X9114374Y-4988553D01*
G01X9138055Y-4995858D01*
G01X9162561Y-4999552D01*
G01X9187344Y-4999552D01*
G01X9211849Y-4995858D01*
G01X9235531Y-4988553D01*
G01X9257859Y-4977801D01*
G01X9278336Y-4963840D01*
G01X9296503Y-4946984D01*
G01X9311954Y-4927608D01*
G01X9324345Y-4906146D01*
G01X9333400Y-4883076D01*
G01X9338914Y-4858915D01*
G01X9340766Y-4834202D01*
G01X9338914Y-4809488D01*
G01X9333400Y-4785327D01*
G01X9324345Y-4762258D01*
G01X9311954Y-4740795D01*
G01X9296503Y-4721420D01*
G01X9278336Y-4704563D01*
G01X9257859Y-4690603D01*
G01X9235531Y-4679850D01*
G01X9211849Y-4672545D01*
G01X9187344Y-4668852D01*
G01X9162561Y-4668852D01*
G01X9138055Y-4672545D01*
G01X9114374Y-4679850D01*
G01X9092046Y-4690603D01*
G01X9071569Y-4704563D01*
G01X9053402Y-4721420D01*
G01X9037951Y-4740795D01*
G01X9025559Y-4762258D01*
G01X9016505Y-4785327D01*
G01X9010991Y-4809488D01*
G01X9009139Y-4834202D01*
G01X9009139Y-4834202D01*
G01X6893007Y-4834202D01*
G01X6988111Y-4739099D01*
G01X6995680Y-4751795D01*
G01X7005874Y-4762499D01*
G01X7018186Y-4770680D01*
G01X7032004Y-4775930D01*
G01X7046642Y-4777988D01*
G01X7061372Y-4776753D01*
G01X7075462Y-4772285D01*
G01X7088213Y-4764808D01*
G01X7098991Y-4754691D01*
G01X7107260Y-4742439D01*
G01X7112609Y-4728659D01*
G01X7114773Y-4714036D01*
G01X7398795Y-4430014D01*
G01X8044405Y-4430014D01*
G01X8163327Y-4548936D01*
G01X8165641Y-4564118D01*
G01X8171386Y-4578359D01*
G01X8180252Y-4590898D01*
G01X8191764Y-4601061D01*
G01X8205306Y-4608304D01*
G01X8220150Y-4612237D01*
G01X8235501Y-4612651D01*
G01X8250536Y-4609522D01*
G01X8264448Y-4603020D01*
G01X8276491Y-4593491D01*
G01X8286020Y-4581448D01*
G01X8292522Y-4567536D01*
G01X8295651Y-4552501D01*
G01X8295237Y-4537150D01*
G01X8291304Y-4522306D01*
G01X8284061Y-4508764D01*
G01X8273898Y-4497252D01*
G01X8261359Y-4488386D01*
G01X8247118Y-4482641D01*
G01X8231936Y-4480327D01*
G01X8098805Y-4347195D01*
G01X8088757Y-4339486D01*
G01X8077056Y-4334639D01*
G01X8064500Y-4332986D01*
G01X7378700Y-4332986D01*
G01X7366144Y-4334639D01*
G01X7354443Y-4339486D01*
G01X7344395Y-4347195D01*
G01X7136993Y-4554598D01*
G01X7136993Y-4539131D01*
G01X7146453Y-4526118D01*
G01X7152500Y-4511210D01*
G01X7154779Y-4495284D01*
G01X7153156Y-4479278D01*
G01X7147727Y-4464134D01*
G01X7138810Y-4450743D01*
G01X7126931Y-4439893D01*
G01X7112789Y-4432224D01*
G01X7097216Y-4428185D01*
G01X7081129Y-4428015D01*
G01X7065475Y-4431725D01*
G01X7051174Y-4439095D01*
G01X7039069Y-4449692D01*
G01X7029872Y-4462892D01*
G01X7020422Y-4450173D01*
G01X7008224Y-4440059D01*
G01X6993975Y-4433128D01*
G01X6978489Y-4429775D01*
G01X6962649Y-4430192D01*
G01X6947360Y-4434354D01*
G01X6933495Y-4442025D01*
G01X6921846Y-4452766D01*
G01X6913077Y-4465964D01*
G01X6907690Y-4480865D01*
G01X6905991Y-4496619D01*
G01X6908078Y-4512326D01*
G01X6913832Y-4527090D01*
G01X6922924Y-4540067D01*
G01X6563564Y-4899427D01*
G01X6563564Y-4899427D01*
G01X6548240Y-4901781D01*
G01X6533881Y-4907628D01*
G01X6521273Y-4916649D01*
G01X6511104Y-4928352D01*
G01X6503929Y-4942095D01*
G01X6500142Y-4957129D01*
G01X6499949Y-4972631D01*
G01X6373114Y-4972631D01*
G01X6373114Y-4370791D01*
G01X6387523Y-4366793D01*
G01X6400670Y-4359668D01*
G01X6411886Y-4349778D01*
G01X6420601Y-4337627D01*
G01X6426372Y-4323833D01*
G01X6428905Y-4309095D01*
G01X6428073Y-4294165D01*
G01X6423916Y-4279801D01*
G01X6416646Y-4266734D01*
G01X6406634Y-4255627D01*
G01X6394388Y-4247047D01*
G01X6380530Y-4241428D01*
G01X6365766Y-4239057D01*
G01X6350846Y-4240054D01*
G01X6336529Y-4244369D01*
G01X6323542Y-4251782D01*
G01X6312547Y-4261916D01*
G01X6304101Y-4274256D01*
G01X6298635Y-4288174D01*
G01X6296427Y-4302964D01*
G01X6290295Y-4309095D01*
G01X6282586Y-4319143D01*
G01X6277739Y-4330844D01*
G01X6276086Y-4343400D01*
G01X6276086Y-5263105D01*
G01X6276086Y-5263105D01*
G01X6246064Y-5293127D01*
G01X6230882Y-5295441D01*
G01X6216641Y-5301186D01*
G01X6204102Y-5310052D01*
G01X6193939Y-5321564D01*
G01X6186696Y-5335106D01*
G01X6182763Y-5349950D01*
G01X6182349Y-5365301D01*
G01X6081014Y-5365301D01*
G01X6081014Y-4604510D01*
G01X6089450Y-4593274D01*
G01X6095329Y-4580514D01*
G01X6098389Y-4566801D01*
G01X6098490Y-4552751D01*
G01X6113590Y-4547192D01*
G01X6126907Y-4538160D01*
G01X6137656Y-4526187D01*
G01X6145205Y-4511977D01*
G01X6149109Y-4496367D01*
G01X6149139Y-4480276D01*
G01X6145292Y-4464652D01*
G01X6137796Y-4450414D01*
G01X6127091Y-4438401D01*
G01X6113808Y-4429320D01*
G01X6098729Y-4423706D01*
G01X6082741Y-4421888D01*
G01X6081445Y-4406358D01*
G01X6076560Y-4391559D01*
G01X6068357Y-4378309D01*
G01X6057288Y-4367340D01*
G01X6043964Y-4359256D01*
G01X6029122Y-4354505D01*
G01X6013581Y-4353349D01*
G01X5998199Y-4355851D01*
G01X5983827Y-4361875D01*
G01X5971256Y-4371086D01*
G01X5544310Y-4371086D01*
G01X5533038Y-4362628D01*
G01X5520234Y-4356744D01*
G01X5506475Y-4353697D01*
G01X5492383Y-4353627D01*
G01X5478595Y-4356536D01*
G01X5465732Y-4362293D01*
G01X5454376Y-4370637D01*
G01X5445040Y-4381193D01*
G01X5438145Y-4393483D01*
G01X5434003Y-4406953D01*
G01X5432801Y-4420993D01*
G01X5434592Y-4434971D01*
G01X5421560Y-4442489D01*
G01X5410558Y-4452752D01*
G01X5402152Y-4465230D01*
G01X5396776Y-4479282D01*
G01X5394706Y-4494185D01*
G01X1521714Y-4494185D01*
G01X1521714Y-3429000D01*
G01X4518386Y-3429000D01*
G01X4520164Y-3444253D01*
G01X4525403Y-3458689D01*
G01X4533822Y-3471532D01*
G01X4544969Y-3482094D01*
G01X4558247Y-3489810D01*
G01X4572944Y-3494264D01*
G01X4588271Y-3495218D01*
G01X4603406Y-3492621D01*
G01X4617539Y-3486612D01*
G01X4629910Y-3477514D01*
G01X5934370Y-3477514D01*
G01X6015192Y-3558336D01*
G01X6017506Y-3573518D01*
G01X6023251Y-3587759D01*
G01X6032117Y-3600298D01*
G01X6043629Y-3610461D01*
G01X6057171Y-3617704D01*
G01X6072015Y-3621637D01*
G01X6087366Y-3622051D01*
G01X6102401Y-3618922D01*
G01X6103942Y-3618202D01*
G01X7637539Y-3618202D01*
G01X7639391Y-3642915D01*
G01X7644905Y-3667077D01*
G01X7653959Y-3690146D01*
G01X7666351Y-3711608D01*
G01X7681802Y-3730984D01*
G01X7699969Y-3747840D01*
G01X7720446Y-3761801D01*
G01X7742774Y-3772554D01*
G01X7766455Y-3779859D01*
G01X7790961Y-3783552D01*
G01X7815744Y-3783552D01*
G01X7840249Y-3779859D01*
G01X7863931Y-3772554D01*
G01X7886259Y-3761801D01*
G01X7906736Y-3747840D01*
G01X7924903Y-3730984D01*
G01X7940354Y-3711608D01*
G01X7952745Y-3690146D01*
G01X7961800Y-3667077D01*
G01X7967314Y-3642915D01*
G01X7969166Y-3618202D01*
G01X7967314Y-3593489D01*
G01X7961800Y-3569328D01*
G01X7952745Y-3546258D01*
G01X7940354Y-3524796D01*
G01X7924903Y-3505420D01*
G01X7906736Y-3488564D01*
G01X7886259Y-3474603D01*
G01X7863931Y-3463850D01*
G01X7840249Y-3456546D01*
G01X7815744Y-3452852D01*
G01X7790961Y-3452852D01*
G01X7766455Y-3456546D01*
G01X7742774Y-3463850D01*
G01X7720446Y-3474603D01*
G01X7699969Y-3488564D01*
G01X7681802Y-3505420D01*
G01X7666351Y-3524796D01*
G01X7653959Y-3546258D01*
G01X7644905Y-3569328D01*
G01X7639391Y-3593489D01*
G01X7637539Y-3618202D01*
G01X7637539Y-3618202D01*
G01X6103942Y-3618202D01*
G01X6116313Y-3612420D01*
G01X6128356Y-3602891D01*
G01X6137884Y-3590848D01*
G01X6144387Y-3576936D01*
G01X6147516Y-3561901D01*
G01X6147102Y-3546550D01*
G01X6143169Y-3531706D01*
G01X6135926Y-3518164D01*
G01X6125763Y-3506652D01*
G01X6113224Y-3497786D01*
G01X6098982Y-3492041D01*
G01X6083801Y-3489727D01*
G01X5988769Y-3394695D01*
G01X5978722Y-3386986D01*
G01X5967021Y-3382139D01*
G01X5954465Y-3380486D01*
G01X4629910Y-3380486D01*
G01X4617539Y-3371388D01*
G01X4603406Y-3365379D01*
G01X4588271Y-3362782D01*
G01X4572944Y-3363736D01*
G01X4558247Y-3368190D01*
G01X4544969Y-3375906D01*
G01X4533822Y-3386468D01*
G01X4525403Y-3399311D01*
G01X4520164Y-3413747D01*
G01X4518386Y-3429000D01*
G01X4518386Y-3429000D01*
G01X1521714Y-3429000D01*
G01X1521714Y-2881602D01*
G01X3193339Y-2881602D01*
G01X3195191Y-2906315D01*
G01X3200705Y-2930477D01*
G01X3209760Y-2953546D01*
G01X3222151Y-2975008D01*
G01X3237602Y-2994384D01*
G01X3255769Y-3011240D01*
G01X3276246Y-3025201D01*
G01X3298574Y-3035954D01*
G01X3322256Y-3043259D01*
G01X3346761Y-3046952D01*
G01X3371544Y-3046952D01*
G01X3396050Y-3043259D01*
G01X3419731Y-3035954D01*
G01X3421089Y-3035300D01*
G01X4746986Y-3035300D01*
G01X4748764Y-3050553D01*
G01X4754003Y-3064989D01*
G01X4762422Y-3077832D01*
G01X4773569Y-3088394D01*
G01X4786847Y-3096110D01*
G01X4801544Y-3100564D01*
G01X4816871Y-3101518D01*
G01X4832006Y-3098921D01*
G01X4846139Y-3092912D01*
G01X4858510Y-3083814D01*
G01X6088026Y-3083814D01*
G01X6099379Y-3092320D01*
G01X6112282Y-3098216D01*
G01X6126143Y-3101234D01*
G01X6140329Y-3101234D01*
G01X6154191Y-3098216D01*
G01X6167093Y-3092320D01*
G01X6178446Y-3083814D01*
G01X6202905Y-3083814D01*
G01X6250686Y-3131595D01*
G01X6250686Y-3472690D01*
G01X6250686Y-3472690D01*
G01X6241588Y-3485061D01*
G01X6235579Y-3499194D01*
G01X6232982Y-3514329D01*
G01X6233936Y-3529656D01*
G01X6238390Y-3544353D01*
G01X6246106Y-3557631D01*
G01X6256668Y-3568778D01*
G01X6269511Y-3577197D01*
G01X6283947Y-3582436D01*
G01X6299200Y-3584214D01*
G01X6314453Y-3582436D01*
G01X6328889Y-3577197D01*
G01X6341732Y-3568778D01*
G01X6352294Y-3557631D01*
G01X6360010Y-3544353D01*
G01X6364464Y-3529656D01*
G01X6365418Y-3514329D01*
G01X6362821Y-3499194D01*
G01X6356812Y-3485061D01*
G01X6347714Y-3472690D01*
G01X6347714Y-3111500D01*
G01X6346061Y-3098944D01*
G01X6341214Y-3087243D01*
G01X6333505Y-3077195D01*
G01X6257305Y-3000995D01*
G01X6247257Y-2993286D01*
G01X6235556Y-2988439D01*
G01X6223000Y-2986786D01*
G01X6178446Y-2986786D01*
G01X6167093Y-2978280D01*
G01X6154191Y-2972384D01*
G01X6140329Y-2969366D01*
G01X6126143Y-2969366D01*
G01X6112282Y-2972384D01*
G01X6099379Y-2978280D01*
G01X6088026Y-2986786D01*
G01X4858510Y-2986786D01*
G01X4846139Y-2977688D01*
G01X4832006Y-2971679D01*
G01X4816871Y-2969082D01*
G01X4801544Y-2970036D01*
G01X4786847Y-2974490D01*
G01X4773569Y-2982206D01*
G01X4762422Y-2992768D01*
G01X4754003Y-3005611D01*
G01X4748764Y-3020047D01*
G01X4746986Y-3035300D01*
G01X3421089Y-3035300D01*
G01X3442059Y-3025201D01*
G01X3462536Y-3011240D01*
G01X3480703Y-2994384D01*
G01X3496154Y-2975008D01*
G01X3508546Y-2953546D01*
G01X3517600Y-2930477D01*
G01X3523114Y-2906315D01*
G01X3524966Y-2881602D01*
G01X3523114Y-2856889D01*
G01X3517600Y-2832728D01*
G01X3508546Y-2809658D01*
G01X3496154Y-2788196D01*
G01X3480703Y-2768820D01*
G01X3466778Y-2755900D01*
G01X8406686Y-2755900D01*
G01X8408538Y-2780613D01*
G01X8414053Y-2804774D01*
G01X8423107Y-2827844D01*
G01X8435498Y-2849306D01*
G01X8450950Y-2868682D01*
G01X8469117Y-2885538D01*
G01X8489593Y-2899499D01*
G01X8511921Y-2910252D01*
G01X8535603Y-2917556D01*
G01X8560109Y-2921250D01*
G01X8584891Y-2921250D01*
G01X8609397Y-2917556D01*
G01X8633079Y-2910252D01*
G01X8655407Y-2899499D01*
G01X8675883Y-2885538D01*
G01X8694050Y-2868682D01*
G01X8709502Y-2849306D01*
G01X8721893Y-2827844D01*
G01X8730947Y-2804774D01*
G01X8736462Y-2780613D01*
G01X8738314Y-2755900D01*
G01X8738097Y-2753002D01*
G01X8844039Y-2753002D01*
G01X8845891Y-2777715D01*
G01X8851405Y-2801876D01*
G01X8860459Y-2824946D01*
G01X8872851Y-2846408D01*
G01X8888302Y-2865784D01*
G01X8906469Y-2882640D01*
G01X8926946Y-2896601D01*
G01X8949274Y-2907354D01*
G01X8972955Y-2914658D01*
G01X8997461Y-2918352D01*
G01X9022244Y-2918352D01*
G01X9046749Y-2914658D01*
G01X9070431Y-2907354D01*
G01X9092759Y-2896601D01*
G01X9113236Y-2882640D01*
G01X9131403Y-2865784D01*
G01X9146854Y-2846408D01*
G01X9159245Y-2824946D01*
G01X9168300Y-2801876D01*
G01X9173814Y-2777715D01*
G01X9175666Y-2753002D01*
G01X9173814Y-2728289D01*
G01X9168300Y-2704127D01*
G01X9159245Y-2681058D01*
G01X9146854Y-2659596D01*
G01X9131403Y-2640220D01*
G01X9113236Y-2623363D01*
G01X9092759Y-2609403D01*
G01X9070431Y-2598650D01*
G01X9046749Y-2591345D01*
G01X9022244Y-2587652D01*
G01X8997461Y-2587652D01*
G01X8972955Y-2591345D01*
G01X8949274Y-2598650D01*
G01X8926946Y-2609403D01*
G01X8906469Y-2623363D01*
G01X8888302Y-2640220D01*
G01X8872851Y-2659596D01*
G01X8860459Y-2681058D01*
G01X8851405Y-2704127D01*
G01X8845891Y-2728289D01*
G01X8844039Y-2753002D01*
G01X8844039Y-2753002D01*
G01X8738097Y-2753002D01*
G01X8736462Y-2731187D01*
G01X8730947Y-2707026D01*
G01X8721893Y-2683956D01*
G01X8709502Y-2662494D01*
G01X8694050Y-2643118D01*
G01X8675883Y-2626262D01*
G01X8655407Y-2612301D01*
G01X8633079Y-2601548D01*
G01X8609397Y-2594244D01*
G01X8584891Y-2590550D01*
G01X8560109Y-2590550D01*
G01X8535603Y-2594244D01*
G01X8511921Y-2601548D01*
G01X8489593Y-2612301D01*
G01X8469117Y-2626262D01*
G01X8450950Y-2643118D01*
G01X8435498Y-2662494D01*
G01X8423107Y-2683956D01*
G01X8414053Y-2707026D01*
G01X8408538Y-2731187D01*
G01X8406686Y-2755900D01*
G01X8406686Y-2755900D01*
G01X3466778Y-2755900D01*
G01X3462536Y-2751964D01*
G01X3442059Y-2738003D01*
G01X3419731Y-2727250D01*
G01X3396050Y-2719946D01*
G01X3371544Y-2716252D01*
G01X3346761Y-2716252D01*
G01X3322256Y-2719946D01*
G01X3298574Y-2727250D01*
G01X3276246Y-2738003D01*
G01X3255769Y-2751964D01*
G01X3237602Y-2768820D01*
G01X3222151Y-2788196D01*
G01X3209760Y-2809658D01*
G01X3200705Y-2832728D01*
G01X3195191Y-2856889D01*
G01X3193339Y-2881602D01*
G01X3193339Y-2881602D01*
G01X1521714Y-2881602D01*
G01X1521714Y-2493941D01*
G01X8125356Y-2493941D01*
G01X8128174Y-2508881D01*
G01X8134320Y-2522786D01*
G01X8143472Y-2534926D01*
G01X8155148Y-2544663D01*
G01X8168735Y-2551484D01*
G01X8183519Y-2555032D01*
G01X8198722Y-2555120D01*
G01X8213545Y-2551742D01*
G01X8227210Y-2545078D01*
G01X8238998Y-2535477D01*
G01X8248289Y-2523443D01*
G01X8254595Y-2509609D01*
G01X8257585Y-2494703D01*
G01X8257102Y-2479507D01*
G01X8371636Y-2364973D01*
G01X8371636Y-2364973D01*
G01X8386818Y-2362659D01*
G01X8401059Y-2356914D01*
G01X8413598Y-2348048D01*
G01X8423761Y-2336536D01*
G01X8431004Y-2322994D01*
G01X8434937Y-2308150D01*
G01X8435351Y-2292799D01*
G01X8432222Y-2277764D01*
G01X8425720Y-2263852D01*
G01X8416191Y-2251809D01*
G01X8404148Y-2242280D01*
G01X8390236Y-2235778D01*
G01X8375201Y-2232649D01*
G01X8359850Y-2233063D01*
G01X8345006Y-2236996D01*
G01X8331464Y-2244239D01*
G01X8319952Y-2254402D01*
G01X8311086Y-2266941D01*
G01X8305341Y-2281182D01*
G01X8303027Y-2296364D01*
G01X8174212Y-2425179D01*
G01X8160085Y-2430799D01*
G01X8147610Y-2439489D01*
G01X8137442Y-2450791D01*
G01X8130115Y-2464112D01*
G01X8126014Y-2478752D01*
G01X8125356Y-2493941D01*
G01X1521714Y-2493941D01*
G01X1521714Y-2318510D01*
G01X1530812Y-2306139D01*
G01X1536821Y-2292006D01*
G01X1539418Y-2276871D01*
G01X1538464Y-2261544D01*
G01X1534010Y-2246847D01*
G01X1526294Y-2233569D01*
G01X1515732Y-2222422D01*
G01X1502889Y-2214003D01*
G01X1488453Y-2208764D01*
G01X1473200Y-2206986D01*
G01X1457947Y-2208764D01*
G01X1443511Y-2214003D01*
G01X1430668Y-2222422D01*
G01X1420106Y-2233569D01*
G01X1412390Y-2246847D01*
G01X1407936Y-2261544D01*
G01X1406982Y-2276871D01*
G01X1409579Y-2292006D01*
G01X1415588Y-2306139D01*
G01X1424686Y-2318510D01*
G01X1424686Y-3934177D01*
G01X1424686Y-3934177D01*
G01X974105Y-3483595D01*
G01X964057Y-3475886D01*
G01X952356Y-3471039D01*
G01X939800Y-3469386D01*
G01X769110Y-3469386D01*
G01X756739Y-3460288D01*
G01X742606Y-3454279D01*
G01X727471Y-3451682D01*
G01X712144Y-3452636D01*
G01X697447Y-3457090D01*
G01X684169Y-3464806D01*
G01X673022Y-3475368D01*
G01X664603Y-3488211D01*
G01X659364Y-3502647D01*
G01X657586Y-3517900D01*
G01X99060Y-3517900D01*
G01X99060Y-2297900D01*
G01X127279Y-2297900D01*
G01X129285Y-2321152D01*
G01X135241Y-2343717D01*
G01X144973Y-2364929D01*
G01X158193Y-2384163D01*
G01X174510Y-2400848D01*
G01X193443Y-2414494D01*
G01X214433Y-2424697D01*
G01X236860Y-2431156D01*
G01X260061Y-2433680D01*
G01X283352Y-2432194D01*
G01X306044Y-2426743D01*
G01X327469Y-2417487D01*
G01X346992Y-2404700D01*
G01X364038Y-2388760D01*
G01X378103Y-2370136D01*
G01X388772Y-2349379D01*
G01X395730Y-2327102D01*
G01X409743Y-2336357D01*
G01X425097Y-2343157D01*
G01X441367Y-2347314D01*
G01X458102Y-2348713D01*
G01X488099Y-2348713D01*
G01X504977Y-2347290D01*
G01X521378Y-2343061D01*
G01X536840Y-2336147D01*
G01X550926Y-2326741D01*
G01X563239Y-2315110D01*
G01X573430Y-2301582D01*
G01X583622Y-2315110D01*
G01X595935Y-2326741D01*
G01X610021Y-2336147D01*
G01X625483Y-2343061D01*
G01X641884Y-2347290D01*
G01X658762Y-2348713D01*
G01X688759Y-2348713D01*
G01X708730Y-2346715D01*
G01X727909Y-2340801D01*
G01X745536Y-2331204D01*
G01X760913Y-2318306D01*
G01X773430Y-2302618D01*
G01X785947Y-2318306D01*
G01X801324Y-2331204D01*
G01X818951Y-2340801D01*
G01X838130Y-2346715D01*
G01X858101Y-2348713D01*
G01X858101Y-2348713D01*
G01X888098Y-2348713D01*
G01X904833Y-2347314D01*
G01X921103Y-2343157D01*
G01X936457Y-2336357D01*
G01X950470Y-2327102D01*
G01X957428Y-2349379D01*
G01X968097Y-2370136D01*
G01X982162Y-2388760D01*
G01X999208Y-2404700D01*
G01X1018731Y-2417487D01*
G01X1040156Y-2426743D01*
G01X1062848Y-2432194D01*
G01X1086139Y-2433680D01*
G01X1109340Y-2431156D01*
G01X1131767Y-2424697D01*
G01X1152757Y-2414494D01*
G01X1171690Y-2400848D01*
G01X1188007Y-2384163D01*
G01X1201227Y-2364929D01*
G01X1210959Y-2343717D01*
G01X1216915Y-2321152D01*
G01X1218921Y-2297900D01*
G01X1218921Y-2197900D01*
G01X1216915Y-2174648D01*
G01X1210959Y-2152083D01*
G01X1201227Y-2130871D01*
G01X1188007Y-2111637D01*
G01X1184646Y-2108200D01*
G01X2791186Y-2108200D01*
G01X2792964Y-2123453D01*
G01X2798203Y-2137889D01*
G01X2806622Y-2150732D01*
G01X2817769Y-2161294D01*
G01X2831047Y-2169010D01*
G01X2845744Y-2173464D01*
G01X2861071Y-2174418D01*
G01X2876206Y-2171821D01*
G01X2890339Y-2165812D01*
G01X2902710Y-2156714D01*
G01X3040890Y-2156714D01*
G01X3040890Y-2156714D01*
G01X3053261Y-2165812D01*
G01X3067394Y-2171821D01*
G01X3082529Y-2174418D01*
G01X3097856Y-2173464D01*
G01X3112553Y-2169010D01*
G01X3125831Y-2161294D01*
G01X3136978Y-2150732D01*
G01X3145397Y-2137889D01*
G01X3150636Y-2123453D01*
G01X3152414Y-2108200D01*
G01X3150636Y-2092947D01*
G01X3145397Y-2078511D01*
G01X3136978Y-2065668D01*
G01X3125831Y-2055106D01*
G01X3112553Y-2047390D01*
G01X3097856Y-2042936D01*
G01X3082529Y-2041982D01*
G01X3067394Y-2044579D01*
G01X3053261Y-2050588D01*
G01X3040890Y-2059686D01*
G01X2902710Y-2059686D01*
G01X2890339Y-2050588D01*
G01X2876206Y-2044579D01*
G01X2861071Y-2041982D01*
G01X2845744Y-2042936D01*
G01X2831047Y-2047390D01*
G01X2817769Y-2055106D01*
G01X2806622Y-2065668D01*
G01X2798203Y-2078511D01*
G01X2792964Y-2092947D01*
G01X2791186Y-2108200D01*
G01X1184646Y-2108200D01*
G01X1171690Y-2094952D01*
G01X1152757Y-2081306D01*
G01X1131767Y-2071103D01*
G01X1109340Y-2064644D01*
G01X1086139Y-2062120D01*
G01X1062848Y-2063606D01*
G01X1040156Y-2069057D01*
G01X1018731Y-2078313D01*
G01X999208Y-2091100D01*
G01X982162Y-2107040D01*
G01X968097Y-2125664D01*
G01X957428Y-2146421D01*
G01X950470Y-2168698D01*
G01X936457Y-2159443D01*
G01X921103Y-2152643D01*
G01X904833Y-2148486D01*
G01X888098Y-2147087D01*
G01X858101Y-2147087D01*
G01X838130Y-2149085D01*
G01X818951Y-2154999D01*
G01X801324Y-2164596D01*
G01X785947Y-2177494D01*
G01X773430Y-2193182D01*
G01X760913Y-2177494D01*
G01X745536Y-2164596D01*
G01X727909Y-2154999D01*
G01X708730Y-2149085D01*
G01X688759Y-2147087D01*
G01X658762Y-2147087D01*
G01X641884Y-2148510D01*
G01X625483Y-2152739D01*
G01X610021Y-2159653D01*
G01X595935Y-2169059D01*
G01X583622Y-2180690D01*
G01X573430Y-2194218D01*
G01X563239Y-2180690D01*
G01X550926Y-2169059D01*
G01X536840Y-2159653D01*
G01X521378Y-2152739D01*
G01X504977Y-2148510D01*
G01X488099Y-2147087D01*
G01X458102Y-2147087D01*
G01X441367Y-2148486D01*
G01X425097Y-2152643D01*
G01X409743Y-2159443D01*
G01X395730Y-2168698D01*
G01X388772Y-2146421D01*
G01X378103Y-2125664D01*
G01X364038Y-2107040D01*
G01X346992Y-2091100D01*
G01X327469Y-2078313D01*
G01X306044Y-2069057D01*
G01X283352Y-2063606D01*
G01X260061Y-2062120D01*
G01X236860Y-2064644D01*
G01X214433Y-2071103D01*
G01X193443Y-2081306D01*
G01X174510Y-2094952D01*
G01X158193Y-2111637D01*
G01X144973Y-2130871D01*
G01X135241Y-2152083D01*
G01X129285Y-2174648D01*
G01X127279Y-2197900D01*
G01X127279Y-2297900D01*
G01X99060Y-2297900D01*
G01X99060Y-1733766D01*
G01X919861Y-1733766D01*
G01X921772Y-1755613D01*
G01X927449Y-1776797D01*
G01X936717Y-1796673D01*
G01X949296Y-1814637D01*
G01X964803Y-1830145D01*
G01X982768Y-1842724D01*
G01X1002644Y-1851992D01*
G01X1023827Y-1857668D01*
G01X1045675Y-1859580D01*
G01X1265674Y-1859580D01*
G01X1287522Y-1857668D01*
G01X1308705Y-1851992D01*
G01X1328581Y-1842724D01*
G01X1346546Y-1830145D01*
G01X1362053Y-1814637D01*
G01X1374632Y-1796673D01*
G01X1383901Y-1776797D01*
G01X1389577Y-1755613D01*
G01X1391488Y-1733766D01*
G01X1389577Y-1711919D01*
G01X1383901Y-1690735D01*
G01X1374632Y-1670859D01*
G01X1362053Y-1652894D01*
G01X1346546Y-1637387D01*
G01X1328581Y-1624808D01*
G01X1308705Y-1615540D01*
G01X1287522Y-1609863D01*
G01X1265674Y-1607952D01*
G01X1265674Y-1607952D01*
G01X1045675Y-1607952D01*
G01X1023827Y-1609863D01*
G01X1002644Y-1615540D01*
G01X982768Y-1624808D01*
G01X964803Y-1637387D01*
G01X949296Y-1652894D01*
G01X936717Y-1670859D01*
G01X927449Y-1690735D01*
G01X921772Y-1711919D01*
G01X919861Y-1733766D01*
G01X99060Y-1733766D01*
G01X99060Y-1153434D01*
G01X729887Y-1153434D01*
G01X729887Y-1373434D01*
G01X731798Y-1395281D01*
G01X737474Y-1416465D01*
G01X746743Y-1436341D01*
G01X759322Y-1454305D01*
G01X774829Y-1469813D01*
G01X792794Y-1482392D01*
G01X812670Y-1491660D01*
G01X833853Y-1497336D01*
G01X855701Y-1499248D01*
G01X877548Y-1497336D01*
G01X898731Y-1491660D01*
G01X918608Y-1482392D01*
G01X936572Y-1469813D01*
G01X952080Y-1454305D01*
G01X964659Y-1436341D01*
G01X973927Y-1416465D01*
G01X979603Y-1395281D01*
G01X981514Y-1373434D01*
G01X981514Y-1373434D01*
G01X981514Y-1153434D01*
G01X980640Y-1143434D01*
G01X1329886Y-1143434D01*
G01X1329886Y-1383434D01*
G01X1331797Y-1405281D01*
G01X1337473Y-1426465D01*
G01X1346741Y-1446341D01*
G01X1359320Y-1464305D01*
G01X1374828Y-1479813D01*
G01X1392792Y-1492392D01*
G01X1412669Y-1501660D01*
G01X1433852Y-1507336D01*
G01X1455699Y-1509248D01*
G01X1477547Y-1507336D01*
G01X1498730Y-1501660D01*
G01X1518606Y-1492392D01*
G01X1536571Y-1479813D01*
G01X1552078Y-1464305D01*
G01X1564657Y-1446341D01*
G01X1573926Y-1426465D01*
G01X1579602Y-1405281D01*
G01X1581513Y-1383434D01*
G01X1581513Y-1344902D01*
G01X8005839Y-1344902D01*
G01X8007691Y-1369615D01*
G01X8013205Y-1393777D01*
G01X8022259Y-1416846D01*
G01X8034651Y-1438308D01*
G01X8050102Y-1457684D01*
G01X8068269Y-1474540D01*
G01X8088746Y-1488501D01*
G01X8111074Y-1499254D01*
G01X8134755Y-1506559D01*
G01X8159261Y-1510252D01*
G01X8184044Y-1510252D01*
G01X8208549Y-1506559D01*
G01X8232231Y-1499254D01*
G01X8254559Y-1488501D01*
G01X8275036Y-1474540D01*
G01X8293203Y-1457684D01*
G01X8308654Y-1438308D01*
G01X8321045Y-1416846D01*
G01X8330100Y-1393777D01*
G01X8335614Y-1369615D01*
G01X8337466Y-1344902D01*
G01X8336612Y-1333500D01*
G01X8482886Y-1333500D01*
G01X8484738Y-1358213D01*
G01X8490253Y-1382374D01*
G01X8499307Y-1405444D01*
G01X8511698Y-1426906D01*
G01X8527150Y-1446282D01*
G01X8545317Y-1463138D01*
G01X8565793Y-1477099D01*
G01X8588121Y-1487852D01*
G01X8611803Y-1495156D01*
G01X8636309Y-1498850D01*
G01X8661091Y-1498850D01*
G01X8685597Y-1495156D01*
G01X8709279Y-1487852D01*
G01X8731607Y-1477099D01*
G01X8752083Y-1463138D01*
G01X8770250Y-1446282D01*
G01X8785702Y-1426906D01*
G01X8798093Y-1405444D01*
G01X8807147Y-1382374D01*
G01X8812662Y-1358213D01*
G01X8814514Y-1333500D01*
G01X8812662Y-1308787D01*
G01X8807147Y-1284626D01*
G01X8798093Y-1261556D01*
G01X8785702Y-1240094D01*
G01X8770250Y-1220718D01*
G01X8752083Y-1203862D01*
G01X8731607Y-1189901D01*
G01X8709279Y-1179148D01*
G01X8685597Y-1171844D01*
G01X8661091Y-1168150D01*
G01X8636309Y-1168150D01*
G01X8611803Y-1171844D01*
G01X8588121Y-1179148D01*
G01X8565793Y-1189901D01*
G01X8545317Y-1203862D01*
G01X8527150Y-1220718D01*
G01X8511698Y-1240094D01*
G01X8499307Y-1261556D01*
G01X8490253Y-1284626D01*
G01X8484738Y-1308787D01*
G01X8482886Y-1333500D01*
G01X8482886Y-1333500D01*
G01X8336612Y-1333500D01*
G01X8335614Y-1320189D01*
G01X8330100Y-1296028D01*
G01X8321045Y-1272958D01*
G01X8308654Y-1251496D01*
G01X8293203Y-1232120D01*
G01X8275036Y-1215264D01*
G01X8254559Y-1201303D01*
G01X8232231Y-1190550D01*
G01X8208549Y-1183246D01*
G01X8184044Y-1179552D01*
G01X8159261Y-1179552D01*
G01X8134755Y-1183246D01*
G01X8111074Y-1190550D01*
G01X8088746Y-1201303D01*
G01X8068269Y-1215264D01*
G01X8050102Y-1232120D01*
G01X8034651Y-1251496D01*
G01X8022259Y-1272958D01*
G01X8013205Y-1296028D01*
G01X8007691Y-1320189D01*
G01X8005839Y-1344902D01*
G01X8005839Y-1344902D01*
G01X1581513Y-1344902D01*
G01X1581513Y-1143434D01*
G01X1579602Y-1121587D01*
G01X1573926Y-1100403D01*
G01X1564657Y-1080527D01*
G01X1552078Y-1062563D01*
G01X1536571Y-1047055D01*
G01X1518606Y-1034476D01*
G01X1498730Y-1025208D01*
G01X1477547Y-1019532D01*
G01X1455699Y-1017621D01*
G01X1433852Y-1019532D01*
G01X1412669Y-1025208D01*
G01X1392792Y-1034476D01*
G01X1374828Y-1047055D01*
G01X1359320Y-1062563D01*
G01X1346741Y-1080527D01*
G01X1337473Y-1100403D01*
G01X1331797Y-1121587D01*
G01X1329886Y-1143434D01*
G01X1329886Y-1143434D01*
G01X980640Y-1143434D01*
G01X979603Y-1131587D01*
G01X973927Y-1110403D01*
G01X964659Y-1090527D01*
G01X952080Y-1072563D01*
G01X936572Y-1057055D01*
G01X918608Y-1044476D01*
G01X898731Y-1035208D01*
G01X877548Y-1029532D01*
G01X855701Y-1027620D01*
G01X833853Y-1029532D01*
G01X812670Y-1035208D01*
G01X792794Y-1044476D01*
G01X774829Y-1057055D01*
G01X759322Y-1072563D01*
G01X746743Y-1090527D01*
G01X737474Y-1110403D01*
G01X731798Y-1131587D01*
G01X729887Y-1153434D01*
G01X99060Y-1153434D01*
G01X99060Y-340715D01*
G01X551186Y-340715D01*
G01X553150Y-369421D01*
G01X559004Y-397592D01*
G01X568639Y-424704D01*
G01X581876Y-450251D01*
G01X598469Y-473757D01*
G01X618108Y-494786D01*
G01X640428Y-512944D01*
G01X665012Y-527894D01*
G01X691403Y-539357D01*
G01X719109Y-547120D01*
G01X747614Y-551038D01*
G01X776386Y-551038D01*
G01X804891Y-547120D01*
G01X832597Y-539357D01*
G01X858988Y-527894D01*
G01X883572Y-512944D01*
G01X905892Y-494786D01*
G01X925531Y-473757D01*
G01X942124Y-450251D01*
G01X955361Y-424704D01*
G01X964996Y-397592D01*
G01X970850Y-369421D01*
G01X972814Y-340715D01*
G01X9669786Y-340715D01*
G01X9671750Y-369421D01*
G01X9677604Y-397592D01*
G01X9687239Y-424704D01*
G01X9700476Y-450251D01*
G01X9717069Y-473757D01*
G01X9736708Y-494786D01*
G01X9759028Y-512944D01*
G01X9783612Y-527894D01*
G01X9810003Y-539357D01*
G01X9837709Y-547120D01*
G01X9866214Y-551038D01*
G01X9894986Y-551038D01*
G01X9923491Y-547120D01*
G01X9951197Y-539357D01*
G01X9977588Y-527894D01*
G01X10002172Y-512944D01*
G01X10024492Y-494786D01*
G01X10044131Y-473757D01*
G01X10060724Y-450251D01*
G01X10073961Y-424704D01*
G01X10083596Y-397592D01*
G01X10089450Y-369421D01*
G01X10091414Y-340715D01*
G01X10089450Y-312009D01*
G01X10083596Y-283838D01*
G01X10073961Y-256727D01*
G01X10060724Y-231180D01*
G01X10044131Y-207673D01*
G01X10024492Y-186645D01*
G01X10002172Y-168486D01*
G01X9977588Y-153536D01*
G01X9951197Y-142073D01*
G01X9923491Y-134310D01*
G01X9894986Y-130393D01*
G01X9866214Y-130393D01*
G01X9837709Y-134310D01*
G01X9810003Y-142073D01*
G01X9783612Y-153536D01*
G01X9759028Y-168486D01*
G01X9736708Y-186645D01*
G01X9717069Y-207673D01*
G01X9700476Y-231180D01*
G01X9687239Y-256727D01*
G01X9677604Y-283838D01*
G01X9671750Y-312009D01*
G01X9669786Y-340715D01*
G01X9669786Y-340715D01*
G01X972814Y-340715D01*
G01X972814Y-340715D01*
G01X970850Y-312009D01*
G01X964996Y-283838D01*
G01X955361Y-256727D01*
G01X942124Y-231180D01*
G01X925531Y-207673D01*
G01X905892Y-186645D01*
G01X883572Y-168486D01*
G01X858988Y-153536D01*
G01X832597Y-142073D01*
G01X804891Y-134310D01*
G01X776386Y-130393D01*
G01X747614Y-130393D01*
G01X719109Y-134310D01*
G01X691403Y-142073D01*
G01X665012Y-153536D01*
G01X640428Y-168486D01*
G01X618108Y-186645D01*
G01X598469Y-207673D01*
G01X581876Y-231180D01*
G01X568639Y-256727D01*
G01X559004Y-283838D01*
G01X553150Y-312009D01*
G01X551186Y-340715D01*
G01X551186Y-340715D01*
G01X99060Y-340715D01*
G01X99060Y-60960D01*
G37*
G54D10*
G01X99060Y-60960D02*
G01X10464186Y-60960D01*
G01X10464186Y-6352540D01*
G01X99060Y-6352540D01*
G01X99060Y-60960D01*
G01X858101Y-2348713D02*
G01X888098Y-2348713D01*
G03X950470Y-2327102I0J100813D01*
G03X1218921Y-2297900I132637J29202D01*
G01X1218921Y-2197900D01*
G03X950470Y-2168698I-135814J0D01*
G03X888098Y-2147087I-62371J-79202D01*
G01X858101Y-2147087D01*
G03X773430Y-2193182I0J-100813D01*
G03X688759Y-2147087I-84671J-54718D01*
G01X658762Y-2147087D01*
G03X573430Y-2194218I0J-100813D01*
G03X488099Y-2147087I-85331J-53682D01*
G01X458102Y-2147087D01*
G03X395730Y-2168698I0J-100813D01*
G03X127279Y-2197900I-132637J-29202D01*
G01X127279Y-2297900D01*
G03X395730Y-2327102I135814J0D01*
G03X458102Y-2348713I62371J79202D01*
G01X488099Y-2348713D01*
G03X573430Y-2301582I0J100813D01*
G03X658762Y-2348713I85331J53682D01*
G01X688759Y-2348713D01*
G03X773430Y-2302618I0J100813D01*
G03X858101Y-2348713I84671J54718D01*
G01X551186Y-340715D02*
G03X972814Y-340715I210814J0D01*
G03X551186Y-340715I-210814J0D01*
G01X551186Y-6040715D02*
G03X972814Y-6040715I210814J0D01*
G03X551186Y-6040715I-210814J0D01*
G01X1424686Y-3934177D02*
G01X974105Y-3483595D01*
G03X939800Y-3469386I-34305J-34305D01*
G01X769110Y-3469386D01*
G03X657586Y-3517900I-45210J-48514D01*
G03X769110Y-3566414I66314J0D01*
G01X919705Y-3566414D01*
G01X1366286Y-4012995D01*
G01X1366286Y-4031490D01*
G03X1356138Y-4107624I48514J-45210D01*
G03X1424686Y-4142273I58662J30924D01*
G01X1424686Y-5372100D01*
G03X1438895Y-5406405I48514J0D01*
G01X1762527Y-5730036D01*
G03X1875691Y-5774591I66273J2336D01*
G03X1831136Y-5661427I-46891J46891D01*
G01X1521714Y-5352005D01*
G01X1521714Y-2318510D01*
G03X1473200Y-2206986I-48514J45210D01*
G03X1424686Y-2318510I0J-66314D01*
G01X1424686Y-3934177D01*
G01X981514Y-1373434D02*
G01X981514Y-1153434D01*
G03X729887Y-1153434I-125814J0D01*
G01X729887Y-1373434D01*
G03X981514Y-1373434I125814J0D01*
G01X1265674Y-1607952D02*
G01X1045675Y-1607952D01*
G03X1045675Y-1859580I0J-125814D01*
G01X1265674Y-1859580D01*
G03X1265674Y-1607952I0J125814D01*
G01X1329886Y-1143434D02*
G01X1329886Y-1383434D01*
G03X1581513Y-1383434I125814J0D01*
G01X1581513Y-1143434D01*
G03X1329886Y-1143434I-125814J0D01*
G01X2593086Y-5047490D02*
G03X2594709Y-5139591I48514J-45210D01*
G03X2686810Y-5141214I46891J46891D01*
G01X2914498Y-5141214D01*
G03X2948802Y-5127005I0J48514D01*
G01X2985180Y-5090627D01*
G03X3029735Y-4977463I-2336J66273D01*
G03X2916571Y-5022017I-46891J-46891D01*
G01X2894402Y-5044186D01*
G01X2690114Y-5044186D01*
G01X2690114Y-4902200D01*
G03X2675905Y-4867895I-48514J0D01*
G01X2580873Y-4772864D01*
G03X2467709Y-4728309I-66273J-2336D01*
G03X2512264Y-4841473I46891J-46891D01*
G01X2593086Y-4922295D01*
G01X2593086Y-5047490D01*
G01X3040890Y-2156714D02*
G03X3152414Y-2108200I45210J48514D01*
G03X3040890Y-2059686I-66314J0D01*
G01X2902710Y-2059686D01*
G03X2791186Y-2108200I-45210J-48514D01*
G03X2902710Y-2156714I66314J0D01*
G01X3040890Y-2156714D01*
G01X3193339Y-2881602D02*
G03X3524966Y-2881602I165814J0D01*
G03X3193339Y-2881602I-165814J0D01*
G01X4518386Y-3429000D02*
G03X4629910Y-3477514I66314J0D01*
G01X5934370Y-3477514D01*
G01X6015192Y-3558336D01*
G03X6128356Y-3602891I66273J2336D01*
G03X6083801Y-3489727I-46891J46891D01*
G01X5988769Y-3394695D01*
G03X5954465Y-3380486I-34305J-34305D01*
G01X4629910Y-3380486D01*
G03X4518386Y-3429000I-45210J-48514D01*
G01X6250686Y-3472690D02*
G03X6299200Y-3584214I48514J-45210D01*
G03X6347714Y-3472690I0J66314D01*
G01X6347714Y-3111500D01*
G03X6333505Y-3077195I-48514J0D01*
G01X6257305Y-3000995D01*
G03X6223000Y-2986786I-34305J-34305D01*
G01X6178446Y-2986786D01*
G03X6088026Y-2986786I-45210J-48514D01*
G01X4858510Y-2986786D01*
G03X4746986Y-3035300I-45210J-48514D01*
G03X4858510Y-3083814I66314J0D01*
G01X6088026Y-3083814D01*
G03X6178446Y-3083814I45210J48514D01*
G01X6202905Y-3083814D01*
G01X6250686Y-3131595D01*
G01X6250686Y-3472690D01*
G01X5983986Y-5367089D02*
G03X6000028Y-5486198I35814J-55811D01*
G03X6081014Y-5397397I19772J63298D01*
G01X6081014Y-4604510D01*
G03X6098490Y-4552751I-48514J45210D01*
G03X6149139Y-4480276I-15190J64551D01*
G03X6082741Y-4421888I-65839J-7924D01*
G03X6043964Y-4359256I-66275J2288D01*
G03X5971256Y-4371086I-27498J-60344D01*
G01X5544310Y-4371086D01*
G03X5465732Y-4362293I-45210J-48514D01*
G03X5434592Y-4434971I33368J-57307D01*
G03X5408521Y-4536340I26408J-60829D01*
G03X5513188Y-4536714I52479J40540D01*
G01X5970151Y-4536714D01*
G03X5983986Y-4604510I62349J-22586D01*
G01X5983986Y-5367089D01*
G01X6276086Y-5263105D02*
G01X6246064Y-5293127D01*
G03X6201509Y-5406291I2336J-66273D01*
G03X6314673Y-5361736I46891J46891D01*
G01X6358905Y-5317505D01*
G03X6373114Y-5283200I-34305J34305D01*
G01X6373114Y-4370791D01*
G03X6406634Y-4255627I-10414J65491D01*
G03X6296427Y-4302964I-43934J-49673D01*
G01X6290295Y-4309095D01*
G03X6276086Y-4343400I34305J-34305D01*
G01X6276086Y-5263105D01*
G01X6330239Y-5619201D02*
G03X6661866Y-5619201I165814J0D01*
G03X6330239Y-5619201I-165814J0D01*
G01X6563564Y-4899427D02*
G03X6499949Y-4972631I2336J-66273D01*
G03X6577393Y-5031011I65951J6931D01*
G03X6648237Y-5082529I64707J14511D01*
G03X6708373Y-5018836I-6137J66029D01*
G01X6988111Y-4739099D01*
G03X7061372Y-4776753I60389J27399D01*
G03X7114773Y-4714036I-12872J65053D01*
G01X7398795Y-4430014D01*
G01X8044405Y-4430014D01*
G01X8163327Y-4548936D01*
G03X8276491Y-4593491I66273J2336D01*
G03X8231936Y-4480327I-46891J46891D01*
G01X8098805Y-4347195D01*
G03X8064500Y-4332986I-34305J-34305D01*
G01X7378700Y-4332986D01*
G03X7344395Y-4347195I0J-48514D01*
G01X7136993Y-4554598D01*
G01X7136993Y-4539131D01*
G03X7126931Y-4439893I-48514J45210D01*
G03X7029872Y-4462892I-38452J-54028D01*
G03X6933495Y-4442025I-57572J-32908D01*
G03X6922924Y-4540067I38805J-53775D01*
G01X6563564Y-4899427D01*
G01X6888239Y-5112001D02*
G03X7219866Y-5112001I165814J0D01*
G03X6888239Y-5112001I-165814J0D01*
G01X7637539Y-3618202D02*
G03X7969166Y-3618202I165814J0D01*
G03X7637539Y-3618202I-165814J0D01*
G01X8005839Y-1344902D02*
G03X8337466Y-1344902I165814J0D01*
G03X8005839Y-1344902I-165814J0D01*
G01X8371636Y-2364973D02*
G03X8416191Y-2251809I-2336J66273D01*
G03X8303027Y-2296364I-46891J-46891D01*
G01X8174212Y-2425179D01*
G03X8155148Y-2544663I17288J-64021D01*
G03X8257102Y-2479507I36352J55463D01*
G01X8371636Y-2364973D01*
G01X8406686Y-2755900D02*
G03X8738314Y-2755900I165814J0D01*
G03X8406686Y-2755900I-165814J0D01*
G01X8482886Y-1333500D02*
G03X8814514Y-1333500I165814J0D01*
G03X8482886Y-1333500I-165814J0D01*
G01X8844039Y-2753002D02*
G03X9175666Y-2753002I165814J0D01*
G03X8844039Y-2753002I-165814J0D01*
G01X9009139Y-4834202D02*
G03X9340766Y-4834202I165814J0D01*
G03X9009139Y-4834202I-165814J0D01*
G01X9021839Y-5461000D02*
G03X9353466Y-5461000I165814J0D01*
G03X9021839Y-5461000I-165814J0D01*
G01X9669786Y-340715D02*
G03X10091414Y-340715I210814J0D01*
G03X9669786Y-340715I-210814J0D01*
G01X9669786Y-6040715D02*
G03X10091414Y-6040715I210814J0D01*
G03X9669786Y-6040715I-210814J0D01*
G54D11*
G01X762000Y-6040715D02*
G01X561346Y-6040715D01*
G01X762000Y-6040715D02*
G01X962654Y-6040715D01*
G01X762000Y-6040715D02*
G01X762000Y-5840061D01*
G01X762000Y-6040715D02*
G01X762000Y-6241369D01*
G01X762000Y-340715D02*
G01X561346Y-340715D01*
G01X762000Y-340715D02*
G01X962654Y-340715D01*
G01X762000Y-340715D02*
G01X762000Y-140061D01*
G01X762000Y-340715D02*
G01X762000Y-541369D01*
G01X3359153Y-2881602D02*
G01X3203499Y-2881602D01*
G01X3359153Y-2881602D02*
G01X3514806Y-2881602D01*
G01X3359153Y-2881602D02*
G01X3359153Y-2725948D01*
G01X3359153Y-2881602D02*
G01X3359153Y-3037256D01*
G01X7803352Y-3618202D02*
G01X7647699Y-3618202D01*
G01X7803352Y-3618202D02*
G01X7959006Y-3618202D01*
G01X7803352Y-3618202D02*
G01X7803352Y-3462548D01*
G01X7803352Y-3618202D02*
G01X7803352Y-3773856D01*
G01X855701Y-1263434D02*
G01X855701Y-1037780D01*
G01X855701Y-1263434D02*
G01X855701Y-1489088D01*
G01X855701Y-1263434D02*
G01X971354Y-1263434D01*
G01X855701Y-1263434D02*
G01X740047Y-1263434D01*
G01X1155675Y-1733766D02*
G01X930021Y-1733766D01*
G01X1155675Y-1733766D02*
G01X1381328Y-1733766D01*
G01X1155675Y-1733766D02*
G01X1155675Y-1618112D01*
G01X1155675Y-1733766D02*
G01X1155675Y-1849420D01*
G01X873100Y-2247900D02*
G01X873100Y-2157247D01*
G01X873100Y-2247900D02*
G01X873100Y-2338553D01*
G01X9880600Y-6040715D02*
G01X9679946Y-6040715D01*
G01X9880600Y-6040715D02*
G01X10081254Y-6040715D01*
G01X9880600Y-6040715D02*
G01X9880600Y-5840061D01*
G01X9880600Y-6040715D02*
G01X9880600Y-6241369D01*
G01X9880600Y-340715D02*
G01X9679946Y-340715D01*
G01X9880600Y-340715D02*
G01X10081254Y-340715D01*
G01X9880600Y-340715D02*
G01X9880600Y-140061D01*
G01X9880600Y-340715D02*
G01X9880600Y-541369D01*
G04 Copper End*

G04 Pad Start*
G54D12*
G01X762000Y-340715D03*
G01X762000Y-6040715D03*
G01X9880600Y-6040715D03*
G01X9880600Y-340715D03*
G54D13*
G01X873100Y-2247900D03*
G01X473100Y-2247900D03*
G01X673760Y-2247900D03*
G54D14*
G01X263093Y-2247900D03*
G01X1083107Y-2247900D03*
G54D15*
G01X8171652Y-1344902D03*
G01X9009852Y-2753002D03*
G01X9174952Y-4834202D03*
G01X7054052Y-5112001D03*
G01X8648700Y-1333500D03*
G01X8572500Y-2755900D03*
G01X9187652Y-5461000D03*
G01X6496053Y-5619201D03*
G01X3359153Y-2881602D03*
G01X7803352Y-3618202D03*
G54D16*
G01X1455699Y-1263434D03*
G54D17*
G01X855701Y-1263434D03*
G54D19*
G01X1155675Y-1733766D03*
G04 Pad End*

G04 Via Start*
G54D20*
G01X8206411Y-608477D03*
G01X8206411Y-428477D03*
G01X8204200Y-788477D03*
G01X3962400Y-1905000D03*
G01X4699000Y-2133600D03*
G01X9714423Y-2451100D03*
G01X10074423Y-2453311D03*
G01X9894423Y-2453311D03*
G01X9714423Y-4660900D03*
G01X10074423Y-4663111D03*
G01X9894423Y-4663111D03*
G01X7429500Y-5764723D03*
G01X7427289Y-6124723D03*
G01X7427289Y-5944723D03*
G01X6167500Y-1345095D03*
G01X5954100Y-1345095D03*
G01X6380900Y-1347305D03*
G01X6167500Y-1702905D03*
G01X6380900Y-1702905D03*
G01X5954100Y-1700695D03*
G01X6167500Y-699605D03*
G01X6380900Y-699605D03*
G01X5954100Y-697395D03*
G01X5918956Y-3989484D03*
G01X6098956Y-3989484D03*
G01X5738956Y-3989484D03*
G01X7835900Y-5334000D03*
G01X3759200Y-5123104D03*
G01X4408858Y-4091000D03*
G01X4597400Y-5039248D03*
G01X3683115Y-5848617D03*
G01X4419600Y-5956300D03*
G01X2982844Y-5024354D03*
G01X2641600Y-5092700D03*
G01X3657600Y-4414054D03*
G01X3124196Y-5427353D03*
G01X3086100Y-2108200D03*
G01X2857500Y-2108200D03*
G01X6858000Y-3987800D03*
G01X6016466Y-4419600D03*
G01X6083300Y-4488200D03*
G01X6081465Y-3556000D03*
G01X5880100Y-3543300D03*
G01X5854700Y-3172407D03*
G01X6133236Y-3035300D03*
G01X6299200Y-3517900D03*
G01X4813300Y-3035300D03*
G01X9271000Y-2006600D03*
G01X9271000Y-4267200D03*
G01X3893937Y-4940300D03*
G01X6032500Y-4559300D03*
G01X6565900Y-4965700D03*
G01X6972300Y-4495800D03*
G01X8191500Y-2489200D03*
G01X8369300Y-2298700D03*
G01X6642100Y-5016500D03*
G01X7088479Y-4493921D03*
G01X7048500Y-4711700D03*
G01X8229600Y-4546600D03*
G01X7785100Y-1803400D03*
G01X7772400Y-1346200D03*
G01X8826500Y-1955800D03*
G01X5461000Y-4495800D03*
G01X5499100Y-4419600D03*
G01X4584700Y-3429000D03*
G01X5048098Y-3632556D03*
G01X2514600Y-4775200D03*
G01X6019800Y-5422900D03*
G01X6248400Y-5359400D03*
G01X6362700Y-4305300D03*
G01X1473200Y-2273300D03*
G01X1828800Y-5727700D03*
G01X571500Y-3530600D03*
G01X1414800Y-4076700D03*
G01X723900Y-3517900D03*
G01X6629400Y-4660900D03*
G01X8828613Y-4210550D03*
G01X7890528Y-4880872D03*
G01X4838700Y-3149600D03*
G01X5448300Y-4165600D03*
G01X6184900Y-3263900D03*
G01X3314700Y-2273300D03*
G01X2400300Y-692150D03*
G01X2588300Y-692150D03*
G01X2776300Y-692150D03*
G01X6167100Y-1981200D03*
G01X6380500Y-1981200D03*
G01X6167100Y-2247900D03*
G01X6380500Y-2247900D03*
G01X2402800Y-844550D03*
G01X2590800Y-844550D03*
G01X2778800Y-844550D03*
G01X3368000Y-850900D03*
G01X3365500Y-698500D03*
G54D21*
G01X5711711Y-2933901D03*
G01X5610111Y-2933901D03*
G01X5711711Y-2857701D03*
G01X5610111Y-2857701D03*
G04 Via End*

G04 Track Start*
G54D11*
G01X2982844Y-5024354D02*
G01X2914498Y-5092700D01*
G01X2641600Y-5092700D01*
G01X3086100Y-2108200D02*
G01X2857500Y-2108200D01*
G01X4813300Y-3035300D02*
G01X6133236Y-3035300D01*
G01X6565900Y-4965700D02*
G01X6972300Y-4559300D01*
G01X6972300Y-4495800D01*
G01X6642100Y-5016500D02*
G01X7088479Y-4570121D01*
G01X7088479Y-4493921D01*
G01X5461000Y-4495800D02*
G01X5468600Y-4488200D01*
G01X6083300Y-4488200D01*
G01X6016466Y-4419600D02*
G01X5499100Y-4419600D01*
G01X6324600Y-4343400D02*
G01X6362700Y-4305300D01*
G01X6248400Y-5359400D02*
G01X6324600Y-5283200D01*
G01X6324600Y-4343400D01*
G01X2641600Y-4902200D02*
G01X2641600Y-5092700D01*
G01X2514600Y-4775200D02*
G01X2641600Y-4902200D01*
G01X1414800Y-4076700D02*
G01X1414800Y-3992900D01*
G01X939800Y-3517900D01*
G01X723900Y-3517900D01*
G01X8229600Y-4546600D02*
G01X8064500Y-4381500D01*
G01X6133236Y-3035300D02*
G01X6223000Y-3035300D01*
G01X6299200Y-3111500D01*
G01X6299200Y-3517900D01*
G01X6019800Y-5422900D02*
G01X6032500Y-5410200D01*
G01X6032500Y-4559300D01*
G01X1473200Y-2273300D02*
G01X1473200Y-5372100D01*
G01X1828800Y-5727700D01*
G01X8064500Y-4381500D02*
G01X7378700Y-4381500D01*
G01X7048500Y-4711700D01*
G01X8191500Y-2489200D02*
G01X8191500Y-2476500D01*
G01X8369300Y-2298700D01*
G01X4584700Y-3429000D02*
G01X5954465Y-3429000D01*
G01X6081465Y-3556000D01*
G04 Track End*

M02*

